<?xml version="1.0" encoding="UTF-8" standalone="no"?>
<!DOCTYPE svg PUBLIC "-//W3C//DTD SVG 1.1//EN" "http://www.w3.org/Graphics/SVG/1.1/DTD/svg11.dtd">
<svg width="100%" height="100%" viewBox="0 0 239 69" version="1.1" xmlns="http://www.w3.org/2000/svg" xmlns:xlink="http://www.w3.org/1999/xlink" xml:space="preserve" xmlns:serif="http://www.serif.com/" style="fill-rule:evenodd;clip-rule:evenodd;stroke-linejoin:round;stroke-miterlimit:2;">
    <g id="Mesa-de-trabajo1" serif:id="Mesa de trabajo1" transform="matrix(0.233355,0,0,0.114446,0,0)">
        <rect x="0" y="0" width="1024" height="600" style="fill:none;"/>
        <g>
            <g transform="matrix(251.414,0,0,512.63,37.3311,476.345)">
                <path d="M0.229,-0L0.229,-0.249L0.521,-0.249L0.521,-0.395L0.229,-0.395L0.229,-0.554L0.571,-0.554L0.571,-0.7L0.05,-0.7L0.05,-0L0.229,-0Z" style="fill-rule:nonzero;"/>
            </g>
            <g transform="matrix(251.414,0,0,512.63,169.072,476.345)">
                <path d="M0.664,-0L0.439,-0.7L0.227,-0.7L0.002,-0L0.172,-0L0.215,-0.142L0.443,-0.142L0.486,-0L0.664,-0ZM0.254,-0.271L0.328,-0.517L0.403,-0.271L0.254,-0.271Z" style="fill-rule:nonzero;"/>
            </g>
            <g transform="matrix(251.414,0,0,512.63,336.513,476.345)">
                <path d="M0.602,-0.198C0.602,-0.279 0.553,-0.339 0.466,-0.362C0.538,-0.387 0.582,-0.446 0.582,-0.518C0.582,-0.631 0.494,-0.7 0.349,-0.7L0.05,-0.7L0.05,-0L0.35,-0C0.502,-0 0.602,-0.078 0.602,-0.198ZM0.229,-0.409L0.229,-0.574L0.304,-0.574C0.368,-0.574 0.403,-0.545 0.403,-0.494C0.403,-0.438 0.368,-0.409 0.304,-0.409L0.229,-0.409ZM0.229,-0.301L0.314,-0.301C0.381,-0.301 0.419,-0.27 0.419,-0.214C0.419,-0.159 0.381,-0.126 0.317,-0.126L0.229,-0.126L0.229,-0.301Z" style="fill-rule:nonzero;"/>
            </g>
            <g transform="matrix(251.414,0,0,512.63,492.893,476.345)">
                <path d="M0.347,-0.134C0.267,-0.134 0.224,-0.173 0.224,-0.249L0.224,-0.7L0.045,-0.7L0.045,-0.239C0.045,-0.082 0.146,0.012 0.338,0.012C0.53,0.012 0.645,-0.085 0.645,-0.24L0.645,-0.7L0.472,-0.7L0.472,-0.249C0.472,-0.173 0.427,-0.134 0.347,-0.134Z" style="fill-rule:nonzero;"/>
            </g>
            <g transform="matrix(251.414,0,0,512.63,666.368,476.345)">
                <path d="M0.541,-0.146L0.229,-0.146L0.229,-0.7L0.05,-0.7L0.05,-0L0.541,-0L0.541,-0.146Z" style="fill-rule:nonzero;"/>
            </g>
            <g transform="matrix(251.414,0,0,512.63,805.148,476.345)">
                <path d="M0.664,-0L0.439,-0.7L0.227,-0.7L0.002,-0L0.172,-0L0.215,-0.142L0.443,-0.142L0.486,-0L0.664,-0ZM0.254,-0.271L0.328,-0.517L0.403,-0.271L0.254,-0.271Z" style="fill-rule:nonzero;"/>
            </g>
        </g>
    </g>
</svg>
