<?xml version="1.0" standalone="no"?>
<!DOCTYPE svg PUBLIC "-//W3C//DTD SVG 1.1//EN" "http://www.w3.org/Graphics/SVG/1.1/DTD/svg11.dtd" >
<svg xmlns="http://www.w3.org/2000/svg" xmlns:xlink="http://www.w3.org/1999/xlink" version="1.1">
<metadata>
Created by FontForge 20170731 at Tue Oct 20 19:14:11 2020
 By Aleksey,,,
Copyright (c) 2018 by Henrik Kubel A2-TYPE London. All rights reserved.
</metadata>
<defs>
<font id="Schwiss-Negrito" horiz-adv-x="1120" >
  <font-face 
    font-family="Schwiss"
    font-weight="700"
    font-stretch="normal"
    units-per-em="2048"
    panose-1="0 0 5 6 4 0 0 2 0 3"
    ascent="1536"
    descent="-512"
    x-height="1059"
    cap-height="1434"
    bbox="-471 -504 2335 2001"
    underline-thickness="0"
    underline-position="0"
    unicode-range="U+0020-F6C3"
  />
<missing-glyph horiz-adv-x="1404" 
d="M1223 1434v-1434h-1041v1434h1041zM324 1354l378 -566l377 566h-755zM274 150l377 567l-377 567v-1134zM1126 156v1122l-376 -561zM324 78h757l-379 565z" />
    <glyph glyph-name=".notdef" horiz-adv-x="1404" 
d="M1223 1434v-1434h-1041v1434h1041zM324 1354l378 -566l377 566h-755zM274 150l377 567l-377 567v-1134zM1126 156v1122l-376 -561zM324 78h757l-379 565z" />
    <glyph glyph-name=".null" horiz-adv-x="0" 
 />
    <glyph glyph-name="nonmarkingreturn" horiz-adv-x="317" 
 />
    <glyph glyph-name="space" unicode=" " horiz-adv-x="317" 
 />
    <glyph glyph-name="exclam" unicode="!" horiz-adv-x="555" 
d="M70 1434h415l-65 -961h-285zM459 0h-363v362h363v-362z" />
    <glyph glyph-name="quotedbl" unicode="&#x22;" horiz-adv-x="780" 
d="M338 819h-264v615h264v-615zM707 819h-265v615h265v-615z" />
    <glyph glyph-name="numbersign" unicode="#" horiz-adv-x="1216" 
d="M342 0h-156l82 440h-225v144h252l47 266h-299v143h326l82 441h155l-82 -441h264l82 441h158l-82 -441h228v-143h-254l-48 -266h302v-144h-328l-82 -440h-158l82 440h-264zM451 584h264l47 266h-264z" />
    <glyph glyph-name="dollar" unicode="$" horiz-adv-x="1259" 
d="M705 -236h-134v213q-255 10 -390.5 134t-133.5 340h371q-10 -156 153 -189v299l-149 41q-81 22 -142.5 53.5t-109.5 79t-73 115.5t-25 156q0 184 131.5 307t367.5 143v166h134v-166q235 -12 362 -127t123 -311h-350q0 63 -34 105t-101 55v-297l126 -33q67 -17 120 -38
t105.5 -55t87 -77t56 -106t21.5 -140q0 -193 -135.5 -313t-380.5 -139v-216zM430 1051q0 -54 33.5 -84.5t107.5 -51.5v267q-70 -12 -105.5 -47t-35.5 -84zM842 391q0 53 -31 82t-106 53v-266q67 10 102 44.5t35 86.5z" />
    <glyph glyph-name="percent" unicode="%" horiz-adv-x="1564" 
d="M1065 369q0 -34 5 -65.5t17.5 -64.5t38.5 -53t62 -20t62 20t38.5 52.5t17.5 64.5t5 66q0 35 -5 66.5t-17 64.5t-38 53t-63 20t-63 -20t-38 -53t-17 -64.5t-5 -66.5zM498 1067q0 35 -5 67t-17 64.5t-38 52t-63 19.5t-63 -19.5t-38 -52.5t-17 -64.5t-5 -66.5q0 -34 5 -65.5
t17.5 -64.5t38.5 -53t62 -20q37 0 63 19.5t38 52.5t17 64.5t5 66.5zM711 1067q0 -109 -35 -195.5t-112.5 -141t-188.5 -54.5q-84 0 -149 31t-105 85.5t-60 124t-20 150.5t20 150.5t60 124t105 85.5t149 31q111 0 188.5 -54.5t112.5 -141t35 -195.5zM305 0h-201l1156 1434
h200zM854 369q0 82 20 151.5t60 123.5t105 85t149 31q165 0 250.5 -110.5t85.5 -280.5q0 -81 -20.5 -150.5t-60.5 -124t-105.5 -86t-149.5 -31.5t-149 31.5t-105 86t-60 124t-20 150.5z" />
    <glyph glyph-name="ampersand" unicode="&#x26;" horiz-adv-x="1423" 
d="M1042 0l-94 109q-186 -140 -430 -140q-116 0 -208 33t-147 88t-83.5 121t-28.5 137q0 143 80 248t227 190q-118 146 -118 306q0 70 27 135t78.5 119t137 86t191.5 32q104 0 184 -29t126.5 -78.5t69.5 -109t23 -125.5q0 -111 -63 -202t-201 -177l168 -194q71 124 109 248
h301q-12 -81 -79 -219.5t-147 -241.5l293 -336h-416zM676 913q55 36 96 89t41 108q0 57 -34 85t-85 28q-52 0 -85.5 -31.5t-33.5 -89.5q0 -81 101 -189zM393 401q0 -73 51 -120.5t129 -47.5q119 0 203 72l-262 299q-121 -92 -121 -203z" />
    <glyph glyph-name="quotesingle" unicode="'" horiz-adv-x="411" 
d="M338 819h-264v615h264v-615z" />
    <glyph glyph-name="parenleft" unicode="(" horiz-adv-x="686" 
d="M41 606v27q0 203 67 390.5t204 340t325 229.5v-301q-95 -86 -169.5 -261.5t-74.5 -393.5v-35q0 -218 74.5 -393.5t169.5 -261.5v-301q-188 77 -325 229.5t-204 340t-67 390.5z" />
    <glyph glyph-name="parenright" unicode=")" horiz-adv-x="684" 
d="M49 -354v301q95 86 169.5 261.5t74.5 393.5v35q0 218 -74.5 393.5t-169.5 261.5v301q188 -77 324.5 -229.5t203 -340t66.5 -390.5v-27q0 -203 -66.5 -390.5t-203 -340t-324.5 -229.5z" />
    <glyph glyph-name="asterisk" unicode="*" horiz-adv-x="706" 
d="M317 1104l-278 113l80 122l219 -198l-59 293h151l-63 -293l221 198l80 -122l-275 -113l275 -117l-80 -123l-221 205l63 -299h-151l59 299l-219 -205l-80 123z" />
    <glyph glyph-name="plus" unicode="+" horiz-adv-x="954" 
d="M41 578v258h301v321h270v-321h303v-258h-303v-322h-270v322h-301z" />
    <glyph glyph-name="comma" unicode="," horiz-adv-x="495" 
d="M238 -266h-170l190 266h-190v362h360v-362z" />
    <glyph glyph-name="hyphen" unicode="-" horiz-adv-x="624" 
d="M80 369v295h465v-295h-465z" />
    <glyph glyph-name="period" unicode="." horiz-adv-x="497" 
d="M430 0h-362v362h362v-362z" />
    <glyph glyph-name="slash" unicode="/" horiz-adv-x="899" 
d="M877 1434l-652 -1719h-202l649 1719h205z" />
    <glyph glyph-name="zero" unicode="0" horiz-adv-x="1220" 
d="M610 -25q-262 0 -407.5 197t-145.5 545t145 544.5t408 196.5t408 -196.5t145 -544.5t-145.5 -545t-407.5 -197zM610 274q207 0 207 443q0 226 -50.5 334t-156.5 108q-209 0 -209 -442q0 -443 209 -443z" />
    <glyph glyph-name="one" unicode="1" horiz-adv-x="718" 
d="M616 0h-344v1042q-83 -45 -245 -45v256q139 -4 224.5 49t119.5 132h245v-1434z" />
    <glyph glyph-name="two" unicode="2" horiz-adv-x="1150" 
d="M1087 293v-293h-1021v250q335 218 497 398t162 337q0 80 -46 129t-124 49q-85 0 -129.5 -52t-44.5 -146q0 -61 12 -103h-334q-8 52 -8 117q0 225 138.5 352t392.5 127q224 0 357.5 -118.5t133.5 -323.5q0 -398 -543 -723h557z" />
    <glyph glyph-name="three" unicode="3" horiz-adv-x="1165" 
d="M389 997h-323q0 207 141.5 334t388.5 127q225 0 359.5 -109t134.5 -290q0 -118 -62.5 -204.5t-173.5 -121.5q117 -37 185.5 -120.5t68.5 -206.5q0 -194 -144.5 -312.5t-392.5 -118.5q-267 0 -403.5 123t-128.5 353h338q0 -93 50 -144t142 -51q87 0 138 45t51 123
q0 80 -56 126t-155 46h-84v242h86q99 0 155 48t56 134q0 72 -51.5 118t-133.5 46q-88 0 -137 -49.5t-49 -137.5z" />
    <glyph glyph-name="four" unicode="4" horiz-adv-x="1179" 
d="M27 582l532 852h410v-881h159v-252h-159v-301h-334v301h-608v281zM295 553h340v551z" />
    <glyph glyph-name="five" unicode="5" horiz-adv-x="1159" 
d="M406 592l-306 14l13 828h921v-295h-633l-4 -303q109 100 287 100q197 0 318.5 -125.5t121.5 -327.5q0 -232 -148 -370t-396 -138q-258 0 -397.5 122.5t-131.5 342.5h342q0 -92 48.5 -140t140.5 -48q86 0 138 57t52 154q0 99 -53.5 157t-145.5 58q-106 0 -167 -86z" />
    <glyph glyph-name="six" unicode="6" horiz-adv-x="1224" 
d="M1169 481q0 -229 -146.5 -367.5t-387.5 -138.5q-276 0 -426 179t-150 510v34q0 364 148 562t440 198q231 0 366.5 -117.5t135.5 -314.5h-338q-5 74 -49 116t-121 42q-106 0 -164.5 -97t-58.5 -286v-39q50 73 136 115.5t185 42.5q192 0 311 -122t119 -317zM807 463
q0 99 -48 158t-132 59q-85 0 -131.5 -58t-46.5 -159q0 -99 48 -156t132 -57q82 0 130 57.5t48 155.5z" />
    <glyph glyph-name="seven" unicode="7" horiz-adv-x="1067" 
d="M27 1139v295h1005v-263l-526 -1171h-371l543 1139h-651z" />
    <glyph glyph-name="eight" unicode="8" horiz-adv-x="1187" 
d="M889 717q116 -45 180 -131.5t64 -202.5q0 -176 -144.5 -292t-394.5 -116t-393.5 115.5t-143.5 292.5q0 116 64 202.5t180 131.5q-105 42 -164 129t-59 205q0 174 137.5 290.5t378.5 116.5t379.5 -117t138.5 -290q0 -118 -59 -205t-164 -129zM594 1200q-84 0 -134 -46
t-50 -122q0 -79 49 -125.5t135 -46.5t136 47t50 125q0 76 -50.5 122t-135.5 46zM594 242q86 0 138 49t52 127q0 82 -52 130t-138 48t-137 -49t-51 -129q0 -79 51 -127.5t137 -48.5z" />
    <glyph glyph-name="nine" unicode="9" horiz-adv-x="1224" 
d="M53 952q0 229 146.5 367.5t388.5 138.5q276 0 426.5 -178.5t150.5 -509.5v-35q0 -365 -148 -562.5t-442 -197.5q-229 0 -364 118t-135 315h338q5 -74 49 -116t119 -42q106 0 164.5 97t58.5 286v41q-48 -73 -134 -116.5t-188 -43.5q-192 0 -311 121.5t-119 316.5zM418 971
q0 -99 47 -158t131 -59q85 0 132.5 58t47.5 159q0 98 -48.5 155.5t-133.5 57.5q-82 0 -129 -57.5t-47 -155.5z" />
    <glyph glyph-name="colon" unicode=":" horiz-adv-x="518" 
d="M440 696h-362v363h362v-363zM440 -2h-362v362h362v-362z" />
    <glyph glyph-name="semicolon" unicode=";" horiz-adv-x="518" 
d="M440 696h-362v363h362v-363zM250 -266h-170l190 266h-190v362h360v-362z" />
    <glyph glyph-name="less" unicode="&#x3c;" horiz-adv-x="1001" 
d="M913 512v-299l-874 367v254l874 366v-299l-520 -194z" />
    <glyph glyph-name="equal" unicode="=" horiz-adv-x="1040" 
d="M84 778v258h874v-258h-874zM84 379v258h874v-258h-874z" />
    <glyph glyph-name="greater" unicode="&#x3e;" horiz-adv-x="1001" 
d="M88 512l518 195l-518 194v299l875 -366v-254l-875 -367v299z" />
    <glyph glyph-name="question" unicode="?" horiz-adv-x="1030" 
d="M348 1016v-55h-313v77q0 194 125.5 307t361.5 113q218 0 340.5 -106t122.5 -281q0 -101 -40 -178.5t-111 -159.5q-14 -16 -44 -48t-44 -49t-32.5 -41.5t-26 -46t-7.5 -42.5v-33h-336v39q0 62 28 124t67.5 112.5t79 98.5t67.5 98.5t28 94.5q0 57 -34 89t-91 32
q-68 0 -104.5 -37t-36.5 -108zM694 0h-362v362h362v-362z" />
    <glyph glyph-name="at" unicode="@" horiz-adv-x="1716" 
d="M1430 14l16 -170q-232 -155 -590 -155q-181 0 -332.5 59t-258 164t-165.5 256t-59 330q0 192 66 358.5t183 285.5t284 187t362 68q230 0 406 -93t270 -256.5t94 -371.5q0 -165 -58 -301.5t-162 -216t-233 -82.5q-108 0 -175.5 50t-86.5 138q-41 -92 -113.5 -140
t-166.5 -48q-137 0 -218 103t-81 276q0 238 115 396.5t286 158.5q173 0 225 -168l21 143h284q-18 -143 -41 -298.5t-31.5 -223t-8.5 -111.5q0 -92 67 -92q81 0 142 122t61 284q0 253 -166.5 411t-431.5 158q-202 0 -361 -92.5t-247 -258t-88 -376.5q0 -304 177 -479.5
t480 -175.5q147 0 291.5 43.5t243.5 117.5zM723 477q0 -81 27.5 -127.5t74.5 -46.5q71 0 121.5 98.5t50.5 231.5q0 72 -29 113.5t-79 41.5q-74 0 -120 -86t-46 -225z" />
    <glyph glyph-name="A" unicode="A" horiz-adv-x="1363" 
d="M1360 0h-365l-88 291h-467l-88 -291h-348l461 1434h434zM520 555h305l-153 504z" />
    <glyph glyph-name="B" unicode="B" horiz-adv-x="1273" 
d="M1233 406q0 -184 -141 -295t-375 -111h-615v1434h613q222 0 349.5 -100t127.5 -273q0 -110 -64 -196t-174 -124q133 -35 206 -122.5t73 -212.5zM469 838h154q99 0 150.5 44t51.5 130q0 78 -52 121t-150 43h-154v-338zM469 616v-358h180q98 0 153.5 47.5t55.5 132.5
q0 86 -56 132t-159 46h-174z" />
    <glyph glyph-name="C" unicode="C" horiz-adv-x="1462" 
d="M1421 848h-350q-11 139 -94.5 223t-222.5 84q-159 0 -245.5 -119.5t-86.5 -320.5q0 -199 86 -317.5t246 -118.5q143 0 224.5 83t92.5 224h350q-6 -135 -53.5 -247t-131.5 -193t-209 -126t-279 -45q-168 0 -301.5 55t-220 154t-132 234t-45.5 297q0 160 47.5 296
t136.5 235.5t224 155.5t301 56q154 0 277.5 -44.5t205.5 -125.5t128 -192.5t52 -247.5z" />
    <glyph glyph-name="D" unicode="D" horiz-adv-x="1468" 
d="M102 0v1434h578q339 0 539 -193.5t200 -523.5q0 -328 -200.5 -522.5t-538.5 -194.5h-578zM469 293h184q182 0 288 116t106 308q0 196 -108.5 310t-299.5 114h-170v-848z" />
    <glyph glyph-name="E" unicode="E" horiz-adv-x="1241" 
d="M1182 299v-299h-1080v1434h1080v-299h-713v-267h610v-293h-610v-276h713z" />
    <glyph glyph-name="F" unicode="F" horiz-adv-x="1204" 
d="M469 0h-367v1434h1067v-299h-700v-326h598v-299h-598v-510z" />
    <glyph glyph-name="G" unicode="G" horiz-adv-x="1517" 
d="M1120 0v172q-125 -197 -424 -197q-194 0 -341.5 91.5t-226.5 255t-79 374.5q0 226 92 399.5t257.5 268t379.5 94.5q305 0 487 -160t189 -438h-352q-10 141 -95 218t-223 77q-166 0 -264 -120.5t-98 -332.5q0 -204 95 -322t259 -118q129 0 212 61.5t106 174.5h-361v252
h705v-750h-318z" />
    <glyph glyph-name="H" unicode="H" horiz-adv-x="1429" 
d="M102 1434h367v-566h492v566h366v-1434h-366v575h-492v-575h-367v1434z" />
    <glyph glyph-name="I" unicode="I" horiz-adv-x="571" 
d="M102 1434h367v-1434h-367v1434z" />
    <glyph glyph-name="J" unicode="J" horiz-adv-x="1097" 
d="M504 -25q-126 0 -220 30.5t-149 85t-81.5 122.5t-26.5 149v162h331v-118q0 -144 142 -144q145 0 145 144v1028h359v-1026q0 -202 -128.5 -317.5t-371.5 -115.5z" />
    <glyph glyph-name="K" unicode="K" horiz-adv-x="1370" 
d="M102 1434h367v-578l487 578h404l-535 -588l590 -846h-446l-396 569l-104 -114v-455h-367v1434z" />
    <glyph glyph-name="L" unicode="L" horiz-adv-x="1130" 
d="M1108 299v-299h-1006v1434h367v-1135h639z" />
    <glyph glyph-name="M" unicode="M" horiz-adv-x="1738" 
d="M963 0h-207l-307 1032v-1032h-347v1434h531l235 -875l265 875h503v-1434h-366v1032z" />
    <glyph glyph-name="N" unicode="N" horiz-adv-x="1449" 
d="M989 0l-528 887v-887h-359v1434h412l475 -809v809h359v-1434h-359z" />
    <glyph glyph-name="O" unicode="O" horiz-adv-x="1497" 
d="M1448 717q0 -160 -46.5 -295.5t-133.5 -235t-220 -155.5t-298 -56q-166 0 -299.5 56t-221 155.5t-134 235t-46.5 295.5q0 214 80 380t240.5 263.5t380.5 97.5q165 0 298 -56t220 -155.5t133.5 -234.5t46.5 -295zM1075 717q0 201 -83.5 319.5t-241.5 118.5
q-160 0 -244 -118.5t-84 -319.5t84 -319.5t244 -118.5t242.5 118t82.5 320z" />
    <glyph glyph-name="P" unicode="P" horiz-adv-x="1241" 
d="M647 465h-178v-465h-367v1434h574q244 0 388 -131.5t144 -354.5q0 -217 -154 -350t-407 -133zM469 756h145q106 0 165 50t59 142t-59 143.5t-165 51.5h-145v-387z" />
    <glyph glyph-name="Q" unicode="Q" horiz-adv-x="1507" 
d="M1503 143v-276q-338 -6 -551 133q-98 -25 -202 -25q-166 0 -299.5 56t-221 155.5t-134 235t-46.5 295.5q0 214 80 380t240.5 263.5t380.5 97.5q165 0 298 -56t220 -155.5t133.5 -234.5t46.5 -295q0 -338 -191 -541q115 -36 246 -33zM1075 717q0 201 -83.5 319.5
t-241.5 118.5q-160 0 -244 -118.5t-84 -319.5t84 -319.5t244 -118.5t242.5 118t82.5 320z" />
    <glyph glyph-name="R" unicode="R" horiz-adv-x="1357" 
d="M469 518v-518h-367v1434h678q228 0 369 -108t141 -298q0 -143 -80 -240t-204 -131q110 -41 161.5 -116t73.5 -199l33 -170q6 -41 19.5 -76.5t22.5 -51.5t27 -44h-366q-44 55 -68 180l-24 129q-21 127 -86 168t-158 41h-172zM469 770h223q105 0 165.5 50t60.5 145
q0 92 -59.5 143t-164.5 51h-225v-389z" />
    <glyph glyph-name="S" unicode="S" horiz-adv-x="1253" 
d="M612 -25q-275 0 -424 126t-147 350h371q-6 -93 50.5 -144t176.5 -51q95 0 146 36t51 99q0 59 -38 89.5t-130 54.5l-252 67q-81 22 -142.5 53.5t-109.5 79t-73 115.5t-25 156q0 198 153 325t422 127q263 0 405.5 -116t137.5 -324h-350q0 78 -52 123t-157 45
q-96 0 -148.5 -38t-52.5 -97q0 -54 35 -84t116 -54l250 -65q67 -17 120 -38t105 -55t86.5 -77t56 -106t21.5 -140q0 -209 -160.5 -333t-441.5 -124z" />
    <glyph glyph-name="T" unicode="T" horiz-adv-x="1226" 
d="M1204 1135h-407v-1135h-367v1135h-407v299h1181v-299z" />
    <glyph glyph-name="U" unicode="U" horiz-adv-x="1413" 
d="M711 274q124 0 190 60t66 176v924h354v-942q0 -239 -168 -378t-461 -139q-292 0 -446 135t-154 379v945h367v-924q0 -117 64.5 -176.5t187.5 -59.5z" />
    <glyph glyph-name="V" unicode="V" horiz-adv-x="1363" 
d="M4 1434h365l323 -1055l320 1055h348l-461 -1434h-434z" />
    <glyph glyph-name="W" unicode="W" horiz-adv-x="1916" 
d="M801 1434h336l219 -895l190 895h355l-347 -1434h-380l-216 907l-217 -907h-381l-344 1434h379l187 -906z" />
    <glyph glyph-name="X" unicode="X" horiz-adv-x="1353" 
d="M428 1434l268 -398l254 398h387l-448 -684l502 -750h-424l-312 463l-288 -463h-398l486 764l-451 670h424z" />
    <glyph glyph-name="Y" unicode="Y" horiz-adv-x="1368" 
d="M1356 1434l-488 -820v-614h-368v614l-486 820h410l274 -488l267 488h391z" />
    <glyph glyph-name="Z" unicode="Z" horiz-adv-x="1251" 
d="M1231 299v-299h-1196v244l670 891h-644v299h1125v-244l-676 -891h721z" />
    <glyph glyph-name="bracketleft" unicode="[" horiz-adv-x="755" 
d="M455 1321v-1366h278v-236h-635v1837h635v-235h-278z" />
    <glyph glyph-name="backslash" unicode="\" horiz-adv-x="899" 
d="M23 1434h204l650 -1719h-203z" />
    <glyph glyph-name="bracketright" unicode="]" horiz-adv-x="755" 
d="M301 1321h-278v235h634v-1837h-634v236h278v1366z" />
    <glyph glyph-name="asciicircum" unicode="^" horiz-adv-x="1050" 
d="M35 436l342 998h293l346 -998h-291l-203 633l-200 -633h-287z" />
    <glyph glyph-name="underscore" unicode="_" horiz-adv-x="761" 
d="M0 -309v170h762v-170h-762z" />
    <glyph glyph-name="grave" unicode="`" horiz-adv-x="595" 
d="M274 1151l-186 283h328l92 -283h-234z" />
    <glyph glyph-name="a" unicode="a" horiz-adv-x="1089" 
d="M1077 -8h-166q-95 0 -162.5 39t-86.5 106q-103 -157 -318 -157q-131 0 -222 77.5t-91 204.5q0 66 21 117t56.5 82.5t82 54.5t97.5 36.5t102 25t97.5 23t82 27t56.5 41.5t21 62v14q0 49 -33 80t-94 31q-70 0 -107.5 -34t-37.5 -99v-35h-301v35q0 168 118.5 266t342.5 98
q226 0 337 -91.5t111 -286.5v-414q0 -96 80 -96h14v-207zM375 313q0 -53 32.5 -85.5t90.5 -32.5q67 0 105 37t38 108v201q-11 -29 -42.5 -49.5t-68.5 -33t-72.5 -27.5t-59 -44.5t-23.5 -73.5z" />
    <glyph glyph-name="b" unicode="b" horiz-adv-x="1177" 
d="M397 0h-313v1434h340v-531q41 86 121.5 134t179.5 48q198 0 303 -138.5t105 -395.5q0 -263 -110.5 -419.5t-299.5 -156.5q-102 0 -179.5 48t-119.5 135zM414 530q0 -294 186 -294q188 0 188 294q0 297 -188 297q-186 0 -186 -297z" />
    <glyph glyph-name="c" unicode="c" horiz-adv-x="1110" 
d="M41 530q0 250 141 402.5t389 152.5q233 0 363.5 -120.5t138.5 -335.5h-317q-15 194 -176 194q-195 0 -195 -293q0 -290 197 -290q159 0 174 188h317q-8 -212 -140.5 -331.5t-365.5 -119.5q-254 0 -390 146t-136 407z" />
    <glyph glyph-name="d" unicode="d" horiz-adv-x="1177" 
d="M752 0v158q-42 -87 -119.5 -135t-179.5 -48q-192 0 -301 147.5t-109 409.5q0 258 112.5 405.5t309.5 147.5q204 0 287 -182v531h342v-1434h-342zM762 530q0 297 -187 297q-188 0 -188 -297q0 -294 188 -294q187 0 187 294z" />
    <glyph glyph-name="e" unicode="e" 
d="M580 231q70 0 114 32.5t58 88.5h313q-25 -173 -154.5 -274t-341.5 -101q-132 0 -235 42.5t-166.5 117.5t-96 171.5t-32.5 209.5q0 89 18.5 169.5t59.5 154t101.5 127t150.5 85t200 31.5q105 0 191 -29.5t144 -79.5t97.5 -117t57.5 -139.5t18 -150.5v-112h-702
q5 -104 56 -165t149 -61zM571 840q-85 0 -134 -52.5t-60 -148.5h381q-4 96 -55 148.5t-132 52.5z" />
    <glyph glyph-name="f" unicode="f" horiz-adv-x="694" 
d="M508 0h-342v848h-137v211h137v121q0 125 68.5 189.5t201.5 64.5h250v-207h-100q-43 0 -60.5 -14.5t-17.5 -51.5v-102h178v-211h-178v-848z" />
    <glyph glyph-name="g" unicode="g" horiz-adv-x="1175" 
d="M561 -150q97 0 144 39t47 127v177q-41 -80 -120.5 -125t-178.5 -45q-186 0 -298 139.5t-112 392.5q0 252 115.5 391t304.5 139q206 0 289 -170v144h340v-1041q0 -105 -40 -184.5t-112.5 -127.5t-167.5 -71.5t-211 -23.5q-254 0 -371.5 89.5t-119.5 272.5h323
q0 -54 41.5 -88.5t126.5 -34.5zM762 553q0 140 -48 211.5t-141 71.5q-186 0 -186 -283q0 -137 47 -209t139 -72t140.5 72t48.5 209z" />
    <glyph glyph-name="h" unicode="h" 
d="M84 1434h340v-508q54 82 133.5 121.5t163.5 39.5q154 0 237.5 -89t83.5 -250v-748h-342v674q0 74 -35 112.5t-96 38.5t-103 -41.5t-42 -109.5v-674h-340v1434z" />
    <glyph glyph-name="i" unicode="i" horiz-adv-x="507" 
d="M424 1434v-260h-340v260h340zM424 1059v-1059h-340v1059h340z" />
    <glyph glyph-name="j" unicode="j" horiz-adv-x="507" 
d="M424 1434v-260h-340v260h340zM84 1059h340v-1170q0 -123 -70.5 -195.5t-216.5 -72.5h-188v219h49q43 0 64.5 17.5t21.5 68.5v1133z" />
    <glyph glyph-name="k" unicode="k" horiz-adv-x="1075" 
d="M84 1434h340v-760l299 385h342l-330 -381l377 -678h-375l-231 414l-82 -95v-319h-340v1434z" />
    <glyph glyph-name="l" unicode="l" horiz-adv-x="507" 
d="M84 1434h340v-1434h-340v1434z" />
    <glyph glyph-name="m" unicode="m" horiz-adv-x="1691" 
d="M424 676v-676h-340v1059h334v-144q112 172 303 172q198 0 258 -159q52 79 133.5 119t177.5 40q150 0 237 -90.5t87 -248.5v-748h-342v676q0 149 -123 149q-59 0 -91.5 -34t-37.5 -95v-696h-342v676q0 149 -121 149q-63 0 -98 -40t-35 -109z" />
    <glyph glyph-name="n" unicode="n" 
d="M84 1059h334v-144q52 84 133 128t170 44q153 0 237 -88.5t84 -250.5v-748h-342v674q0 72 -34.5 111.5t-96.5 39.5q-63 0 -104 -42.5t-41 -108.5v-674h-340v1059z" />
    <glyph glyph-name="o" unicode="o" horiz-adv-x="1144" 
d="M1104 532q0 -261 -139 -408t-394 -147q-254 0 -392 146.5t-138 408.5q0 259 139.5 406t390.5 147q254 0 393.5 -147t139.5 -406zM760 532q0 141 -48 216t-141 75q-186 0 -186 -291q0 -292 186 -292q93 0 141 75t48 217z" />
    <glyph glyph-name="p" unicode="p" horiz-adv-x="1177" 
d="M424 -379h-340v1438h340v-156q43 89 123.5 135.5t181.5 46.5q194 0 299 -141.5t105 -392.5q0 -270 -110.5 -423t-303.5 -153q-102 0 -177.5 48t-117.5 135v-537zM414 530q0 -294 186 -294q188 0 188 294q0 297 -188 297q-186 0 -186 -297z" />
    <glyph glyph-name="q" unicode="q" horiz-adv-x="1177" 
d="M752 -379v537q-42 -87 -119.5 -135t-179.5 -48q-192 0 -301 147.5t-109 409.5q0 258 112.5 405.5t309.5 147.5q204 0 287 -182v156h342v-1438h-342zM762 530q0 297 -187 297q-188 0 -188 -297q0 -294 188 -294q187 0 187 294z" />
    <glyph glyph-name="r" unicode="r" horiz-adv-x="737" 
d="M84 1059h315v-203q40 115 120.5 167t178.5 52h19v-346q-52 19 -90 19q-98 0 -150.5 -54t-52.5 -151v-543h-340v1059z" />
    <glyph glyph-name="s" unicode="s" horiz-adv-x="1003" 
d="M39 328h305q-2 -62 36.5 -95.5t113.5 -33.5q68 0 104.5 25t36.5 67q0 39 -25.5 57.5t-97.5 36.5l-172 39q-58 14 -104.5 34.5t-91 55.5t-69 91.5t-24.5 129.5q0 71 28.5 133.5t83 111t142.5 77t199 28.5q214 0 322 -85.5t108 -247.5h-295q0 56 -35.5 86t-101.5 30
q-63 0 -97 -26.5t-34 -65.5q0 -37 22.5 -58.5t75.5 -31.5l197 -43q62 -14 110.5 -34.5t95 -56t72 -92t25.5 -130.5q0 -160 -123 -257.5t-357 -97.5q-222 0 -336 92t-114 261z" />
    <glyph glyph-name="t" unicode="t" horiz-adv-x="708" 
d="M31 848v211h119v256h339v-256h181v-211h-181v-541q0 -76 82 -76q38 0 93 19v-227q-112 -35 -240 -35t-201 62t-73 188v610h-119z" />
    <glyph glyph-name="u" unicode="u" horiz-adv-x="1101" 
d="M1018 0h-334v145q-97 -172 -293 -172q-141 0 -227 85t-86 245v756h342v-688q0 -69 33.5 -102t91.5 -33q62 0 96.5 35.5t34.5 105.5v682h342v-1059z" />
    <glyph glyph-name="v" unicode="v" horiz-adv-x="1050" 
d="M358 1059l181 -697l178 697h325l-325 -1059h-383l-326 1059h350z" />
    <glyph glyph-name="w" unicode="w" horiz-adv-x="1624" 
d="M350 1059l154 -651l182 651h272l183 -656l155 656h322l-303 -1059h-338l-168 602l-164 -602h-336l-303 1059h344z" />
    <glyph glyph-name="x" unicode="x" horiz-adv-x="1038" 
d="M375 1059l176 -268l160 268h319l-321 -510l360 -549h-375l-198 303l-191 -303h-334l359 557l-328 502h373z" />
    <glyph glyph-name="y" unicode="y" horiz-adv-x="1040" 
d="M346 1059l193 -623l178 623h319l-381 -1165q-44 -135 -138 -206t-230 -71q-167 0 -285 90l127 209q48 -45 111 -45q85 0 112 82l21 61l-377 1045h350z" />
    <glyph glyph-name="z" unicode="z" horiz-adv-x="944" 
d="M20 170l467 678h-430v211h844v-170l-469 -678h490v-211h-902v170z" />
    <glyph glyph-name="braceleft" unicode="{" horiz-adv-x="851" 
d="M-16 543v190h45q52 0 90.5 8t62.5 26t39 37.5t22 51t9 57.5t2 66v295q0 151 85.5 216.5t246.5 65.5h243v-221h-75q-75 0 -104 -27t-29 -110v-211q0 -134 -65 -220t-226 -128q161 -42 226 -129.5t65 -220.5v-211q0 -83 29 -110t104 -27h75v-222h-243q-161 0 -246.5 66
t-85.5 217v295q0 40 -2 66t-9 57.5t-22 51t-39 37.5t-62.5 26t-90.5 8h-45z" />
    <glyph glyph-name="bar" unicode="|" horiz-adv-x="417" 
d="M98 1708h221v-2030h-221v2030z" />
    <glyph glyph-name="braceright" unicode="}" horiz-adv-x="851" 
d="M868 543h-45q-52 0 -90.5 -8t-62.5 -26t-39 -37.5t-22 -51t-9 -57.5t-2 -66v-295q0 -151 -85.5 -217t-246.5 -66h-243v222h77q75 0 103 27t28 110v211q0 133 65.5 220.5t227.5 129.5q-163 42 -228 128t-65 220v211q0 83 -28 110t-103 27h-77v221h243q161 0 246.5 -65.5
t85.5 -216.5v-295q0 -40 2 -66t9 -57.5t22 -51t39 -37.5t62.5 -26t90.5 -8h45v-190z" />
    <glyph glyph-name="asciitilde" unicode="~" horiz-adv-x="1032" 
d="M745 575q-61 0 -225.5 47.5t-191.5 47.5q-42 0 -65 -24.5t-23 -86.5l-181 62q0 178 64.5 260t169.5 82q53 0 214 -47.5t200 -47.5q45 0 67.5 24.5t22.5 86.5l182 -61q0 -177 -65.5 -260t-168.5 -83z" />
    <glyph glyph-name="uni00A0" unicode="&#xa0;" horiz-adv-x="317" 
 />
    <glyph glyph-name="exclamdown" unicode="&#xa1;" horiz-adv-x="538" 
d="M451 1059v-363h-363v363h363zM61 -375l66 961h285l65 -961h-416z" />
    <glyph glyph-name="cent" unicode="&#xa2;" 
d="M420 -254h-137l75 264q-155 54 -237 188t-82 332q0 250 141 402.5t389 152.5q49 0 93 -6l53 189h141l-63 -219q130 -49 201 -156.5t77 -263.5h-317q-6 86 -43 135l-150 -524h19q159 0 174 188h317q-8 -212 -140.5 -331.5t-365.5 -119.5q-15 0 -78 5zM383 530
q0 -155 57 -227l148 520h-10q-195 0 -195 -293z" />
    <glyph glyph-name="sterling" unicode="&#xa3;" horiz-adv-x="1318" 
d="M51 0v256h41q84 0 124 43t40 115q0 68 -8 125h-197v182h176q-18 144 -18 252q0 100 33.5 186.5t99 154t172.5 106t244 38.5q247 0 382.5 -118.5t135.5 -319.5v-66h-348v54q0 77 -46.5 120t-117.5 43q-75 0 -123.5 -46t-48.5 -138v-266h414v-182h-414v-86q0 -51 -6 -97
q188 -82 401 -82q141 0 254 29v-299q-123 -24 -240 -24q-302 0 -536 116q-108 -96 -309 -96h-105z" />
    <glyph glyph-name="currency" unicode="&#xa4;" horiz-adv-x="1361" 
d="M55 45l-14 14l262 265q-147 157 -147 366q0 208 145 363l-260 262l14 14l260 -262q157 150 365 150q207 0 364 -150l263 264l14 -14l-262 -264q145 -155 145 -363q0 -209 -147 -366l264 -265l-14 -14l-265 264q-157 -147 -362 -147q-210 0 -363 147zM680 1196
q-200 0 -350 -143l350 -351l350 351q-149 143 -350 143zM176 690q0 -205 141 -352l349 350l-351 350q-139 -142 -139 -348zM1184 690q0 99 -36.5 189.5t-103.5 158.5l-350 -350l348 -350q142 148 142 352zM680 182q203 0 348 142l-348 350l-348 -350q70 -67 160 -104.5
t188 -37.5z" />
    <glyph glyph-name="yen" unicode="&#xa5;" horiz-adv-x="1392" 
d="M209 383h301v160h-301v143h258l-442 748h409l275 -488l266 488h391l-444 -748h260v-143h-303v-160h303v-143h-303v-240h-369v240h-301v143z" />
    <glyph glyph-name="brokenbar" unicode="&#xa6;" horiz-adv-x="417" 
d="M317 874h-217v828h217v-828zM100 618h217v-899h-217v899z" />
    <glyph glyph-name="section" unicode="&#xa7;" horiz-adv-x="1269" 
d="M1059 -2q0 -179 -124 -290t-331 -111q-210 0 -324 92t-112 258h307q3 -121 135 -121q65 0 101.5 32.5t36.5 84.5q0 46 -39.5 84t-102 66.5t-138.5 57.5t-152.5 66.5t-139 84.5t-102 120t-39.5 164q0 109 59 199.5t164 144.5q-49 76 -49 168q0 178 125.5 288.5
t331.5 110.5q210 0 324 -91t112 -257h-307q-2 58 -36.5 89.5t-101.5 31.5q-62 0 -98.5 -32.5t-36.5 -84.5q0 -47 39.5 -85t102 -66.5t138.5 -57.5t152.5 -66.5t139 -84t102 -119.5t39.5 -164q0 -111 -59 -201t-164 -145q47 -71 47 -166zM348 629q0 -39 29 -72.5t82.5 -61.5
t110 -52t132.5 -57t129 -64q91 51 91 145q0 39 -29 72.5t-83 62t-110.5 52t-133 56.5t-128.5 62q-90 -49 -90 -143z" />
    <glyph glyph-name="dieresis" unicode="&#xa8;" horiz-adv-x="894" 
d="M389 1434v-260h-301v260h301zM805 1434v-260h-299v260h299z" />
    <glyph glyph-name="copyright" unicode="&#xa9;" horiz-adv-x="1568" 
d="M784 1473q117 0 226.5 -32.5t202.5 -97.5t162 -155t108 -211.5t39 -261.5t-39 -261.5t-108 -211.5t-162 -155t-202.5 -97.5t-226.5 -32.5t-226.5 32.5t-202 97.5t-161.5 155t-108 211.5t-39 261.5t39 261.5t108 211.5t161.5 155t202 97.5t226.5 32.5zM784 1339
q-99 0 -189 -28t-163 -82t-126.5 -128.5t-83 -173.5t-29.5 -212q0 -141 45.5 -259t125 -197.5t188 -124t232.5 -44.5q164 0 298 75.5t214 219t80 330.5q0 140 -46.5 258.5t-126.5 198t-188 123.5t-231 44zM365 721q0 218 117 349.5t309 131.5q173 0 276 -99t111 -272h-183
q-10 98 -63.5 151.5t-140.5 53.5q-110 0 -170 -82.5t-60 -232.5q0 -148 59.5 -230.5t165.5 -82.5q177 0 207 176h185q-13 -161 -120 -252.5t-278 -91.5q-192 0 -303.5 129.5t-111.5 351.5z" />
    <glyph glyph-name="ordfeminine" unicode="&#xaa;" horiz-adv-x="909" 
d="M872 604h-133q-76 0 -130.5 31t-67.5 86q-82 -127 -254 -127q-105 0 -178.5 62t-73.5 163q0 59 21 103t56 69t79 44t90.5 28t90.5 21t79 23.5t56 34t21 54.5v10q0 40 -26.5 64t-75.5 24q-115 0 -115 -106v-27h-241v27q0 135 94 214t274 79q181 0 270 -73t89 -230v-332
q0 -76 63 -76h12v-166zM311 860q0 -42 26.5 -68t72.5 -26q114 0 114 117v159q-9 -23 -34.5 -39t-55 -26t-58 -22.5t-47 -36t-18.5 -58.5z" />
    <glyph glyph-name="guillemotleft" unicode="&#xab;" horiz-adv-x="1191" 
d="M387 530l303 -530h-321l-330 530l330 529h321zM860 530l303 -530h-319l-330 530l330 529h319z" />
    <glyph glyph-name="logicalnot" unicode="&#xac;" horiz-adv-x="1005" 
d="M43 805v258h875v-621h-271v363h-604z" />
    <glyph glyph-name="registered" unicode="&#xae;" horiz-adv-x="1044" 
d="M43 1028q0 112 39.5 205.5t105.5 154.5t152.5 94.5t181.5 33.5t181.5 -33.5t152.5 -94.5t105.5 -154.5t39.5 -205.5t-39.5 -205t-106 -154t-152.5 -94.5t-181 -33.5t-181 33.5t-152.5 94.5t-106 154t-39.5 205zM125 1028q0 -176 113 -294t284 -118t284.5 118.5
t113.5 293.5t-113.5 293.5t-284.5 118.5t-284 -118t-113 -294zM524 961h-98v-203h-94v540h213q87 0 135.5 -44.5t48.5 -120.5q0 -51 -30.5 -92t-80.5 -58l148 -225h-115zM426 1221v-185h94q109 0 109 94q0 42 -27 66.5t-74 24.5h-102z" />
    <glyph glyph-name="macron" unicode="&#xaf;" horiz-adv-x="811" 
d="M88 1188v215h633v-215h-633z" />
    <glyph glyph-name="degree" unicode="&#xb0;" horiz-adv-x="739" 
d="M705 1067q0 -183 -92 -287t-244 -104t-243 104t-91 287t91 287t243 104t244 -104t92 -287zM492 1067q0 100 -33 151.5t-90 51.5t-90 -51.5t-33 -151.5q0 -98 33 -150.5t90 -52.5t90 52.5t33 150.5z" />
    <glyph glyph-name="plusminus" unicode="&#xb1;" horiz-adv-x="978" 
d="M53 682v258h301v322h271v-322h303v-258h-303v-322h-271v322h-301zM53 0v258h875v-258h-875z" />
    <glyph glyph-name="twosuperior" unicode="&#xb2;" horiz-adv-x="737" 
d="M682 1022v-184h-623v155q398 253 398 432q0 45 -27.5 74t-71.5 29q-47 0 -72.5 -30.5t-25.5 -84.5q0 -35 8 -59h-215q-4 36 -4 67q0 136 85 213.5t239 77.5q136 0 218.5 -71.5t82.5 -194.5q0 -233 -318 -424h326z" />
    <glyph glyph-name="threesuperior" unicode="&#xb3;" horiz-adv-x="745" 
d="M260 1432h-205q0 127 86.5 203.5t237.5 76.5q139 0 221 -65t82 -174q0 -72 -37.5 -124t-103.5 -71q151 -53 151 -197q0 -118 -87.5 -188t-239.5 -70q-164 0 -247 75t-77 216h211q0 -55 28.5 -85t81.5 -30q50 0 79.5 26.5t29.5 70.5q0 45 -31.5 70.5t-87.5 25.5h-53v149
h53q55 0 88 29t33 76q0 41 -29.5 67.5t-76.5 26.5q-51 0 -79 -28.5t-28 -79.5z" />
    <glyph glyph-name="acute" unicode="&#xb4;" horiz-adv-x="595" 
d="M322 1151h-234l94 283h326z" />
    <glyph glyph-name="mu" unicode="&#xb5;" horiz-adv-x="1128" 
d="M1034 0h-334v145q-97 -172 -292 -172q-85 0 -160 35v-313h-152v563q-2 14 -2 45v756h342v-688q0 -69 33.5 -102t91.5 -33q62 0 96.5 35.5t34.5 105.5v682h342v-1059z" />
    <glyph glyph-name="paragraph" unicode="&#xb6;" horiz-adv-x="1210" 
d="M709 1219v-1219h-242v637h-35q-180 0 -287.5 111.5t-107.5 283.5q0 121 58.5 214t151.5 140.5t202 47.5h643v-1434h-242v1219h-141z" />
    <glyph glyph-name="periodcentered" unicode="&#xb7;" horiz-adv-x="487" 
d="M412 567h-336v336h336v-336z" />
    <glyph glyph-name="cedilla" unicode="&#xb8;" horiz-adv-x="622" 
d="M393 -297h-315l164 344l290 -39z" />
    <glyph glyph-name="onesuperior" unicode="&#xb9;" horiz-adv-x="483" 
d="M397 840h-217v612q-55 -31 -147 -27v162q85 -1 138 32t73 81h153v-860z" />
    <glyph glyph-name="ordmasculine" unicode="&#xba;" horiz-adv-x="915" 
d="M883 1036q0 -208 -111.5 -326t-314.5 -118q-202 0 -313 117.5t-111 326.5t110.5 326t313.5 117t314.5 -117.5t111.5 -325.5zM608 1036q0 112 -38.5 173t-112.5 61t-112 -60t-38 -174q0 -233 150 -233q74 0 112.5 60t38.5 173z" />
    <glyph glyph-name="guillemotright" unicode="&#xbb;" horiz-adv-x="1191" 
d="M807 530l-303 529h319l330 -529l-330 -530h-319zM332 530l-303 529h321l330 -529l-330 -530h-321z" />
    <glyph glyph-name="onequarter" unicode="&#xbc;" horiz-adv-x="1705" 
d="M1462 1556l-1077 -1679h-197l1078 1679h196zM399 573h-217v613q-55 -31 -147 -27v162q85 -1 138 32t73 81h153v-861zM997 352l318 508h258v-526h94v-158h-94v-176h-211v176h-365v176zM1165 334h197v319z" />
    <glyph glyph-name="onehalf" unicode="&#xbd;" horiz-adv-x="1789" 
d="M1462 1556l-1077 -1679h-197l1078 1679h196zM1741 182v-184h-623v156q398 253 398 432q0 45 -27 73.5t-72 28.5q-50 0 -74 -32t-24 -83q0 -35 8 -59h-215q-4 23 -4 68q0 144 89 217t235 73q132 0 216.5 -69t84.5 -197q0 -234 -318 -424h326zM399 573h-217v613
q-51 -27 -147 -27v162q71 0 129 26.5t82 86.5h153v-861z" />
    <glyph glyph-name="threequarters" unicode="&#xbe;" horiz-adv-x="1855" 
d="M1614 1556l-1077 -1679h-197l1077 1679h197zM260 1165h-205q0 127 86.5 204t237.5 77q139 0 221 -65.5t82 -174.5q0 -72 -37.5 -123.5t-103.5 -70.5q151 -53 151 -197q0 -118 -87.5 -188t-239.5 -70q-164 0 -247 75t-77 216h211q0 -55 28.5 -85t81.5 -30q50 0 79.5 26
t29.5 70q0 45 -31.5 71t-87.5 26h-53v149h53q55 0 88 29t33 76q0 41 -29.5 67.5t-76.5 26.5q-51 0 -79 -29t-28 -80zM1149 352l317 508h258v-526h95v-158h-95v-176h-211v176h-364v176zM1317 334h196v319z" />
    <glyph glyph-name="questiondown" unicode="&#xbf;" horiz-adv-x="1017" 
d="M326 1059h362v-363h-362v363zM672 43v55h313v-78q0 -194 -125.5 -306.5t-361.5 -112.5q-218 0 -340.5 106t-122.5 281q0 101 41 180.5t112 159.5q14 17 52.5 59t53.5 60.5t30.5 49t15.5 56.5v33h336v-39q0 -62 -28 -124t-67.5 -113t-79 -99t-67.5 -98.5t-28 -94.5
q0 -57 33.5 -88.5t90.5 -31.5q68 0 105 37t37 108z" />
    <glyph glyph-name="Agrave" unicode="&#xc0;" horiz-adv-x="1363" 
d="M569 1526l-186 282h328l92 -282h-234zM1360 0h-365l-88 291h-467l-88 -291h-348l461 1434h434zM520 555h305l-153 504z" />
    <glyph glyph-name="Aacute" unicode="&#xc1;" horiz-adv-x="1363" 
d="M813 1526h-233l94 282h325zM1360 0h-365l-88 291h-467l-88 -291h-348l461 1434h434zM520 555h305l-153 504z" />
    <glyph glyph-name="Acircumflex" unicode="&#xc2;" horiz-adv-x="1363" 
d="M299 1526l238 282h311l235 -282h-264l-127 119l-127 -119h-266zM1360 0h-365l-88 291h-467l-88 -291h-348l461 1434h434zM520 555h305l-153 504z" />
    <glyph glyph-name="Atilde" unicode="&#xc3;" horiz-adv-x="1363" 
d="M545 1819q51 0 149 -27t137 -27q31 0 44 14t24 52h162q-12 -135 -71.5 -203.5t-153.5 -68.5q-54 0 -152 25.5t-123 25.5q-32 0 -48.5 -15t-27.5 -51h-163q13 136 72.5 205.5t150.5 69.5zM1360 0h-365l-88 291h-467l-88 -291h-348l461 1434h434zM520 555h305l-153 504z
" />
    <glyph glyph-name="Adieresis" unicode="&#xc4;" horiz-adv-x="1363" 
d="M635 1808v-260h-301v260h301zM1051 1808v-260h-299v260h299zM1360 0h-365l-88 291h-467l-88 -291h-348l461 1434h434zM520 555h305l-153 504z" />
    <glyph glyph-name="Aring" unicode="&#xc5;" horiz-adv-x="1363" 
d="M692 1520q-105 0 -175.5 69.5t-70.5 169.5t71 171t175 71t175 -71t71 -171t-70.5 -169.5t-175.5 -69.5zM692 1880q-45 0 -79.5 -34t-34.5 -87q0 -52 34.5 -85.5t79.5 -33.5q46 0 80.5 33.5t34.5 85.5q0 53 -34.5 87t-80.5 34zM1360 0h-365l-88 291h-467l-88 -291h-348
l461 1434h434zM520 555h305l-153 504z" />
    <glyph glyph-name="AE" unicode="&#xc6;" horiz-adv-x="1964" 
d="M1905 299v-299h-1080v311h-366l-131 -311h-379l633 1434h1323v-299h-713v-267h610v-293h-610v-276h713zM569 575h256v607z" />
    <glyph glyph-name="Ccedilla" unicode="&#xc7;" horiz-adv-x="1462" 
d="M776 -297h-366l139 295q-241 56 -370.5 247.5t-129.5 469.5q0 160 47.5 296t136.5 235.5t224 155.5t301 56q154 0 277.5 -44.5t205.5 -125.5t128 -192.5t52 -247.5h-350q-11 139 -94.5 223t-222.5 84q-159 0 -245.5 -119.5t-86.5 -320.5q0 -199 86 -317.5t246 -118.5
q143 0 224.5 83t92.5 224h350q-8 -236 -144.5 -396.5t-373.5 -201.5z" />
    <glyph glyph-name="Egrave" unicode="&#xc8;" horiz-adv-x="1241" 
d="M512 1526l-186 282h327l92 -282h-233zM1182 299v-299h-1080v1434h1080v-299h-713v-267h610v-293h-610v-276h713z" />
    <glyph glyph-name="Eacute" unicode="&#xc9;" horiz-adv-x="1241" 
d="M756 1526h-234l94 282h326zM1182 299v-299h-1080v1434h1080v-299h-713v-267h610v-293h-610v-276h713z" />
    <glyph glyph-name="Ecircumflex" unicode="&#xca;" horiz-adv-x="1241" 
d="M244 1526l237 282h312l235 -282h-264l-127 119l-127 -119h-266zM1182 299v-299h-1080v1434h1080v-299h-713v-267h610v-293h-610v-276h713z" />
    <glyph glyph-name="Edieresis" unicode="&#xcb;" horiz-adv-x="1241" 
d="M578 1808v-260h-302v260h302zM993 1808v-260h-299v260h299zM1182 299v-299h-1080v1434h1080v-299h-713v-267h610v-293h-610v-276h713z" />
    <glyph glyph-name="Igrave" unicode="&#xcc;" horiz-adv-x="571" 
d="M162 1526l-187 282h328l92 -282h-233zM102 1434h367v-1434h-367v1434z" />
    <glyph glyph-name="Iacute" unicode="&#xcd;" horiz-adv-x="571" 
d="M408 1526h-234l94 282h326zM102 1434h367v-1434h-367v1434z" />
    <glyph glyph-name="Icircumflex" unicode="&#xce;" horiz-adv-x="571" 
d="M-106 1526l237 282h311l236 -282h-264l-127 119l-127 -119h-266zM102 1434h367v-1434h-367v1434z" />
    <glyph glyph-name="Idieresis" unicode="&#xcf;" horiz-adv-x="571" 
d="M227 1808v-260h-301v260h301zM643 1808v-260h-299v260h299zM102 1434h367v-1434h-367v1434z" />
    <glyph glyph-name="Eth" unicode="&#xd0;" horiz-adv-x="1511" 
d="M145 0v604h-122v225h122v605h578q339 0 539 -193.5t200 -523.5q0 -328 -200.5 -522.5t-538.5 -194.5h-578zM512 293h184q182 0 288 116t106 308q0 196 -108.5 310t-299.5 114h-170v-312h383v-225h-383v-311z" />
    <glyph glyph-name="Ntilde" unicode="&#xd1;" horiz-adv-x="1449" 
d="M578 1819q51 0 149 -27t137 -27q31 0 44 14t24 52h162q-12 -135 -72 -203.5t-154 -68.5q-54 0 -151.5 25.5t-122.5 25.5q-32 0 -48.5 -15t-27.5 -51h-164q13 135 73 205t151 70zM989 0l-528 887v-887h-359v1434h412l475 -809v809h359v-1434h-359z" />
    <glyph glyph-name="Ograve" unicode="&#xd2;" horiz-adv-x="1497" 
d="M625 1526l-187 282h328l92 -282h-233zM1448 717q0 -160 -46.5 -295.5t-133.5 -235t-220 -155.5t-298 -56q-166 0 -299.5 56t-221 155.5t-134 235t-46.5 295.5q0 214 80 380t240.5 263.5t380.5 97.5q165 0 298 -56t220 -155.5t133.5 -234.5t46.5 -295zM1075 717
q0 201 -83.5 319.5t-241.5 118.5q-160 0 -244 -118.5t-84 -319.5t84 -319.5t244 -118.5t242.5 118t82.5 320z" />
    <glyph glyph-name="Oacute" unicode="&#xd3;" horiz-adv-x="1497" 
d="M870 1526h-233l94 282h326zM1448 717q0 -160 -46.5 -295.5t-133.5 -235t-220 -155.5t-298 -56q-166 0 -299.5 56t-221 155.5t-134 235t-46.5 295.5q0 214 80 380t240.5 263.5t380.5 97.5q165 0 298 -56t220 -155.5t133.5 -234.5t46.5 -295zM1075 717q0 201 -83.5 319.5
t-241.5 118.5q-160 0 -244 -118.5t-84 -319.5t84 -319.5t244 -118.5t242.5 118t82.5 320z" />
    <glyph glyph-name="Ocircumflex" unicode="&#xd4;" horiz-adv-x="1497" 
d="M356 1526l238 282h311l236 -282h-264l-127 119l-127 -119h-267zM1448 717q0 -160 -46.5 -295.5t-133.5 -235t-220 -155.5t-298 -56q-166 0 -299.5 56t-221 155.5t-134 235t-46.5 295.5q0 214 80 380t240.5 263.5t380.5 97.5q165 0 298 -56t220 -155.5t133.5 -234.5
t46.5 -295zM1075 717q0 201 -83.5 319.5t-241.5 118.5q-160 0 -244 -118.5t-84 -319.5t84 -319.5t244 -118.5t242.5 118t82.5 320z" />
    <glyph glyph-name="Otilde" unicode="&#xd5;" horiz-adv-x="1497" 
d="M602 1819q51 0 149.5 -27t137.5 -27q30 0 43 14t24 52h162q-12 -135 -71.5 -203.5t-153.5 -68.5q-54 0 -152 25.5t-123 25.5q-32 0 -48 -15t-27 -51h-164q13 136 72.5 205.5t150.5 69.5zM1448 717q0 -160 -46.5 -295.5t-133.5 -235t-220 -155.5t-298 -56
q-166 0 -299.5 56t-221 155.5t-134 235t-46.5 295.5q0 214 80 380t240.5 263.5t380.5 97.5q165 0 298 -56t220 -155.5t133.5 -234.5t46.5 -295zM1075 717q0 201 -83.5 319.5t-241.5 118.5q-160 0 -244 -118.5t-84 -319.5t84 -319.5t244 -118.5t242.5 118t82.5 320z" />
    <glyph glyph-name="Odieresis" unicode="&#xd6;" horiz-adv-x="1497" 
d="M690 1808v-260h-301v260h301zM1106 1808v-260h-299v260h299zM1448 717q0 -160 -46.5 -295.5t-133.5 -235t-220 -155.5t-298 -56q-166 0 -299.5 56t-221 155.5t-134 235t-46.5 295.5q0 214 80 380t240.5 263.5t380.5 97.5q165 0 298 -56t220 -155.5t133.5 -234.5
t46.5 -295zM1075 717q0 201 -83.5 319.5t-241.5 118.5q-160 0 -244 -118.5t-84 -319.5t84 -319.5t244 -118.5t242.5 118t82.5 320z" />
    <glyph glyph-name="multiply" unicode="&#xd7;" horiz-adv-x="1017" 
d="M225 236l-176 180l285 291l-285 292l174 181l287 -293l285 293l174 -181l-285 -292l285 -291l-176 -180l-283 290z" />
    <glyph glyph-name="Oslash" unicode="&#xd8;" horiz-adv-x="1497" 
d="M268 -70l-135 95l109 149q-193 205 -193 543q0 214 80 380t240.5 263.5t380.5 97.5q212 0 368 -92l113 154l135 -97l-117 -157q97 -99 148 -240.5t51 -308.5q0 -160 -46.5 -295.5t-133.5 -235t-220 -155.5t-298 -56q-219 0 -379 97zM422 717q0 -136 41 -242l463 629
q-71 51 -176 51q-160 0 -244 -118.5t-84 -319.5zM1075 717q0 151 -45 250l-465 -631q75 -57 185 -57q160 0 242.5 118t82.5 320z" />
    <glyph glyph-name="Ugrave" unicode="&#xd9;" horiz-adv-x="1413" 
d="M584 1526l-187 282h328l92 -282h-233zM711 274q124 0 190 60t66 176v924h354v-942q0 -239 -168 -378t-461 -139q-292 0 -446 135t-154 379v945h367v-924q0 -117 64.5 -176.5t187.5 -59.5z" />
    <glyph glyph-name="Uacute" unicode="&#xda;" horiz-adv-x="1413" 
d="M827 1526h-233l94 282h326zM711 274q124 0 190 60t66 176v924h354v-942q0 -239 -168 -378t-461 -139q-292 0 -446 135t-154 379v945h367v-924q0 -117 64.5 -176.5t187.5 -59.5z" />
    <glyph glyph-name="Ucircumflex" unicode="&#xdb;" horiz-adv-x="1413" 
d="M313 1526l238 282h311l236 -282h-264l-127 119l-127 -119h-267zM711 274q124 0 190 60t66 176v924h354v-942q0 -239 -168 -378t-461 -139q-292 0 -446 135t-154 379v945h367v-924q0 -117 64.5 -176.5t187.5 -59.5z" />
    <glyph glyph-name="Udieresis" unicode="&#xdc;" horiz-adv-x="1413" 
d="M649 1808v-260h-301v260h301zM1065 1808v-260h-299v260h299zM711 274q124 0 190 60t66 176v924h354v-942q0 -239 -168 -378t-461 -139q-292 0 -446 135t-154 379v945h367v-924q0 -117 64.5 -176.5t187.5 -59.5z" />
    <glyph glyph-name="Yacute" unicode="&#xdd;" horiz-adv-x="1368" 
d="M807 1526h-234l95 282h325zM1356 1434l-488 -820v-614h-368v614l-486 820h410l274 -488l267 488h391z" />
    <glyph glyph-name="Thorn" unicode="&#xde;" horiz-adv-x="1275" 
d="M469 231v-231h-367v1434h367v-232h240q240 0 383 -131.5t143 -353.5q0 -218 -152.5 -352t-400.5 -134h-213zM469 522h178q105 0 162 51t57 144t-57 143.5t-162 50.5h-178v-389z" />
    <glyph glyph-name="germandbls" unicode="&#xdf;" horiz-adv-x="1107" 
d="M424 2h-340v989q0 219 139 344t369 125q215 0 332.5 -110t117.5 -277q0 -118 -53.5 -211.5t-142.5 -150.5q221 -241 221 -402q0 -135 -85 -222t-239 -87h-206v203h59q59 0 91 27t32 75q0 13 -3 26.5t-11.5 31t-16 31t-24.5 37.5t-27.5 38.5t-35 47.5t-38.5 52l-86 113
q127 74 192.5 171.5t65.5 188.5q0 70 -42.5 111t-104.5 41q-73 0 -118.5 -43.5t-45.5 -126.5v-1022z" />
    <glyph glyph-name="agrave" unicode="&#xe0;" horiz-adv-x="1089" 
d="M401 1151l-186 283h328l92 -283h-234zM1077 -8h-166q-95 0 -162.5 39t-86.5 106q-103 -157 -318 -157q-131 0 -222 77.5t-91 204.5q0 66 21 117t56.5 82.5t82 54.5t97.5 36.5t102 25t97.5 23t82 27t56.5 41.5t21 62v14q0 49 -33 80t-94 31q-70 0 -107.5 -34t-37.5 -99
v-35h-301v35q0 168 118.5 266t342.5 98q226 0 337 -91.5t111 -286.5v-414q0 -96 80 -96h14v-207zM375 313q0 -53 32.5 -85.5t90.5 -32.5q67 0 105 37t38 108v201q-11 -29 -42.5 -49.5t-68.5 -33t-72.5 -27.5t-59 -44.5t-23.5 -73.5z" />
    <glyph glyph-name="aacute" unicode="&#xe1;" horiz-adv-x="1089" 
d="M647 1151h-233l94 283h326zM1077 -8h-166q-95 0 -162.5 39t-86.5 106q-103 -157 -318 -157q-131 0 -222 77.5t-91 204.5q0 66 21 117t56.5 82.5t82 54.5t97.5 36.5t102 25t97.5 23t82 27t56.5 41.5t21 62v14q0 49 -33 80t-94 31q-70 0 -107.5 -34t-37.5 -99v-35h-301v35
q0 168 118.5 266t342.5 98q226 0 337 -91.5t111 -286.5v-414q0 -96 80 -96h14v-207zM375 313q0 -53 32.5 -85.5t90.5 -32.5q67 0 105 37t38 108v201q-11 -29 -42.5 -49.5t-68.5 -33t-72.5 -27.5t-59 -44.5t-23.5 -73.5z" />
    <glyph glyph-name="acircumflex" unicode="&#xe2;" horiz-adv-x="1089" 
d="M133 1151l238 283h311l236 -283h-265l-127 119l-127 -119h-266zM1077 -8h-166q-95 0 -162.5 39t-86.5 106q-103 -157 -318 -157q-131 0 -222 77.5t-91 204.5q0 66 21 117t56.5 82.5t82 54.5t97.5 36.5t102 25t97.5 23t82 27t56.5 41.5t21 62v14q0 49 -33 80t-94 31
q-70 0 -107.5 -34t-37.5 -99v-35h-301v35q0 168 118.5 266t342.5 98q226 0 337 -91.5t111 -286.5v-414q0 -96 80 -96h14v-207zM375 313q0 -53 32.5 -85.5t90.5 -32.5q67 0 105 37t38 108v201q-11 -29 -42.5 -49.5t-68.5 -33t-72.5 -27.5t-59 -44.5t-23.5 -73.5z" />
    <glyph glyph-name="atilde" unicode="&#xe3;" horiz-adv-x="1089" 
d="M379 1444q51 0 149.5 -26.5t137.5 -26.5q31 0 43.5 13.5t23.5 51.5h162q-12 -135 -71.5 -203.5t-153.5 -68.5q-54 0 -152 25.5t-123 25.5q-32 0 -48.5 -15t-27.5 -51h-163q13 136 72.5 205.5t150.5 69.5zM1077 -8h-166q-95 0 -162.5 39t-86.5 106q-103 -157 -318 -157
q-131 0 -222 77.5t-91 204.5q0 66 21 117t56.5 82.5t82 54.5t97.5 36.5t102 25t97.5 23t82 27t56.5 41.5t21 62v14q0 49 -33 80t-94 31q-70 0 -107.5 -34t-37.5 -99v-35h-301v35q0 168 118.5 266t342.5 98q226 0 337 -91.5t111 -286.5v-414q0 -96 80 -96h14v-207zM375 313
q0 -53 32.5 -85.5t90.5 -32.5q67 0 105 37t38 108v201q-11 -29 -42.5 -49.5t-68.5 -33t-72.5 -27.5t-59 -44.5t-23.5 -73.5z" />
    <glyph glyph-name="adieresis" unicode="&#xe4;" horiz-adv-x="1089" 
d="M467 1434v-260h-301v260h301zM883 1434v-260h-299v260h299zM1077 -8h-166q-95 0 -162.5 39t-86.5 106q-103 -157 -318 -157q-131 0 -222 77.5t-91 204.5q0 66 21 117t56.5 82.5t82 54.5t97.5 36.5t102 25t97.5 23t82 27t56.5 41.5t21 62v14q0 49 -33 80t-94 31
q-70 0 -107.5 -34t-37.5 -99v-35h-301v35q0 168 118.5 266t342.5 98q226 0 337 -91.5t111 -286.5v-414q0 -96 80 -96h14v-207zM375 313q0 -53 32.5 -85.5t90.5 -32.5q67 0 105 37t38 108v201q-11 -29 -42.5 -49.5t-68.5 -33t-72.5 -27.5t-59 -44.5t-23.5 -73.5z" />
    <glyph glyph-name="aring" unicode="&#xe5;" horiz-adv-x="1089" 
d="M526 1145q-105 0 -175 69t-70 170q0 100 70.5 171t174.5 71t175 -71t71 -171t-70.5 -169.5t-175.5 -69.5zM526 1505q-45 0 -79.5 -34t-34.5 -87q0 -52 34.5 -85t79.5 -33q46 0 80.5 33t34.5 85q0 53 -34.5 87t-80.5 34zM1077 -8h-166q-95 0 -162.5 39t-86.5 106
q-103 -157 -318 -157q-131 0 -222 77.5t-91 204.5q0 66 21 117t56.5 82.5t82 54.5t97.5 36.5t102 25t97.5 23t82 27t56.5 41.5t21 62v14q0 49 -33 80t-94 31q-70 0 -107.5 -34t-37.5 -99v-35h-301v35q0 168 118.5 266t342.5 98q226 0 337 -91.5t111 -286.5v-414
q0 -96 80 -96h14v-207zM375 313q0 -53 32.5 -85.5t90.5 -32.5q67 0 105 37t38 108v201q-11 -29 -42.5 -49.5t-68.5 -33t-72.5 -27.5t-59 -44.5t-23.5 -73.5z" />
    <glyph glyph-name="ae" unicode="&#xe6;" horiz-adv-x="1728" 
d="M1188 231q70 0 114 32.5t58 88.5h313q-25 -173 -154 -274t-341 -101q-283 0 -428 193q-42 -82 -135 -136t-230 -54q-158 0 -256 80.5t-98 203.5q0 83 34 142t88.5 89.5t120 50.5t131 32.5t120 28t88.5 44.5t34 74v20q0 54 -33.5 82.5t-95.5 28.5q-68 0 -105.5 -35
t-37.5 -98v-35h-301v35q0 169 119 266.5t348 97.5q220 0 327 -88q125 86 310 86q105 0 191 -29.5t144 -79.5t97.5 -117t57.5 -139.5t18 -150.5v-112h-703q5 -104 56 -165t149 -61zM1180 840q-85 0 -134.5 -53t-60.5 -148h381q-4 96 -54.5 148.5t-131.5 52.5zM375 313
q0 -53 32.5 -85.5t90.5 -32.5q67 0 105 37t38 108v201q-11 -29 -42.5 -49.5t-68.5 -33t-72.5 -27.5t-59 -44.5t-23.5 -73.5z" />
    <glyph glyph-name="ccedilla" unicode="&#xe7;" horiz-adv-x="1110" 
d="M41 530q0 250 141 402.5t389 152.5q233 0 363.5 -120.5t138.5 -335.5h-317q-15 194 -176 194q-195 0 -195 -293q0 -290 197 -290q159 0 174 188h317q-6 -176 -100 -288.5t-262 -147.5l-131 -289h-316l139 293q-176 44 -269 181.5t-93 352.5z" />
    <glyph glyph-name="egrave" unicode="&#xe8;" 
d="M434 1151l-186 283h327l93 -283h-234zM580 231q70 0 114 32.5t58 88.5h313q-25 -173 -154.5 -274t-341.5 -101q-132 0 -235 42.5t-166.5 117.5t-96 171.5t-32.5 209.5q0 89 18.5 169.5t59.5 154t101.5 127t150.5 85t200 31.5q105 0 191 -29.5t144 -79.5t97.5 -117
t57.5 -139.5t18 -150.5v-112h-702q5 -104 56 -165t149 -61zM571 840q-85 0 -134 -52.5t-60 -148.5h381q-4 96 -55 148.5t-132 52.5z" />
    <glyph glyph-name="eacute" unicode="&#xe9;" 
d="M680 1151h-234l95 283h325zM580 231q70 0 114 32.5t58 88.5h313q-25 -173 -154.5 -274t-341.5 -101q-132 0 -235 42.5t-166.5 117.5t-96 171.5t-32.5 209.5q0 89 18.5 169.5t59.5 154t101.5 127t150.5 85t200 31.5q105 0 191 -29.5t144 -79.5t97.5 -117t57.5 -139.5
t18 -150.5v-112h-702q5 -104 56 -165t149 -61zM571 840q-85 0 -134 -52.5t-60 -148.5h381q-4 96 -55 148.5t-132 52.5z" />
    <glyph glyph-name="ecircumflex" unicode="&#xea;" 
d="M166 1151l237 283h312l235 -283h-264l-127 119l-127 -119h-266zM580 231q70 0 114 32.5t58 88.5h313q-25 -173 -154.5 -274t-341.5 -101q-132 0 -235 42.5t-166.5 117.5t-96 171.5t-32.5 209.5q0 89 18.5 169.5t59.5 154t101.5 127t150.5 85t200 31.5q105 0 191 -29.5
t144 -79.5t97.5 -117t57.5 -139.5t18 -150.5v-112h-702q5 -104 56 -165t149 -61zM571 840q-85 0 -134 -52.5t-60 -148.5h381q-4 96 -55 148.5t-132 52.5z" />
    <glyph glyph-name="edieresis" unicode="&#xeb;" 
d="M500 1434v-260h-301v260h301zM915 1434v-260h-299v260h299zM580 231q70 0 114 32.5t58 88.5h313q-25 -173 -154.5 -274t-341.5 -101q-132 0 -235 42.5t-166.5 117.5t-96 171.5t-32.5 209.5q0 89 18.5 169.5t59.5 154t101.5 127t150.5 85t200 31.5q105 0 191 -29.5
t144 -79.5t97.5 -117t57.5 -139.5t18 -150.5v-112h-702q5 -104 56 -165t149 -61zM571 840q-85 0 -134 -52.5t-60 -148.5h381q-4 96 -55 148.5t-132 52.5z" />
    <glyph glyph-name="igrave" unicode="&#xec;" horiz-adv-x="507" 
d="M131 1151l-186 283h327l93 -283h-234zM424 1059v-1059h-340v1059h340z" />
    <glyph glyph-name="iacute" unicode="&#xed;" horiz-adv-x="507" 
d="M375 1151h-234l95 283h325zM424 1059v-1059h-340v1059h340z" />
    <glyph glyph-name="icircumflex" unicode="&#xee;" horiz-adv-x="507" 
d="M-139 1151l237 283h312l235 -283h-264l-127 119l-127 -119h-266zM424 1059v-1059h-340v1059h340z" />
    <glyph glyph-name="idieresis" unicode="&#xef;" horiz-adv-x="507" 
d="M197 1434v-260h-301v260h301zM612 1434v-260h-299v260h299zM424 1059v-1059h-340v1059h340z" />
    <glyph glyph-name="eth" unicode="&#xf0;" horiz-adv-x="1138" 
d="M305 1100l-37 102l140 51l-177 181h371q11 -10 37.5 -35.5t42.5 -42.5l154 57l38 -102l-108 -41q330 -365 330 -742q0 -254 -138.5 -402.5t-388.5 -148.5q-255 0 -391.5 139t-136.5 394q0 103 28 189.5t74.5 145t107 99.5t124 59.5t127.5 18.5q115 0 192 -57l-202 204z
M756 522q0 136 -47.5 209.5t-139.5 73.5q-184 0 -184 -283q0 -134 46 -208t138 -74t139.5 74.5t47.5 207.5z" />
    <glyph glyph-name="ntilde" unicode="&#xf1;" 
d="M416 1444q51 0 149 -26.5t137 -26.5q31 0 44 13.5t24 51.5h162q-12 -135 -71.5 -203.5t-153.5 -68.5q-54 0 -152 25.5t-123 25.5q-32 0 -48.5 -15t-27.5 -51h-163q13 136 72.5 205.5t150.5 69.5zM84 1059h334v-144q52 84 133 128t170 44q153 0 237 -88.5t84 -250.5v-748
h-342v674q0 72 -34.5 111.5t-96.5 39.5q-63 0 -104 -42.5t-41 -108.5v-674h-340v1059z" />
    <glyph glyph-name="ograve" unicode="&#xf2;" horiz-adv-x="1144" 
d="M449 1151l-187 283h328l92 -283h-233zM1104 532q0 -261 -139 -408t-394 -147q-254 0 -392 146.5t-138 408.5q0 259 139.5 406t390.5 147q254 0 393.5 -147t139.5 -406zM760 532q0 141 -48 216t-141 75q-186 0 -186 -291q0 -292 186 -292q93 0 141 75t48 217z" />
    <glyph glyph-name="oacute" unicode="&#xf3;" horiz-adv-x="1144" 
d="M694 1151h-233l94 283h326zM1104 532q0 -261 -139 -408t-394 -147q-254 0 -392 146.5t-138 408.5q0 259 139.5 406t390.5 147q254 0 393.5 -147t139.5 -406zM760 532q0 141 -48 216t-141 75q-186 0 -186 -291q0 -292 186 -292q93 0 141 75t48 217z" />
    <glyph glyph-name="ocircumflex" unicode="&#xf4;" horiz-adv-x="1144" 
d="M180 1151l238 283h311l236 -283h-265l-127 119l-127 -119h-266zM1104 532q0 -261 -139 -408t-394 -147q-254 0 -392 146.5t-138 408.5q0 259 139.5 406t390.5 147q254 0 393.5 -147t139.5 -406zM760 532q0 141 -48 216t-141 75q-186 0 -186 -291q0 -292 186 -292
q93 0 141 75t48 217z" />
    <glyph glyph-name="otilde" unicode="&#xf5;" horiz-adv-x="1144" 
d="M426 1444q51 0 149.5 -26.5t137.5 -26.5q31 0 43.5 13.5t23.5 51.5h162q-12 -135 -71.5 -203.5t-153.5 -68.5q-54 0 -152 25.5t-123 25.5q-32 0 -48 -15t-27 -51h-164q13 136 72.5 205.5t150.5 69.5zM1104 532q0 -261 -139 -408t-394 -147q-254 0 -392 146.5t-138 408.5
q0 259 139.5 406t390.5 147q254 0 393.5 -147t139.5 -406zM760 532q0 141 -48 216t-141 75q-186 0 -186 -291q0 -292 186 -292q93 0 141 75t48 217z" />
    <glyph glyph-name="odieresis" unicode="&#xf6;" horiz-adv-x="1144" 
d="M514 1434v-260h-301v260h301zM930 1434v-260h-299v260h299zM1104 532q0 -261 -139 -408t-394 -147q-254 0 -392 146.5t-138 408.5q0 259 139.5 406t390.5 147q254 0 393.5 -147t139.5 -406zM760 532q0 141 -48 216t-141 75q-186 0 -186 -291q0 -292 186 -292q93 0 141 75
t48 217z" />
    <glyph glyph-name="divide" unicode="&#xf7;" horiz-adv-x="968" 
d="M346 909v244h277v-244h-277zM47 578v258h875v-258h-875zM346 260v246h277v-246h-277z" />
    <glyph glyph-name="oslash" unicode="&#xf8;" horiz-adv-x="1144" 
d="M104 -6l86 119q-149 149 -149 417q0 259 139.5 406t390.5 147q166 0 287 -65l82 110l100 -75l-82 -111q146 -146 146 -412q0 -261 -139 -408t-394 -147q-161 0 -280 64l-88 -121zM385 530q0 -82 14 -137l285 387q-47 41 -113 41q-186 0 -186 -291zM760 530q0 72 -12 125
l-283 -381q42 -36 106 -36q93 0 141 75t48 217z" />
    <glyph glyph-name="ugrave" unicode="&#xf9;" horiz-adv-x="1101" 
d="M426 1151l-186 283h327l92 -283h-233zM1018 0h-334v145q-97 -172 -293 -172q-141 0 -227 85t-86 245v756h342v-688q0 -69 33.5 -102t91.5 -33q62 0 96.5 35.5t34.5 105.5v682h342v-1059z" />
    <glyph glyph-name="uacute" unicode="&#xfa;" horiz-adv-x="1101" 
d="M670 1151h-234l94 283h326zM1018 0h-334v145q-97 -172 -293 -172q-141 0 -227 85t-86 245v756h342v-688q0 -69 33.5 -102t91.5 -33q62 0 96.5 35.5t34.5 105.5v682h342v-1059z" />
    <glyph glyph-name="ucircumflex" unicode="&#xfb;" horiz-adv-x="1101" 
d="M158 1151l237 283h312l235 -283h-264l-127 119l-127 -119h-266zM1018 0h-334v145q-97 -172 -293 -172q-141 0 -227 85t-86 245v756h342v-688q0 -69 33.5 -102t91.5 -33q62 0 96.5 35.5t34.5 105.5v682h342v-1059z" />
    <glyph glyph-name="udieresis" unicode="&#xfc;" horiz-adv-x="1101" 
d="M492 1434v-260h-302v260h302zM907 1434v-260h-299v260h299zM1018 0h-334v145q-97 -172 -293 -172q-141 0 -227 85t-86 245v756h342v-688q0 -69 33.5 -102t91.5 -33q62 0 96.5 35.5t34.5 105.5v682h342v-1059z" />
    <glyph glyph-name="yacute" unicode="&#xfd;" horiz-adv-x="1040" 
d="M647 1151h-233l94 283h326zM346 1059l193 -623l178 623h319l-381 -1165q-44 -135 -138 -206t-230 -71q-167 0 -285 90l127 209q48 -45 111 -45q85 0 112 82l21 61l-377 1045h350z" />
    <glyph glyph-name="thorn" unicode="&#xfe;" horiz-adv-x="1177" 
d="M424 -379h-340v1813h340v-531q43 89 123.5 135.5t181.5 46.5q194 0 299 -141.5t105 -392.5q0 -270 -110.5 -423t-303.5 -153q-102 0 -177.5 48t-117.5 135v-537zM414 530q0 -294 186 -294q188 0 188 294q0 297 -188 297q-186 0 -186 -297z" />
    <glyph glyph-name="ydieresis" unicode="&#xff;" horiz-adv-x="1040" 
d="M469 1434v-260h-301v260h301zM885 1434v-260h-299v260h299zM346 1059l193 -623l178 623h319l-381 -1165q-44 -135 -138 -206t-230 -71q-167 0 -285 90l127 209q48 -45 111 -45q85 0 112 82l21 61l-377 1045h350z" />
    <glyph glyph-name="Amacron" unicode="&#x100;" horiz-adv-x="1363" 
d="M375 1563v215h633v-215h-633zM1360 0h-365l-88 291h-467l-88 -291h-348l461 1434h434zM520 555h305l-153 504z" />
    <glyph glyph-name="amacron" unicode="&#x101;" horiz-adv-x="1089" 
d="M209 1188v215h633v-215h-633zM1077 -8h-166q-95 0 -162.5 39t-86.5 106q-103 -157 -318 -157q-131 0 -222 77.5t-91 204.5q0 66 21 117t56.5 82.5t82 54.5t97.5 36.5t102 25t97.5 23t82 27t56.5 41.5t21 62v14q0 49 -33 80t-94 31q-70 0 -107.5 -34t-37.5 -99v-35h-301
v35q0 168 118.5 266t342.5 98q226 0 337 -91.5t111 -286.5v-414q0 -96 80 -96h14v-207zM375 313q0 -53 32.5 -85.5t90.5 -32.5q67 0 105 37t38 108v201q-11 -29 -42.5 -49.5t-68.5 -33t-72.5 -27.5t-59 -44.5t-23.5 -73.5z" />
    <glyph glyph-name="Abreve" unicode="&#x102;" horiz-adv-x="1363" 
d="M348 1849h195q14 -62 49.5 -92.5t99.5 -30.5q122 -3 150 123h192q-13 -141 -101 -227t-241 -86t-242.5 86.5t-101.5 226.5zM1360 0h-365l-88 291h-467l-88 -291h-348l461 1434h434zM520 555h305l-153 504z" />
    <glyph glyph-name="abreve" unicode="&#x103;" horiz-adv-x="1089" 
d="M182 1475h195q14 -62 49.5 -92.5t99.5 -30.5q122 -3 150 123h192q-13 -141 -101 -227.5t-241 -86.5t-242.5 86.5t-101.5 227.5zM1077 -8h-166q-95 0 -162.5 39t-86.5 106q-103 -157 -318 -157q-131 0 -222 77.5t-91 204.5q0 66 21 117t56.5 82.5t82 54.5t97.5 36.5
t102 25t97.5 23t82 27t56.5 41.5t21 62v14q0 49 -33 80t-94 31q-70 0 -107.5 -34t-37.5 -99v-35h-301v35q0 168 118.5 266t342.5 98q226 0 337 -91.5t111 -286.5v-414q0 -96 80 -96h14v-207zM375 313q0 -53 32.5 -85.5t90.5 -32.5q67 0 105 37t38 108v201
q-11 -29 -42.5 -49.5t-68.5 -33t-72.5 -27.5t-59 -44.5t-23.5 -73.5z" />
    <glyph glyph-name="Aogonek" unicode="&#x104;" horiz-adv-x="1363" 
d="M1360 0h-105q-53 -63 -81.5 -106.5t-28.5 -75.5q0 -47 69 -47q45 0 95 20v-164q-90 -33 -209 -33q-89 0 -156 31q-67 34 -67 115q0 121 198 260h-80l-88 291h-467l-88 -291h-348l461 1434h434zM520 555h305l-153 504z" />
    <glyph glyph-name="aogonek" unicode="&#x105;" horiz-adv-x="1089" 
d="M1012 -209v-164q-90 -33 -209 -33q-89 0 -156 31q-67 34 -67 115q0 129 215 270q-52 17 -86.5 50t-46.5 77q-103 -157 -318 -157q-131 0 -222 77.5t-91 204.5q0 66 21 117t56.5 82.5t82 54.5t97.5 36.5t102 25t97.5 23t82 27t56.5 41.5t21 62v14q0 49 -33 80t-94 31
q-70 0 -107.5 -34t-37.5 -99v-35h-301v35q0 168 118.5 266t342.5 98q226 0 337 -91.5t111 -286.5v-414q0 -96 80 -96h14v-207h-127q-102 -126 -102 -174q0 -47 70 -47q44 0 94 20zM375 313q0 -53 32.5 -85.5t90.5 -32.5q67 0 105 37t38 108v201q-11 -29 -42.5 -49.5
t-68.5 -33t-72.5 -27.5t-59 -44.5t-23.5 -73.5z" />
    <glyph glyph-name="Cacute" unicode="&#x106;" horiz-adv-x="1462" 
d="M858 1526h-233l94 282h325zM1421 848h-350q-11 139 -94.5 223t-222.5 84q-159 0 -245.5 -119.5t-86.5 -320.5q0 -199 86 -317.5t246 -118.5q143 0 224.5 83t92.5 224h350q-6 -135 -53.5 -247t-131.5 -193t-209 -126t-279 -45q-168 0 -301.5 55t-220 154t-132 234
t-45.5 297q0 160 47.5 296t136.5 235.5t224 155.5t301 56q154 0 277.5 -44.5t205.5 -125.5t128 -192.5t52 -247.5z" />
    <glyph glyph-name="cacute" unicode="&#x107;" horiz-adv-x="1110" 
d="M678 1151h-234l95 283h325zM41 530q0 250 141 402.5t389 152.5q233 0 363.5 -120.5t138.5 -335.5h-317q-15 194 -176 194q-195 0 -195 -293q0 -290 197 -290q159 0 174 188h317q-8 -212 -140.5 -331.5t-365.5 -119.5q-254 0 -390 146t-136 407z" />
    <glyph glyph-name="Ccircumflex" unicode="&#x108;" horiz-adv-x="1462" 
d="M346 1526l238 282h311l235 -282h-264l-127 119l-127 -119h-266zM1421 848h-350q-11 139 -94.5 223t-222.5 84q-159 0 -245.5 -119.5t-86.5 -320.5q0 -199 86 -317.5t246 -118.5q143 0 224.5 83t92.5 224h350q-6 -135 -53.5 -247t-131.5 -193t-209 -126t-279 -45
q-168 0 -301.5 55t-220 154t-132 234t-45.5 297q0 160 47.5 296t136.5 235.5t224 155.5t301 56q154 0 277.5 -44.5t205.5 -125.5t128 -192.5t52 -247.5z" />
    <glyph glyph-name="ccircumflex" unicode="&#x109;" horiz-adv-x="1110" 
d="M164 1151l237 283h312l235 -283h-264l-127 119l-127 -119h-266zM41 530q0 250 141 402.5t389 152.5q233 0 363.5 -120.5t138.5 -335.5h-317q-15 194 -176 194q-195 0 -195 -293q0 -290 197 -290q159 0 174 188h317q-8 -212 -140.5 -331.5t-365.5 -119.5q-254 0 -390 146
t-136 407z" />
    <glyph glyph-name="Cdotaccent" unicode="&#x10a;" horiz-adv-x="1462" 
d="M895 1808v-260h-315v260h315zM1421 848h-350q-11 139 -94.5 223t-222.5 84q-159 0 -245.5 -119.5t-86.5 -320.5q0 -199 86 -317.5t246 -118.5q143 0 224.5 83t92.5 224h350q-6 -135 -53.5 -247t-131.5 -193t-209 -126t-279 -45q-168 0 -301.5 55t-220 154t-132 234
t-45.5 297q0 160 47.5 296t136.5 235.5t224 155.5t301 56q154 0 277.5 -44.5t205.5 -125.5t128 -192.5t52 -247.5z" />
    <glyph glyph-name="cdotaccent" unicode="&#x10b;" horiz-adv-x="1110" 
d="M715 1434v-260h-316v260h316zM41 530q0 250 141 402.5t389 152.5q233 0 363.5 -120.5t138.5 -335.5h-317q-15 194 -176 194q-195 0 -195 -293q0 -290 197 -290q159 0 174 188h317q-8 -212 -140.5 -331.5t-365.5 -119.5q-254 0 -390 146t-136 407z" />
    <glyph glyph-name="Ccaron" unicode="&#x10c;" horiz-adv-x="1462" 
d="M346 1808h266l127 -118l127 118h264l-235 -282h-311zM1421 848h-350q-11 139 -94.5 223t-222.5 84q-159 0 -245.5 -119.5t-86.5 -320.5q0 -199 86 -317.5t246 -118.5q143 0 224.5 83t92.5 224h350q-6 -135 -53.5 -247t-131.5 -193t-209 -126t-279 -45q-168 0 -301.5 55
t-220 154t-132 234t-45.5 297q0 160 47.5 296t136.5 235.5t224 155.5t301 56q154 0 277.5 -44.5t205.5 -125.5t128 -192.5t52 -247.5z" />
    <glyph glyph-name="ccaron" unicode="&#x10d;" horiz-adv-x="1110" 
d="M164 1434h266l127 -119l127 119h264l-235 -283h-312zM41 530q0 250 141 402.5t389 152.5q233 0 363.5 -120.5t138.5 -335.5h-317q-15 194 -176 194q-195 0 -195 -293q0 -290 197 -290q159 0 174 188h317q-8 -212 -140.5 -331.5t-365.5 -119.5q-254 0 -390 146t-136 407z
" />
    <glyph glyph-name="Dcaron" unicode="&#x10e;" horiz-adv-x="1468" 
d="M350 1808h266l127 -118l127 118h265l-236 -282h-311zM102 0v1434h578q339 0 539 -193.5t200 -523.5q0 -328 -200.5 -522.5t-538.5 -194.5h-578zM469 293h184q182 0 288 116t106 308q0 196 -108.5 310t-299.5 114h-170v-848z" />
    <glyph glyph-name="dcaron" unicode="&#x10f;" horiz-adv-x="1392" 
d="M752 0v158q-42 -87 -119.5 -135t-179.5 -48q-192 0 -301 147.5t-109 409.5q0 258 112.5 405.5t309.5 147.5q204 0 287 -182v531h342v-1434h-342zM1325 913h-158l152 226h-152v295h308v-295zM762 530q0 297 -187 297q-188 0 -188 -297q0 -294 188 -294q187 0 187 294z" />
    <glyph glyph-name="Dcroat" unicode="&#x110;" horiz-adv-x="1511" 
d="M145 0v604h-122v225h122v605h578q339 0 539 -193.5t200 -523.5q0 -328 -200.5 -522.5t-538.5 -194.5h-578zM512 293h184q182 0 288 116t106 308q0 196 -108.5 310t-299.5 114h-170v-312h383v-225h-383v-311z" />
    <glyph glyph-name="dcroat" unicode="&#x111;" horiz-adv-x="1177" 
d="M752 0v158q-42 -87 -119.5 -135t-179.5 -48q-192 0 -301 147.5t-109 409.5q0 258 112.5 405.5t309.5 147.5q204 0 287 -182v289h-162v104h162v138h342v-138h82v-104h-82v-1192h-342zM762 530q0 297 -187 297q-188 0 -188 -297q0 -294 188 -294q187 0 187 294z" />
    <glyph glyph-name="Emacron" unicode="&#x112;" horiz-adv-x="1241" 
d="M319 1563v215h633v-215h-633zM1182 299v-299h-1080v1434h1080v-299h-713v-267h610v-293h-610v-276h713z" />
    <glyph glyph-name="emacron" unicode="&#x113;" 
d="M242 1188v215h632v-215h-632zM580 231q70 0 114 32.5t58 88.5h313q-25 -173 -154.5 -274t-341.5 -101q-132 0 -235 42.5t-166.5 117.5t-96 171.5t-32.5 209.5q0 89 18.5 169.5t59.5 154t101.5 127t150.5 85t200 31.5q105 0 191 -29.5t144 -79.5t97.5 -117t57.5 -139.5
t18 -150.5v-112h-702q5 -104 56 -165t149 -61zM571 840q-85 0 -134 -52.5t-60 -148.5h381q-4 96 -55 148.5t-132 52.5z" />
    <glyph glyph-name="Ebreve" unicode="&#x114;" horiz-adv-x="1241" 
d="M293 1849h194q14 -62 50 -92.5t100 -30.5q121 -3 149 123h193q-13 -141 -101 -227t-241 -86t-242.5 86.5t-101.5 226.5zM1182 299v-299h-1080v1434h1080v-299h-713v-267h610v-293h-610v-276h713z" />
    <glyph glyph-name="ebreve" unicode="&#x115;" 
d="M215 1475h195q14 -62 49.5 -92.5t99.5 -30.5q122 -3 150 123h192q-13 -141 -101 -227.5t-241 -86.5t-242.5 86.5t-101.5 227.5zM580 231q70 0 114 32.5t58 88.5h313q-25 -173 -154.5 -274t-341.5 -101q-132 0 -235 42.5t-166.5 117.5t-96 171.5t-32.5 209.5
q0 89 18.5 169.5t59.5 154t101.5 127t150.5 85t200 31.5q105 0 191 -29.5t144 -79.5t97.5 -117t57.5 -139.5t18 -150.5v-112h-702q5 -104 56 -165t149 -61zM571 840q-85 0 -134 -52.5t-60 -148.5h381q-4 96 -55 148.5t-132 52.5z" />
    <glyph glyph-name="Edotaccent" unicode="&#x116;" horiz-adv-x="1241" 
d="M793 1808v-260h-316v260h316zM1182 299v-299h-1080v1434h1080v-299h-713v-267h610v-293h-610v-276h713z" />
    <glyph glyph-name="edotaccent" unicode="&#x117;" 
d="M717 1434v-260h-316v260h316zM580 231q70 0 114 32.5t58 88.5h313q-25 -173 -154.5 -274t-341.5 -101q-132 0 -235 42.5t-166.5 117.5t-96 171.5t-32.5 209.5q0 89 18.5 169.5t59.5 154t101.5 127t150.5 85t200 31.5q105 0 191 -29.5t144 -79.5t97.5 -117t57.5 -139.5
t18 -150.5v-112h-702q5 -104 56 -165t149 -61zM571 840q-85 0 -134 -52.5t-60 -148.5h381q-4 96 -55 148.5t-132 52.5z" />
    <glyph glyph-name="Eogonek" unicode="&#x118;" horiz-adv-x="1241" 
d="M1182 299v-299h-215q-35 -42 -55 -68t-38 -59t-18 -55q0 -47 70 -47q44 0 94 20v-164q-90 -33 -209 -33q-89 0 -156 31q-67 34 -67 115q0 121 198 260h-684v1434h1080v-299h-713v-267h610v-293h-610v-276h713z" />
    <glyph glyph-name="eogonek" unicode="&#x119;" horiz-adv-x="1122" 
d="M582 231q70 0 114 32.5t58 88.5h313q-19 -125 -94 -214t-199 -130q-88 -107 -88 -155t70 -48q42 0 94 21v-164q-90 -33 -209 -33q-89 0 -156 31q-67 34 -67 115q0 96 125 202q-246 12 -374 161.5t-128 379.5q0 89 18.5 169.5t59.5 154t101.5 127t150.5 85t200 31.5
q105 0 191 -29.5t144 -79.5t97.5 -117t57.5 -139.5t18 -150.5v-112h-702q5 -104 56 -165t149 -61zM573 840q-85 0 -134 -52.5t-60 -148.5h381q-4 96 -55 148.5t-132 52.5z" />
    <glyph glyph-name="Ecaron" unicode="&#x11a;" horiz-adv-x="1241" 
d="M244 1808h266l127 -118l127 118h264l-235 -282h-312zM1182 299v-299h-1080v1434h1080v-299h-713v-267h610v-293h-610v-276h713z" />
    <glyph glyph-name="ecaron" unicode="&#x11b;" 
d="M166 1434h266l127 -119l127 119h264l-235 -283h-312zM580 231q70 0 114 32.5t58 88.5h313q-25 -173 -154.5 -274t-341.5 -101q-132 0 -235 42.5t-166.5 117.5t-96 171.5t-32.5 209.5q0 89 18.5 169.5t59.5 154t101.5 127t150.5 85t200 31.5q105 0 191 -29.5t144 -79.5
t97.5 -117t57.5 -139.5t18 -150.5v-112h-702q5 -104 56 -165t149 -61zM571 840q-85 0 -134 -52.5t-60 -148.5h381q-4 96 -55 148.5t-132 52.5z" />
    <glyph glyph-name="Gcircumflex" unicode="&#x11c;" horiz-adv-x="1517" 
d="M367 1526l237 282h311l236 -282h-264l-127 119l-127 -119h-266zM1120 0v172q-125 -197 -424 -197q-194 0 -341.5 91.5t-226.5 255t-79 374.5q0 226 92 399.5t257.5 268t379.5 94.5q305 0 487 -160t189 -438h-352q-10 141 -95 218t-223 77q-166 0 -264 -120.5t-98 -332.5
q0 -204 95 -322t259 -118q129 0 212 61.5t106 174.5h-361v252h705v-750h-318z" />
    <glyph glyph-name="gcircumflex" unicode="&#x11d;" horiz-adv-x="1175" 
d="M186 1151l238 283h311l236 -283h-264l-127 119l-127 -119h-267zM561 -150q97 0 144 39t47 127v177q-41 -80 -120.5 -125t-178.5 -45q-186 0 -298 139.5t-112 392.5q0 252 115.5 391t304.5 139q206 0 289 -170v144h340v-1041q0 -105 -40 -184.5t-112.5 -127.5
t-167.5 -71.5t-211 -23.5q-254 0 -371.5 89.5t-119.5 272.5h323q0 -54 41.5 -88.5t126.5 -34.5zM762 553q0 140 -48 211.5t-141 71.5q-186 0 -186 -283q0 -137 47 -209t139 -72t140.5 72t48.5 209z" />
    <glyph glyph-name="Gbreve" unicode="&#x11e;" horiz-adv-x="1517" 
d="M416 1849h194q14 -62 50 -92.5t100 -30.5q121 -3 149 123h193q-13 -141 -101 -227t-241 -86t-242.5 86.5t-101.5 226.5zM1120 0v172q-125 -197 -424 -197q-194 0 -341.5 91.5t-226.5 255t-79 374.5q0 226 92 399.5t257.5 268t379.5 94.5q305 0 487 -160t189 -438h-352
q-10 141 -95 218t-223 77q-166 0 -264 -120.5t-98 -332.5q0 -204 95 -322t259 -118q129 0 212 61.5t106 174.5h-361v252h705v-750h-318z" />
    <glyph glyph-name="gbreve" unicode="&#x11f;" horiz-adv-x="1175" 
d="M236 1475h194q14 -62 50 -92.5t100 -30.5q121 -3 149 123h193q-13 -141 -101 -227.5t-241 -86.5t-242.5 86.5t-101.5 227.5zM561 -150q97 0 144 39t47 127v177q-41 -80 -120.5 -125t-178.5 -45q-186 0 -298 139.5t-112 392.5q0 252 115.5 391t304.5 139q206 0 289 -170
v144h340v-1041q0 -105 -40 -184.5t-112.5 -127.5t-167.5 -71.5t-211 -23.5q-254 0 -371.5 89.5t-119.5 272.5h323q0 -54 41.5 -88.5t126.5 -34.5zM762 553q0 140 -48 211.5t-141 71.5q-186 0 -186 -283q0 -137 47 -209t139 -72t140.5 72t48.5 209z" />
    <glyph glyph-name="Gdotaccent" unicode="&#x120;" horiz-adv-x="1517" 
d="M918 1808v-260h-316v260h316zM1120 0v172q-125 -197 -424 -197q-194 0 -341.5 91.5t-226.5 255t-79 374.5q0 226 92 399.5t257.5 268t379.5 94.5q305 0 487 -160t189 -438h-352q-10 141 -95 218t-223 77q-166 0 -264 -120.5t-98 -332.5q0 -204 95 -322t259 -118
q129 0 212 61.5t106 174.5h-361v252h705v-750h-318z" />
    <glyph glyph-name="gdotaccent" unicode="&#x121;" horiz-adv-x="1175" 
d="M737 1434v-260h-315v260h315zM561 -150q97 0 144 39t47 127v177q-41 -80 -120.5 -125t-178.5 -45q-186 0 -298 139.5t-112 392.5q0 252 115.5 391t304.5 139q206 0 289 -170v144h340v-1041q0 -105 -40 -184.5t-112.5 -127.5t-167.5 -71.5t-211 -23.5q-254 0 -371.5 89.5
t-119.5 272.5h323q0 -54 41.5 -88.5t126.5 -34.5zM762 553q0 140 -48 211.5t-141 71.5q-186 0 -186 -283q0 -137 47 -209t139 -72t140.5 72t48.5 209z" />
    <glyph glyph-name="Gcommaaccent" unicode="&#x122;" horiz-adv-x="1517" 
d="M1120 0v172q-125 -197 -424 -197q-194 0 -341.5 91.5t-226.5 255t-79 374.5q0 226 92 399.5t257.5 268t379.5 94.5q305 0 487 -160t189 -438h-352q-10 141 -95 218t-223 77q-166 0 -264 -120.5t-98 -332.5q0 -204 95 -322t259 -118q129 0 212 61.5t106 174.5h-361v252
h705v-750h-318zM758 -502h-133l151 178h-166v236h299v-236z" />
    <glyph glyph-name="gcommaaccent" unicode="&#x123;" horiz-adv-x="1175" 
d="M625 1694h155l-205 -226h179v-309h-334v309zM561 -150q97 0 144 39t47 127v177q-41 -80 -120.5 -125t-178.5 -45q-186 0 -298 139.5t-112 392.5q0 252 115.5 391t304.5 139q206 0 289 -170v144h340v-1041q0 -105 -40 -184.5t-112.5 -127.5t-167.5 -71.5t-211 -23.5
q-254 0 -371.5 89.5t-119.5 272.5h323q0 -54 41.5 -88.5t126.5 -34.5zM762 553q0 140 -48 211.5t-141 71.5q-186 0 -186 -283q0 -137 47 -209t139 -72t140.5 72t48.5 209z" />
    <glyph glyph-name="Hcircumflex" unicode="&#x124;" horiz-adv-x="1429" 
d="M324 1526l237 282h311l236 -282h-264l-127 119l-127 -119h-266zM102 1434h367v-566h492v566h366v-1434h-366v575h-492v-575h-367v1434z" />
    <glyph glyph-name="hcircumflex" unicode="&#x125;" 
d="M170 1526l238 282h311l235 -282h-264l-127 119l-127 -119h-266zM84 1434h340v-508q54 82 133.5 121.5t163.5 39.5q154 0 237.5 -89t83.5 -250v-748h-342v674q0 74 -35 112.5t-96 38.5t-103 -41.5t-42 -109.5v-674h-340v1434z" />
    <glyph glyph-name="Hbar" unicode="&#x126;" horiz-adv-x="1472" 
d="M23 1223h100v211h366v-211h492v211h367v-211h102v-156h-102v-1067h-367v575h-492v-575h-366v1067h-100v156zM489 868h492v199h-492v-199z" />
    <glyph glyph-name="hbar" unicode="&#x127;" 
d="M2 1192v104h82v138h340v-138h149v-104h-149v-266q54 82 133.5 121.5t163.5 39.5q154 0 237.5 -89t83.5 -250v-748h-342v674q0 74 -35 112.5t-96 38.5t-103 -41.5t-42 -109.5v-674h-340v1192h-82z" />
    <glyph glyph-name="Itilde" unicode="&#x128;" horiz-adv-x="571" 
d="M139 1819q51 0 149.5 -27t137.5 -27q31 0 44 14t24 52h161q-12 -135 -71.5 -203.5t-153.5 -68.5q-54 0 -151.5 25.5t-122.5 25.5q-32 0 -48.5 -15t-27.5 -51h-164q13 136 72.5 205.5t150.5 69.5zM102 1434h367v-1434h-367v1434z" />
    <glyph glyph-name="itilde" unicode="&#x129;" horiz-adv-x="507" 
d="M106 1444q51 0 149.5 -26.5t137.5 -26.5q31 0 44 13.5t24 51.5h162q-12 -135 -72 -203.5t-154 -68.5q-54 0 -151.5 25.5t-122.5 25.5q-32 0 -48.5 -15t-27.5 -51h-164q13 136 72.5 205.5t150.5 69.5zM424 1059v-1059h-340v1059h340z" />
    <glyph glyph-name="Imacron" unicode="&#x12a;" horiz-adv-x="571" 
d="M-31 1563v215h633v-215h-633zM102 1434h367v-1434h-367v1434z" />
    <glyph glyph-name="imacron" unicode="&#x12b;" horiz-adv-x="507" 
d="M-63 1188v215h632v-215h-632zM424 1059v-1059h-340v1059h340z" />
    <glyph glyph-name="Ibreve" unicode="&#x12c;" horiz-adv-x="571" 
d="M-57 1849h194q14 -62 50 -92.5t100 -30.5q121 -3 149 123h193q-13 -141 -101 -227t-241 -86t-242.5 86.5t-101.5 226.5zM102 1434h367v-1434h-367v1434z" />
    <glyph glyph-name="ibreve" unicode="&#x12d;" horiz-adv-x="507" 
d="M-90 1475h194q14 -62 50 -92.5t100 -30.5q121 -3 149 123h193q-13 -141 -101 -227.5t-241 -86.5t-242.5 86.5t-101.5 227.5zM424 1059v-1059h-340v1059h340z" />
    <glyph glyph-name="Iogonek" unicode="&#x12e;" horiz-adv-x="571" 
d="M102 1434h367v-1434h-100q-35 -42 -55 -68t-38 -59t-18 -55q0 -47 70 -47q44 0 94 20v-164q-90 -33 -209 -33q-89 0 -156 31q-67 34 -67 115q0 121 198 260h-86v1434z" />
    <glyph glyph-name="iogonek" unicode="&#x12f;" horiz-adv-x="507" 
d="M424 1434v-260h-340v260h340zM424 1059v-1059h-98q-35 -42 -55 -68t-38 -59t-18 -55q0 -47 70 -47q44 0 94 20v-164q-90 -33 -209 -33q-89 0 -156 31q-67 34 -67 115q0 121 198 260h-61v1059h340z" />
    <glyph glyph-name="Idotaccent" unicode="&#x130;" horiz-adv-x="571" 
d="M444 1808v-260h-315v260h315zM102 1434h367v-1434h-367v1434z" />
    <glyph glyph-name="dotlessi" unicode="&#x131;" horiz-adv-x="507" 
d="M424 1059v-1059h-340v1059h340z" />
    <glyph glyph-name="IJ" unicode="&#x132;" horiz-adv-x="1689" 
d="M102 1434h367v-1434h-367v1434zM1096 -25q-126 0 -220 30.5t-149.5 85t-82 122.5t-26.5 149v162h332v-118q0 -144 142 -144q145 0 145 144v1028h358v-1026q0 -202 -128 -317.5t-371 -115.5z" />
    <glyph glyph-name="ij" unicode="&#x133;" horiz-adv-x="1032" 
d="M424 1434v-260h-340v260h340zM948 1434v-260h-340v260h340zM424 1059v-1059h-340v1059h340zM608 1059h340v-1170q0 -124 -70 -196t-216 -72h-189v219h49q43 0 64.5 17.5t21.5 68.5v1133z" />
    <glyph glyph-name="Jcircumflex" unicode="&#x134;" horiz-adv-x="1097" 
d="M432 1526l238 282h311l236 -282h-265l-127 119l-127 -119h-266zM504 -25q-126 0 -220 30.5t-149 85t-81.5 122.5t-26.5 149v162h331v-118q0 -144 142 -144q145 0 145 144v1028h359v-1026q0 -202 -128.5 -317.5t-371.5 -115.5z" />
    <glyph glyph-name="jcircumflex" unicode="&#x135;" horiz-adv-x="507" 
d="M-143 1151l237 283h312l235 -283h-264l-127 119l-127 -119h-266zM84 1059h340v-1170q0 -123 -70.5 -195.5t-216.5 -72.5h-188v219h49q43 0 64.5 17.5t21.5 68.5v1133z" />
    <glyph glyph-name="Kcommaaccent" unicode="&#x136;" horiz-adv-x="1370" 
d="M102 1434h367v-578l487 578h404l-535 -588l590 -846h-446l-396 569l-104 -114v-455h-367v1434zM717 -502h-133l151 178h-166v236h299v-236z" />
    <glyph glyph-name="kcommaaccent" unicode="&#x137;" horiz-adv-x="1075" 
d="M84 1434h340v-760l299 385h342l-330 -381l377 -678h-375l-231 414l-82 -95v-319h-340v1434zM549 -502h-133l151 178h-166v236h299v-236z" />
    <glyph glyph-name="kgreenlandic" unicode="&#x138;" horiz-adv-x="1075" 
d="M84 1059h340v-418l299 418h342l-322 -395l369 -664h-375l-219 387l-94 -117v-270h-340v1059z" />
    <glyph glyph-name="Lacute" unicode="&#x139;" horiz-adv-x="1130" 
d="M408 1526h-234l94 282h326zM1108 299v-299h-1006v1434h367v-1135h639z" />
    <glyph glyph-name="lacute" unicode="&#x13a;" horiz-adv-x="507" 
d="M375 1526h-234l95 282h325zM84 1434h340v-1434h-340v1434z" />
    <glyph glyph-name="Lcommaaccent" unicode="&#x13b;" horiz-adv-x="1130" 
d="M1108 299v-299h-1006v1434h367v-1135h639zM600 -502h-133l151 178h-165v236h299v-236z" />
    <glyph glyph-name="lcommaaccent" unicode="&#x13c;" horiz-adv-x="507" 
d="M84 1434h340v-1434h-340v1434zM252 -502h-133l151 178h-166v236h299v-236z" />
    <glyph glyph-name="Lcaron" unicode="&#x13d;" horiz-adv-x="1132" 
d="M1108 299v-299h-1006v1434h367v-1135h639zM809 913h-158l152 226h-152v295h307v-295z" />
    <glyph glyph-name="lcaron" unicode="&#x13e;" horiz-adv-x="724" 
d="M84 1434h340v-1434h-340v1434zM657 913h-157l151 226h-151v295h307v-295z" />
    <glyph glyph-name="Ldot" unicode="&#x13f;" horiz-adv-x="1132" 
d="M1108 299v-299h-1006v1434h367v-1135h639zM999 535h-315v317h315v-317z" />
    <glyph glyph-name="ldot" unicode="&#x140;" horiz-adv-x="788" 
d="M84 1434h340v-1434h-340v1434zM803 424h-307v307h307v-307z" />
    <glyph glyph-name="Lslash" unicode="&#x141;" horiz-adv-x="1191" 
d="M41 399v215l123 37v783h366v-672l365 110v-213l-365 -110v-250h639v-299h-1005v436z" />
    <glyph glyph-name="lslash" unicode="&#x142;" horiz-adv-x="616" 
d="M37 342v184l100 47v861h340v-699l105 49v-186l-105 -49v-549h-340v389z" />
    <glyph glyph-name="Nacute" unicode="&#x143;" horiz-adv-x="1449" 
d="M846 1526h-234l95 282h325zM989 0l-528 887v-887h-359v1434h412l475 -809v809h359v-1434h-359z" />
    <glyph glyph-name="nacute" unicode="&#x144;" 
d="M682 1151h-233l94 283h325zM84 1059h334v-144q52 84 133 128t170 44q153 0 237 -88.5t84 -250.5v-748h-342v674q0 72 -34.5 111.5t-96.5 39.5q-63 0 -104 -42.5t-41 -108.5v-674h-340v1059z" />
    <glyph glyph-name="Ncommaaccent" unicode="&#x145;" horiz-adv-x="1449" 
d="M989 0l-528 887v-887h-359v1434h412l475 -809v809h359v-1434h-359zM723 -502h-133l151 178h-166v236h299v-236z" />
    <glyph glyph-name="ncommaaccent" unicode="&#x146;" 
d="M84 1059h334v-144q52 84 133 128t170 44q153 0 237 -88.5t84 -250.5v-748h-342v674q0 72 -34.5 111.5t-96.5 39.5q-63 0 -104 -42.5t-41 -108.5v-674h-340v1059zM561 -502h-133l152 178h-166v236h299v-236z" />
    <glyph glyph-name="Ncaron" unicode="&#x147;" horiz-adv-x="1449" 
d="M332 1808h266l127 -118l127 118h264l-235 -282h-312zM989 0l-528 887v-887h-359v1434h412l475 -809v809h359v-1434h-359z" />
    <glyph glyph-name="ncaron" unicode="&#x148;" 
d="M170 1434h266l127 -119l127 119h264l-235 -283h-311zM84 1059h334v-144q52 84 133 128t170 44q153 0 237 -88.5t84 -250.5v-748h-342v674q0 72 -34.5 111.5t-96.5 39.5q-63 0 -104 -42.5t-41 -108.5v-674h-340v1059z" />
    <glyph glyph-name="napostrophe" unicode="&#x149;" 
d="M240 1145h-158l151 225h-151v295h307v-295zM84 1059h334v-144q52 84 133 128t170 44q153 0 237 -88.5t84 -250.5v-748h-342v674q0 72 -34.5 111.5t-96.5 39.5q-63 0 -104 -42.5t-41 -108.5v-674h-340v1059z" />
    <glyph glyph-name="Eng" unicode="&#x14a;" horiz-adv-x="1449" 
d="M989 0l-528 887v-887h-359v1434h412l475 -809v809h359v-1510q0 -174 -121.5 -271t-317.5 -97q-108 0 -233 36v275q91 -45 178 -45q76 0 120 38.5t44 119.5v20h-29z" />
    <glyph glyph-name="eng" unicode="&#x14b;" 
d="M84 1059h334v-144q52 84 133 128t170 44q153 0 237 -88.5t84 -250.5v-859q0 -124 -70 -196t-216 -72h-189v219h49q43 0 63.5 17t20.5 69v748q0 72 -34.5 111.5t-96.5 39.5q-63 0 -104 -42.5t-41 -108.5v-674h-340v1059z" />
    <glyph glyph-name="Omacron" unicode="&#x14c;" horiz-adv-x="1497" 
d="M432 1563v215h633v-215h-633zM1448 717q0 -160 -46.5 -295.5t-133.5 -235t-220 -155.5t-298 -56q-166 0 -299.5 56t-221 155.5t-134 235t-46.5 295.5q0 214 80 380t240.5 263.5t380.5 97.5q165 0 298 -56t220 -155.5t133.5 -234.5t46.5 -295zM1075 717q0 201 -83.5 319.5
t-241.5 118.5q-160 0 -244 -118.5t-84 -319.5t84 -319.5t244 -118.5t242.5 118t82.5 320z" />
    <glyph glyph-name="omacron" unicode="&#x14d;" horiz-adv-x="1144" 
d="M256 1188v215h633v-215h-633zM1104 532q0 -261 -139 -408t-394 -147q-254 0 -392 146.5t-138 408.5q0 259 139.5 406t390.5 147q254 0 393.5 -147t139.5 -406zM760 532q0 141 -48 216t-141 75q-186 0 -186 -291q0 -292 186 -292q93 0 141 75t48 217z" />
    <glyph glyph-name="Obreve" unicode="&#x14e;" horiz-adv-x="1497" 
d="M406 1849h194q14 -62 50 -92.5t100 -30.5q121 -3 149 123h193q-13 -141 -101 -227t-241 -86t-242.5 86.5t-101.5 226.5zM1448 717q0 -160 -46.5 -295.5t-133.5 -235t-220 -155.5t-298 -56q-166 0 -299.5 56t-221 155.5t-134 235t-46.5 295.5q0 214 80 380t240.5 263.5
t380.5 97.5q165 0 298 -56t220 -155.5t133.5 -234.5t46.5 -295zM1075 717q0 201 -83.5 319.5t-241.5 118.5q-160 0 -244 -118.5t-84 -319.5t84 -319.5t244 -118.5t242.5 118t82.5 320z" />
    <glyph glyph-name="obreve" unicode="&#x14f;" horiz-adv-x="1144" 
d="M229 1475h195q14 -62 49.5 -92.5t99.5 -30.5q122 -3 150 123h192q-13 -141 -101 -227.5t-241 -86.5t-242.5 86.5t-101.5 227.5zM1104 532q0 -261 -139 -408t-394 -147q-254 0 -392 146.5t-138 408.5q0 259 139.5 406t390.5 147q254 0 393.5 -147t139.5 -406zM760 532
q0 141 -48 216t-141 75q-186 0 -186 -291q0 -292 186 -292q93 0 141 75t48 217z" />
    <glyph glyph-name="Ohungarumlaut" unicode="&#x150;" horiz-adv-x="1497" 
d="M680 1526h-201l103 303h303zM1065 1526h-201l103 303h303zM1448 717q0 -160 -46.5 -295.5t-133.5 -235t-220 -155.5t-298 -56q-166 0 -299.5 56t-221 155.5t-134 235t-46.5 295.5q0 214 80 380t240.5 263.5t380.5 97.5q165 0 298 -56t220 -155.5t133.5 -234.5t46.5 -295z
M1075 717q0 201 -83.5 319.5t-241.5 118.5q-160 0 -244 -118.5t-84 -319.5t84 -319.5t244 -118.5t242.5 118t82.5 320z" />
    <glyph glyph-name="ohungarumlaut" unicode="&#x151;" horiz-adv-x="1144" 
d="M504 1151h-201l103 303h303zM889 1151h-201l103 303h303zM1104 532q0 -261 -139 -408t-394 -147q-254 0 -392 146.5t-138 408.5q0 259 139.5 406t390.5 147q254 0 393.5 -147t139.5 -406zM760 532q0 141 -48 216t-141 75q-186 0 -186 -291q0 -292 186 -292q93 0 141 75
t48 217z" />
    <glyph glyph-name="OE" unicode="&#x152;" horiz-adv-x="2136" 
d="M49 717q0 329 199.5 523t537.5 194h1291v-299h-713v-267h610v-293h-610v-276h713v-299h-1291q-338 0 -537.5 193.5t-199.5 523.5zM997 299v836h-184q-182 0 -287.5 -112.5t-105.5 -305.5q0 -196 108 -307t299 -111h170z" />
    <glyph glyph-name="oe" unicode="&#x153;" horiz-adv-x="1845" 
d="M1305 231q70 0 114 32.5t58 88.5h313q-25 -174 -154 -274.5t-340 -100.5q-239 0 -368 148q-130 -148 -367 -148q-245 0 -381.5 148t-136.5 407t136.5 406t381.5 147q239 0 369 -149q132 149 370 149q104 0 190 -31t142.5 -81.5t96 -118.5t56.5 -139.5t17 -145.5v-112
h-702v-2q0 -98 52.5 -161t152.5 -63zM1296 840q-85 0 -134 -52.5t-60 -148.5h381q-4 96 -55 148.5t-132 52.5zM762 532q0 141 -48 217t-141 76t-139.5 -75t-46.5 -218q0 -141 46.5 -216.5t139.5 -75.5t141 75.5t48 216.5z" />
    <glyph glyph-name="Racute" unicode="&#x154;" horiz-adv-x="1357" 
d="M801 1526h-234l95 282h325zM469 518v-518h-367v1434h678q228 0 369 -108t141 -298q0 -143 -80 -240t-204 -131q110 -41 161.5 -116t73.5 -199l33 -170q6 -41 19.5 -76.5t22.5 -51.5t27 -44h-366q-44 55 -68 180l-24 129q-21 127 -86 168t-158 41h-172zM469 770h223
q105 0 165.5 50t60.5 145q0 92 -59.5 143t-164.5 51h-225v-389z" />
    <glyph glyph-name="racute" unicode="&#x155;" horiz-adv-x="737" 
d="M512 1151h-233l94 283h325zM84 1059h315v-203q40 115 120.5 167t178.5 52h19v-346q-52 19 -90 19q-98 0 -150.5 -54t-52.5 -151v-543h-340v1059z" />
    <glyph glyph-name="Rcommaaccent" unicode="&#x156;" horiz-adv-x="1357" 
d="M469 518v-518h-367v1434h678q228 0 369 -108t141 -298q0 -143 -80 -240t-204 -131q110 -41 161.5 -116t73.5 -199l33 -170q6 -41 19.5 -76.5t22.5 -51.5t27 -44h-366q-44 55 -68 180l-24 129q-21 127 -86 168t-158 41h-172zM469 770h223q105 0 165.5 50t60.5 145
q0 92 -59.5 143t-164.5 51h-225v-389zM680 -502h-133l151 178h-166v236h299v-236z" />
    <glyph glyph-name="rcommaaccent" unicode="&#x157;" horiz-adv-x="737" 
d="M84 1059h315v-203q40 115 120.5 167t178.5 52h19v-346q-52 19 -90 19q-98 0 -150.5 -54t-52.5 -151v-543h-340v1059zM250 -502h-133l151 178h-166v236h299v-236z" />
    <glyph glyph-name="Rcaron" unicode="&#x158;" horiz-adv-x="1357" 
d="M289 1808h266l127 -118l127 118h264l-235 -282h-312zM469 518v-518h-367v1434h678q228 0 369 -108t141 -298q0 -143 -80 -240t-204 -131q110 -41 161.5 -116t73.5 -199l33 -170q6 -41 19.5 -76.5t22.5 -51.5t27 -44h-366q-44 55 -68 180l-24 129q-21 127 -86 168t-158 41
h-172zM469 770h223q105 0 165.5 50t60.5 145q0 92 -59.5 143t-164.5 51h-225v-389z" />
    <glyph glyph-name="rcaron" unicode="&#x159;" horiz-adv-x="737" 
d="M0 1434h266l127 -119l127 119h264l-235 -283h-311zM84 1059h315v-203q40 115 120.5 167t178.5 52h19v-346q-52 19 -90 19q-98 0 -150.5 -54t-52.5 -151v-543h-340v1059z" />
    <glyph glyph-name="Sacute" unicode="&#x15a;" horiz-adv-x="1253" 
d="M754 1526h-234l94 282h326zM612 -25q-275 0 -424 126t-147 350h371q-6 -93 50.5 -144t176.5 -51q95 0 146 36t51 99q0 59 -38 89.5t-130 54.5l-252 67q-81 22 -142.5 53.5t-109.5 79t-73 115.5t-25 156q0 198 153 325t422 127q263 0 405.5 -116t137.5 -324h-350
q0 78 -52 123t-157 45q-96 0 -148.5 -38t-52.5 -97q0 -54 35 -84t116 -54l250 -65q67 -17 120 -38t105 -55t86.5 -77t56 -106t21.5 -140q0 -209 -160.5 -333t-441.5 -124z" />
    <glyph glyph-name="sacute" unicode="&#x15b;" horiz-adv-x="1003" 
d="M627 1151h-234l94 283h326zM39 328h305q-2 -62 36.5 -95.5t113.5 -33.5q68 0 104.5 25t36.5 67q0 39 -25.5 57.5t-97.5 36.5l-172 39q-58 14 -104.5 34.5t-91 55.5t-69 91.5t-24.5 129.5q0 71 28.5 133.5t83 111t142.5 77t199 28.5q214 0 322 -85.5t108 -247.5h-295
q0 56 -35.5 86t-101.5 30q-63 0 -97 -26.5t-34 -65.5q0 -37 22.5 -58.5t75.5 -31.5l197 -43q62 -14 110.5 -34.5t95 -56t72 -92t25.5 -130.5q0 -160 -123 -257.5t-357 -97.5q-222 0 -336 92t-114 261z" />
    <glyph glyph-name="Scircumflex" unicode="&#x15c;" horiz-adv-x="1253" 
d="M240 1526l237 282h311l236 -282h-264l-127 119l-127 -119h-266zM612 -25q-275 0 -424 126t-147 350h371q-6 -93 50.5 -144t176.5 -51q95 0 146 36t51 99q0 59 -38 89.5t-130 54.5l-252 67q-81 22 -142.5 53.5t-109.5 79t-73 115.5t-25 156q0 198 153 325t422 127
q263 0 405.5 -116t137.5 -324h-350q0 78 -52 123t-157 45q-96 0 -148.5 -38t-52.5 -97q0 -54 35 -84t116 -54l250 -65q67 -17 120 -38t105 -55t86.5 -77t56 -106t21.5 -140q0 -209 -160.5 -333t-441.5 -124z" />
    <glyph glyph-name="scircumflex" unicode="&#x15d;" horiz-adv-x="1003" 
d="M113 1151l237 283h312l235 -283h-264l-127 119l-127 -119h-266zM39 328h305q-2 -62 36.5 -95.5t113.5 -33.5q68 0 104.5 25t36.5 67q0 39 -25.5 57.5t-97.5 36.5l-172 39q-58 14 -104.5 34.5t-91 55.5t-69 91.5t-24.5 129.5q0 71 28.5 133.5t83 111t142.5 77t199 28.5
q214 0 322 -85.5t108 -247.5h-295q0 56 -35.5 86t-101.5 30q-63 0 -97 -26.5t-34 -65.5q0 -37 22.5 -58.5t75.5 -31.5l197 -43q62 -14 110.5 -34.5t95 -56t72 -92t25.5 -130.5q0 -160 -123 -257.5t-357 -97.5q-222 0 -336 92t-114 261z" />
    <glyph glyph-name="Scedilla" unicode="&#x15e;" horiz-adv-x="1253" 
d="M655 -297h-315l135 283q-211 29 -323 149.5t-111 315.5h371q-6 -93 50.5 -144t176.5 -51q95 0 146 36t51 99q0 59 -38 89.5t-130 54.5l-252 67q-81 22 -142.5 53.5t-109.5 79t-73 115.5t-25 156q0 198 153 325t422 127q263 0 405.5 -116t137.5 -324h-350q0 78 -52 123
t-157 45q-96 0 -148.5 -38t-52.5 -97q0 -54 35 -84t116 -54l250 -65q67 -17 120 -38t105 -55t86.5 -77t56 -106t21.5 -140q0 -174 -112.5 -290.5t-315.5 -151.5z" />
    <glyph glyph-name="scedilla" unicode="&#x15f;" horiz-adv-x="1003" 
d="M39 328h305q-2 -62 36.5 -95.5t113.5 -33.5q68 0 104.5 25t36.5 67q0 39 -25.5 57.5t-97.5 36.5l-172 39q-58 14 -104.5 34.5t-91 55.5t-69 91.5t-24.5 129.5q0 71 28.5 133.5t83 111t142.5 77t199 28.5q214 0 322 -85.5t108 -247.5h-295q0 56 -35.5 86t-101.5 30
q-63 0 -97 -26.5t-34 -65.5q0 -37 22.5 -58.5t75.5 -31.5l197 -43q62 -14 110.5 -34.5t95 -56t72 -92t25.5 -130.5q0 -126 -79 -214.5t-231 -123.5l-131 -289h-315l135 285q-152 26 -230.5 114t-78.5 226z" />
    <glyph glyph-name="Scaron" unicode="&#x160;" horiz-adv-x="1253" 
d="M240 1808h266l127 -118l127 118h264l-236 -282h-311zM612 -25q-275 0 -424 126t-147 350h371q-6 -93 50.5 -144t176.5 -51q95 0 146 36t51 99q0 59 -38 89.5t-130 54.5l-252 67q-81 22 -142.5 53.5t-109.5 79t-73 115.5t-25 156q0 198 153 325t422 127q263 0 405.5 -116
t137.5 -324h-350q0 78 -52 123t-157 45q-96 0 -148.5 -38t-52.5 -97q0 -54 35 -84t116 -54l250 -65q67 -17 120 -38t105 -55t86.5 -77t56 -106t21.5 -140q0 -209 -160.5 -333t-441.5 -124z" />
    <glyph glyph-name="scaron" unicode="&#x161;" horiz-adv-x="1003" 
d="M113 1434h266l127 -119l127 119h264l-235 -283h-312zM39 328h305q-2 -62 36.5 -95.5t113.5 -33.5q68 0 104.5 25t36.5 67q0 39 -25.5 57.5t-97.5 36.5l-172 39q-58 14 -104.5 34.5t-91 55.5t-69 91.5t-24.5 129.5q0 71 28.5 133.5t83 111t142.5 77t199 28.5
q214 0 322 -85.5t108 -247.5h-295q0 56 -35.5 86t-101.5 30q-63 0 -97 -26.5t-34 -65.5q0 -37 22.5 -58.5t75.5 -31.5l197 -43q62 -14 110.5 -34.5t95 -56t72 -92t25.5 -130.5q0 -160 -123 -257.5t-357 -97.5q-222 0 -336 92t-114 261z" />
    <glyph glyph-name="Tcommaaccent" unicode="&#x162;" horiz-adv-x="1226" 
d="M1204 1135h-407v-1135h-367v1135h-407v299h1181v-299zM608 -502h-133l152 178h-166v236h299v-236z" />
    <glyph glyph-name="tcommaaccent" unicode="&#x163;" horiz-adv-x="708" 
d="M31 848v211h119v256h339v-256h181v-211h-181v-541q0 -76 82 -76q38 0 93 19v-227q-112 -35 -240 -35t-201 62t-73 188v610h-119zM346 -502h-133l152 178h-166v236h299v-236z" />
    <glyph glyph-name="Tcaron" unicode="&#x164;" horiz-adv-x="1226" 
d="M221 1808h266l127 -118l127 118h265l-236 -282h-311zM1204 1135h-407v-1135h-367v1135h-407v299h1181v-299z" />
    <glyph glyph-name="tcaron" unicode="&#x165;" horiz-adv-x="708" 
d="M745 1145h-157l151 225h-151v295h307v-295zM31 848v211h119v256h339v-256h181v-211h-181v-541q0 -76 82 -76q38 0 93 19v-227q-112 -35 -240 -35t-201 62t-73 188v610h-119z" />
    <glyph glyph-name="Tbar" unicode="&#x166;" horiz-adv-x="1230" 
d="M256 547v184h176v404h-407v299h1181v-299h-407v-404h178v-184h-178v-547h-367v547h-176z" />
    <glyph glyph-name="tbar" unicode="&#x167;" horiz-adv-x="714" 
d="M41 526v146h113v176h-119v211h119v256h340v-256h180v-211h-180v-176h186v-146h-186v-219q0 -76 81 -76q38 0 93 19v-227q-112 -35 -240 -35t-201 62t-73 188v288h-113z" />
    <glyph glyph-name="Utilde" unicode="&#x168;" horiz-adv-x="1413" 
d="M559 1819q51 0 149.5 -27t137.5 -27q30 0 43 14t24 52h162q-12 -135 -71.5 -203.5t-153.5 -68.5q-54 0 -152 25.5t-123 25.5q-32 0 -48 -15t-27 -51h-164q13 136 72.5 205.5t150.5 69.5zM711 274q124 0 190 60t66 176v924h354v-942q0 -239 -168 -378t-461 -139
q-292 0 -446 135t-154 379v945h367v-924q0 -117 64.5 -176.5t187.5 -59.5z" />
    <glyph glyph-name="utilde" unicode="&#x169;" horiz-adv-x="1101" 
d="M403 1444q51 0 149.5 -26.5t137.5 -26.5q31 0 44 13.5t24 51.5h162q-12 -135 -72 -203.5t-154 -68.5q-54 0 -151.5 25.5t-122.5 25.5q-32 0 -48.5 -15t-27.5 -51h-164q13 136 72.5 205.5t150.5 69.5zM1018 0h-334v145q-97 -172 -293 -172q-141 0 -227 85t-86 245v756h342
v-688q0 -69 33.5 -102t91.5 -33q62 0 96.5 35.5t34.5 105.5v682h342v-1059z" />
    <glyph glyph-name="Umacron" unicode="&#x16a;" horiz-adv-x="1413" 
d="M389 1563v215h633v-215h-633zM711 274q124 0 190 60t66 176v924h354v-942q0 -239 -168 -378t-461 -139q-292 0 -446 135t-154 379v945h367v-924q0 -117 64.5 -176.5t187.5 -59.5z" />
    <glyph glyph-name="umacron" unicode="&#x16b;" horiz-adv-x="1101" 
d="M233 1188v215h633v-215h-633zM1018 0h-334v145q-97 -172 -293 -172q-141 0 -227 85t-86 245v756h342v-688q0 -69 33.5 -102t91.5 -33q62 0 96.5 35.5t34.5 105.5v682h342v-1059z" />
    <glyph glyph-name="Ubreve" unicode="&#x16c;" horiz-adv-x="1413" 
d="M362 1849h195q14 -62 50 -92.5t100 -30.5q121 -3 149 123h193q-13 -141 -101 -227t-241 -86t-243 86.5t-102 226.5zM711 274q124 0 190 60t66 176v924h354v-942q0 -239 -168 -378t-461 -139q-292 0 -446 135t-154 379v945h367v-924q0 -117 64.5 -176.5t187.5 -59.5z" />
    <glyph glyph-name="ubreve" unicode="&#x16d;" horiz-adv-x="1101" 
d="M207 1475h194q14 -62 50 -92.5t100 -30.5q121 -3 149 123h193q-13 -141 -101 -227.5t-241 -86.5t-242.5 86.5t-101.5 227.5zM1018 0h-334v145q-97 -172 -293 -172q-141 0 -227 85t-86 245v756h342v-688q0 -69 33.5 -102t91.5 -33q62 0 96.5 35.5t34.5 105.5v682h342
v-1059z" />
    <glyph glyph-name="Uring" unicode="&#x16e;" horiz-adv-x="1413" 
d="M707 1520q-105 0 -175.5 69.5t-70.5 169.5t71 171t175 71t174.5 -71t70.5 -171q0 -101 -70 -170t-175 -69zM707 1880q-45 0 -80 -34t-35 -87q0 -52 35 -85.5t80 -33.5q46 0 80 33.5t34 85.5q0 54 -34 87.5t-80 33.5zM711 274q124 0 190 60t66 176v924h354v-942
q0 -239 -168 -378t-461 -139q-292 0 -446 135t-154 379v945h367v-924q0 -117 64.5 -176.5t187.5 -59.5z" />
    <glyph glyph-name="uring" unicode="&#x16f;" horiz-adv-x="1101" 
d="M549 1145q-105 0 -175.5 69.5t-70.5 169.5t71 171t175 71t175 -71t71 -171t-70.5 -169.5t-175.5 -69.5zM549 1505q-45 0 -80 -34t-35 -87q0 -52 35 -85t80 -33q46 0 80.5 33t34.5 85q0 53 -34.5 87t-80.5 34zM1018 0h-334v145q-97 -172 -293 -172q-141 0 -227 85t-86 245
v756h342v-688q0 -69 33.5 -102t91.5 -33q62 0 96.5 35.5t34.5 105.5v682h342v-1059z" />
    <glyph glyph-name="Uhungarumlaut" unicode="&#x170;" horiz-adv-x="1413" 
d="M637 1526h-201l103 303h303zM1022 1526h-201l103 303h303zM711 274q124 0 190 60t66 176v924h354v-942q0 -239 -168 -378t-461 -139q-292 0 -446 135t-154 379v945h367v-924q0 -117 64.5 -176.5t187.5 -59.5z" />
    <glyph glyph-name="uhungarumlaut" unicode="&#x171;" horiz-adv-x="1101" 
d="M479 1151h-200l102 303h303zM864 1151h-200l102 303h303zM1018 0h-334v145q-97 -172 -293 -172q-141 0 -227 85t-86 245v756h342v-688q0 -69 33.5 -102t91.5 -33q62 0 96.5 35.5t34.5 105.5v682h342v-1059z" />
    <glyph glyph-name="Uogonek" unicode="&#x172;" horiz-adv-x="1413" 
d="M711 274q124 0 190 60t66 176v924h354v-942q0 -189 -104.5 -316t-296.5 -174q-82 -105 -82 -149q0 -48 69 -48q41 0 94 21v-164q-90 -33 -208 -33q-89 0 -156 31q-68 35 -68 115q0 94 121 200q-290 0 -444 135t-154 379v945h367v-924q0 -117 64.5 -176.5t187.5 -59.5z
" />
    <glyph glyph-name="uogonek" unicode="&#x173;" horiz-adv-x="1101" 
d="M1018 0h-74q-53 -63 -81.5 -106.5t-28.5 -75.5q0 -47 69 -47q44 0 94 20v-164q-90 -33 -209 -33q-88 0 -155 31q-68 35 -68 115q0 120 199 260h-80v145q-97 -172 -293 -172q-141 0 -227 85t-86 245v756h342v-688q0 -69 33.5 -102t91.5 -33q62 0 96.5 35.5t34.5 105.5v682
h342v-1059z" />
    <glyph glyph-name="Wcircumflex" unicode="&#x174;" horiz-adv-x="1916" 
d="M565 1526l238 282h311l236 -282h-265l-127 119l-127 -119h-266zM801 1434h336l219 -895l190 895h355l-347 -1434h-380l-216 907l-217 -907h-381l-344 1434h379l187 -906z" />
    <glyph glyph-name="wcircumflex" unicode="&#x175;" horiz-adv-x="1624" 
d="M426 1151l238 283h311l235 -283h-264l-127 119l-127 -119h-266zM350 1059l154 -651l182 651h272l183 -656l155 656h322l-303 -1059h-338l-168 602l-164 -602h-336l-303 1059h344z" />
    <glyph glyph-name="Ycircumflex" unicode="&#x176;" horiz-adv-x="1368" 
d="M293 1526l237 282h312l235 -282h-264l-127 119l-127 -119h-266zM1356 1434l-488 -820v-614h-368v614l-486 820h410l274 -488l267 488h391z" />
    <glyph glyph-name="ycircumflex" unicode="&#x177;" horiz-adv-x="1040" 
d="M135 1151l238 283h311l236 -283h-265l-127 119l-127 -119h-266zM346 1059l193 -623l178 623h319l-381 -1165q-44 -135 -138 -206t-230 -71q-167 0 -285 90l127 209q48 -45 111 -45q85 0 112 82l21 61l-377 1045h350z" />
    <glyph glyph-name="Ydieresis" unicode="&#x178;" horiz-adv-x="1368" 
d="M629 1808v-260h-301v260h301zM1044 1808v-260h-299v260h299zM1356 1434l-488 -820v-614h-368v614l-486 820h410l274 -488l267 488h391z" />
    <glyph glyph-name="Zacute" unicode="&#x179;" horiz-adv-x="1251" 
d="M745 1526h-233l94 282h326zM1231 299v-299h-1196v244l670 891h-644v299h1125v-244l-676 -891h721z" />
    <glyph glyph-name="zacute" unicode="&#x17a;" horiz-adv-x="944" 
d="M600 1151h-233l94 283h325zM20 170l467 678h-430v211h844v-170l-469 -678h490v-211h-902v170z" />
    <glyph glyph-name="Zdotaccent" unicode="&#x17b;" horiz-adv-x="1251" 
d="M782 1808v-260h-315v260h315zM1231 299v-299h-1196v244l670 891h-644v299h1125v-244l-676 -891h721z" />
    <glyph glyph-name="zdotaccent" unicode="&#x17c;" horiz-adv-x="944" 
d="M637 1434v-260h-315v260h315zM20 170l467 678h-430v211h844v-170l-469 -678h490v-211h-902v170z" />
    <glyph glyph-name="Zcaron" unicode="&#x17d;" horiz-adv-x="1251" 
d="M231 1808h267l127 -118l127 118h264l-236 -282h-311zM1231 299v-299h-1196v244l670 891h-644v299h1125v-244l-676 -891h721z" />
    <glyph glyph-name="zcaron" unicode="&#x17e;" horiz-adv-x="944" 
d="M86 1434h266l127 -119l127 119h264l-235 -283h-311zM20 170l467 678h-430v211h844v-170l-469 -678h490v-211h-902v170z" />
    <glyph glyph-name="longs" unicode="&#x17f;" horiz-adv-x="632" 
d="M508 0h-342v848h-137v211h137v121q0 125 68.5 189.5t201.5 64.5h250v-207h-100q-43 0 -60.5 -14.5t-17.5 -51.5v-1161z" />
    <glyph glyph-name="florin" unicode="&#x192;" horiz-adv-x="784" 
d="M43 678h178v502q0 254 271 254h249v-207h-100q-43 0 -60.5 -14.5t-17.5 -51.5v-483h178v-195h-178v-608q0 -125 -68.5 -189.5t-201.5 -64.5h-250v207h100q43 0 60.5 14.5t17.5 51.5v589h-178v195z" />
    <glyph glyph-name="Scommaaccent" unicode="&#x218;" horiz-adv-x="1253" 
d="M612 -25q-275 0 -424 126t-147 350h371q-6 -93 50.5 -144t176.5 -51q95 0 146 36t51 99q0 59 -38 89.5t-130 54.5l-252 67q-81 22 -142.5 53.5t-109.5 79t-73 115.5t-25 156q0 198 153 325t422 127q263 0 405.5 -116t137.5 -324h-350q0 78 -52 123t-157 45
q-96 0 -148.5 -38t-52.5 -97q0 -54 35 -84t116 -54l250 -65q67 -17 120 -38t105 -55t86.5 -77t56 -106t21.5 -140q0 -209 -160.5 -333t-441.5 -124zM631 -502h-133l151 178h-166v236h299v-236z" />
    <glyph glyph-name="scommaaccent" unicode="&#x219;" horiz-adv-x="1003" 
d="M39 328h305q-2 -62 36.5 -95.5t113.5 -33.5q68 0 104.5 25t36.5 67q0 39 -25.5 57.5t-97.5 36.5l-172 39q-58 14 -104.5 34.5t-91 55.5t-69 91.5t-24.5 129.5q0 71 28.5 133.5t83 111t142.5 77t199 28.5q214 0 322 -85.5t108 -247.5h-295q0 56 -35.5 86t-101.5 30
q-63 0 -97 -26.5t-34 -65.5q0 -37 22.5 -58.5t75.5 -31.5l197 -43q62 -14 110.5 -34.5t95 -56t72 -92t25.5 -130.5q0 -160 -123 -257.5t-357 -97.5q-222 0 -336 92t-114 261zM504 -502h-133l151 178h-166v236h299v-236z" />
    <glyph glyph-name="uni021A" unicode="&#x21a;" horiz-adv-x="1226" 
d="M1204 1135h-407v-1135h-367v1135h-407v299h1181v-299zM612 -502h-133l152 178h-166v236h299v-236z" />
    <glyph glyph-name="uni021B" unicode="&#x21b;" horiz-adv-x="708" 
d="M31 848v211h119v256h339v-256h181v-211h-181v-541q0 -76 82 -76q38 0 93 19v-227q-112 -35 -240 -35t-201 62t-73 188v610h-119zM346 -502h-133l152 178h-166v236h299v-236z" />
    <glyph glyph-name="dotlessj" unicode="&#x237;" horiz-adv-x="507" 
d="M84 1059h340v-1170q0 -123 -70.5 -195.5t-216.5 -72.5h-188v219h49q43 0 64.5 17.5t21.5 68.5v1133z" />
    <glyph glyph-name="apostrophe" unicode="&#x2bc;" horiz-adv-x="471" 
d="M236 913h-170l190 267h-190v362h360v-362z" />
    <glyph glyph-name="circumflex" unicode="&#x2c6;" horiz-adv-x="960" 
d="M88 1151l238 283h311l235 -283h-264l-127 119l-127 -119h-266z" />
    <glyph glyph-name="caron" unicode="&#x2c7;" horiz-adv-x="960" 
d="M88 1434h266l127 -119l127 119h264l-235 -283h-311z" />
    <glyph glyph-name="breve" unicode="&#x2d8;" horiz-adv-x="862" 
d="M88 1475h195q14 -62 49.5 -92.5t99.5 -30.5q122 -3 150 123h192q-13 -141 -101 -227.5t-241 -86.5t-242.5 86.5t-101.5 227.5z" />
    <glyph glyph-name="dotaccent" unicode="&#x2d9;" horiz-adv-x="491" 
d="M403 1434v-260h-315v260h315z" />
    <glyph glyph-name="ring" unicode="&#x2da;" horiz-adv-x="624" 
d="M311 1145q-105 0 -175 69t-70 170q0 100 70.5 171t174.5 71t175 -71t71 -171t-70.5 -169.5t-175.5 -69.5zM311 1505q-45 0 -79.5 -34t-34.5 -87q0 -52 34.5 -85t79.5 -33q46 0 80.5 33t34.5 85q0 53 -34.5 87t-80.5 34z" />
    <glyph glyph-name="ogonek" unicode="&#x2db;" horiz-adv-x="610" 
d="M360 51l132 -14q-6 -7 -26.5 -32t-29 -35t-25.5 -32t-25 -35t-18 -30t-14 -30.5t-4 -24.5q0 -47 70 -47q44 0 94 20v-164q-90 -33 -209 -33q-88 0 -155 31q-68 35 -68 115q0 145 278 311z" />
    <glyph glyph-name="tilde" unicode="&#x2dc;" horiz-adv-x="917" 
d="M311 1444q51 0 149.5 -26.5t137.5 -26.5q31 0 44 13.5t24 51.5h161q-12 -135 -71.5 -203.5t-153.5 -68.5q-54 0 -151.5 25.5t-122.5 25.5q-32 0 -48.5 -15t-27.5 -51h-164q13 136 72.5 205.5t150.5 69.5z" />
    <glyph glyph-name="hungarumlaut" unicode="&#x2dd;" horiz-adv-x="966" 
d="M289 1151h-201l102 303h304zM674 1151h-201l102 303h304z" />
    <glyph glyph-name="pi" unicode="&#x3c0;" horiz-adv-x="1257" 
d="M84 0v1059h1139v-207h-197v-541q0 -88 86 -88q18 0 92 17v-213q-116 -43 -243 -43q-277 0 -277 237v631h-260v-852h-340z" />
    <glyph glyph-name="Wgrave" unicode="&#x1e80;" horiz-adv-x="1916" 
d="M836 1526l-187 282h328l92 -282h-233zM801 1434h336l219 -895l190 895h355l-347 -1434h-380l-216 907l-217 -907h-381l-344 1434h379l187 -906z" />
    <glyph glyph-name="wgrave" unicode="&#x1e81;" horiz-adv-x="1624" 
d="M694 1151l-186 283h328l92 -283h-234zM350 1059l154 -651l182 651h272l183 -656l155 656h322l-303 -1059h-338l-168 602l-164 -602h-336l-303 1059h344z" />
    <glyph glyph-name="Wacute" unicode="&#x1e82;" horiz-adv-x="1916" 
d="M1079 1526h-233l94 282h326zM801 1434h336l219 -895l190 895h355l-347 -1434h-380l-216 907l-217 -907h-381l-344 1434h379l187 -906z" />
    <glyph glyph-name="wacute" unicode="&#x1e83;" horiz-adv-x="1624" 
d="M940 1151h-233l94 283h325zM350 1059l154 -651l182 651h272l183 -656l155 656h322l-303 -1059h-338l-168 602l-164 -602h-336l-303 1059h344z" />
    <glyph glyph-name="Wdieresis" unicode="&#x1e84;" horiz-adv-x="1916" 
d="M901 1808v-260h-301v260h301zM1317 1808v-260h-299v260h299zM801 1434h336l219 -895l190 895h355l-347 -1434h-380l-216 907l-217 -907h-381l-344 1434h379l187 -906z" />
    <glyph glyph-name="wdieresis" unicode="&#x1e85;" horiz-adv-x="1624" 
d="M760 1434v-260h-301v260h301zM1176 1434v-260h-299v260h299zM350 1059l154 -651l182 651h272l183 -656l155 656h322l-303 -1059h-338l-168 602l-164 -602h-336l-303 1059h344z" />
    <glyph glyph-name="Ygrave" unicode="&#x1ef2;" horiz-adv-x="1368" 
d="M563 1526l-186 282h328l92 -282h-234zM1356 1434l-488 -820v-614h-368v614l-486 820h410l274 -488l267 488h391z" />
    <glyph glyph-name="ygrave" unicode="&#x1ef3;" horiz-adv-x="1040" 
d="M403 1151l-186 283h328l92 -283h-234zM346 1059l193 -623l178 623h319l-381 -1165q-44 -135 -138 -206t-230 -71q-167 0 -285 90l127 209q48 -45 111 -45q85 0 112 82l21 61l-377 1045h350z" />
    <glyph glyph-name="endash" unicode="&#x2013;" horiz-adv-x="1261" 
d="M76 406v280h1110v-280h-1110z" />
    <glyph glyph-name="emdash" unicode="&#x2014;" horiz-adv-x="1912" 
d="M76 406v280h1761v-280h-1761z" />
    <glyph glyph-name="quoteleft" unicode="&#x2018;" horiz-adv-x="479" 
d="M246 1434h170l-191 -267h191v-362h-361v362z" />
    <glyph glyph-name="quoteright" unicode="&#x2019;" horiz-adv-x="473" 
d="M238 805h-170l190 266h-190v363h360v-363z" />
    <glyph glyph-name="quotesinglbase" unicode="&#x201a;" horiz-adv-x="495" 
d="M238 -266h-170l190 266h-190v362h360v-362z" />
    <glyph glyph-name="quotedblleft" unicode="&#x201c;" horiz-adv-x="929" 
d="M696 1434h170l-190 -267h190v-362h-360v362zM246 1434h170l-191 -267h191v-362h-361v362z" />
    <glyph glyph-name="quotedblright" unicode="&#x201d;" horiz-adv-x="923" 
d="M238 805h-170l190 266h-190v363h360v-363zM688 805h-170l191 266h-191v363h361v-363z" />
    <glyph glyph-name="quotedblbase" unicode="&#x201e;" horiz-adv-x="950" 
d="M238 -266h-170l190 266h-190v362h360v-362zM692 -266h-170l191 266h-191v362h361v-362z" />
    <glyph glyph-name="dagger" unicode="&#x2020;" horiz-adv-x="727" 
d="M262 393v510h-225v172h225v359h201v-359h227v-172h-227v-510h-201z" />
    <glyph glyph-name="daggerdbl" unicode="&#x2021;" horiz-adv-x="743" 
d="M471 596v-340h-201v340h-225v168h225v160h-225v172h225v338h201v-338h227v-172h-227v-160h227v-168h-227z" />
    <glyph glyph-name="bullet" unicode="&#x2022;" horiz-adv-x="608" 
d="M303 498q-92 0 -155.5 63t-63.5 154t63.5 155t155.5 64t156.5 -64t64.5 -155t-64.5 -154t-156.5 -63z" />
    <glyph glyph-name="ellipsis" unicode="&#x2026;" horiz-adv-x="1679" 
d="M430 0h-362v362h362v-362zM1020 0h-363v362h363v-362zM1612 0h-363v362h363v-362z" />
    <glyph glyph-name="perthousand" unicode="&#x2030;" horiz-adv-x="2283" 
d="M711 1067q0 -183 -92 -287t-244 -104t-243 104t-91 287t91 287t243 104t244 -104t92 -287zM305 0h-201l1156 1434h200zM498 1067q0 101 -32.5 152t-90.5 51q-57 0 -90 -51.5t-33 -151.5q0 -98 33 -150.5t90 -52.5q58 0 90.5 52.5t32.5 150.5zM854 369q0 186 91 288.5
t243 102.5t244 -103t92 -288q0 -183 -92 -287.5t-244 -104.5t-243 104.5t-91 287.5zM1577 369q0 186 91 288.5t243 102.5t244 -103t92 -288q0 -183 -92 -287.5t-244 -104.5q-151 0 -242.5 104.5t-91.5 287.5zM1065 369q0 -97 33.5 -150t89.5 -53q58 0 90.5 53t32.5 150
q0 101 -32.5 152.5t-90.5 51.5q-57 0 -90 -52t-33 -152zM1788 369q0 -97 33.5 -150t89.5 -53q58 0 90.5 53t32.5 150q0 101 -32.5 152.5t-90.5 51.5q-57 0 -90 -52t-33 -152z" />
    <glyph glyph-name="guilsinglleft" unicode="&#x2039;" horiz-adv-x="718" 
d="M387 530l303 -530h-321l-330 530l330 529h321z" />
    <glyph glyph-name="guilsinglright" unicode="&#x203a;" horiz-adv-x="718" 
d="M332 530l-303 529h321l330 -529l-330 -530h-321z" />
    <glyph glyph-name="fraction" unicode="&#x2044;" horiz-adv-x="327" 
d="M803 1556l-1077 -1679h-197l1077 1679h197z" />
    <glyph glyph-name="zerosuperior" unicode="&#x2070;" horiz-adv-x="784" 
d="M391 823q-163 0 -250.5 118t-87.5 327t87.5 326.5t250.5 117.5t251.5 -117.5t88.5 -326.5t-88.5 -327t-251.5 -118zM391 1012q123 0 123 256t-123 256q-121 0 -121 -256t121 -256z" />
    <glyph glyph-name="foursuperior" unicode="&#x2074;" horiz-adv-x="749" 
d="M35 1192l317 508h258v-526h95v-158h-95v-176h-211v176h-364v176zM203 1174h196v319z" />
    <glyph glyph-name="fivesuperior" unicode="&#x2075;" horiz-adv-x="743" 
d="M272 1190l-194 12l8 498h565v-187h-383l-2 -170q63 60 170 60q121 0 195 -75t74 -198q0 -141 -90 -223t-244 -82q-156 0 -241 75t-81 208h215q0 -109 111 -109q48 0 78 32.5t30 86.5q0 56 -30.5 89.5t-83.5 33.5q-61 0 -97 -51z" />
    <glyph glyph-name="sixsuperior" unicode="&#x2076;" horiz-adv-x="780" 
d="M731 1128q0 -139 -88.5 -222t-236.5 -83q-167 0 -260 107.5t-93 304.5v20q0 219 90.5 338t270.5 119q142 0 223.5 -69.5t81.5 -192.5h-213q-5 42 -30 66t-68 24q-61 0 -94 -54t-33 -159v-29q26 41 80 67t114 26q116 0 186 -72.5t70 -190.5zM504 1116q0 57 -28 90t-75 33
q-49 0 -75.5 -32.5t-26.5 -90.5q0 -57 27.5 -90t74.5 -33t75 33.5t28 89.5z" />
    <glyph glyph-name="sevensuperior" unicode="&#x2077;" horiz-adv-x="681" 
d="M33 1513v187h614v-166l-317 -694h-234l324 673h-387z" />
    <glyph glyph-name="eightsuperior" unicode="&#x2078;" horiz-adv-x="763" 
d="M565 1268q146 -63 146 -201q0 -107 -87.5 -175.5t-242.5 -68.5t-241.5 68.5t-86.5 175.5q0 137 144 201q-62 25 -96.5 76t-34.5 122q0 105 83.5 175.5t231.5 70.5t232.5 -70.5t84.5 -175.5q0 -71 -34.5 -122t-98.5 -76zM381 1552q-47 0 -77 -26.5t-30 -69.5
q0 -47 28.5 -72.5t78.5 -25.5t78 25.5t28 72.5q0 43 -29.5 69.5t-76.5 26.5zM381 989q49 0 78.5 28t29.5 73q0 47 -29 74.5t-79 27.5q-48 0 -78.5 -27.5t-30.5 -74.5q0 -44 31 -72.5t78 -28.5z" />
    <glyph glyph-name="ninesuperior" unicode="&#x2079;" horiz-adv-x="782" 
d="M49 1407q0 139 90 222t238 83q167 0 259.5 -107.5t92.5 -304.5v-20q0 -220 -90 -338.5t-270 -118.5q-142 0 -225 70t-83 192h215q2 -42 27.5 -66t69.5 -24q61 0 95 54.5t34 158.5v29q-29 -42 -82 -67t-113 -25q-117 0 -187.5 72.5t-70.5 189.5zM279 1419q0 -57 27.5 -90
t74.5 -33q49 0 74.5 32.5t25.5 90.5t-26.5 90.5t-75.5 32.5q-47 0 -73.5 -33.5t-26.5 -89.5z" />
    <glyph glyph-name="zeroinferior" unicode="&#x2080;" horiz-adv-x="784" 
d="M391 -283q-163 0 -250.5 118t-87.5 327t87.5 326.5t250.5 117.5t251.5 -117.5t88.5 -326.5t-88.5 -327t-251.5 -118zM391 -94q123 0 123 256t-123 256q-121 0 -121 -256t121 -256z" />
    <glyph glyph-name="oneinferior" unicode="&#x2081;" horiz-adv-x="483" 
d="M395 -266h-217v612q-55 -31 -147 -27v162q85 -1 138 32t73 81h153v-860z" />
    <glyph glyph-name="twoinferior" unicode="&#x2082;" horiz-adv-x="737" 
d="M682 -84v-184h-623v155q398 253 398 432q0 45 -27.5 74t-71.5 29q-47 0 -72.5 -30.5t-25.5 -84.5q0 -35 8 -59h-215q-4 36 -4 67q0 136 85 213.5t239 77.5q136 0 218.5 -71.5t82.5 -194.5q0 -233 -318 -424h326z" />
    <glyph glyph-name="threeinferior" unicode="&#x2083;" horiz-adv-x="745" 
d="M260 326h-205q0 127 86.5 203.5t237.5 76.5q139 0 221 -65t82 -174q0 -72 -37.5 -124t-103.5 -71q151 -53 151 -197q0 -118 -87.5 -188t-239.5 -70q-164 0 -247 75t-77 216h211q0 -54 28 -84t82 -30q50 0 79.5 26t29.5 70q0 45 -31.5 70.5t-87.5 25.5h-53v150h53
q55 0 88 28.5t33 75.5q0 41 -29.5 67.5t-76.5 26.5q-51 0 -79 -28.5t-28 -79.5z" />
    <glyph glyph-name="fourinferior" unicode="&#x2084;" horiz-adv-x="749" 
d="M35 86l317 508h258v-526h95v-158h-95v-176h-211v176h-364v176zM203 68h196v319z" />
    <glyph glyph-name="fiveinferior" unicode="&#x2085;" horiz-adv-x="743" 
d="M270 84l-194 12l8 498h565v-186h-383l-2 -170q62 59 170 59q121 0 194.5 -74.5t73.5 -197.5q0 -141 -89.5 -223.5t-243.5 -82.5q-156 0 -241 75t-81 208h215q0 -108 111 -108q48 0 78 32.5t30 85.5q0 56 -30.5 89.5t-83.5 33.5q-61 0 -97 -51z" />
    <glyph glyph-name="sixinferior" unicode="&#x2086;" horiz-adv-x="780" 
d="M731 23q0 -139 -88.5 -222.5t-236.5 -83.5q-167 0 -260 107.5t-93 304.5v21q0 219 90.5 337.5t270.5 118.5q142 0 223.5 -69.5t81.5 -192.5h-213q-5 42 -30 66t-68 24q-61 0 -94 -54t-33 -159v-28q26 41 80 66.5t114 25.5q116 0 186 -72t70 -190zM504 10q0 57 -28 90
t-75 33q-49 0 -75.5 -32.5t-26.5 -90.5q0 -57 27.5 -90t74.5 -33t75 33.5t28 89.5z" />
    <glyph glyph-name="seveninferior" unicode="&#x2087;" horiz-adv-x="681" 
d="M33 408v186h614v-166l-317 -694h-234l324 674h-387z" />
    <glyph glyph-name="eightinferior" unicode="&#x2088;" horiz-adv-x="763" 
d="M565 162q146 -63 146 -201q0 -107 -87.5 -175.5t-242.5 -68.5t-241.5 68.5t-86.5 175.5q0 137 144 201q-62 25 -96.5 76t-34.5 122q0 105 83.5 175.5t231.5 70.5t232.5 -70.5t84.5 -175.5q0 -71 -34.5 -122t-98.5 -76zM381 446q-47 0 -77 -26.5t-30 -69.5
q0 -47 28.5 -72.5t78.5 -25.5t78 25.5t28 72.5q0 43 -29.5 69.5t-76.5 26.5zM381 -117q49 0 78.5 28t29.5 73q0 47 -29 74.5t-79 27.5q-48 0 -78.5 -27.5t-30.5 -74.5q0 -44 31 -72.5t78 -28.5z" />
    <glyph glyph-name="nineinferior" unicode="&#x2089;" horiz-adv-x="782" 
d="M49 301q0 139 90 222t238 83q167 0 259.5 -107t92.5 -304v-21q0 -220 -90 -338.5t-270 -118.5q-142 0 -225 70.5t-83 192.5h215q2 -42 27.5 -66.5t69.5 -24.5q61 0 95 54.5t34 158.5v29q-29 -42 -82 -67t-113 -25q-117 0 -187.5 72.5t-70.5 189.5zM279 313
q0 -57 27.5 -90t74.5 -33q49 0 74.5 32.5t25.5 90.5t-26.5 90.5t-75.5 32.5q-47 0 -73.5 -33.5t-26.5 -89.5z" />
    <glyph glyph-name="Euro" unicode="&#x20ac;" horiz-adv-x="1558" 
d="M41 645h100q-2 23 -2 70q0 28 4 90h-102v143h127q58 233 236.5 371.5t443.5 138.5q154 0 277.5 -44.5t205.5 -125.5t128 -192.5t52 -247.5h-350q-11 139 -94.5 223t-222.5 84q-212 0 -293 -207h377v-143h-412q-4 -62 -4 -90q0 -47 2 -70h414v-143h-383q36 -107 111 -165
t188 -58q143 0 224.5 83t92.5 224h350q-6 -135 -53.5 -247t-131.5 -193t-209 -126t-279 -45q-275 0 -450 142t-226 385h-121v143z" />
    <glyph glyph-name="uni20BD" unicode="&#x20bd;" horiz-adv-x="1310" 
d="M713 465h-178v-125h335v-156h-335v-184h-367v184h-98v156h98v125h-98v156h98v813h573q244 0 388.5 -131.5t144.5 -354.5q0 -217 -154 -350t-407 -133zM535 756h145q106 0 164.5 50t58.5 142t-58.5 143.5t-164.5 51.5h-145v-387z" />
    <glyph glyph-name="uni20BF" unicode="&#x20bf;" horiz-adv-x="1282" 
d="M715 -236h-133v236h-480v1434h480v188h133v-188q222 0 349.5 -100t127.5 -273q0 -110 -64 -196t-174 -124q133 -35 206 -122.5t73 -212.5q0 -184 -141 -295t-375 -111h-2v-236zM469 838h113v338h-113v-338zM825 1012q0 117 -110 151v-311q110 34 110 160zM469 616v-358
h113v358h-113zM858 438q0 68 -37 112.5t-106 57.5v-344q68 17 105.5 62t37.5 112z" />
    <glyph glyph-name="uni2113" unicode="&#x2113;" horiz-adv-x="903" 
d="M537 -18q-149 0 -243.5 76t-94.5 218v140q-25 -14 -49 -31q-53 -34 -56 -35l-69 115q32 21 103 67.5t71 45.5v524q0 174 96 266t250 92q132 0 219.5 -81.5t87.5 -223.5q0 -305 -324 -543v-309q0 -40 23.5 -62t56.5 -22t57.5 23.5t28.5 76.5l191 -57q-5 -64 -28.5 -114.5
t-57.5 -81t-79.5 -50t-90 -27t-92.5 -7.5zM528 1128v-335q168 148 168 350q0 56 -22 86.5t-60 30.5q-86 0 -86 -132z" />
    <glyph glyph-name="trademark" unicode="&#x2122;" horiz-adv-x="1861" 
d="M1030 1231v-658h-194v861h311l156 -519l155 519h299v-861h-198v658l-199 -658h-131zM758 1262h-262v-689h-199v689h-262v172h723v-172z" />
    <glyph glyph-name="Omega" unicode="&#x2126;" horiz-adv-x="1503" 
d="M752 1151q-156 0 -244 -87t-88 -210q0 -122 71 -213t193 -145l2 -496h-545v252h279v98q-176 66 -275.5 205t-99.5 317q0 85 24 166t79 157.5t135 134t201 92t268 34.5q123 0 228 -24t181 -66.5t134 -98.5t93 -122t52.5 -134.5t17.5 -138.5q0 -178 -99 -317t-276 -205v-98
h279v-252h-545l4 496q120 54 191 145t71 213q0 124 -87 210.5t-244 86.5z" />
    <glyph glyph-name="estimated" unicode="&#x212e;" horiz-adv-x="1685" 
d="M1366 246h96q-112 -129 -266 -199t-338 -70q-168 0 -316.5 58.5t-253.5 158.5t-166 238t-61 291q0 151 59.5 286t163.5 234t253 157t321 58q181 0 329.5 -56t247 -154.5t154.5 -229.5t62 -283v-30h-1293v-377q0 -82 83 -150t196.5 -102.5t220.5 -34.5q312 0 508 205z
M358 1069v-301h996v301q0 86 -42 151.5t-114.5 103t-157.5 55.5t-182 18q-75 0 -144.5 -11t-135 -36t-114 -62t-77.5 -93t-29 -126z" />
    <glyph glyph-name="oneseventh" unicode="&#x2150;" horiz-adv-x="1808" 
d="M1464 1556l-1077 -1679h-197l1078 1679h196zM1159 674v186h615v-166l-318 -694h-233l323 674h-387zM399 573h-217v613q-51 -27 -147 -27v162q71 0 129 26.5t82 86.5h153v-861z" />
    <glyph glyph-name="oneninth" unicode="&#x2151;" horiz-adv-x="1830" 
d="M1462 1556l-1077 -1679h-197l1078 1679h196zM399 573h-217v613q-55 -31 -147 -27v162q85 -1 138 32t73 81h153v-861zM1108 567q0 139 90 222t238 83q167 0 259.5 -107t92.5 -304v-21q0 -219 -90.5 -337.5t-270.5 -118.5q-142 0 -224.5 70t-82.5 192h215q2 -42 27.5 -66
t69.5 -24q61 0 95 54.5t34 158.5v28q-29 -42 -82 -67t-113 -25q-117 0 -187.5 72.5t-70.5 189.5zM1337 580q0 -57 28 -90t75 -33q49 0 74.5 32.5t25.5 90.5t-26.5 90t-75.5 32q-47 0 -74 -33t-27 -89z" />
    <glyph glyph-name="onethird" unicode="&#x2153;" horiz-adv-x="1808" 
d="M1462 1556l-1077 -1679h-197l1078 1679h196zM1329 592h-205q0 136 92 208t232 72q59 0 111.5 -13.5t96.5 -41t69.5 -75t25.5 -109.5q0 -70 -37.5 -123.5t-103.5 -71.5q151 -51 151 -196q0 -67 -27.5 -118.5t-75 -81t-104 -44t-120.5 -14.5q-165 0 -246 75q-84 75 -78 215
h211q0 -53 29 -83.5t82 -30.5q48 0 78 24.5t30 71.5q0 49 -33.5 72.5t-85.5 23.5h-53v150h53q52 0 86.5 27t34.5 77q0 44 -30.5 69t-75.5 25q-51 0 -79 -28.5t-28 -79.5zM399 573h-217v613q-51 -27 -147 -27v162q71 0 129 26.5t82 86.5h153v-861z" />
    <glyph glyph-name="twothirds" unicode="&#x2154;" horiz-adv-x="1933" 
d="M1597 1556l-1077 -1679h-196l1077 1679h196zM1462 592h-205q0 136 92 208t232 72q59 0 111.5 -13.5t96.5 -41t69.5 -75t25.5 -109.5q0 -70 -37.5 -123.5t-103.5 -71.5q151 -51 151 -196q0 -67 -27.5 -118.5t-75 -81t-104 -44t-120.5 -14.5q-165 0 -246 75q-84 75 -78 215
h211q0 -53 29 -83.5t82 -30.5q48 0 78 24.5t30 71.5q0 49 -33.5 72.5t-85.5 23.5h-53v150h53q52 0 86.5 27t34.5 77q0 44 -30.5 69t-75.5 25q-51 0 -79 -28.5t-28 -79.5zM676 756v-185h-623v156q398 253 398 432q0 45 -27 74t-72 29q-50 0 -74 -32t-24 -83q0 -36 8 -60h-215
q-4 23 -4 68q0 144 89 217.5t235 73.5q132 0 216.5 -69t84.5 -197q0 -234 -318 -424h326z" />
    <glyph glyph-name="onefifth" unicode="&#x2155;" horiz-adv-x="1810" 
d="M1462 1556l-1077 -1679h-197l1078 1679h196zM1333 350l-194 12l8 498h565v-186h-383l-2 -170q62 59 170 59q122 0 195 -75t73 -197q0 -146 -91.5 -225.5t-241.5 -79.5q-159 0 -240 75q-85 73 -82 207h215q0 -108 111 -108q50 0 79 34t29 85q0 55 -30 88.5t-84 33.5
q-66 0 -97 -51zM399 573h-217v613q-51 -27 -147 -27v162q71 0 129 26.5t82 86.5h153v-861z" />
    <glyph glyph-name="twofifths" unicode="&#x2156;" horiz-adv-x="1941" 
d="M1599 1556l-1077 -1679h-196l1077 1679h196zM1470 350l-194 12l8 498h565v-186h-383l-2 -170q62 59 170 59q122 0 195.5 -75t73.5 -197q0 -146 -92 -225.5t-242 -79.5q-159 0 -240 75q-85 73 -82 207h215q0 -108 111 -108q50 0 79 34t29 85q0 55 -30 88.5t-84 33.5
q-66 0 -97 -51zM680 756v-185h-623v156q398 253 398 432q0 45 -27 74t-72 29q-50 0 -74 -32t-24 -83q0 -36 8 -60h-215q-4 23 -4 68q0 144 89 217.5t235 73.5q132 0 216.5 -69t84.5 -197q0 -234 -318 -424h326z" />
    <glyph glyph-name="threefifths" unicode="&#x2157;" horiz-adv-x="1951" 
d="M1612 1556l-1077 -1679h-197l1077 1679h197zM1481 350l-195 12l8 498h566v-186h-383l-2 -170q62 59 170 59q122 0 195 -75t73 -197q0 -146 -92 -225.5t-242 -79.5q-159 0 -240 75q-85 73 -82 207h216q0 -108 110 -108q50 0 79.5 34t29.5 85q0 55 -30.5 88.5t-84.5 33.5
q-65 0 -96 -51zM258 1165h-205q0 136 92 208.5t232 72.5q59 0 111.5 -13.5t96.5 -41.5t69.5 -75.5t25.5 -109.5q0 -70 -37.5 -123t-103.5 -71q71 -24 111 -74t40 -123q0 -67 -28 -118.5t-75 -81t-104 -44t-121 -14.5q-163 0 -245 76q-84 75 -78 215h211q0 -53 28.5 -84
t81.5 -31q48 0 78.5 24.5t30.5 71.5q0 49 -33.5 73t-85.5 24h-53v149h53q52 0 86.5 27.5t34.5 77.5q0 44 -30.5 69t-75.5 25q-51 0 -79 -29t-28 -80z" />
    <glyph glyph-name="fourfifths" unicode="&#x2158;" horiz-adv-x="1904" 
d="M1559 1556l-1078 -1679h-196l1077 1679h197zM35 926l317 508h258v-527h95v-157h-95v-177h-211v177h-364v176zM203 907h196v320zM1427 350l-194 12l8 498h565v-186h-383l-2 -170q62 59 170 59q122 0 195.5 -74.5t73.5 -197.5q0 -141 -90 -223t-244 -82q-156 0 -241 74.5
t-81 207.5h215q0 -108 111 -108q48 0 78 32.5t30 86.5q0 56 -30.5 89t-83.5 33q-61 0 -97 -51z" />
    <glyph glyph-name="onesixth" unicode="&#x2159;" horiz-adv-x="1781" 
d="M1462 1556l-1077 -1679h-197l1078 1679h196zM399 573h-217v613q-55 -31 -147 -27v162q85 -1 138 32t73 81h153v-861zM1737 289q0 -139 -89 -222t-237 -83q-167 0 -259.5 107t-92.5 304v21q0 219 90 337.5t270 118.5q142 0 223.5 -69.5t81.5 -192.5h-213q-5 42 -30 66
t-68 24q-61 0 -94 -54t-33 -159v-28q26 41 80.5 66.5t114.5 25.5q116 0 186 -72t70 -190zM1509 276q0 57 -27.5 90t-74.5 33q-49 0 -75.5 -32.5t-26.5 -90.5q0 -57 27.5 -89.5t74.5 -32.5t74.5 33t27.5 89z" />
    <glyph glyph-name="fivesixths" unicode="&#x215a;" horiz-adv-x="1925" 
d="M1614 1556l-1077 -1679h-197l1077 1679h197zM262 924l-194 12l8 498h565v-187h-383l-2 -170q63 60 170 60q121 0 194.5 -75t73.5 -198q0 -141 -90 -223t-244 -82q-155 0 -240 75t-81 208h215q0 -109 111 -109q48 0 78 32.5t30 86.5q0 56 -31 89.5t-84 33.5q-60 0 -96 -51
zM1886 289q0 -139 -88.5 -222t-236.5 -83q-167 0 -260 107t-93 304v21q0 219 90.5 337.5t270.5 118.5q142 0 223.5 -69.5t81.5 -192.5h-213q-5 42 -30 66t-68 24q-61 0 -94 -54t-33 -159v-28q26 41 80 66.5t114 25.5q116 0 186 -72t70 -190zM1659 276q0 57 -28 90t-75 33
q-49 0 -75.5 -32.5t-26.5 -90.5q0 -57 27.5 -89.5t74.5 -32.5t75 33t28 89z" />
    <glyph glyph-name="oneeighth" unicode="&#x215b;" horiz-adv-x="1812" 
d="M1462 1556l-1077 -1679h-197l1078 1679h196zM399 573h-217v613q-55 -31 -147 -27v162q85 -1 138 32t73 81h153v-861zM1622 428q145 -63 145 -201q0 -107 -87 -175t-242 -68t-241.5 68t-86.5 175q0 138 143 201q-62 25 -96.5 76.5t-34.5 122.5q0 105 84 175t232 70
t232.5 -70.5t84.5 -174.5q0 -71 -34.5 -122.5t-98.5 -76.5zM1438 713q-47 0 -77 -27t-30 -70q0 -47 28.5 -72.5t78.5 -25.5t78 25.5t28 72.5q0 43 -29.5 70t-76.5 27zM1438 150q49 0 78.5 27.5t29.5 72.5q0 47 -29 74.5t-79 27.5q-48 0 -78.5 -27.5t-30.5 -74.5
q0 -44 31 -72t78 -28z" />
    <glyph glyph-name="threeeighths" unicode="&#x215c;" horiz-adv-x="1957" 
d="M1612 1556l-1077 -1679h-197l1077 1679h197zM258 1165h-205q0 127 86.5 204t237.5 77q139 0 221 -65.5t82 -174.5q0 -72 -37.5 -123.5t-103.5 -70.5q151 -53 151 -197q0 -118 -87.5 -188t-240.5 -70q-164 0 -246.5 75t-76.5 216h211q0 -55 28.5 -85t81.5 -30
q50 0 79.5 26t29.5 70q0 45 -31.5 71t-87.5 26h-53v149h53q55 0 88 29t33 76q0 41 -29.5 67.5t-76.5 26.5q-51 0 -79 -29t-28 -80zM1772 428q145 -63 145 -201q0 -106 -87.5 -174.5t-242.5 -68.5t-241 68t-86 175q0 138 143 201q-62 25 -96.5 76.5t-34.5 122.5
q0 105 83.5 175t231.5 70t233 -70.5t85 -174.5q0 -71 -34.5 -122.5t-98.5 -76.5zM1587 713q-47 0 -76.5 -27t-29.5 -70q0 -47 28 -72.5t78 -25.5t78.5 25.5t28.5 72.5q0 43 -30 70t-77 27zM1587 150q49 0 79 27.5t30 72.5q0 47 -29.5 74.5t-79.5 27.5q-48 0 -78 -27.5
t-30 -74.5q0 -44 30.5 -72t77.5 -28z" />
    <glyph glyph-name="fiveeighths" unicode="&#x215d;" horiz-adv-x="1955" 
d="M1614 1556l-1077 -1679h-197l1077 1679h197zM262 924l-194 12l8 498h565v-187h-383l-2 -170q63 60 170 60q121 0 194.5 -75t73.5 -198q0 -141 -90 -223t-244 -82q-155 0 -240 75t-81 208h215q0 -109 111 -109q48 0 78 32.5t30 86.5q0 56 -31 89.5t-84 33.5q-60 0 -96 -51
zM1772 428q145 -63 145 -201q0 -106 -87.5 -174.5t-242.5 -68.5t-241 68t-86 175q0 138 143 201q-62 25 -96.5 76.5t-34.5 122.5q0 105 83.5 175t231.5 70t233 -70.5t85 -174.5q0 -71 -34.5 -122.5t-98.5 -76.5zM1587 713q-47 0 -76.5 -27t-29.5 -70q0 -47 28 -72.5
t78 -25.5t78.5 25.5t28.5 72.5q0 43 -30 70t-77 27zM1587 150q49 0 79 27.5t30 72.5q0 47 -29.5 74.5t-79.5 27.5q-48 0 -78 -27.5t-30 -74.5q0 -44 30.5 -72t77.5 -28z" />
    <glyph glyph-name="seveneighths" unicode="&#x215e;" horiz-adv-x="1744" 
d="M1399 1556l-1077 -1679h-197l1077 1679h197zM37 1247v187h614v-166l-317 -695h-234l324 674h-387zM1559 428q145 -63 145 -201q0 -106 -87.5 -174.5t-242.5 -68.5t-241 68t-86 175q0 138 143 201q-62 25 -96.5 76.5t-34.5 122.5q0 105 83.5 175t231.5 70t233 -70.5
t85 -174.5q0 -71 -34.5 -122.5t-98.5 -76.5zM1374 713q-47 0 -76.5 -27t-29.5 -70q0 -47 28 -72.5t78 -25.5t78.5 25.5t28.5 72.5q0 43 -30 70t-77 27zM1374 150q49 0 79 27.5t30 72.5q0 47 -29.5 74.5t-79.5 27.5q-48 0 -78 -27.5t-30 -74.5q0 -44 30.5 -72t77.5 -28z" />
    <glyph glyph-name="arrowleft" unicode="&#x2190;" horiz-adv-x="1957" 
d="M608 553l465 -467h-420l-626 627v8l626 627h420l-465 -465h1288v-330h-1288z" />
    <glyph glyph-name="arrowup" unicode="&#x2191;" horiz-adv-x="1333" 
d="M831 1288v-1288h-329v1290l-465 -459v422l625 617h8l626 -617v-422z" />
    <glyph glyph-name="arrowright" unicode="&#x2192;" horiz-adv-x="1957" 
d="M1350 553h-1289v330h1289l-465 465h422l624 -627v-8l-624 -627h-422z" />
    <glyph glyph-name="arrowdown" unicode="&#x2193;" horiz-adv-x="1333" 
d="M831 145l465 457v-422l-626 -616h-8l-625 616v422l465 -459v1291h329v-1289z" />
    <glyph glyph-name="arrowupleft" unicode="&#x2196;" horiz-adv-x="1531" 
d="M389 901v-657l-297 297v884l6 9h885l297 -297h-657l886 -887l-235 -234z" />
    <glyph glyph-name="arrowupright" unicode="&#x2197;" horiz-adv-x="1531" 
d="M1141 901l-887 -885l-231 234l884 887h-659l297 297h887l8 -9v-884l-299 -297v657z" />
    <glyph glyph-name="arrowdownright" unicode="&#x2198;" horiz-adv-x="1529" 
d="M1141 532v658l299 -297v-885l-8 -8h-887l-297 297h659l-884 887l231 233z" />
    <glyph glyph-name="arrowdownleft" unicode="&#x2199;" horiz-adv-x="1529" 
d="M387 532l887 885l233 -233l-886 -887h659l-297 -297h-885l-8 8v885l297 297v-658z" />
    <glyph glyph-name="partialdiff" unicode="&#x2202;" horiz-adv-x="1122" 
d="M1075 528q0 -254 -138 -402.5t-388 -148.5q-255 0 -392 139t-137 394q0 103 28 189.5t74.5 145t107 99.5t124 59.5t127.5 18.5q116 0 193 -57l-463 469h371q44 -40 73 -67.5t85.5 -88.5t96 -113t88 -130t78.5 -152.5t51 -168t21 -186.5zM735 522q0 136 -47 209.5
t-139 73.5q-184 0 -184 -283q0 -134 46 -208t138 -74t139 74.5t47 207.5z" />
    <glyph glyph-name="Delta" unicode="&#x2206;" horiz-adv-x="1480" 
d="M594 1434h303l549 -1211v-223h-1411v223zM1096 270l-357 809l-362 -809h719z" />
    <glyph glyph-name="product" unicode="&#x220f;" horiz-adv-x="1568" 
d="M784 1473q117 0 226.5 -32.5t202.5 -97.5t162 -155t108 -211.5t39 -261.5t-39 -261.5t-108 -211.5t-162 -155t-202.5 -97.5t-226.5 -32.5t-226.5 32.5t-202 97.5t-161.5 155t-108 211.5t-39 261.5t39 261.5t108 211.5t161.5 155t202 97.5t226.5 32.5zM784 1339
q-99 0 -189 -28t-163 -82t-126.5 -128.5t-83 -173.5t-29.5 -212q0 -141 45.5 -259t125 -197.5t188 -124t232.5 -44.5q164 0 298 75.5t214 219t80 330.5q0 140 -46.5 258.5t-126.5 198t-188 123.5t-231 44zM836 573h-158v-311h-174v909h332q157 0 245 -78.5t88 -215.5
q0 -138 -88.5 -221t-244.5 -83zM999 870q0 72 -46.5 115t-125.5 43h-149v-311h149q79 0 125.5 42t46.5 111z" />
    <glyph glyph-name="summation" unicode="&#x2211;" horiz-adv-x="1228" 
d="M1182 96v-301h-1135v281l504 534l-504 543v281h1135v-301h-662l457 -490v-61l-467 -486h672z" />
    <glyph glyph-name="minus" unicode="&#x2212;" horiz-adv-x="1032" 
d="M80 578v258h874v-258h-874z" />
    <glyph glyph-name="radical" unicode="&#x221a;" horiz-adv-x="1349" 
d="M1393 1591l-582 -2095h-287l-346 813l-174 -88l-63 133l508 248l282 -706l447 1695h215z" />
    <glyph glyph-name="infinity" unicode="&#x221e;" horiz-adv-x="1787" 
d="M1729 727q2 -122 -34 -219t-99.5 -155.5t-142.5 -89t-169 -30.5q-236 0 -389 250q-154 -250 -391 -250q-89 0 -168 30.5t-142 89t-100 155.5t-37 219q0 124 37 221t100.5 156t142 89t167.5 30q236 0 391 -252q149 252 389 252q90 0 169 -30t142.5 -89t99.5 -156t34 -221z
M1260 954q-136 0 -254 -225q119 -227 254 -227q72 0 123 60t51 165t-51 166t-123 61zM356 735q0 -106 52.5 -169.5t123.5 -63.5q66 0 131 60.5t117 166.5q-50 106 -115.5 165.5t-132.5 59.5q-73 0 -124.5 -57.5t-51.5 -161.5z" />
    <glyph glyph-name="integral" unicode="&#x222b;" horiz-adv-x="731" 
d="M715 1227h-103q-43 0 -60 -14.5t-17 -51.5v-1286q0 -254 -269 -254h-252v207h103q43 0 60.5 14.5t17.5 51.5v1286q0 254 268 254h252v-207z" />
    <glyph glyph-name="approxequal" unicode="&#x2248;" horiz-adv-x="1060" 
d="M760 760q-61 0 -226 47t-192 47q-88 0 -88 -111l-180 60q0 178 64 260t169 82q53 0 214 -47t200 -47q44 0 67 24.5t23 83.5l182 -57q0 -178 -65 -260t-168 -82zM760 313q-61 0 -226 47.5t-192 47.5q-88 0 -88 -111l-180 61q0 178 64 260t169 82q53 0 214 -48t200 -48
q44 0 67 25.5t23 85.5l182 -60q0 -177 -65 -259.5t-168 -82.5z" />
    <glyph glyph-name="notequal" unicode="&#x2260;" horiz-adv-x="1040" 
d="M84 379v256h303v143h-303v256h303v123h268v-123h303v-256h-303v-143h303v-256h-303v-123h-268v123h-303z" />
    <glyph glyph-name="lessequal" unicode="&#x2264;" horiz-adv-x="1013" 
d="M932 616v-297l-875 365v254l875 367v-297l-520 -197zM936 0h-875v258h875v-258z" />
    <glyph glyph-name="greaterequal" unicode="&#x2265;" horiz-adv-x="1013" 
d="M82 616l520 195l-520 197v297l874 -367v-254l-874 -365v297zM78 0v258h872v-258h-872z" />
    <glyph glyph-name="filledbox" unicode="&#x25a0;" horiz-adv-x="1619" 
d="M102 0v1434h1416v-1434h-1416z" />
    <glyph glyph-name="triagup" unicode="&#x25b2;" horiz-adv-x="1861" 
d="M102 0l830 1434l827 -1434h-1657z" />
    <glyph glyph-name="uni25B6" unicode="&#x25b6;" horiz-adv-x="1619" 
d="M102 1556l1416 -839l-1416 -840v1679z" />
    <glyph glyph-name="triagdn" unicode="&#x25bc;" horiz-adv-x="1861" 
d="M102 1434h1657l-827 -1434z" />
    <glyph glyph-name="uni25C0" unicode="&#x25c0;" horiz-adv-x="1619" 
d="M1518 1556v-1679l-1416 840z" />
    <glyph glyph-name="lozenge" unicode="&#x25ca;" horiz-adv-x="1245" 
d="M33 549l506 960h168l503 -960l-503 -985h-168zM623 -76l311 623l-311 604l-314 -604z" />
    <glyph glyph-name="uni2B24" unicode="&#x2b24;" horiz-adv-x="1619" 
d="M811 0q-145 0 -276.5 57t-226 153t-150.5 228.5t-56 278.5t56 278.5t150.5 228.5t226 153t276.5 57q143 0 274 -57t226 -153t151 -229t56 -278t-56 -278t-151 -229t-226 -153t-274 -57z" />
    <glyph glyph-name="commaaccent" unicode="&#xf6c3;" horiz-adv-x="475" 
d="M236 -502h-134l152 178h-166v236h299v-236z" />
    <glyph glyph-name="Q.alt" horiz-adv-x="1495" 
d="M1499 141l-121 -155l-174 139q-180 -150 -454 -150q-166 0 -299.5 56t-221 155.5t-134 235t-46.5 295.5q0 214 80 380t240.5 263.5t380.5 97.5q165 0 298 -56t220 -155.5t133.5 -234.5t46.5 -295q0 -260 -115 -443zM1075 717q0 201 -83.5 319.5t-241.5 118.5
q-160 0 -244 -118.5t-84 -319.5t84 -319.5t244 -118.5q111 0 188 59l-301 242l123 153l284 -229q31 95 31 213z" />
    <glyph glyph-name="R.alt" horiz-adv-x="1366" 
d="M469 520v-520h-367v1434h646q146 0 262.5 -51t186 -152.5t69.5 -239.5q0 -148 -76 -253t-199 -150l369 -588h-406l-317 520h-168zM469 768h188q108 0 169 51t61 146q0 92 -59 142t-164 50h-195v-389z" />
    <glyph glyph-name="apostrophemod" horiz-adv-x="485" 
d="M246 913h-158l152 226h-152v295h307v-295z" />
    <glyph glyph-name="bar.case" horiz-adv-x="430" 
d="M104 1708h222v-2030h-222v2030z" />
    <glyph glyph-name="braceleft.case" horiz-adv-x="858" 
d="M-14 629v190h45q52 0 90.5 8t62.5 26t39 37.5t22 51t9 57.5t2 66v295q0 151 85.5 216.5t246.5 65.5h243v-221h-75q-75 0 -104 -27t-29 -110v-211q0 -134 -65 -220t-226 -128q161 -42 226 -129.5t65 -220.5v-211q0 -83 29 -110t104 -27h75v-222h-243q-161 0 -246.5 66
t-85.5 217v295q0 40 -2 66t-9 57.5t-22 51t-39 37.5t-62.5 26t-90.5 8h-45z" />
    <glyph glyph-name="braceright.case" horiz-adv-x="858" 
d="M872 629h-45q-52 0 -90.5 -8t-62.5 -26t-39 -37.5t-22 -51t-9 -57.5t-2 -66v-295q0 -151 -85.5 -217t-246.5 -66h-243v222h77q75 0 103.5 27t28.5 110v211q0 134 65 221t227 129q-163 42 -227.5 128t-64.5 220v211q0 83 -28.5 110t-103.5 27h-77v221h243
q161 0 246.5 -65.5t85.5 -216.5v-295q0 -40 2 -66t9 -57.5t22 -51t39 -37.5t62.5 -26t90.5 -8h45v-190z" />
    <glyph glyph-name="bracketleft.case" horiz-adv-x="765" 
d="M461 1407v-1366h278v-236h-635v1837h635v-235h-278z" />
    <glyph glyph-name="bracketright.case" horiz-adv-x="765" 
d="M305 1407h-278v235h635v-1837h-635v236h278v1366z" />
    <glyph glyph-name="eight.denominator" horiz-adv-x="763" 
d="M565 428q146 -63 146 -201q0 -106 -87.5 -174.5t-242.5 -68.5t-241.5 68t-86.5 175q0 137 144 201q-62 25 -96.5 76.5t-34.5 122.5q0 105 83.5 175t231.5 70t232.5 -70.5t84.5 -174.5q0 -71 -34.5 -122.5t-98.5 -76.5zM381 713q-47 0 -77 -27t-30 -70q0 -47 28.5 -72.5
t78.5 -25.5t78 25.5t28 72.5q0 43 -29.5 70t-76.5 27zM381 150q49 0 78.5 27.5t29.5 72.5q0 47 -29 74.5t-79 27.5q-48 0 -78.5 -27.5t-30.5 -74.5q0 -44 31 -72t78 -28z" />
    <glyph glyph-name="eight.numerator" horiz-adv-x="763" 
d="M565 1001q146 -63 146 -200q0 -107 -87.5 -175.5t-242.5 -68.5t-241.5 68.5t-86.5 175.5q0 136 144 200q-62 25 -96.5 76.5t-34.5 122.5q0 105 83.5 175.5t231.5 70.5t232.5 -70.5t84.5 -175.5q0 -71 -34.5 -122.5t-98.5 -76.5zM381 1286q-47 0 -77 -26.5t-30 -69.5
q0 -47 28.5 -72.5t78.5 -25.5t78 25.5t28 72.5q0 43 -29.5 69.5t-76.5 26.5zM381 723q49 0 78.5 27.5t29.5 72.5q0 47 -29 75t-79 28q-48 0 -78.5 -28t-30.5 -75q0 -44 31 -72t78 -28z" />
    <glyph glyph-name="eight.posf" horiz-adv-x="1140" 
d="M852 688q111 -43 173 -126.5t62 -194.5q0 -169 -138 -280.5t-378 -111.5q-241 0 -379.5 111.5t-138.5 280.5q0 111 62 194.5t174 126.5q-103 38 -158 121t-55 199q0 168 132 279.5t363 111.5q230 0 363 -111.5t133 -279.5q0 -115 -56 -198.5t-159 -121.5zM571 1151
q-80 0 -129 -44t-49 -116q0 -75 48.5 -120.5t129.5 -45.5q82 0 130.5 45.5t48.5 120.5q0 72 -49.5 116t-129.5 44zM571 231q80 0 130.5 46.5t50.5 123.5t-50.5 123.5t-130.5 46.5q-81 0 -131.5 -47.5t-50.5 -122.5t50.5 -122.5t131.5 -47.5z" />
    <glyph glyph-name="eight.tnum" horiz-adv-x="1189" 
d="M889 717q116 -45 180 -131.5t64 -202.5q0 -176 -144.5 -292t-394.5 -116t-393.5 115.5t-143.5 292.5q0 116 64 202.5t180 131.5q-105 42 -164 129t-59 205q0 174 137.5 290.5t378.5 116.5t379.5 -117t138.5 -290q0 -118 -59 -205t-164 -129zM594 1200q-84 0 -134 -46
t-50 -122q0 -79 49 -125.5t135 -46.5t136 47t50 125q0 76 -50.5 122t-135.5 46zM594 242q86 0 138 49t52 127q0 82 -52 130t-138 48t-137 -49t-51 -129q0 -79 51 -127.5t137 -48.5z" />
    <glyph glyph-name="eightninths" horiz-adv-x="1980" 
d="M1618 1556l-1077 -1679h-197l1077 1679h197zM553 1001q145 -63 145 -200q0 -107 -87 -175.5t-242 -68.5t-241.5 68.5t-86.5 175.5q0 137 143 200q-62 25 -96.5 76.5t-34.5 122.5q0 105 84 175.5t232 70.5t232.5 -70.5t84.5 -175.5q0 -71 -34.5 -122.5t-98.5 -76.5z
M369 1286q-47 0 -77 -26.5t-30 -69.5q0 -47 28.5 -72.5t78.5 -25.5t78 25.5t28 72.5q0 43 -29.5 69.5t-76.5 26.5zM369 723q49 0 78.5 27.5t29.5 72.5q0 47 -29 75t-79 28q-48 0 -78.5 -28t-30.5 -75q0 -44 31 -72t78 -28zM1264 567q0 139 89.5 222t237.5 83q167 0 260 -107
t93 -304v-21q0 -219 -90.5 -337.5t-270.5 -118.5q-142 0 -224.5 70t-82.5 192h215q2 -42 27 -66t69 -24q61 0 95 54.5t34 158.5v28q-30 -42 -82.5 -67t-111.5 -25q-117 0 -187.5 72.5t-70.5 189.5zM1493 580q0 -57 27.5 -90t74.5 -33q49 0 75 32.5t26 90.5q0 57 -27 89.5
t-76 32.5q-47 0 -73.5 -33t-26.5 -89z" />
    <glyph glyph-name="emdash.case" horiz-adv-x="1929" 
d="M84 537v280h1761v-280h-1761z" />
    <glyph glyph-name="endash.case" horiz-adv-x="1277" 
d="M84 537v280h1110v-280h-1110z" />
    <glyph glyph-name="exclamdown.case" horiz-adv-x="567" 
d="M465 1434v-363h-363v363h363zM76 0l65 961h285l66 -961h-416z" />
    <glyph glyph-name="five.denominator" horiz-adv-x="743" 
d="M270 350l-194 12l8 498h565v-186h-383l-2 -170q62 59 170 59q121 0 194.5 -74.5t73.5 -197.5q0 -141 -89.5 -223t-243.5 -82q-156 0 -241 74.5t-81 207.5h215q0 -108 111 -108q48 0 78 32.5t30 86.5q0 56 -30.5 89t-83.5 33q-61 0 -97 -51z" />
    <glyph glyph-name="five.numerator" horiz-adv-x="743" 
d="M270 924l-194 12l8 498h565v-187h-383l-2 -170q63 60 170 60q121 0 194.5 -75t73.5 -198q0 -141 -89.5 -223t-243.5 -82q-156 0 -241 75t-81 208h215q0 -109 111 -109q48 0 78 32.5t30 86.5q0 56 -30.5 89.5t-83.5 33.5q-61 0 -97 -51z" />
    <glyph glyph-name="five.posf" horiz-adv-x="1099" 
d="M383 307l-293 17l12 794h885v-284h-608l-4 -291q104 96 274 96q189 0 305.5 -120t116.5 -316q0 -222 -142 -354t-380 -132q-247 0 -380.5 118t-127.5 329h330q0 -87 46.5 -134.5t133.5 -47.5q82 0 133 55t51 147q0 94 -52 150.5t-138 56.5q-47 0 -89.5 -22.5t-72.5 -61.5
z" />
    <glyph glyph-name="five.tnum" horiz-adv-x="1189" 
d="M420 592l-305 14l12 828h922v-295h-633l-4 -303q109 100 286 100q197 0 319 -125.5t122 -327.5q0 -231 -148.5 -369.5t-396.5 -138.5q-258 0 -397 122.5t-131 342.5h342q0 -92 48 -140t140 -48q86 0 138 57t52 154q0 99 -53 157t-145 58q-107 0 -168 -86z" />
    <glyph glyph-name="fiveninths" horiz-adv-x="1978" 
d="M1614 1556l-1077 -1679h-197l1077 1679h197zM262 924l-194 12l8 498h565v-187h-383l-2 -170q63 60 170 60q121 0 194.5 -75t73.5 -198q0 -141 -90 -223t-244 -82q-155 0 -240 75t-81 208h215q0 -109 111 -109q48 0 78 32.5t30 86.5q0 56 -31 89.5t-84 33.5q-60 0 -96 -51
zM1262 567q0 139 89.5 222t237.5 83q167 0 260 -107t93 -304v-21q0 -219 -90.5 -337.5t-270.5 -118.5q-142 0 -224.5 70t-82.5 192h215q2 -42 27 -66t69 -24q61 0 95 54.5t34 158.5v28q-30 -42 -82.5 -67t-111.5 -25q-117 0 -187.5 72.5t-70.5 189.5zM1491 580
q0 -57 27.5 -90t74.5 -33q49 0 75 32.5t26 90.5q0 57 -27 89.5t-76 32.5q-47 0 -73.5 -33t-26.5 -89z" />
    <glyph glyph-name="fivesevenths" horiz-adv-x="1966" 
d="M1620 1556l-1077 -1679h-197l1077 1679h197zM1317 674v186h614v-166l-317 -694h-234l324 674h-387zM268 924l-194 12l8 498h565v-187h-383l-2 -170q63 60 170 60q122 0 195 -75.5t73 -197.5q0 -146 -91.5 -225.5t-241.5 -79.5q-158 0 -240 76q-85 73 -82 207h215
q0 -109 111 -109q50 0 79 34t29 85q0 55 -30 89t-84 34q-66 0 -97 -51z" />
    <glyph glyph-name="four.denominator" horiz-adv-x="749" 
d="M35 352l317 508h258v-526h95v-158h-95v-176h-211v176h-364v176zM203 334h196v319z" />
    <glyph glyph-name="four.numerator" horiz-adv-x="749" 
d="M35 926l317 508h258v-527h95v-157h-95v-177h-211v177h-364v176zM203 907h196v320z" />
    <glyph glyph-name="four.posf" horiz-adv-x="1138" 
d="M37 297l512 821h393v-846h154v-241h-154v-289h-321v289h-584v266zM295 272h326v529z" />
    <glyph glyph-name="four.tnum" horiz-adv-x="1189" 
d="M33 582l532 852h410v-881h160v-252h-160v-301h-334v301h-608v281zM301 553h340v551z" />
    <glyph glyph-name="fourninths" horiz-adv-x="1929" 
d="M1559 1556l-1078 -1679h-196l1077 1679h197zM35 926l317 508h258v-527h95v-157h-95v-177h-211v177h-364v176zM203 907h196v320zM1204 567q0 139 90 222t238 83q167 0 259.5 -107t92.5 -304v-21q0 -219 -90 -337.5t-270 -118.5q-142 0 -224.5 70t-82.5 192h215
q2 -42 27 -66t69 -24q61 0 95 54.5t34 158.5v28q-29 -42 -82 -67t-113 -25q-117 0 -187.5 72.5t-70.5 189.5zM1434 580q0 -57 27.5 -90t74.5 -33q49 0 74.5 32.5t25.5 90.5t-26.5 90t-75.5 32q-47 0 -73.5 -33t-26.5 -89z" />
    <glyph glyph-name="foursevenths" horiz-adv-x="1904" 
d="M1559 1556l-1078 -1679h-196l1077 1679h197zM35 926l317 508h258v-527h95v-157h-95v-177h-211v177h-364v176zM203 907h196v320zM1255 674v186h615v-166l-318 -694h-233l323 674h-387z" />
    <glyph glyph-name="g.alt" horiz-adv-x="1122" 
d="M983 733q0 -164 -123 -259t-334 -95q-116 0 -211 31q-4 -28 -4 -31q0 -41 30 -61t97 -21l283 -8q166 -4 258 -82t92 -213q0 -176 -165 -284.5t-449 -108.5q-215 0 -337 69.5t-122 192.5q0 83 66 136t176 71q-80 20 -124 77.5t-44 133.5q0 59 31 112t83 86
q-116 94 -116 254q0 162 123 257t333 95q115 0 197 -26h399v-193h-166q27 -56 27 -133zM373 733q0 -69 40.5 -109t112.5 -40t113 40t41 109t-41 109.5t-113 40.5t-112.5 -40.5t-40.5 -109.5zM565 4l-196 6q-41 -17 -65.5 -50t-24.5 -69q0 -55 59 -85.5t160 -30.5
q110 0 174.5 34.5t64.5 94.5q0 49 -40 72t-132 28z" />
    <glyph glyph-name="guillemotleft.case" horiz-adv-x="1208" 
d="M387 717l303 -531h-321l-330 531l330 528h321zM860 717l303 -531h-319l-330 531l330 528h319z" />
    <glyph glyph-name="guillemotright.case" horiz-adv-x="1208" 
d="M823 717l-303 528h320l329 -528l-329 -531h-320zM348 717l-303 528h322l329 -528l-329 -531h-322z" />
    <glyph glyph-name="guilsinglleft.case" horiz-adv-x="735" 
d="M387 717l303 -531h-321l-330 531l330 528h321z" />
    <glyph glyph-name="guilsinglright.case" horiz-adv-x="735" 
d="M348 717l-303 528h322l329 -528l-329 -531h-322z" />
    <glyph glyph-name="hyphen.case" horiz-adv-x="632" 
d="M84 520v295h465v-295h-465z" />
    <glyph glyph-name="i.TRK" horiz-adv-x="507" 
d="M424 1434v-260h-340v260h340zM424 1059v-1059h-340v1059h340z" />
    <glyph glyph-name="logo" horiz-adv-x="2437" 
d="M2130 1503q98 -103 151.5 -242.5t53.5 -291.5q0 -173 -64 -344t-169 -310.5t-244.5 -266t-284.5 -219.5t-295 -161q-37 -17 -63.5 -17t-63.5 17q-155 71 -302 167t-284 223t-239 268t-163 309t-61 338q0 153 53 293t150 243q90 95 213 143t262 48q242 0 447 -176
q187 172 438 172q284 0 465 -193zM2245 971q0 137 -49.5 262t-141.5 217q-162 162 -397 162q-241 0 -438 -178q-205 180 -447 180q-226 0 -391 -160q-92 -92 -142.5 -218t-50.5 -267q0 -279 181 -549q136 -202 346 -369q204 -168 479 -305q21 -9 39 0q1 1 17 8.5t41.5 20.5
t59.5 31.5t77 43.5t88.5 54.5t98.5 67t103 77.5q213 174 342 367q185 277 185 555zM1657 1538q207 0 348 -141q79 -79 121.5 -191.5t42.5 -236.5q0 -258 -168 -512q-121 -179 -330 -348q-134 -109 -269 -190.5t-190 -102.5q-53 21 -185.5 104t-266.5 191q-214 171 -330 352
q-168 252 -168 508q0 125 45 238t127 192q139 139 346 139q200 0 387 -158q-114 -117 -200 -276q-164 -295 -248 -653l-101 20q-19 6 -32 -10t-8.5 -35t26.5 -22l275 -60q10 -4 20.5 4.5t15.5 22.5q8 32 -26 43l-96 20q67 285 198 561q112 -39 221 -39q125 0 228 41
q125 -243 196 -565l-96 -20q-13 -5 -21.5 -16.5t-7.5 -24.5q4 -17 16.5 -25.5t26.5 -3.5l273 57q14 5 22 16.5t4 24.5q-1 17 -14.5 25.5t-26.5 3.5l-98 -20q0 1 -1 3t-1 3q-107 402 -248 655q-85 157 -190 268q182 158 383 158zM719 1223l-199 -45q-33 -11 -24 -45
q3 -35 43 -29l206 47l21 -45q-16 -20 -16 -37q0 -23 16 -38t37 -15t37 16q21 21 4 70l-125 325q-18 34 -49 21q-30 -15 -21 -49zM1604 1219l51 -103q20 -45 69 -61q63 -15 111 14q54 29 72.5 82t-6.5 100l-68 138q-4 16 -21.5 19.5t-27.5 -3.5l-273 -152q-19 -14 -19 -33.5
t18 -31.5t38 0q21 12 41 22q3 1 8.5 4.5t6.5 4.5zM858 1341q0 -29 18.5 -48t45.5 -19q28 0 46.5 19.5t18.5 45.5q0 30 -18 49t-47 19q-28 0 -46 -19.5t-18 -46.5zM1212 1036q-89 0 -184 29q106 179 191 266q102 -116 186 -264q-88 -31 -193 -31zM1720 1149l-53 106l119 66
l49 -102q12 -25 2 -49t-35 -37q-23 -12 -47.5 -9t-34.5 25zM430 741l35 103l229 -82q38 -13 47 22q5 15 -0.5 29t-21.5 18l-232 84l29 97q9 36 -20 47q-18 5 -32 -1.5t-18 -23.5l-86 -270q-5 -14 2 -28.5t23 -18.5q14 -5 27.5 1.5t17.5 22.5zM2085 825l-78 183q-9 15 -22 20
q-18 4 -29 -2l-260 -127q-28 -15 -19 -49l97 -215q14 -33 47 -19q14 6 19.5 21t-1.5 27l-80 184l68 31l31 -68q14 -32 47 -18t18 49l-31 69l64 31l63 -147q6 -14 20.5 -19.5t28.5 0.5q12 6 17.5 20.5t-0.5 28.5zM1513 199q0 37 -36 37h-359l63 36t64 40t67.5 48t58 53
t51.5 63t31 68.5t13 78.5q0 100 -66 177t-181 77q-112 0 -189.5 -67t-77.5 -171q0 -73 51 -131.5t127 -58.5q60 0 107 38t47 111q0 49 -21.5 69.5t-50.5 20.5t-47 -19t-18 -46q0 -30 33 -56q1 -4 1 -14t-15 -20.5t-40 -10.5q-44 0 -70 38t-26 81q0 74 50 119t132 45
q83 0 127.5 -53t44.5 -127q0 -44 -18 -85t-52.5 -77.5t-67.5 -63.5t-79 -59q-45 -29 -94.5 -56t-77 -41.5t-30.5 -17.5q-19 -19 -9 -41q4 -10 14.5 -16t18.5 -6h486q38 0 38 37zM1149 6q0 -29 19 -48t44 -19q29 0 49.5 20t20.5 45q0 29 -20.5 48.5t-49.5 19.5
q-28 0 -45.5 -19.5t-17.5 -46.5z" />
    <glyph glyph-name="nine.denominator" horiz-adv-x="782" 
d="M49 567q0 139 90 222t238 83q167 0 259.5 -107t92.5 -304v-21q0 -219 -90 -337.5t-270 -118.5q-142 0 -225 70t-83 192h215q2 -42 27.5 -66t69.5 -24q61 0 95 54.5t34 158.5v28q-29 -42 -82 -67t-113 -25q-117 0 -187.5 72.5t-70.5 189.5zM279 580q0 -57 27.5 -90
t74.5 -33q49 0 74.5 32.5t25.5 90.5t-26.5 90t-75.5 32q-47 0 -73.5 -33t-26.5 -89z" />
    <glyph glyph-name="nine.numerator" horiz-adv-x="782" 
d="M49 1141q0 139 90 222t238 83q167 0 259.5 -107.5t92.5 -304.5v-20q0 -220 -90 -338.5t-270 -118.5q-142 0 -225 70t-83 192h215q2 -42 27.5 -66t69.5 -24q61 0 95 54.5t34 158.5v29q-29 -42 -82 -67t-113 -25q-117 0 -187.5 72.5t-70.5 189.5zM279 1153q0 -57 27.5 -90
t74.5 -33q49 0 74.5 32.5t25.5 90.5t-26.5 90.5t-75.5 32.5q-47 0 -73.5 -33.5t-26.5 -89.5z" />
    <glyph glyph-name="nine.posf" horiz-adv-x="1159" 
d="M43 655q0 219 140.5 352.5t369.5 133.5q266 0 410.5 -171.5t144.5 -488.5v-35q0 -351 -141.5 -540t-423.5 -189q-221 0 -351.5 112.5t-130.5 301.5h326q5 -70 47 -109.5t115 -39.5q102 0 158.5 92t56.5 274v39q-48 -70 -130 -112t-179 -42q-185 0 -298.5 116.5
t-113.5 305.5zM391 674q0 -97 46 -153t126 -56t125 55.5t45 153.5q0 94 -46.5 149.5t-127.5 55.5q-78 0 -123 -55.5t-45 -149.5z" />
    <glyph glyph-name="nine.tnum" horiz-adv-x="1189" 
d="M37 952q0 229 146.5 367.5t387.5 138.5q276 0 427 -178.5t151 -509.5v-35q0 -365 -148 -562.5t-442 -197.5q-229 0 -364.5 118t-135.5 315h338q5 -74 49 -116t119 -42q106 0 164.5 97t58.5 286v41q-48 -73 -134 -116.5t-187 -43.5q-192 0 -311 121.5t-119 316.5zM401 971
q0 -99 47.5 -158t131.5 -59q85 0 132.5 58t47.5 159q0 98 -48.5 155.5t-133.5 57.5q-82 0 -129.5 -57.5t-47.5 -155.5z" />
    <glyph glyph-name="one.denominator" horiz-adv-x="483" 
d="M397 0h-217v612q-53 -30 -147 -26v162q85 -1 138 31.5t73 80.5h153v-860z" />
    <glyph glyph-name="one.numerator" horiz-adv-x="483" 
d="M397 573h-217v613q-55 -31 -147 -27v162q85 -1 138 32t73 81h153v-861z" />
    <glyph glyph-name="one.posf" horiz-adv-x="671" 
d="M582 0h-330v743q-45 -27 -95.5 -35t-127.5 -8v244q128 0 207.5 51t107.5 123h238v-1118z" />
    <glyph glyph-name="one.tnum" horiz-adv-x="1189" 
d="M879 0h-344v1042q-93 -53 -302 -53v264q90 -2 162 12.5t118 42.5t74 58.5t44 67.5h248v-1434z" />
    <glyph glyph-name="orn1" horiz-adv-x="1439" 
d="M766 1077q130 0 239.5 -45t181 -119.5t111 -169.5t39.5 -196q0 -85 -23 -166.5t-72 -155.5t-118.5 -129t-171 -88t-221.5 -33q-126 0 -240 47.5t-200.5 133t-137.5 215t-51 282.5q0 124 24.5 231.5t66.5 188.5t100 147.5t123.5 110.5t138.5 74t144 43.5t141 13.5
q239 0 405 -86v-194q-186 102 -385 102q-204 0 -353 -121.5t-208 -345.5q84 128 204.5 194t262.5 66z" />
    <glyph glyph-name="orn2" horiz-adv-x="1439" 
d="M674 360q-130 0 -239.5 45t-181 120t-111.5 170t-40 196q0 85 23 166.5t72 155t119 129t171.5 88t221.5 32.5q126 0 240 -47.5t200 -132.5t137 -214.5t51 -283.5q0 -171 -46.5 -311.5t-121.5 -231t-173 -152t-197 -88t-199 -26.5q-239 0 -405 86v195q186 -102 385 -102
q204 0 353 121.5t208 345.5q-84 -128 -204.5 -194.5t-262.5 -66.5z" />
    <glyph glyph-name="orn3" horiz-adv-x="1269" 
d="M1167 1434v-7l-755 -399h755v-1028h-1065v1028l779 406h286z" />
    <glyph glyph-name="orn4" horiz-adv-x="1269" 
d="M102 0v6l756 400h-756v1028h1065v-1028l-778 -406h-287z" />
    <glyph glyph-name="orn5" horiz-adv-x="1718" 
d="M856 -18l-754 735l756 737l758 -735z" />
    <glyph glyph-name="parenleft.case" horiz-adv-x="700" 
d="M45 692v27q0 203 67 390.5t204 340t325 229.5v-301q-95 -86 -169.5 -261.5t-74.5 -393.5v-35q0 -218 74.5 -393.5t169.5 -261.5v-301q-188 77 -325 229.5t-204 340t-67 390.5z" />
    <glyph glyph-name="parenright.case" horiz-adv-x="698" 
d="M59 -268v301q95 86 169.5 261.5t74.5 393.5v35q0 218 -74.5 393.5t-169.5 261.5v301q188 -77 324.5 -229.5t203 -340t66.5 -390.5v-27q0 -203 -66.5 -390.5t-203 -340t-324.5 -229.5z" />
    <glyph glyph-name="questiondown.case" horiz-adv-x="1028" 
d="M334 1434h362v-363h-362v363zM680 418v55h313v-78q0 -194 -125.5 -307t-361.5 -113q-218 0 -340.5 106t-122.5 281q0 101 41.5 180t112.5 160q15 17 43 48t43 48.5t32.5 41.5t25 45.5t7.5 42.5v33h336v-39q0 -62 -28 -124t-67.5 -113t-79 -99t-67.5 -98.5t-28 -94.5
q0 -57 34 -89t91 -32q68 0 104.5 37.5t36.5 108.5z" />
    <glyph glyph-name="revcommaaccent" horiz-adv-x="538" 
d="M291 1694h155l-204 -226h178v-309h-334v309z" />
    <glyph glyph-name="seven.denominator" horiz-adv-x="681" 
d="M33 674v186h614v-166l-317 -694h-234l324 674h-387z" />
    <glyph glyph-name="seven.numerator" horiz-adv-x="681" 
d="M33 1247v187h614v-166l-317 -695h-234l324 674h-387z" />
    <glyph glyph-name="seven.posf" horiz-adv-x="1019" 
d="M23 834v284h966v-252l-506 -1124h-354l514 1092h-620z" />
    <glyph glyph-name="seven.tnum" horiz-adv-x="1189" 
d="M88 1139v295h1006v-263l-527 -1171h-370l542 1139h-651z" />
    <glyph glyph-name="sevenninths" horiz-adv-x="1765" 
d="M1399 1556l-1077 -1679h-197l1077 1679h197zM37 1247v187h614v-166l-317 -695h-234l324 674h-387zM1047 567q0 139 89.5 222t237.5 83q167 0 259.5 -107t92.5 -304v-21q0 -219 -90 -337.5t-270 -118.5q-142 0 -224.5 70t-82.5 192h215q2 -42 27 -66t69 -24q61 0 95 54.5
t34 158.5v28q-30 -42 -82.5 -67t-111.5 -25q-117 0 -187.5 72.5t-70.5 189.5zM1276 580q0 -57 27.5 -90t74.5 -33q49 0 75 32.5t26 90.5q0 57 -27 89.5t-76 32.5q-47 0 -73.5 -33t-26.5 -89z" />
    <glyph glyph-name="six.denominator" horiz-adv-x="780" 
d="M731 289q0 -139 -88.5 -222t-236.5 -83q-167 0 -260 107t-93 304v21q0 219 90.5 337.5t270.5 118.5q142 0 223.5 -69.5t81.5 -192.5h-213q-5 42 -30 66t-68 24q-61 0 -94 -54t-33 -159v-28q26 41 80 66.5t114 25.5q116 0 186 -72t70 -190zM504 276q0 57 -28 90t-75 33
q-49 0 -75.5 -32.5t-26.5 -90.5q0 -57 27.5 -89.5t74.5 -32.5t75 33t28 89z" />
    <glyph glyph-name="six.numerator" horiz-adv-x="780" 
d="M731 862q0 -139 -88.5 -222t-236.5 -83q-167 0 -260 107.5t-93 304.5v20q0 219 90.5 338t270.5 119q142 0 223.5 -69.5t81.5 -192.5h-213q-5 42 -30 66t-68 24q-61 0 -94 -54t-33 -159v-29q26 41 80 66.5t114 25.5q116 0 186 -72t70 -190zM504 850q0 57 -28 90t-75 33
q-49 0 -75.5 -32.5t-26.5 -90.5q0 -57 27.5 -90t74.5 -33t75 33.5t28 89.5z" />
    <glyph glyph-name="six.posf" horiz-adv-x="1171" 
d="M1120 461q0 -219 -140.5 -352.5t-369.5 -133.5q-266 0 -410.5 171.5t-144.5 488.5v35q0 350 143 539.5t423 189.5q221 0 351 -112.5t130 -301.5h-326q-5 70 -47 110t-115 40q-102 0 -158.5 -92.5t-56.5 -274.5v-39q48 70 130.5 112t179.5 42q184 0 297.5 -116.5
t113.5 -305.5zM772 442q0 97 -46 153t-126 56t-125 -55.5t-45 -153.5q0 -94 46.5 -149t127.5 -55q78 0 123 55t45 149z" />
    <glyph glyph-name="six.tnum" horiz-adv-x="1189" 
d="M1153 481q0 -229 -146.5 -367.5t-388.5 -138.5q-276 0 -425.5 179t-149.5 510v34q0 364 148 562t440 198q231 0 366.5 -117.5t135.5 -314.5h-338q-5 74 -49 116t-121 42q-106 0 -165 -97t-59 -286v-39q50 72 136.5 115t185.5 43q192 0 311 -122t119 -317zM791 463
q0 99 -48.5 158t-132.5 59q-85 0 -131.5 -58t-46.5 -159q0 -99 48 -156t132 -57q82 0 130.5 57.5t48.5 155.5z" />
    <glyph glyph-name="sixsevenths" horiz-adv-x="1988" 
d="M1642 1556l-1077 -1679h-196l1077 1679h196zM721 862q0 -139 -89 -222t-237 -83q-167 0 -259.5 107.5t-92.5 304.5v20q0 220 90 338.5t270 118.5q142 0 224 -70t82 -192h-213q-5 42 -30.5 66t-68.5 24q-61 0 -94 -54t-33 -159v-29q26 41 80.5 66.5t114.5 25.5
q116 0 186 -72t70 -190zM494 850q0 57 -28 90t-75 33q-49 0 -75.5 -32.5t-26.5 -90.5q0 -57 27.5 -90t74.5 -33t75 33.5t28 89.5zM1339 674v186h615v-166l-318 -694h-233l323 674h-387z" />
    <glyph glyph-name="sterling.alt" horiz-adv-x="1437" 
d="M158 707h217q-8 96 -8 254q0 227 142.5 362t383.5 135q197 0 311.5 -97.5t114.5 -252.5q0 -121 -81 -206t-212 -85q-51 0 -131 23v174q23 -10 51 -10q45 0 69.5 26.5t24.5 67.5q0 53 -36 82.5t-95 29.5q-192 0 -192 -292v-211h370v-144h-372q-9 -112 -23 -190
q29 -8 82.5 -24t83 -24t68 -17.5t67 -14t51.5 -4.5q57 0 92 31t35 94v51h211v-117q0 -179 -98 -269.5t-270 -90.5t-436 135q-111 -141 -291 -141q-111 0 -182.5 63t-71.5 156q0 107 81.5 173t200.5 66q20 0 82 -4q-3 20 -6 62.5t-6 64.5h-227v144zM223 197q0 -29 18.5 -44.5
t49.5 -15.5q71 0 98 82q-62 33 -98 33q-31 0 -49.5 -15t-18.5 -40z" />
    <glyph glyph-name="three.denominator" horiz-adv-x="745" 
d="M260 592h-205q0 127 86.5 203.5t237.5 76.5q139 0 221 -65t82 -174q0 -72 -37.5 -124t-103.5 -71q151 -53 151 -196q0 -118 -87.5 -188t-239.5 -70q-164 0 -247 74.5t-77 215.5h211q0 -54 28 -84t82 -30q50 0 79.5 26t29.5 70q0 45 -31.5 70.5t-87.5 25.5h-53v150h53
q55 0 88 28.5t33 75.5q0 41 -29.5 67.5t-76.5 26.5q-51 0 -79 -28.5t-28 -79.5z" />
    <glyph glyph-name="three.numerator" horiz-adv-x="745" 
d="M260 1165h-205q0 127 86.5 204t237.5 77q139 0 221 -65.5t82 -174.5q0 -72 -37.5 -123.5t-103.5 -70.5q151 -53 151 -197q0 -118 -87.5 -188t-239.5 -70q-164 0 -247 75t-77 216h211q0 -55 28.5 -85t81.5 -30q50 0 79.5 26t29.5 70q0 45 -31.5 71t-87.5 26h-53v149h53
q55 0 88 29t33 76q0 41 -29.5 67.5t-76.5 26.5q-51 0 -79 -29t-28 -80z" />
    <glyph glyph-name="three.posf" horiz-adv-x="1107" 
d="M371 698h-314q0 200 136.5 321.5t373.5 121.5q215 0 345 -105.5t130 -277.5q0 -115 -60.5 -198.5t-166.5 -115.5q114 -37 179 -116.5t65 -198.5q0 -186 -138.5 -299t-375.5 -113q-257 0 -388.5 117.5t-123.5 339.5h323q0 -88 48.5 -137t138.5 -49q82 0 131 43.5t49 115.5
q0 79 -52.5 122.5t-150.5 43.5h-80v232h82q94 0 148.5 47t54.5 127q0 69 -49 113.5t-127 44.5q-86 0 -132 -47t-46 -132z" />
    <glyph glyph-name="three.tnum" horiz-adv-x="1189" 
d="M401 997h-323q0 207 141.5 334t388.5 127q225 0 359.5 -109t134.5 -290q0 -118 -62.5 -204.5t-173.5 -121.5q117 -37 185.5 -120.5t68.5 -206.5q0 -194 -144 -312.5t-392 -118.5q-267 0 -404 123t-129 353h338q0 -92 50.5 -143.5t142.5 -51.5q86 0 137 45t51 123
q0 80 -56 126t-155 46h-84v242h86q99 0 155 48t56 134q0 72 -51 118t-133 46q-88 0 -137.5 -49.5t-49.5 -137.5z" />
    <glyph glyph-name="threesevenths" horiz-adv-x="1959" 
d="M1614 1556l-1077 -1679h-197l1077 1679h197zM1311 674v186h614v-166l-317 -694h-234l324 674h-387zM262 1165h-205q0 136 92 208.5t232 72.5q59 0 111.5 -13.5t96.5 -41.5t69.5 -75.5t25.5 -109.5q0 -70 -37.5 -123t-103.5 -71q71 -24 111 -74t40 -123
q0 -67 -27.5 -118.5t-75 -81t-104 -44t-120.5 -14.5q-164 0 -246 76q-84 75 -78 215h211q0 -53 29 -84t82 -31q48 0 78 24.5t30 71.5q0 49 -33.5 73t-85.5 24h-53v149h53q52 0 86.5 27.5t34.5 77.5q0 44 -30.5 69t-75.5 25q-51 0 -79 -29t-28 -80z" />
    <glyph glyph-name="two.denominator" horiz-adv-x="737" 
d="M682 182v-184h-623v156q398 253 398 432q0 45 -27.5 73.5t-71.5 28.5q-47 0 -72.5 -30.5t-25.5 -84.5q0 -35 8 -59h-215q-4 36 -4 68q0 136 85 213t239 77q136 0 218.5 -71.5t82.5 -194.5q0 -233 -318 -424h326z" />
    <glyph glyph-name="two.numerator" horiz-adv-x="737" 
d="M682 756v-185h-623v156q398 253 398 432q0 45 -27.5 74t-71.5 29q-47 0 -72.5 -30.5t-25.5 -84.5q0 -36 8 -60h-215q-4 36 -4 68q0 136 85 213.5t239 77.5q136 0 218.5 -71.5t82.5 -194.5q0 -233 -318 -424h326z" />
    <glyph glyph-name="two.posf" horiz-adv-x="1054" 
d="M999 256v-256h-933v238q161 62 297.5 149t217.5 179.5t81 166.5q0 66 -40 103.5t-112 37.5q-76 0 -119 -46t-43 -121q0 -29 8 -76h-303q-6 41 -6 90q0 191 127.5 306.5t349.5 115.5q208 0 331.5 -104t123.5 -275q0 -170 -129.5 -298t-355.5 -210h505z" />
    <glyph glyph-name="two.tnum" horiz-adv-x="1189" 
d="M1108 293v-293h-1022v250q335 218 497 398t162 337q0 80 -46 129t-124 49q-85 0 -129.5 -52t-44.5 -146q0 -57 13 -103h-334q-8 52 -8 117q0 225 138 352t392 127q225 0 358.5 -118.5t133.5 -323.5q0 -398 -543 -723h557z" />
    <glyph glyph-name="twoninths" horiz-adv-x="1964" 
d="M1602 1556l-1078 -1679h-196l1077 1679h197zM680 756v-185h-623v156q398 253 398 432q0 45 -27.5 74t-71.5 29q-47 0 -72.5 -30.5t-25.5 -84.5q0 -36 8 -60h-215q-4 36 -4 68q0 136 85 213.5t239 77.5q136 0 218.5 -71.5t82.5 -194.5q0 -233 -318 -424h326zM1247 567
q0 139 90 222t238 83q167 0 259.5 -107t92.5 -304v-21q0 -219 -90 -337.5t-270 -118.5q-142 0 -224.5 70t-82.5 192h215q2 -42 27 -66t69 -24q61 0 95 54.5t34 158.5v28q-29 -42 -82 -67t-113 -25q-117 0 -187.5 72.5t-70.5 189.5zM1477 580q0 -57 27.5 -90t74.5 -33
q49 0 74.5 32.5t25.5 90.5t-26.5 90t-75.5 32q-47 0 -73.5 -33t-26.5 -89z" />
    <glyph glyph-name="twosevenths" horiz-adv-x="1949" 
d="M1604 1556l-1078 -1679h-196l1077 1679h197zM1300 674v186h615v-166l-318 -694h-233l324 674h-388zM684 756v-185h-623v156q398 253 398 432q0 45 -27 74t-72 29q-50 0 -74 -32t-24 -83q0 -36 8 -60h-215q-4 23 -4 68q0 144 89 217.5t235 73.5q132 0 216.5 -69t84.5 -197
q0 -234 -318 -424h326z" />
    <glyph glyph-name="zero.denominator" horiz-adv-x="784" 
d="M391 -16q-163 0 -250.5 117.5t-87.5 326.5t87.5 326.5t250.5 117.5t251.5 -117.5t88.5 -326.5t-88.5 -326.5t-251.5 -117.5zM391 172q123 0 123 256t-123 256q-121 0 -121 -256t121 -256z" />
    <glyph glyph-name="zero.numerator" horiz-adv-x="784" 
d="M391 557q-163 0 -250.5 117.5t-87.5 326.5t87.5 327t250.5 118t251.5 -118t88.5 -327t-88.5 -326.5t-251.5 -117.5zM391 745q123 0 123 256t-123 256q-121 0 -121 -256t121 -256z" />
    <glyph glyph-name="zero.posf" horiz-adv-x="1138" 
d="M569 1141q165 0 284 -75t178 -205t59 -302q0 -263 -136.5 -423.5t-384.5 -160.5q-247 0 -383.5 161t-136.5 423t136.5 422t383.5 160zM569 866q-192 0 -192 -307q0 -309 192 -309q191 0 191 309q0 307 -191 307z" />
    <glyph glyph-name="zero.tnum" horiz-adv-x="1189" 
d="M594 -25q-262 0 -407.5 197t-145.5 545t145 544.5t408 196.5t408 -196.5t145 -544.5t-145.5 -545t-407.5 -197zM594 274q207 0 207 443q0 226 -50.5 334t-156.5 108q-209 0 -209 -442q0 -443 209 -443z" />
    </font>
</defs>
</svg>
