<?xml version="1.0" standalone="no"?>
<!DOCTYPE svg PUBLIC "-//W3C//DTD SVG 1.1//EN" "http://www.w3.org/Graphics/SVG/1.1/DTD/svg11.dtd" >
<svg xmlns="http://www.w3.org/2000/svg" xmlns:xlink="http://www.w3.org/1999/xlink" version="1.1">
<metadata>
Created by FontForge 20170731 at Tue Oct 20 19:14:11 2020
 By Aleksey,,,
Copyright (c) 2018 by Henrik Kubel A2-TYPE London. All rights reserved.
</metadata>
<defs>
<font id="Schwiss-Regular" horiz-adv-x="401" >
  <font-face 
    font-family="Schwiss"
    font-weight="400"
    font-stretch="normal"
    units-per-em="2048"
    panose-1="0 0 5 6 4 0 0 2 0 3"
    ascent="1536"
    descent="-512"
    x-height="1014"
    cap-height="1434"
    bbox="-430 -518 2335 1966"
    underline-thickness="0"
    underline-position="0"
    unicode-range="U+0020-F6C3"
  />
<missing-glyph horiz-adv-x="1404" 
d="M1223 1434v-1434h-1041v1434h1041zM324 1354l378 -566l377 566h-755zM274 150l377 567l-377 567v-1134zM1126 156v1122l-376 -561zM324 78h757l-379 565z" />
    <glyph glyph-name=".notdef" horiz-adv-x="1404" 
d="M1223 1434v-1434h-1041v1434h1041zM324 1354l378 -566l377 566h-755zM274 150l377 567l-377 567v-1134zM1126 156v1122l-376 -561zM324 78h757l-379 565z" />
    <glyph glyph-name=".null" horiz-adv-x="0" 
 />
    <glyph glyph-name="nonmarkingreturn" horiz-adv-x="436" 
 />
    <glyph glyph-name="space" unicode=" " horiz-adv-x="436" 
 />
    <glyph glyph-name="exclam" unicode="!" horiz-adv-x="454" 
d="M156 1434h143v-1028h-143v1028zM311 0h-168v211h168v-211z" />
    <glyph glyph-name="quotedbl" unicode="&#x22;" horiz-adv-x="669" 
d="M240 819h-123v615h123v-615zM553 819h-125v615h125v-615z" />
    <glyph glyph-name="numbersign" unicode="#" horiz-adv-x="1189" 
d="M299 0h-82l88 473h-237v68h249l64 352h-313v68h325l88 473h82l-88 -473h326l88 473h82l-88 -473h239v-68h-252l-63 -352h315v-68h-327l-88 -473h-82l88 473h-326zM399 541h326l63 352h-325z" />
    <glyph glyph-name="dollar" unicode="$" horiz-adv-x="1165" 
d="M643 -236h-111v213q-234 12 -354.5 124t-118.5 315h140q0 -290 333 -322v580l-86 24q-57 17 -101 34.5t-92.5 48t-80 68t-52 93.5t-20.5 125q0 168 111.5 272.5t320.5 116.5v166h111v-166q215 -12 323.5 -116.5t108.5 -280.5h-135q-5 127 -75.5 197.5t-221.5 82.5v-555
l64 -18q70 -19 120 -37t104.5 -49.5t88.5 -70.5t56 -97.5t22 -132.5q0 -169 -121.5 -279.5t-333.5 -122.5v-213zM489 829l43 -12v522q-143 -11 -217.5 -83t-74.5 -175q0 -99 58.5 -157t190.5 -95zM664 637l-21 6v-549q149 10 229 84.5t80 188.5q0 52 -17 92.5t-41 66.5
t-66.5 48.5t-76 34.5t-87.5 28z" />
    <glyph glyph-name="percent" unicode="%" horiz-adv-x="1486" 
d="M946 344q0 -47 8.5 -90t28 -83.5t56.5 -64.5t87 -24t87 24t56 64.5t27.5 83.5t8.5 90t-8.5 90t-27.5 83.5t-56 64.5t-87 24t-87 -24t-56.5 -64.5t-28 -83.5t-8.5 -90zM543 1092q0 47 -9 90t-28.5 83.5t-56.5 64.5t-87 24t-86.5 -24t-55.5 -64.5t-27.5 -83.5t-8.5 -90
t8.5 -90t27.5 -84t55.5 -65t86.5 -24t87 24.5t56.5 64.5t28.5 83.5t9 90.5zM657 1092q0 -71 -18 -135.5t-53 -117t-93 -83.5t-131 -31q-75 0 -133 31.5t-92 85t-51.5 117t-17.5 133.5q0 71 18 135t52.5 116.5t92.5 83.5t131 31q75 0 133 -31.5t92.5 -84.5t52 -116.5
t17.5 -133.5zM199 0h-123l1204 1434h125zM831 344q0 71 18 135.5t53 117t93 83.5t131 31q75 0 133 -31.5t92.5 -85t52 -117t17.5 -133.5q0 -71 -18 -135.5t-53 -117t-93 -83.5t-131 -31q-75 0 -133 31.5t-92.5 85t-52 117t-17.5 133.5z" />
    <glyph glyph-name="ampersand" unicode="&#x26;" horiz-adv-x="1249" 
d="M1067 0l-158 184q-179 -209 -444 -209q-173 0 -278 99t-105 239q0 123 84 229t246 224q-100 112 -143.5 195.5t-43.5 171.5q0 138 91 231.5t247 93.5q146 0 232 -81.5t86 -202.5q0 -108 -60 -199t-219 -221l311 -365q50 77 93.5 188t62.5 197h137q-17 -98 -80.5 -243
t-128.5 -240l248 -291h-178zM526 842q224 173 224 325q0 80 -54.5 128t-134.5 48q-88 0 -144.5 -54.5t-56.5 -145.5q0 -67 43 -138.5t123 -162.5zM225 330q0 -101 70.5 -167.5t185.5 -66.5q201 0 350 180l-346 404q-90 -71 -141.5 -122t-85 -110t-33.5 -118z" />
    <glyph glyph-name="quotesingle" unicode="'" horiz-adv-x="356" 
d="M240 819h-123v615h123v-615z" />
    <glyph glyph-name="parenleft" unicode="(" horiz-adv-x="534" 
d="M66 606v27q0 284 120.5 541t323.5 419v-127q-35 -37 -68.5 -81t-78 -123t-77.5 -165.5t-56 -208.5t-23 -251v-35q0 -129 23 -251t56 -208.5t77.5 -165.5t78 -123t68.5 -81v-127q-203 161 -323.5 419t-120.5 541z" />
    <glyph glyph-name="parenright" unicode=")" horiz-adv-x="538" 
d="M25 -354v127q35 37 68.5 81t78 123t77.5 165.5t56 208.5t23 251v35q0 129 -23 251t-56 208.5t-77.5 165.5t-78 123t-68.5 81v127q205 -163 325.5 -419.5t120.5 -540.5v-27q0 -282 -121 -539.5t-325 -420.5z" />
    <glyph glyph-name="asterisk" unicode="*" horiz-adv-x="759" 
d="M352 1110l-270 127l57 88l230 -186l-43 295h110l-45 -295l230 186l57 -88l-268 -127l268 -131l-57 -88l-230 192l45 -303h-110l43 303l-230 -192l-57 88z" />
    <glyph glyph-name="plus" unicode="+" horiz-adv-x="841" 
d="M61 655v113h301v324h117v-324h301v-113h-301v-321h-117v321h-301z" />
    <glyph glyph-name="comma" unicode="," horiz-adv-x="387" 
d="M156 -266h-80l123 266h-88v211h168v-211z" />
    <glyph glyph-name="hyphen" unicode="-" horiz-adv-x="626" 
d="M109 487v121h409v-121h-409z" />
    <glyph glyph-name="period" unicode="." horiz-adv-x="385" 
d="M276 0h-167v211h167v-211z" />
    <glyph glyph-name="slash" unicode="/" horiz-adv-x="854" 
d="M815 1434l-651 -1719h-123l649 1719h125z" />
    <glyph glyph-name="zero" unicode="0" horiz-adv-x="1081" 
d="M539 -25q-223 0 -334 194t-111 548t111 547.5t334 193.5q225 0 336.5 -193.5t111.5 -547.5t-111.5 -548t-336.5 -194zM539 98q151 0 227 163t76 456q0 295 -75.5 456.5t-227.5 161.5q-151 0 -225 -161t-74 -457q0 -294 74 -456.5t225 -162.5z" />
    <glyph glyph-name="one" unicode="1" horiz-adv-x="591" 
d="M428 0h-137v1245q-101 -66 -252 -76v107q189 10 299 158h90v-1434z" />
    <glyph glyph-name="two" unicode="2" horiz-adv-x="1036" 
d="M961 127v-127h-867v119q161 132 282 248.5t216.5 234t145.5 227.5t50 209q0 126 -72.5 209.5t-205.5 83.5q-135 0 -212 -83t-77 -224q0 -68 21 -139h-138q-22 86 -22 153q0 190 118.5 305t315.5 115q190 0 304 -111.5t114 -297.5q0 -195 -159.5 -420t-502.5 -502h689z
" />
    <glyph glyph-name="three" unicode="3" horiz-adv-x="1071" 
d="M231 1051h-137q-2 80 27.5 153.5t84.5 130t141 90t190 33.5q191 0 306 -105t115 -274q0 -125 -71.5 -217t-200.5 -127q139 -29 216 -124.5t77 -231.5q0 -174 -126.5 -289t-326.5 -115q-205 0 -326.5 102.5t-125.5 284.5h143q4 -122 87.5 -194t219.5 -72q140 0 226 81
t86 206q0 130 -92 209.5t-240 79.5h-72v114h72q149 0 234 78.5t85 204.5q0 118 -79.5 193t-211.5 75q-75 0 -135 -24.5t-96 -65t-54 -91t-16 -105.5z" />
    <glyph glyph-name="four" unicode="4" horiz-adv-x="1060" 
d="M37 504l598 930h184v-930h189v-117h-189v-387h-137v387h-645v117zM166 504h516v801z" />
    <glyph glyph-name="five" unicode="5" horiz-adv-x="1048" 
d="M244 649h-119l27 785h747v-127h-625l-18 -521q120 134 307 134q190 0 304 -127.5t114 -335.5q0 -217 -128 -349.5t-337 -132.5q-202 0 -316 103t-120 284h145q6 -120 83 -193t208 -73q137 0 225 96.5t88 256.5q0 158 -83 255t-228 97q-92 0 -162 -44t-112 -108z" />
    <glyph glyph-name="six" unicode="6" horiz-adv-x="1099" 
d="M1020 455q0 -218 -127 -349t-324 -131q-224 0 -348.5 166.5t-124.5 476.5v66q0 210 33.5 360t99 240.5t156 132t211.5 41.5q169 0 280 -97t115 -271h-131q-11 124 -88.5 187.5t-181.5 63.5q-183 0 -270 -156t-87 -478v-62q41 119 138.5 187.5t226.5 68.5q182 0 302 -122
t120 -324zM877 442q0 160 -87 253t-219 93q-136 0 -223.5 -93t-87.5 -257q0 -147 86.5 -245.5t222.5 -98.5q133 0 220.5 94t87.5 254z" />
    <glyph glyph-name="seven" unicode="7" horiz-adv-x="919" 
d="M33 1307v127h841v-93l-542 -1341h-152l543 1307h-690z" />
    <glyph glyph-name="eight" unicode="8" horiz-adv-x="1093" 
d="M709 721q132 -29 212 -128.5t80 -225.5q0 -169 -126 -280.5t-328 -111.5q-206 0 -330.5 111t-124.5 281q0 126 80.5 225.5t212.5 128.5q-128 35 -201 130.5t-73 221.5q0 167 120.5 276t315.5 109q194 0 315 -109.5t121 -275.5q0 -126 -73 -221.5t-201 -130.5zM547 1337
q-136 0 -217.5 -78t-81.5 -196q0 -117 81.5 -194.5t217.5 -77.5t217.5 77.5t81.5 194.5q0 118 -81.5 196t-217.5 78zM547 96q141 0 227 80q84 81 84 203q0 127 -87.5 206t-223.5 79t-223.5 -79t-87.5 -206q0 -123 86 -203t225 -80z" />
    <glyph glyph-name="nine" unicode="9" horiz-adv-x="1097" 
d="M80 981q0 216 126.5 346.5t321.5 130.5q224 0 348.5 -166.5t124.5 -476.5v-65q0 -208 -33 -358t-98 -241t-155.5 -133.5t-212.5 -42.5q-110 0 -197 41.5t-140 126t-56 201.5h129q11 -124 88.5 -188t181.5 -64q183 0 269.5 157t86.5 480v59q-41 -119 -138 -187.5
t-226 -68.5q-183 0 -301.5 122t-118.5 327zM221 991q0 -160 87.5 -253t219.5 -93q135 0 222.5 93.5t87.5 256.5q0 147 -86.5 245.5t-223.5 98.5q-133 0 -220 -94t-87 -254z" />
    <glyph glyph-name="colon" unicode=":" horiz-adv-x="389" 
d="M279 821h-168v211h168v-211zM279 -2h-168v211h168v-211z" />
    <glyph glyph-name="semicolon" unicode=";" horiz-adv-x="438" 
d="M313 778h-168v211h168v-211zM188 -266h-79l122 266h-88v211h168v-211z" />
    <glyph glyph-name="less" unicode="&#x3c;" horiz-adv-x="894" 
d="M778 457v-133l-721 309v117l721 307v-133l-575 -234z" />
    <glyph glyph-name="equal" unicode="=" horiz-adv-x="958" 
d="M119 819v113h721v-113h-721zM119 492v112h721v-112h-721z" />
    <glyph glyph-name="greater" unicode="&#x3e;" horiz-adv-x="894" 
d="M117 457l575 233l-575 234v133l721 -307v-117l-721 -309v133z" />
    <glyph glyph-name="question" unicode="?" horiz-adv-x="868" 
d="M193 1096v-76h-136v90q0 72 23 134t67.5 110.5t117.5 76t165 27.5q175 0 270 -90t95 -231q0 -80 -31 -160t-75.5 -145t-88.5 -127t-75 -128t-31 -126v-45h-134v61q0 60 29.5 129t71.5 131.5t83.5 125.5t71 131t29.5 128q0 101 -57.5 160t-165.5 59q-105 0 -167 -58.5
t-62 -176.5zM510 0h-168v211h168v-211z" />
    <glyph glyph-name="at" unicode="@" horiz-adv-x="1689" 
d="M1395 -29l-4 -112q-235 -160 -562 -160q-175 0 -318.5 57t-240.5 159t-149.5 243.5t-52.5 310.5q0 144 37 276t109 241t171.5 189.5t230.5 125.5t279 45q165 0 301 -51.5t227.5 -143t141 -218.5t49.5 -276q0 -167 -55 -304t-147.5 -213.5t-203.5 -76.5q-99 0 -144 59
t-40 157q-102 -216 -301 -216q-121 0 -199 97t-78 264q0 153 52.5 281.5t145.5 204t206 75.5q187 0 244 -180l22 151h125q-12 -90 -36 -247t-38 -256t-14 -121q-22 -164 90 -164q69 0 130.5 64.5t99.5 178t38 244.5q0 181 -80.5 317t-220 206.5t-317.5 70.5q-156 0 -290 -61
t-225.5 -166t-143.5 -246.5t-52 -300.5q0 -202 78.5 -355t231.5 -239t362 -86q155 0 301 49q144 50 240 127zM575 432q0 -128 54 -196t137 -68q90 0 159.5 78t102.5 186.5t33 218.5q0 121 -50 177.5t-134 56.5q-89 0 -159 -64t-106.5 -166.5t-36.5 -222.5z" />
    <glyph glyph-name="A" unicode="A" horiz-adv-x="1259" 
d="M1231 0h-150l-157 461h-592l-158 -461h-145l497 1434h207zM373 582h510l-254 739z" />
    <glyph glyph-name="B" unicode="B" horiz-adv-x="1191" 
d="M1114 387q0 -186 -129.5 -286.5t-345.5 -100.5h-475v1434h448q208 0 330.5 -92.5t122.5 -270.5q0 -124 -75.5 -212.5t-205.5 -117.5q157 -26 243.5 -120t86.5 -234zM307 788h307q132 0 220 71.5t88 199.5q0 127 -86 192.5t-232 65.5h-297v-529zM307 672v-555h324
q158 0 249 70t91 206q0 134 -95 206.5t-262 72.5h-307z" />
    <glyph glyph-name="C" unicode="C" horiz-adv-x="1411" 
d="M1348 903h-136q-29 212 -153.5 323t-327.5 111q-231 0 -367.5 -170.5t-136.5 -451.5q0 -279 136 -449t366 -170q200 0 327 114.5t156 319.5h136q-32 -264 -195 -409.5t-424 -145.5q-299 0 -473 199.5t-174 540.5q0 338 177 540.5t472 202.5q262 0 423.5 -143t193.5 -412z
" />
    <glyph glyph-name="D" unicode="D" horiz-adv-x="1415" 
d="M164 0v1434h457q326 0 520 -192.5t194 -522.5t-194.5 -524.5t-519.5 -194.5h-457zM307 121h320q259 0 410 162t151 434q0 277 -155.5 436.5t-430.5 159.5h-295v-1192z" />
    <glyph glyph-name="E" unicode="E" horiz-adv-x="1112" 
d="M1038 121v-121h-874v1434h874v-121h-731v-512h629v-123h-629v-557h731z" />
    <glyph glyph-name="F" unicode="F" horiz-adv-x="1046" 
d="M307 0h-143v1434h856v-121h-713v-535h611v-123h-611v-655z" />
    <glyph glyph-name="G" unicode="G" horiz-adv-x="1464" 
d="M1219 0v291q-66 -153 -195 -234.5t-303 -81.5q-285 0 -463 204t-178 536q0 162 50.5 301t139 236t212.5 151.5t268 54.5q264 0 430 -149.5t186 -405.5h-137q-25 205 -151.5 319.5t-329.5 114.5q-232 0 -377.5 -173t-145.5 -449t142 -447.5t374 -171.5q217 0 346.5 127
t137.5 334h-457v119h588v-676h-137z" />
    <glyph glyph-name="H" unicode="H" horiz-adv-x="1366" 
d="M164 1434h143v-633h752v633h143v-1434h-143v678h-752v-678h-143v1434z" />
    <glyph glyph-name="I" unicode="I" horiz-adv-x="471" 
d="M164 1434h143v-1434h-143v1434z" />
    <glyph glyph-name="J" unicode="J" horiz-adv-x="937" 
d="M414 -25q-168 0 -262.5 88t-94.5 236v176h138v-145q0 -119 60.5 -176.5t160.5 -57.5q103 0 164 57.5t61 176.5v1104h143v-1106q0 -167 -100.5 -260t-269.5 -93z" />
    <glyph glyph-name="K" unicode="K" horiz-adv-x="1234" 
d="M164 1434h143v-750l707 750h168l-564 -586l654 -848h-178l-574 745l-213 -219v-526h-143v1434z" />
    <glyph glyph-name="L" unicode="L" horiz-adv-x="997" 
d="M958 121v-121h-794v1434h143v-1313h651z" />
    <glyph glyph-name="M" unicode="M" horiz-adv-x="1689" 
d="M913 0h-141l-469 1346v-1346h-139v1434h252l430 -1246l430 1246h250v-1434h-144v1346z" />
    <glyph glyph-name="N" unicode="N" horiz-adv-x="1378" 
d="M1075 0l-772 1247v-1247h-139v1434h186l725 -1182v1182h139v-1434h-139z" />
    <glyph glyph-name="O" unicode="O" horiz-adv-x="1449" 
d="M1368 715q0 -334 -176 -537t-465 -203q-192 0 -338.5 91.5t-226.5 259.5t-80 389q0 336 177 539.5t468 203.5q289 0 465 -203.5t176 -539.5zM1225 715q0 280 -135.5 451t-362.5 171q-229 0 -364.5 -171t-135.5 -451t135 -449.5t365 -169.5q228 0 363 169.5t135 449.5z
" />
    <glyph glyph-name="P" unicode="P" horiz-adv-x="1116" 
d="M590 590h-283v-590h-143v1434h426q214 0 344.5 -109.5t130.5 -312.5t-130.5 -312.5t-344.5 -109.5zM307 709h277q149 0 242.5 78.5t93.5 224.5t-93.5 224.5t-242.5 78.5h-277v-606z" />
    <glyph glyph-name="Q" unicode="Q" horiz-adv-x="1454" 
d="M1423 -8v-127q-299 -3 -497 139q-102 -29 -199 -29q-192 0 -338.5 91.5t-226.5 259.5t-80 389q0 336 177 539.5t468 203.5q289 0 465 -203.5t176 -539.5q0 -219 -77 -383.5t-218 -257.5q154 -82 350 -82zM1225 715q0 280 -135.5 451t-362.5 171q-229 0 -364.5 -171
t-135.5 -451t135 -449.5t365 -169.5q228 0 363 169.5t135 449.5z" />
    <glyph glyph-name="R" unicode="R" horiz-adv-x="1286" 
d="M307 616v-616h-143v1434h522q138 0 244 -41t171.5 -131t65.5 -220q0 -77 -26 -142t-70 -109t-95.5 -73t-109.5 -44q116 -29 179 -106.5t88 -215.5l28 -155q21 -113 80 -197h-154q-43 54 -67 186l-29 148q-12 69 -38 120t-57.5 81.5t-74.5 49t-83.5 25t-90.5 6.5h-340z
M307 731h371q88 0 163 30.5t126 98.5t51 162q0 142 -97.5 219.5t-246.5 77.5h-367v-588z" />
    <glyph glyph-name="S" unicode="S" horiz-adv-x="1179" 
d="M600 -25q-267 0 -401.5 112t-132.5 329h139q0 -149 96.5 -236.5t302.5 -87.5q168 0 261 76.5t93 198.5q0 52 -17 92.5t-41 66.5t-66.5 48.5t-76 34.5t-87.5 28l-217 61q-57 17 -101 34.5t-92.5 48t-80.5 68t-52.5 93.5t-20.5 125q0 178 127.5 284.5t360.5 106.5
q243 0 365 -106.5t122 -292.5h-135q-5 139 -89 210.5t-267 71.5q-169 0 -256.5 -74.5t-87.5 -185.5q0 -98 59 -156.5t191 -95.5l217 -63q70 -19 120 -37t104.5 -49.5t88.5 -70.5t56 -97.5t22 -132.5q0 -179 -135 -291.5t-369 -112.5z" />
    <glyph glyph-name="T" unicode="T" horiz-adv-x="1081" 
d="M1044 1313h-432v-1313h-143v1313h-432v121h1007v-121z" />
    <glyph glyph-name="U" unicode="U" horiz-adv-x="1368" 
d="M686 102q201 0 296 97t95 264v971h140v-985q0 -210 -135.5 -342t-395.5 -132q-137 0 -241 35t-167 99t-94.5 148.5t-31.5 188.5v988h143v-971q0 -167 94.5 -264t296.5 -97z" />
    <glyph glyph-name="V" unicode="V" horiz-adv-x="1204" 
d="M35 1434h155l416 -1301l416 1301h149l-483 -1434h-172z" />
    <glyph glyph-name="W" unicode="W" horiz-adv-x="1918" 
d="M885 1434h155l351 -1278l344 1278h149l-411 -1434h-173l-339 1237l-343 -1237h-172l-409 1434h153l342 -1278z" />
    <glyph glyph-name="X" unicode="X" horiz-adv-x="1150" 
d="M211 1434l367 -545l358 545h162l-443 -662l519 -772h-170l-437 649l-420 -649h-161l503 766l-448 668h170z" />
    <glyph glyph-name="Y" unicode="Y" horiz-adv-x="1222" 
d="M1174 1434l-490 -779v-655h-143v655l-496 779h168l408 -637l391 637h162z" />
    <glyph glyph-name="Z" unicode="Z" horiz-adv-x="1107" 
d="M1087 121v-121h-1056v80l825 1233h-788v121h981v-80l-830 -1233h868z" />
    <glyph glyph-name="bracketleft" unicode="[" horiz-adv-x="624" 
d="M283 1452v-1628h323v-105h-452v1837h452v-104h-323z" />
    <glyph glyph-name="backslash" unicode="\" horiz-adv-x="854" 
d="M39 1434h127l649 -1719h-125z" />
    <glyph glyph-name="bracketright" unicode="]" horiz-adv-x="624" 
d="M340 1452h-322v104h453v-1837h-453v105h322v1628z" />
    <glyph glyph-name="asciicircum" unicode="^" horiz-adv-x="851" 
d="M63 571l291 863h144l293 -863h-129l-236 715l-233 -715h-130z" />
    <glyph glyph-name="underscore" unicode="_" horiz-adv-x="651" 
d="M0 -223v84h651v-84h-651z" />
    <glyph glyph-name="grave" unicode="`" horiz-adv-x="509" 
d="M301 1151l-188 283h145l141 -283h-98z" />
    <glyph glyph-name="a" unicode="a" horiz-adv-x="944" 
d="M922 -6h-48q-76 0 -125 42t-59 126q-43 -90 -128.5 -137.5t-188.5 -47.5q-143 0 -228.5 78t-85.5 195q0 83 34 140t88 85.5t119.5 47t131.5 32t120 31.5t88 55t34 94v13q0 88 -53 138t-160 50q-110 0 -176 -52t-66 -153v-31h-119v35q0 142 97.5 223.5t267.5 81.5
q340 0 340 -303v-526q0 -58 27.5 -86.5t74.5 -28.5h15v-102zM195 264q0 -81 54.5 -133.5t153.5 -52.5q120 0 193.5 69t73.5 185v256q-11 -39 -52 -65t-93 -37t-110.5 -27t-107 -34t-80.5 -59t-32 -102z" />
    <glyph glyph-name="b" unicode="b" horiz-adv-x="1075" 
d="M268 0h-135v1434h135v-621q38 110 123 168.5t203 58.5q192 0 302 -137t110 -387q0 -255 -110.5 -398t-301.5 -143q-118 0 -203 59t-123 169v-203zM262 508q0 -200 81.5 -311t219.5 -111q139 0 222 111t83 311q0 204 -81.5 314t-223.5 110q-139 0 -220 -109.5t-81 -314.5z
" />
    <glyph glyph-name="c" unicode="c" horiz-adv-x="970" 
d="M68 508q0 252 118 391q120 141 324 141q169 0 277 -91.5t131 -252.5h-125q-23 113 -95 172.5t-184 59.5q-145 0 -228 -109.5t-83 -310.5t83 -310.5t228 -109.5q112 0 184 59t95 170h125q-23 -160 -130.5 -251t-277.5 -91q-205 0 -323.5 141t-118.5 392z" />
    <glyph glyph-name="d" unicode="d" horiz-adv-x="1075" 
d="M809 0v203q-41 -110 -126 -169t-202 -59q-191 0 -300 140.5t-109 392.5t109 392t302 140q117 0 201 -58.5t125 -168.5v621h133v-1434h-133zM813 508q0 205 -81 314.5t-220 109.5q-142 0 -223.5 -110t-81.5 -314q0 -200 83 -311t222 -111q138 0 219.5 111t81.5 311z" />
    <glyph glyph-name="e" unicode="e" horiz-adv-x="995" 
d="M520 88q106 0 178 50.5t97 137.5h125q-32 -137 -135.5 -219t-270.5 -82q-210 0 -327 140t-117 391q0 244 119.5 389t322.5 145q101 0 181 -38t130 -103.5t76.5 -151.5t26.5 -186v-80h-721v-4q0 -179 84 -284t231 -105zM514 932q-132 0 -214.5 -90.5t-92.5 -257.5h592
q-5 157 -81.5 252.5t-203.5 95.5z" />
    <glyph glyph-name="f" unicode="f" horiz-adv-x="536" 
d="M311 0h-135v911h-158v103h158v227q0 193 197 193h151v-103h-112q-48 0 -74.5 -19.5t-26.5 -72.5v-225h213v-103h-213v-911z" />
    <glyph glyph-name="g" unicode="g" horiz-adv-x="1073" 
d="M502 -276q151 0 228 65t77 203v227q-42 -100 -127 -155.5t-201 -55.5q-85 0 -158 32t-129.5 93.5t-89 162t-32.5 228.5q0 251 115.5 383.5t295.5 132.5q116 0 200 -56t126 -157v187h135v-1018q0 -183 -112 -284t-330 -101q-111 0 -193.5 27.5t-127.5 75t-65 104
t-18 121.5h131q-5 -90 64.5 -152.5t210.5 -62.5zM813 524q0 194 -83.5 301t-221.5 107q-139 0 -221 -106.5t-82 -301.5q0 -193 82 -299t221 -106q138 0 221.5 106.5t83.5 298.5z" />
    <glyph glyph-name="h" unicode="h" horiz-adv-x="1013" 
d="M133 1434h135v-568q50 90 132 132t169 42q155 0 238.5 -85.5t83.5 -245.5v-709h-133v682q0 129 -63 189.5t-173 60.5q-109 0 -181.5 -68t-72.5 -192v-672h-135v1434z" />
    <glyph glyph-name="i" unicode="i" 
d="M268 1434v-211h-135v211h135zM268 1014v-1014h-135v1014h135z" />
    <glyph glyph-name="j" unicode="j" 
d="M268 1434v-211h-135v211h135zM133 1014h135v-1178q0 -215 -213 -215h-102v103h67q51 0 82 21t31 81v1188z" />
    <glyph glyph-name="k" unicode="k" horiz-adv-x="923" 
d="M133 1434h135v-936l463 516h156l-387 -412l448 -602h-160l-378 506l-142 -152v-354h-135v1434z" />
    <glyph glyph-name="l" unicode="l" 
d="M133 1434h135v-1434h-135v1434z" />
    <glyph glyph-name="m" unicode="m" horiz-adv-x="1597" 
d="M268 670v-670h-135v1014h135v-148q48 89 124.5 131.5t168.5 42.5q219 0 281 -188q46 98 130 143t177 45q156 0 241 -84.5t85 -246.5v-709h-136v682q0 250 -223 250q-107 0 -176.5 -70.5t-69.5 -191.5v-670h-133v682q0 250 -221 250q-108 0 -178 -71t-70 -191z" />
    <glyph glyph-name="n" unicode="n" horiz-adv-x="1013" 
d="M133 1014h135v-148q45 87 126.5 130.5t174.5 43.5q155 0 238.5 -84t83.5 -247v-709h-133v682q0 127 -62 188.5t-174 61.5t-183 -70t-71 -190v-672h-135v1014z" />
    <glyph glyph-name="o" unicode="o" horiz-adv-x="1019" 
d="M950 508q0 -252 -117.5 -392.5t-322.5 -140.5t-322.5 140.5t-117.5 392.5t117.5 392t322.5 140q206 0 323 -139t117 -393zM813 508q0 203 -81.5 310.5t-221.5 107.5q-143 0 -224 -106.5t-81 -311.5t81 -312.5t224 -107.5q139 0 221 110t82 310z" />
    <glyph glyph-name="p" unicode="p" horiz-adv-x="1075" 
d="M268 -379h-135v1393h135v-201q44 110 128.5 168.5t201.5 58.5q192 0 300 -138t108 -390t-111 -394.5t-301 -142.5q-118 0 -203 59t-123 169v-582zM262 508q0 -200 81.5 -311t219.5 -111q139 0 222 111t83 311q0 204 -81.5 314t-223.5 110q-139 0 -220 -109.5t-81 -314.5z
" />
    <glyph glyph-name="q" unicode="q" horiz-adv-x="1075" 
d="M809 -379v582q-41 -110 -125 -169t-201 -59q-192 0 -301.5 140.5t-109.5 392.5t109 392t302 140q244 0 326 -227v201h133v-1393h-133zM813 508q0 205 -81 314.5t-220 109.5q-142 0 -223.5 -110t-81.5 -314q0 -200 83 -311t222 -111q138 0 219.5 111t81.5 311z" />
    <glyph glyph-name="r" unicode="r" horiz-adv-x="591" 
d="M133 1014h133v-176q18 55 47.5 94t66 59t71.5 28.5t73 8.5q13 0 41 -4v-133q-6 1 -27 3.5t-34 2.5q-104 0 -170 -65t-66 -193v-639h-135v1014z" />
    <glyph glyph-name="s" unicode="s" horiz-adv-x="886" 
d="M55 281h127q8 -92 73.5 -146.5t188.5 -54.5t185.5 50.5t62.5 133.5q0 38 -15 67t-44.5 48t-60 31t-74.5 24l-154 41q-42 11 -75.5 24t-69 35.5t-59 50t-39 70t-15.5 93.5q0 128 98 210t267 82q171 0 262.5 -75t93.5 -207h-125q-5 87 -63 132.5t-168 45.5q-116 0 -176 -51
t-60 -123q0 -66 37 -104.5t123 -61.5l160 -43q51 -14 87 -26.5t77 -35t66 -50t41.5 -70.5t16.5 -97q0 -137 -100 -218t-277 -81q-183 0 -283 81t-108 225z" />
    <glyph glyph-name="t" unicode="t" horiz-adv-x="589" 
d="M39 911v103h129v252h133v-252h246v-103h-246v-702q0 -121 121 -121q60 0 125 35v-105q-68 -36 -160 -36q-106 0 -162.5 51.5t-56.5 154.5v723h-129z" />
    <glyph glyph-name="u" unicode="u" horiz-adv-x="1009" 
d="M877 0h-136v147q-47 -88 -126 -131t-171 -43q-151 0 -236 82.5t-85 239.5v719h135v-692q0 -121 60.5 -180.5t168.5 -59.5q114 0 184 68t70 192v672h136v-1014z" />
    <glyph glyph-name="v" unicode="v" horiz-adv-x="913" 
d="M174 1014l287 -879l284 879h136l-344 -1014h-160l-344 1014h141z" />
    <glyph glyph-name="w" unicode="w" horiz-adv-x="1478" 
d="M172 1014l246 -854l260 854h127l262 -854l250 854h131l-313 -1014h-138l-258 842l-256 -842h-139l-311 1014h139z" />
    <glyph glyph-name="x" unicode="x" horiz-adv-x="894" 
d="M197 1014l264 -383l250 383h139l-322 -479l369 -535h-152l-307 442l-297 -442h-143l373 541l-328 473h154z" />
    <glyph glyph-name="y" unicode="y" horiz-adv-x="894" 
d="M172 1014l285 -813l274 813h135l-415 -1168q-73 -211 -273 -211q-58 0 -109 21t-83 55l59 88q59 -59 131 -59q58 0 95 33t63 102l57 160l-360 979h141z" />
    <glyph glyph-name="z" unicode="z" horiz-adv-x="825" 
d="M29 63l573 848h-524v103h696v-64l-571 -848h588v-102h-762v63z" />
    <glyph glyph-name="braceleft" unicode="{" horiz-adv-x="757" 
d="M-14 590v96h57q74 0 123.5 21.5t74 61t33.5 82t9 99.5v326q0 151 76 215.5t221 64.5h159v-104h-127q-94 0 -139 -41.5t-45 -138.5v-311q0 -130 -53.5 -208.5t-186.5 -113.5q134 -37 187 -114.5t53 -207.5v-311q0 -99 44.5 -139.5t139.5 -40.5h127v-107h-159
q-144 0 -220.5 66t-76.5 217v326q0 45 -5 80t-20.5 70.5t-41.5 59t-69.5 38t-103.5 14.5h-57z" />
    <glyph glyph-name="bar" unicode="|" horiz-adv-x="411" 
d="M156 1706h100v-2009h-100v2009z" />
    <glyph glyph-name="braceright" unicode="}" horiz-adv-x="757" 
d="M772 590h-59q-60 0 -103.5 -14.5t-69 -37.5t-40.5 -59t-20 -71t-5 -80v-326q0 -152 -76 -217.5t-223 -65.5h-158v107h127q94 0 138.5 40.5t44.5 139.5v311q0 129 54 207t185 115q-131 35 -185 113.5t-54 208.5v311q0 97 -44.5 138.5t-138.5 41.5h-127v104h158
q147 0 223 -64t76 -216v-326q0 -45 5 -80t20 -71t40.5 -59.5t69.5 -38.5t103 -15h59v-96z" />
    <glyph glyph-name="asciitilde" unicode="~" horiz-adv-x="956" 
d="M676 604q-61 0 -206.5 48t-172.5 48q-39 0 -58 -22.5t-20 -75.5h-96q0 102 41.5 159.5t126.5 57.5q47 0 194 -49t187 -49q37 0 56 23.5t20 76.5h96q0 -103 -41.5 -160t-126.5 -57z" />
    <glyph glyph-name="uni00A0" unicode="&#xa0;" horiz-adv-x="436" 
 />
    <glyph glyph-name="exclamdown" unicode="&#xa1;" horiz-adv-x="421" 
d="M295 1014v-211h-168v211h168zM139 -420v1028h144v-1028h-144z" />
    <glyph glyph-name="cent" unicode="&#xa2;" horiz-adv-x="1001" 
d="M334 -254h-94l79 272q-118 57 -180.5 182t-62.5 308q0 251 119 391q120 141 323 141q42 0 100 -10l60 203h98l-67 -229q182 -83 217 -308h-125q-24 133 -127 195l-236 -793q52 -10 84 -10q112 0 184 59t95 170h125q-23 -160 -130.5 -251t-277.5 -91q-55 0 -112 13z
M211 508q0 -266 143 -371l232 785q-30 6 -64 6q-145 0 -228 -109.5t-83 -310.5z" />
    <glyph glyph-name="sterling" unicode="&#xa3;" horiz-adv-x="1224" 
d="M61 0v117h39q94 0 141.5 53t47.5 143q0 170 -2 258h-215v105h213q0 59 -1 169.5t-1 162.5q0 209 120 329.5t322 120.5q109 0 192 -31t132.5 -85t73.5 -121t24 -146v-53h-135v35q0 132 -73.5 206t-211.5 74q-137 0 -219 -85t-82 -259v-317h543v-105h-541v-223
q0 -66 -12 -119q210 -125 444 -125q144 0 268 62v-131q-124 -55 -266 -55q-262 0 -497 137q-83 -117 -263 -117h-41z" />
    <glyph glyph-name="currency" unicode="&#xa4;" horiz-adv-x="1406" 
d="M78 45l-15 14l263 265q-148 158 -148 366q0 207 146 363l-261 262l15 14l260 -262q157 150 364 150q208 0 365 -150l262 264l14 -14l-262 -264q146 -156 146 -363q0 -208 -148 -366l264 -265l-14 -14l-264 264q-157 -147 -363 -147q-209 0 -362 147zM702 1196
q-200 0 -350 -143l350 -351l351 351q-149 143 -351 143zM199 690q0 -205 141 -352l348 350l-350 350q-139 -142 -139 -348zM1206 690q0 99 -36.5 189.5t-102.5 158.5l-350 -350l348 -350q141 147 141 352zM702 182q204 0 349 142l-349 350l-348 -350q70 -67 160 -104.5
t188 -37.5z" />
    <glyph glyph-name="yen" unicode="&#xa5;" horiz-adv-x="1228" 
d="M197 365h348v233h-348v98h321l-469 738h168l408 -637l391 637h162l-463 -738h325v-98h-352v-233h352v-99h-352v-266h-143v266h-348v99z" />
    <glyph glyph-name="brokenbar" unicode="&#xa6;" horiz-adv-x="411" 
d="M254 874h-98v828h98v-828zM156 618h98v-899h-98v899z" />
    <glyph glyph-name="section" unicode="&#xa7;" horiz-adv-x="1101" 
d="M893 -12q0 -147 -103 -246.5t-280 -99.5q-183 0 -284 87.5t-101 237.5h135q6 -99 67.5 -154t174.5 -55q119 0 182.5 63.5t63.5 151.5q0 66 -38 118t-99 87t-134 66.5t-146.5 68t-134.5 80t-99 112.5t-38 157q0 94 48.5 174.5t138.5 126.5q-39 65 -39 155
q0 147 103.5 246.5t281.5 99.5q181 0 282 -88t103 -237h-135q-8 99 -69.5 154t-172.5 55q-121 0 -184.5 -64t-63.5 -154q0 -52 23.5 -95t63.5 -73.5t92 -58t109 -52t114 -51t109 -60t92 -74t63.5 -98t23.5 -126.5q0 -94 -48.5 -173.5t-139.5 -125.5q39 -65 39 -155zM199 670
q-1 -68 39.5 -120.5t108.5 -90t141 -68.5t156 -73t134 -87q60 32 92.5 86t32.5 117q0 68 -40 121t-108.5 90.5t-141 68.5t-156 73t-135.5 87q-60 -35 -91.5 -88t-31.5 -116z" />
    <glyph glyph-name="dieresis" unicode="&#xa8;" horiz-adv-x="731" 
d="M258 1434v-197h-137v197h137zM610 1434v-197h-137v197h137z" />
    <glyph glyph-name="copyright" unicode="&#xa9;" horiz-adv-x="1617" 
d="M809 1473q116 0 223 -31t199.5 -94.5t161.5 -152.5t108 -212.5t39 -267.5t-39 -267.5t-108 -212.5t-161.5 -152.5t-199.5 -94.5t-223 -31t-223 31t-199.5 94.5t-161.5 152.5t-108 212.5t-39 267.5t39 267.5t108 212.5t161.5 152.5t199.5 94.5t223 31zM809 1386
q-127 0 -241.5 -45t-203 -128t-140.5 -212t-52 -286q0 -126 34 -235t93.5 -188.5t140 -136t174.5 -84.5t195 -28t195 28t174.5 84.5t140 136t93.5 188.5t34 235q0 157 -52 286t-140.5 212t-203 128t-241.5 45zM410 715q0 216 108.5 345.5t300.5 129.5q158 0 254 -91.5
t107 -242.5h-115q-11 104 -76.5 167.5t-169.5 63.5q-138 0 -210 -98t-72 -274q0 -175 72 -273t206 -98q108 0 172 57t76 156h117q-14 -143 -112 -230t-255 -87q-191 0 -297 128.5t-106 346.5z" />
    <glyph glyph-name="ordfeminine" unicode="&#xaa;" horiz-adv-x="835" 
d="M764 606h-37q-62 0 -101 33.5t-46 99.5q-34 -70 -103 -108.5t-151 -38.5q-114 0 -182 62t-68 157q0 66 27 112t70.5 68.5t95.5 37.5t104.5 25.5t96 25t70.5 44t27 74.5v10q0 69 -43.5 110.5t-128.5 41.5q-90 0 -141 -41t-51 -123v-25h-94v27q0 116 77 180t213 64
q273 0 273 -242v-422q0 -45 22.5 -67.5t59.5 -22.5h10v-82zM182 821q0 -64 44.5 -106.5t123.5 -42.5q97 0 155 56.5t58 148.5v204q-7 -28 -32.5 -46.5t-59.5 -29t-73.5 -19.5t-77.5 -20t-69 -27.5t-50 -46t-19 -71.5z" />
    <glyph glyph-name="guillemotleft" unicode="&#xab;" horiz-adv-x="999" 
d="M236 508l294 -508h-124l-336 508l336 506h124zM639 508l297 -508h-123l-338 508l338 506h123z" />
    <glyph glyph-name="logicalnot" unicode="&#xac;" horiz-adv-x="933" 
d="M84 819v113h721v-440h-117v327h-604z" />
    <glyph glyph-name="registered" unicode="&#xae;" horiz-adv-x="1042" 
d="M70 1057q0 140 63.5 246t164.5 159.5t222 53.5t223 -53.5t166 -160t64 -245.5q0 -105 -37.5 -193t-100 -146t-144 -90t-171.5 -32q-120 0 -221.5 54.5t-165 161t-63.5 245.5zM133 1057q0 -174 110 -289t277 -115q168 0 278.5 115t110.5 289q0 172 -110.5 286.5
t-278.5 114.5q-167 0 -277 -114.5t-110 -286.5zM530 1008h-112v-207h-66v510h187q80 0 126 -39.5t46 -110.5q0 -48 -30 -86t-83 -55l150 -219h-80zM418 1255v-194h110q55 0 84 27.5t29 70.5t-26 69.5t-78 26.5h-119z" />
    <glyph glyph-name="macron" unicode="&#xaf;" horiz-adv-x="737" 
d="M113 1210v107h514v-107h-514z" />
    <glyph glyph-name="degree" unicode="&#xb0;" horiz-adv-x="729" 
d="M659 1092q0 -162 -79.5 -264.5t-214.5 -102.5t-215 102.5t-80 264.5q0 161 79.5 263.5t215.5 102.5q135 0 214.5 -102t79.5 -264zM545 1092q0 120 -47.5 191t-132.5 71t-133 -71t-48 -191t48 -191.5t133 -71.5t132.5 71.5t47.5 191.5z" />
    <glyph glyph-name="plusminus" unicode="&#xb1;" horiz-adv-x="890" 
d="M86 655v113h301v324h117v-324h301v-113h-301v-321h-117v321h-301zM86 0v113h719v-113h-719z" />
    <glyph glyph-name="twosuperior" unicode="&#xb2;" horiz-adv-x="671" 
d="M612 936v-98h-542v90q415 313 415 528q0 70 -40 115t-115 45q-74 0 -116 -45.5t-42 -124.5q0 -43 12 -80h-110q-11 57 -11 88q0 118 74 188t201 70q119 0 190.5 -67t71.5 -183q0 -117 -91.5 -244t-289.5 -282h393z" />
    <glyph glyph-name="threesuperior" unicode="&#xb3;" horiz-adv-x="690" 
d="M178 1460h-108q0 105 75.5 178.5t202.5 73.5q121 0 193.5 -63t72.5 -166q0 -75 -42 -130t-119 -75q81 -17 126.5 -73.5t45.5 -135.5q0 -107 -78 -176.5t-207 -69.5q-132 0 -206.5 64t-74.5 180h111q1 -71 48 -111.5t122 -40.5q77 0 124.5 45t47.5 113q0 72 -50 116
t-134 44h-45v82h45q84 0 131 44t47 114q0 66 -44.5 106.5t-117.5 40.5q-81 0 -124.5 -47.5t-41.5 -112.5z" />
    <glyph glyph-name="acute" unicode="&#xb4;" horiz-adv-x="509" 
d="M209 1151h-96l139 283h147z" />
    <glyph glyph-name="mu" unicode="&#xb5;" horiz-adv-x="1056" 
d="M905 0h-135v147q-47 -88 -126 -131t-171 -43q-147 0 -231 78v-356h-90v1319h135v-692q0 -121 60.5 -180.5t168.5 -59.5q114 0 184 68t70 192v672h135v-1014z" />
    <glyph glyph-name="paragraph" unicode="&#xb6;" horiz-adv-x="1069" 
d="M565 1317v-1317h-127v756h-35q-159 0 -254.5 98t-95.5 244q0 77 29.5 142t79.5 106.5t113 64.5t131 23h483v-1434h-127v1317h-197z" />
    <glyph glyph-name="periodcentered" unicode="&#xb7;" horiz-adv-x="385" 
d="M276 561h-167v211h167v-211z" />
    <glyph glyph-name="cedilla" unicode="&#xb8;" horiz-adv-x="507" 
d="M229 -301h-129l181 336l112 -27z" />
    <glyph glyph-name="onesuperior" unicode="&#xb9;" horiz-adv-x="389" 
d="M291 838h-109v716q-39 -31 -151 -45v88q127 7 190 103h70v-862z" />
    <glyph glyph-name="ordmasculine" unicode="&#xba;" horiz-adv-x="847" 
d="M776 1016q0 -202 -93.5 -314t-258.5 -112q-163 0 -257.5 112.5t-94.5 313.5q0 202 94.5 314t257.5 112q165 0 258.5 -111.5t93.5 -314.5zM668 1016q0 162 -65.5 249t-178.5 87t-178.5 -87t-65.5 -249t65.5 -249t178.5 -87q112 0 178 87.5t66 248.5z" />
    <glyph glyph-name="guillemotright" unicode="&#xbb;" horiz-adv-x="999" 
d="M766 508l-297 506h125l336 -506l-336 -508h-125zM360 508l-294 506h122l338 -506l-338 -508h-122z" />
    <glyph glyph-name="onequarter" unicode="&#xbc;" horiz-adv-x="1601" 
d="M1343 1556l-1085 -1679h-106l1085 1679h106zM315 571h-108v717q-39 -31 -152 -45v88q128 7 191 103h69v-863zM942 315l352 547h140v-553h110v-86h-110v-221h-109v221h-383v92zM1036 309h289v451z" />
    <glyph glyph-name="onehalf" unicode="&#xbd;" horiz-adv-x="1665" 
d="M1343 1556l-1085 -1679h-106l1085 1679h106zM1595 98v-98h-542v90q415 312 415 528q0 73 -42 116.5t-113 43.5q-76 0 -117 -46.5t-41 -123.5q0 -48 12 -80h-110q-10 48 -10 88q0 122 75.5 190t198.5 68q119 0 190.5 -65.5t71.5 -183.5q0 -75 -36 -152t-100 -148.5
t-119 -121t-126 -105.5h393zM315 571h-108v717q-42 -31 -152 -45v88q130 7 191 103h69v-863z" />
    <glyph glyph-name="threequarters" unicode="&#xbe;" horiz-adv-x="1779" 
d="M1524 1556l-1086 -1679h-106l1085 1679h107zM188 1194h-108q0 105 75.5 178.5t202.5 73.5q121 0 194 -63t73 -166q0 -75 -42.5 -130t-119.5 -75q81 -17 126.5 -73.5t45.5 -135.5q0 -107 -78 -176.5t-207 -69.5q-131 0 -205.5 64t-74.5 180h110q1 -71 48 -111.5t122 -40.5
q77 0 124.5 45t47.5 113q0 72 -50 116t-134 44h-45v82h45q84 0 131 43.5t47 113.5q0 66 -44.5 107t-117.5 41q-81 0 -124.5 -47.5t-41.5 -112.5zM1122 315l353 547h139v-553h110v-86h-110v-221h-109v221h-383v92zM1217 309h288v451z" />
    <glyph glyph-name="questiondown" unicode="&#xbf;" horiz-adv-x="849" 
d="M346 1014h168v-211h-168v211zM664 -82v76h135v-90q0 -72 -23 -134t-67.5 -110.5t-117.5 -76t-165 -27.5q-175 0 -270 90t-95 231q0 80 31 160t75.5 145t88.5 127t75 128t31 126v45h134v-61q0 -60 -29.5 -128t-71 -131t-83.5 -125.5t-71.5 -131.5t-29.5 -129
q0 -101 57.5 -160t165.5 -59q105 0 167.5 58.5t62.5 176.5z" />
    <glyph glyph-name="Agrave" unicode="&#xc0;" horiz-adv-x="1259" 
d="M569 1571l-188 282h145l142 -282h-99zM1231 0h-150l-157 461h-592l-158 -461h-145l497 1434h207zM373 582h510l-254 739z" />
    <glyph glyph-name="Aacute" unicode="&#xc1;" horiz-adv-x="1259" 
d="M688 1571h-96l139 282h148zM1231 0h-150l-157 461h-592l-158 -461h-145l497 1434h207zM373 582h510l-254 739z" />
    <glyph glyph-name="Acircumflex" unicode="&#xc2;" horiz-adv-x="1259" 
d="M373 1571l200 282h113l203 -282h-107l-151 192l-152 -192h-106zM1231 0h-150l-157 461h-592l-158 -461h-145l497 1434h207zM373 582h510l-254 739z" />
    <glyph glyph-name="Atilde" unicode="&#xc3;" horiz-adv-x="1259" 
d="M510 1769q39 0 123.5 -32.5t116.5 -32.5q30 0 44.5 15t20.5 48h90q-11 -74 -51 -116.5t-104 -42.5q-41 0 -125 31.5t-109 31.5q-58 0 -70 -63h-88q8 75 47.5 118t104.5 43zM1231 0h-150l-157 461h-592l-158 -461h-145l497 1434h207zM373 582h510l-254 739z" />
    <glyph glyph-name="Adieresis" unicode="&#xc4;" horiz-adv-x="1259" 
d="M524 1853v-196h-137v196h137zM877 1853v-196h-138v196h138zM1231 0h-150l-157 461h-592l-158 -461h-145l497 1434h207zM373 582h510l-254 739z" />
    <glyph glyph-name="Aring" unicode="&#xc5;" horiz-adv-x="1259" 
d="M631 1565q-90 0 -147.5 57t-57.5 143t57.5 143.5t147.5 57.5q87 0 145 -58t58 -143t-58 -142.5t-145 -57.5zM631 1892q-50 0 -86.5 -35t-36.5 -92t36.5 -92t86.5 -35t85.5 34.5t35.5 92.5t-35.5 92.5t-85.5 34.5zM1231 0h-150l-157 461h-592l-158 -461h-145l497 1434h207
zM373 582h510l-254 739z" />
    <glyph glyph-name="AE" unicode="&#xc6;" horiz-adv-x="1757" 
d="M1683 121v-121h-874v451h-467l-238 -451h-149l758 1434h970v-121h-731v-512h629v-123h-629v-557h731zM406 571h403v770z" />
    <glyph glyph-name="Ccedilla" unicode="&#xc7;" horiz-adv-x="1411" 
d="M645 -301h-145l151 281q-263 25 -416 222t-153 513q0 338 177 540.5t472 202.5q262 0 423.5 -143t193.5 -412h-136q-29 212 -153.5 323t-327.5 111q-231 0 -367.5 -170.5t-136.5 -451.5q0 -279 136 -449t366 -170q200 0 327 114.5t156 319.5h136q-31 -247 -176.5 -391.5
t-380.5 -161.5z" />
    <glyph glyph-name="Egrave" unicode="&#xc8;" horiz-adv-x="1112" 
d="M551 1571l-189 282h146l141 -282h-98zM1038 121v-121h-874v1434h874v-121h-731v-512h629v-123h-629v-557h731z" />
    <glyph glyph-name="Eacute" unicode="&#xc9;" horiz-adv-x="1112" 
d="M670 1571h-97l140 282h147zM1038 121v-121h-874v1434h874v-121h-731v-512h629v-123h-629v-557h731z" />
    <glyph glyph-name="Ecircumflex" unicode="&#xca;" horiz-adv-x="1112" 
d="M354 1571l201 282h113l202 -282h-106l-152 192l-151 -192h-107zM1038 121v-121h-874v1434h874v-121h-731v-512h629v-123h-629v-557h731z" />
    <glyph glyph-name="Edieresis" unicode="&#xcb;" horiz-adv-x="1112" 
d="M504 1853v-196h-137v196h137zM856 1853v-196h-137v196h137zM1038 121v-121h-874v1434h874v-121h-731v-512h629v-123h-629v-557h731z" />
    <glyph glyph-name="Igrave" unicode="&#xcc;" horiz-adv-x="471" 
d="M174 1571l-188 282h145l141 -282h-98zM164 1434h143v-1434h-143v1434z" />
    <glyph glyph-name="Iacute" unicode="&#xcd;" horiz-adv-x="471" 
d="M295 1571h-96l139 282h147zM164 1434h143v-1434h-143v1434z" />
    <glyph glyph-name="Icircumflex" unicode="&#xce;" horiz-adv-x="471" 
d="M-20 1571l200 282h113l203 -282h-107l-151 192l-152 -192h-106zM164 1434h143v-1434h-143v1434z" />
    <glyph glyph-name="Idieresis" unicode="&#xcf;" horiz-adv-x="471" 
d="M129 1853v-196h-137v196h137zM481 1853v-196h-137v196h137zM164 1434h143v-1434h-143v1434z" />
    <glyph glyph-name="Eth" unicode="&#xd0;" horiz-adv-x="1427" 
d="M176 0v672h-143v114h143v648h457q326 0 520.5 -192.5t194.5 -522.5t-195 -524.5t-520 -194.5h-457zM319 121h320q259 0 410 162t151 434q0 277 -155.5 436.5t-430.5 159.5h-295v-527h476v-114h-476v-551z" />
    <glyph glyph-name="Ntilde" unicode="&#xd1;" horiz-adv-x="1378" 
d="M567 1769q39 0 123.5 -32.5t116.5 -32.5q30 0 44.5 15t20.5 48h91q-11 -74 -51 -116.5t-105 -42.5q-41 0 -125 31.5t-109 31.5q-57 0 -69 -63h-88q8 75 47 118t104 43zM1075 0l-772 1247v-1247h-139v1434h186l725 -1182v1182h139v-1434h-139z" />
    <glyph glyph-name="Ograve" unicode="&#xd2;" horiz-adv-x="1449" 
d="M692 1571l-188 282h145l142 -282h-99zM1368 715q0 -334 -176 -537t-465 -203q-192 0 -338.5 91.5t-226.5 259.5t-80 389q0 336 177 539.5t468 203.5q289 0 465 -203.5t176 -539.5zM1225 715q0 280 -135.5 451t-362.5 171q-229 0 -364.5 -171t-135.5 -451t135 -449.5
t365 -169.5q228 0 363 169.5t135 449.5z" />
    <glyph glyph-name="Oacute" unicode="&#xd3;" horiz-adv-x="1449" 
d="M811 1571h-96l139 282h147zM1368 715q0 -334 -176 -537t-465 -203q-192 0 -338.5 91.5t-226.5 259.5t-80 389q0 336 177 539.5t468 203.5q289 0 465 -203.5t176 -539.5zM1225 715q0 280 -135.5 451t-362.5 171q-229 0 -364.5 -171t-135.5 -451t135 -449.5t365 -169.5
q228 0 363 169.5t135 449.5z" />
    <glyph glyph-name="Ocircumflex" unicode="&#xd4;" horiz-adv-x="1449" 
d="M496 1571l200 282h113l203 -282h-107l-151 192l-152 -192h-106zM1368 715q0 -334 -176 -537t-465 -203q-192 0 -338.5 91.5t-226.5 259.5t-80 389q0 336 177 539.5t468 203.5q289 0 465 -203.5t176 -539.5zM1225 715q0 280 -135.5 451t-362.5 171q-229 0 -364.5 -171
t-135.5 -451t135 -449.5t365 -169.5q228 0 363 169.5t135 449.5z" />
    <glyph glyph-name="Otilde" unicode="&#xd5;" horiz-adv-x="1449" 
d="M633 1769q39 0 123 -32.5t116 -32.5q30 0 45 15t21 48h90q-11 -74 -51 -116.5t-105 -42.5q-41 0 -124.5 31.5t-108.5 31.5q-58 0 -70 -63h-88q8 75 47.5 118t104.5 43zM1368 715q0 -334 -176 -537t-465 -203q-192 0 -338.5 91.5t-226.5 259.5t-80 389q0 336 177 539.5
t468 203.5q289 0 465 -203.5t176 -539.5zM1225 715q0 280 -135.5 451t-362.5 171q-229 0 -364.5 -171t-135.5 -451t135 -449.5t365 -169.5q228 0 363 169.5t135 449.5z" />
    <glyph glyph-name="Odieresis" unicode="&#xd6;" horiz-adv-x="1449" 
d="M647 1853v-196h-137v196h137zM999 1853v-196h-137v196h137zM1368 715q0 -334 -176 -537t-465 -203q-192 0 -338.5 91.5t-226.5 259.5t-80 389q0 336 177 539.5t468 203.5q289 0 465 -203.5t176 -539.5zM1225 715q0 280 -135.5 451t-362.5 171q-229 0 -364.5 -171
t-135.5 -451t135 -449.5t365 -169.5q228 0 363 169.5t135 449.5z" />
    <glyph glyph-name="multiply" unicode="&#xd7;" horiz-adv-x="880" 
d="M170 360l-76 78l271 277l-271 276l76 76l270 -276l273 276l73 -76l-270 -276l270 -277l-75 -78l-271 277z" />
    <glyph glyph-name="Oslash" unicode="&#xd8;" horiz-adv-x="1449" 
d="M217 -47l-82 59l123 166q-176 200 -176 537q0 336 177 539.5t468 203.5q227 0 389 -131l117 158l82 -62l-125 -166q178 -203 178 -542q0 -334 -176 -537t-465 -203q-233 0 -395 131zM227 715q0 -259 115 -424l696 932q-126 114 -311 114q-229 0 -364.5 -171t-135.5 -451z
M1225 715q0 265 -119 430l-694 -932q126 -117 315 -117q228 0 363 169.5t135 449.5z" />
    <glyph glyph-name="Ugrave" unicode="&#xd9;" horiz-adv-x="1368" 
d="M623 1571l-189 282h146l141 -282h-98zM686 102q201 0 296 97t95 264v971h140v-985q0 -210 -135.5 -342t-395.5 -132q-137 0 -241 35t-167 99t-94.5 148.5t-31.5 188.5v988h143v-971q0 -167 94.5 -264t296.5 -97z" />
    <glyph glyph-name="Uacute" unicode="&#xda;" horiz-adv-x="1368" 
d="M741 1571h-96l139 282h148zM686 102q201 0 296 97t95 264v971h140v-985q0 -210 -135.5 -342t-395.5 -132q-137 0 -241 35t-167 99t-94.5 148.5t-31.5 188.5v988h143v-971q0 -167 94.5 -264t296.5 -97z" />
    <glyph glyph-name="Ucircumflex" unicode="&#xdb;" horiz-adv-x="1368" 
d="M426 1571l201 282h112l203 -282h-106l-152 192l-152 -192h-106zM686 102q201 0 296 97t95 264v971h140v-985q0 -210 -135.5 -342t-395.5 -132q-137 0 -241 35t-167 99t-94.5 148.5t-31.5 188.5v988h143v-971q0 -167 94.5 -264t296.5 -97z" />
    <glyph glyph-name="Udieresis" unicode="&#xdc;" horiz-adv-x="1368" 
d="M575 1853v-196h-137v196h137zM928 1853v-196h-137v196h137zM686 102q201 0 296 97t95 264v971h140v-985q0 -210 -135.5 -342t-395.5 -132q-137 0 -241 35t-167 99t-94.5 148.5t-31.5 188.5v988h143v-971q0 -167 94.5 -264t296.5 -97z" />
    <glyph glyph-name="Yacute" unicode="&#xdd;" horiz-adv-x="1222" 
d="M668 1571h-97l140 282h147zM1174 1434l-490 -779v-655h-143v655l-496 779h168l408 -637l391 637h162z" />
    <glyph glyph-name="Thorn" unicode="&#xde;" horiz-adv-x="1132" 
d="M307 305v-305h-143v1434h143v-285h295q205 0 334 -110t129 -312t-129 -312t-334 -110h-295zM307 424h287q151 0 238.5 77.5t87.5 225.5q0 149 -88 227t-238 78h-287v-608z" />
    <glyph glyph-name="germandbls" unicode="&#xdf;" horiz-adv-x="948" 
d="M268 2h-135v1036q0 103 30.5 183t84 128.5t122 73.5t148.5 25q163 0 254.5 -95t91.5 -237q0 -69 -26.5 -136t-70 -118t-83 -86t-80.5 -61q50 -54 80 -87.5t75 -89.5t70 -97.5t44.5 -91t19.5 -89.5q0 -111 -74 -185.5t-205 -74.5h-90v109h72q81 0 120.5 38.5t39.5 102.5
q0 33 -15 70t-51 87t-67 87t-93 108l-104 121q156 82 232.5 185t76.5 202q0 106 -64.5 165.5t-152.5 59.5q-105 0 -177.5 -69t-72.5 -209v-1055z" />
    <glyph glyph-name="agrave" unicode="&#xe0;" horiz-adv-x="944" 
d="M401 1151l-188 283h145l142 -283h-99zM922 -6h-48q-76 0 -125 42t-59 126q-43 -90 -128.5 -137.5t-188.5 -47.5q-143 0 -228.5 78t-85.5 195q0 83 34 140t88 85.5t119.5 47t131.5 32t120 31.5t88 55t34 94v13q0 88 -53 138t-160 50q-110 0 -176 -52t-66 -153v-31h-119v35
q0 142 97.5 223.5t267.5 81.5q340 0 340 -303v-526q0 -58 27.5 -86.5t74.5 -28.5h15v-102zM195 264q0 -81 54.5 -133.5t153.5 -52.5q120 0 193.5 69t73.5 185v256q-11 -39 -52 -65t-93 -37t-110.5 -27t-107 -34t-80.5 -59t-32 -102z" />
    <glyph glyph-name="aacute" unicode="&#xe1;" horiz-adv-x="944" 
d="M520 1151h-96l139 283h148zM922 -6h-48q-76 0 -125 42t-59 126q-43 -90 -128.5 -137.5t-188.5 -47.5q-143 0 -228.5 78t-85.5 195q0 83 34 140t88 85.5t119.5 47t131.5 32t120 31.5t88 55t34 94v13q0 88 -53 138t-160 50q-110 0 -176 -52t-66 -153v-31h-119v35
q0 142 97.5 223.5t267.5 81.5q340 0 340 -303v-526q0 -58 27.5 -86.5t74.5 -28.5h15v-102zM195 264q0 -81 54.5 -133.5t153.5 -52.5q120 0 193.5 69t73.5 185v256q-11 -39 -52 -65t-93 -37t-110.5 -27t-107 -34t-80.5 -59t-32 -102z" />
    <glyph glyph-name="acircumflex" unicode="&#xe2;" horiz-adv-x="944" 
d="M205 1151l201 283h112l203 -283h-107l-151 192l-152 -192h-106zM922 -6h-48q-76 0 -125 42t-59 126q-43 -90 -128.5 -137.5t-188.5 -47.5q-143 0 -228.5 78t-85.5 195q0 83 34 140t88 85.5t119.5 47t131.5 32t120 31.5t88 55t34 94v13q0 88 -53 138t-160 50
q-110 0 -176 -52t-66 -153v-31h-119v35q0 142 97.5 223.5t267.5 81.5q340 0 340 -303v-526q0 -58 27.5 -86.5t74.5 -28.5h15v-102zM195 264q0 -81 54.5 -133.5t153.5 -52.5q120 0 193.5 69t73.5 185v256q-11 -39 -52 -65t-93 -37t-110.5 -27t-107 -34t-80.5 -59t-32 -102z
" />
    <glyph glyph-name="atilde" unicode="&#xe3;" horiz-adv-x="944" 
d="M340 1350q39 0 123.5 -33t116.5 -33q30 0 44.5 15t20.5 49h90q-11 -74 -51 -117t-104 -43q-41 0 -125 31.5t-109 31.5q-58 0 -70 -63h-88q8 75 47.5 118.5t104.5 43.5zM922 -6h-48q-76 0 -125 42t-59 126q-43 -90 -128.5 -137.5t-188.5 -47.5q-143 0 -228.5 78t-85.5 195
q0 83 34 140t88 85.5t119.5 47t131.5 32t120 31.5t88 55t34 94v13q0 88 -53 138t-160 50q-110 0 -176 -52t-66 -153v-31h-119v35q0 142 97.5 223.5t267.5 81.5q340 0 340 -303v-526q0 -58 27.5 -86.5t74.5 -28.5h15v-102zM195 264q0 -81 54.5 -133.5t153.5 -52.5
q120 0 193.5 69t73.5 185v256q-11 -39 -52 -65t-93 -37t-110.5 -27t-107 -34t-80.5 -59t-32 -102z" />
    <glyph glyph-name="adieresis" unicode="&#xe4;" horiz-adv-x="944" 
d="M354 1434v-197h-137v197h137zM707 1434v-197h-138v197h138zM922 -6h-48q-76 0 -125 42t-59 126q-43 -90 -128.5 -137.5t-188.5 -47.5q-143 0 -228.5 78t-85.5 195q0 83 34 140t88 85.5t119.5 47t131.5 32t120 31.5t88 55t34 94v13q0 88 -53 138t-160 50q-110 0 -176 -52
t-66 -153v-31h-119v35q0 142 97.5 223.5t267.5 81.5q340 0 340 -303v-526q0 -58 27.5 -86.5t74.5 -28.5h15v-102zM195 264q0 -81 54.5 -133.5t153.5 -52.5q120 0 193.5 69t73.5 185v256q-11 -39 -52 -65t-93 -37t-110.5 -27t-107 -34t-80.5 -59t-32 -102z" />
    <glyph glyph-name="aring" unicode="&#xe5;" horiz-adv-x="944" 
d="M461 1145q-90 0 -147.5 57.5t-57.5 143.5t57.5 143t147.5 57q87 0 145 -57.5t58 -142.5t-58 -143t-145 -58zM461 1473q-50 0 -86.5 -35t-36.5 -92t36.5 -92t86.5 -35t85.5 34.5t35.5 92.5t-35.5 92.5t-85.5 34.5zM922 -6h-48q-76 0 -125 42t-59 126
q-43 -90 -128.5 -137.5t-188.5 -47.5q-143 0 -228.5 78t-85.5 195q0 83 34 140t88 85.5t119.5 47t131.5 32t120 31.5t88 55t34 94v13q0 88 -53 138t-160 50q-110 0 -176 -52t-66 -153v-31h-119v35q0 142 97.5 223.5t267.5 81.5q340 0 340 -303v-526q0 -58 27.5 -86.5
t74.5 -28.5h15v-102zM195 264q0 -81 54.5 -133.5t153.5 -52.5q120 0 193.5 69t73.5 185v256q-11 -39 -52 -65t-93 -37t-110.5 -27t-107 -34t-80.5 -59t-32 -102z" />
    <glyph glyph-name="ae" unicode="&#xe6;" horiz-adv-x="1595" 
d="M1120 88q106 0 178 50.5t97 137.5h125q-32 -137 -135.5 -219t-270.5 -82q-271 0 -383 228q-30 -103 -125 -164.5t-219 -61.5q-152 0 -240 79.5t-88 195.5q0 71 26.5 123.5t69.5 81t98.5 50t113 32t113 26t98.5 33t69.5 52t26.5 83.5v12q0 92 -55.5 141.5t-159.5 49.5
q-109 0 -174.5 -52t-65.5 -153v-31h-119v37q0 141 99 222t268 81q241 0 311 -159q122 159 334 159q101 0 181 -38t130 -103.5t76.5 -151.5t26.5 -186v-80h-721v-4q0 -179 84 -284t231 -105zM1114 932q-132 0 -214.5 -90.5t-92.5 -257.5h592q-5 157 -81.5 252.5t-203.5 95.5z
M195 264q0 -81 56 -133.5t157 -52.5q118 0 190 69t72 185v256q-11 -39 -52 -65t-93 -37t-110.5 -27t-107 -34t-80.5 -59t-32 -102z" />
    <glyph glyph-name="ccedilla" unicode="&#xe7;" horiz-adv-x="970" 
d="M401 -301h-129l152 283q-167 29 -261.5 167t-94.5 359q0 252 118 391q120 141 324 141q169 0 277 -91.5t131 -252.5h-125q-23 113 -95 172.5t-184 59.5q-145 0 -228 -109.5t-83 -310.5t83 -310.5t228 -109.5q112 0 184 59t95 170h125q-20 -149 -117.5 -239.5
t-251.5 -100.5z" />
    <glyph glyph-name="egrave" unicode="&#xe8;" horiz-adv-x="995" 
d="M442 1151l-188 283h145l142 -283h-99zM520 88q106 0 178 50.5t97 137.5h125q-32 -137 -135.5 -219t-270.5 -82q-210 0 -327 140t-117 391q0 244 119.5 389t322.5 145q101 0 181 -38t130 -103.5t76.5 -151.5t26.5 -186v-80h-721v-4q0 -179 84 -284t231 -105zM514 932
q-132 0 -214.5 -90.5t-92.5 -257.5h592q-5 157 -81.5 252.5t-203.5 95.5z" />
    <glyph glyph-name="eacute" unicode="&#xe9;" horiz-adv-x="995" 
d="M561 1151h-96l139 283h148zM520 88q106 0 178 50.5t97 137.5h125q-32 -137 -135.5 -219t-270.5 -82q-210 0 -327 140t-117 391q0 244 119.5 389t322.5 145q101 0 181 -38t130 -103.5t76.5 -151.5t26.5 -186v-80h-721v-4q0 -179 84 -284t231 -105zM514 932
q-132 0 -214.5 -90.5t-92.5 -257.5h592q-5 157 -81.5 252.5t-203.5 95.5z" />
    <glyph glyph-name="ecircumflex" unicode="&#xea;" horiz-adv-x="995" 
d="M248 1151l201 283h112l203 -283h-107l-151 192l-152 -192h-106zM520 88q106 0 178 50.5t97 137.5h125q-32 -137 -135.5 -219t-270.5 -82q-210 0 -327 140t-117 391q0 244 119.5 389t322.5 145q101 0 181 -38t130 -103.5t76.5 -151.5t26.5 -186v-80h-721v-4
q0 -179 84 -284t231 -105zM514 932q-132 0 -214.5 -90.5t-92.5 -257.5h592q-5 157 -81.5 252.5t-203.5 95.5z" />
    <glyph glyph-name="edieresis" unicode="&#xeb;" horiz-adv-x="995" 
d="M397 1434v-197h-137v197h137zM750 1434v-197h-138v197h138zM520 88q106 0 178 50.5t97 137.5h125q-32 -137 -135.5 -219t-270.5 -82q-210 0 -327 140t-117 391q0 244 119.5 389t322.5 145q101 0 181 -38t130 -103.5t76.5 -151.5t26.5 -186v-80h-721v-4q0 -179 84 -284
t231 -105zM514 932q-132 0 -214.5 -90.5t-92.5 -257.5h592q-5 157 -81.5 252.5t-203.5 95.5z" />
    <glyph glyph-name="igrave" unicode="&#xec;" 
d="M139 1151l-188 283h145l142 -283h-99zM268 1014v-1014h-135v1014h135z" />
    <glyph glyph-name="iacute" unicode="&#xed;" 
d="M258 1151h-96l139 283h148zM268 1014v-1014h-135v1014h135z" />
    <glyph glyph-name="icircumflex" unicode="&#xee;" 
d="M-57 1151l200 283h113l203 -283h-107l-151 192l-152 -192h-106zM268 1014v-1014h-135v1014h135z" />
    <glyph glyph-name="idieresis" unicode="&#xef;" 
d="M94 1434v-197h-137v197h137zM446 1434v-197h-137v197h137zM268 1014v-1014h-135v1014h135z" />
    <glyph glyph-name="eth" unicode="&#xf0;" horiz-adv-x="1005" 
d="M936 487q0 -235 -115.5 -373.5t-316.5 -138.5q-203 0 -318.5 134.5t-115.5 373.5q0 120 33 215.5t90 155.5t130.5 91.5t157.5 31.5q167 0 262 -113q-27 59 -239 326l-219 -107l-33 74l201 96q-144 164 -152 172h152q67 -67 110 -116l176 84l35 -74l-158 -76
q320 -397 320 -756zM803 479q0 192 -78.5 290.5t-220.5 98.5q-141 0 -220 -100.5t-79 -288.5q0 -184 80.5 -287.5t218.5 -103.5t218.5 103.5t80.5 287.5z" />
    <glyph glyph-name="ntilde" unicode="&#xf1;" horiz-adv-x="1013" 
d="M391 1350q39 0 123.5 -33t116.5 -33q30 0 44.5 15t20.5 49h90q-11 -74 -51 -117t-104 -43q-41 0 -125 31.5t-109 31.5q-57 0 -69 -63h-88q8 75 47 118.5t104 43.5zM133 1014h135v-148q45 87 126.5 130.5t174.5 43.5q155 0 238.5 -84t83.5 -247v-709h-133v682
q0 127 -62 188.5t-174 61.5t-183 -70t-71 -190v-672h-135v1014z" />
    <glyph glyph-name="ograve" unicode="&#xf2;" horiz-adv-x="1019" 
d="M451 1151l-189 283h146l141 -283h-98zM950 508q0 -252 -117.5 -392.5t-322.5 -140.5t-322.5 140.5t-117.5 392.5t117.5 392t322.5 140q206 0 323 -139t117 -393zM813 508q0 203 -81.5 310.5t-221.5 107.5q-143 0 -224 -106.5t-81 -311.5t81 -312.5t224 -107.5
q139 0 221 110t82 310z" />
    <glyph glyph-name="oacute" unicode="&#xf3;" horiz-adv-x="1019" 
d="M569 1151h-96l139 283h148zM950 508q0 -252 -117.5 -392.5t-322.5 -140.5t-322.5 140.5t-117.5 392.5t117.5 392t322.5 140q206 0 323 -139t117 -393zM813 508q0 203 -81.5 310.5t-221.5 107.5q-143 0 -224 -106.5t-81 -311.5t81 -312.5t224 -107.5q139 0 221 110t82 310
z" />
    <glyph glyph-name="ocircumflex" unicode="&#xf4;" horiz-adv-x="1019" 
d="M254 1151l201 283h112l203 -283h-106l-152 192l-152 -192h-106zM950 508q0 -252 -117.5 -392.5t-322.5 -140.5t-322.5 140.5t-117.5 392.5t117.5 392t322.5 140q206 0 323 -139t117 -393zM813 508q0 203 -81.5 310.5t-221.5 107.5q-143 0 -224 -106.5t-81 -311.5
t81 -312.5t224 -107.5q139 0 221 110t82 310z" />
    <glyph glyph-name="otilde" unicode="&#xf5;" horiz-adv-x="1019" 
d="M389 1350q39 0 123.5 -33t116.5 -33q30 0 44.5 15t20.5 49h90q-11 -74 -51 -117t-104 -43q-41 0 -125 31.5t-109 31.5q-57 0 -69 -63h-88q8 75 47 118.5t104 43.5zM950 508q0 -252 -117.5 -392.5t-322.5 -140.5t-322.5 140.5t-117.5 392.5t117.5 392t322.5 140
q206 0 323 -139t117 -393zM813 508q0 203 -81.5 310.5t-221.5 107.5q-143 0 -224 -106.5t-81 -311.5t81 -312.5t224 -107.5q139 0 221 110t82 310z" />
    <glyph glyph-name="odieresis" unicode="&#xf6;" horiz-adv-x="1019" 
d="M403 1434v-197h-137v197h137zM756 1434v-197h-138v197h138zM950 508q0 -252 -117.5 -392.5t-322.5 -140.5t-322.5 140.5t-117.5 392.5t117.5 392t322.5 140q206 0 323 -139t117 -393zM813 508q0 203 -81.5 310.5t-221.5 107.5q-143 0 -224 -106.5t-81 -311.5t81 -312.5
t224 -107.5q139 0 221 110t82 310z" />
    <glyph glyph-name="divide" unicode="&#xf7;" horiz-adv-x="919" 
d="M391 897v174h135v-174h-135zM100 655v113h719v-113h-719zM391 350v174h135v-174h-135z" />
    <glyph glyph-name="oslash" unicode="&#xf8;" horiz-adv-x="1038" 
d="M72 -12l110 147q-102 139 -102 371q0 252 117.5 392t322.5 140q164 0 277 -94l96 129l70 -53l-107 -139q105 -138 105 -375q0 -252 -118 -392.5t-323 -140.5q-161 0 -278 97l-101 -133zM215 506q0 -161 51 -260l453 598q-77 80 -199 80q-143 0 -224 -106.5t-81 -311.5z
M823 506q0 157 -51 262l-455 -598q78 -84 203 -84q139 0 221 110t82 310z" />
    <glyph glyph-name="ugrave" unicode="&#xf9;" horiz-adv-x="1009" 
d="M440 1151l-188 283h145l142 -283h-99zM877 0h-136v147q-47 -88 -126 -131t-171 -43q-151 0 -236 82.5t-85 239.5v719h135v-692q0 -121 60.5 -180.5t168.5 -59.5q114 0 184 68t70 192v672h136v-1014z" />
    <glyph glyph-name="uacute" unicode="&#xfa;" horiz-adv-x="1009" 
d="M559 1151h-96l139 283h148zM877 0h-136v147q-47 -88 -126 -131t-171 -43q-151 0 -236 82.5t-85 239.5v719h135v-692q0 -121 60.5 -180.5t168.5 -59.5q114 0 184 68t70 192v672h136v-1014z" />
    <glyph glyph-name="ucircumflex" unicode="&#xfb;" horiz-adv-x="1009" 
d="M244 1151l200 283h113l203 -283h-107l-151 192l-152 -192h-106zM877 0h-136v147q-47 -88 -126 -131t-171 -43q-151 0 -236 82.5t-85 239.5v719h135v-692q0 -121 60.5 -180.5t168.5 -59.5q114 0 184 68t70 192v672h136v-1014z" />
    <glyph glyph-name="udieresis" unicode="&#xfc;" horiz-adv-x="1009" 
d="M393 1434v-197h-137v197h137zM745 1434v-197h-137v197h137zM877 0h-136v147q-47 -88 -126 -131t-171 -43q-151 0 -236 82.5t-85 239.5v719h135v-692q0 -121 60.5 -180.5t168.5 -59.5q114 0 184 68t70 192v672h136v-1014z" />
    <glyph glyph-name="yacute" unicode="&#xfd;" horiz-adv-x="894" 
d="M504 1151h-96l139 283h147zM172 1014l285 -813l274 813h135l-415 -1168q-73 -211 -273 -211q-58 0 -109 21t-83 55l59 88q59 -59 131 -59q58 0 95 33t63 102l57 160l-360 979h141z" />
    <glyph glyph-name="thorn" unicode="&#xfe;" horiz-adv-x="1075" 
d="M268 -379h-135v1813h135v-621q44 110 128.5 168.5t201.5 58.5q192 0 300 -138t108 -390t-111 -394.5t-301 -142.5q-118 0 -203 59t-123 169v-582zM262 508q0 -200 81.5 -311t219.5 -111q139 0 222 111t83 311q0 204 -81.5 314t-223.5 110q-139 0 -220 -109.5t-81 -314.5z
" />
    <glyph glyph-name="ydieresis" unicode="&#xff;" horiz-adv-x="894" 
d="M340 1434v-197h-137v197h137zM692 1434v-197h-137v197h137zM172 1014l285 -813l274 813h135l-415 -1168q-73 -211 -273 -211q-58 0 -109 21t-83 55l59 88q59 -59 131 -59q58 0 95 33t63 102l57 160l-360 979h141z" />
    <glyph glyph-name="Amacron" unicode="&#x100;" horiz-adv-x="1259" 
d="M373 1630v107h514v-107h-514zM1231 0h-150l-157 461h-592l-158 -461h-145l497 1434h207zM373 582h510l-254 739z" />
    <glyph glyph-name="amacron" unicode="&#x101;" horiz-adv-x="944" 
d="M205 1210v107h514v-107h-514zM922 -6h-48q-76 0 -125 42t-59 126q-43 -90 -128.5 -137.5t-188.5 -47.5q-143 0 -228.5 78t-85.5 195q0 83 34 140t88 85.5t119.5 47t131.5 32t120 31.5t88 55t34 94v13q0 88 -53 138t-160 50q-110 0 -176 -52t-66 -153v-31h-119v35
q0 142 97.5 223.5t267.5 81.5q340 0 340 -303v-526q0 -58 27.5 -86.5t74.5 -28.5h15v-102zM195 264q0 -81 54.5 -133.5t153.5 -52.5q120 0 193.5 69t73.5 185v256q-11 -39 -52 -65t-93 -37t-110.5 -27t-107 -34t-80.5 -59t-32 -102z" />
    <glyph glyph-name="Abreve" unicode="&#x102;" horiz-adv-x="1259" 
d="M348 1845h103q37 -141 180 -141t180 141h102q-14 -119 -86.5 -183.5t-195.5 -64.5t-196 64.5t-87 183.5zM1231 0h-150l-157 461h-592l-158 -461h-145l497 1434h207zM373 582h510l-254 739z" />
    <glyph glyph-name="abreve" unicode="&#x103;" horiz-adv-x="944" 
d="M178 1425h103q37 -141 180 -141t180 141h102q-14 -119 -86.5 -183t-195.5 -64t-196 64t-87 183zM922 -6h-48q-76 0 -125 42t-59 126q-43 -90 -128.5 -137.5t-188.5 -47.5q-143 0 -228.5 78t-85.5 195q0 83 34 140t88 85.5t119.5 47t131.5 32t120 31.5t88 55t34 94v13
q0 88 -53 138t-160 50q-110 0 -176 -52t-66 -153v-31h-119v35q0 142 97.5 223.5t267.5 81.5q340 0 340 -303v-526q0 -58 27.5 -86.5t74.5 -28.5h15v-102zM195 264q0 -81 54.5 -133.5t153.5 -52.5q120 0 193.5 69t73.5 185v256q-11 -39 -52 -65t-93 -37t-110.5 -27t-107 -34
t-80.5 -59t-32 -102z" />
    <glyph glyph-name="Aogonek" unicode="&#x104;" horiz-adv-x="1259" 
d="M1231 0h-57q-160 -171 -160 -236q0 -27 19.5 -46t58.5 -19q61 0 131 37v-88q-73 -37 -160 -37q-77 0 -124.5 33t-47.5 96q0 62 48.5 124.5t139.5 139.5l-155 457h-592l-158 -461h-145l497 1434h207zM373 582h510l-254 739z" />
    <glyph glyph-name="aogonek" unicode="&#x105;" horiz-adv-x="944" 
d="M922 -6h-60q-155 -162 -155 -230q0 -27 19 -46t58 -19q61 0 131 37v-88q-73 -37 -159 -37q-77 0 -124.5 33t-47.5 96q0 116 200 272q-82 40 -94 150q-43 -90 -128.5 -137.5t-188.5 -47.5q-143 0 -228.5 78t-85.5 195q0 83 34 140t88 85.5t119.5 47t131.5 32t120 31.5
t88 55t34 94v13q0 88 -53 138t-160 50q-110 0 -176 -52t-66 -153v-31h-119v35q0 142 97.5 223.5t267.5 81.5q340 0 340 -303v-526q0 -58 27.5 -86.5t74.5 -28.5h15v-102zM195 264q0 -81 54.5 -133.5t153.5 -52.5q120 0 193.5 69t73.5 185v256q-11 -39 -52 -65t-93 -37
t-110.5 -27t-107 -34t-80.5 -59t-32 -102z" />
    <glyph glyph-name="Cacute" unicode="&#x106;" horiz-adv-x="1411" 
d="M778 1571h-96l139 282h148zM1348 903h-136q-29 212 -153.5 323t-327.5 111q-231 0 -367.5 -170.5t-136.5 -451.5q0 -279 136 -449t366 -170q200 0 327 114.5t156 319.5h136q-32 -264 -195 -409.5t-424 -145.5q-299 0 -473 199.5t-174 540.5q0 338 177 540.5t472 202.5
q262 0 423.5 -143t193.5 -412z" />
    <glyph glyph-name="cacute" unicode="&#x107;" horiz-adv-x="970" 
d="M551 1151h-96l139 283h147zM68 508q0 252 118 391q120 141 324 141q169 0 277 -91.5t131 -252.5h-125q-23 113 -95 172.5t-184 59.5q-145 0 -228 -109.5t-83 -310.5t83 -310.5t228 -109.5q112 0 184 59t95 170h125q-23 -160 -130.5 -251t-277.5 -91q-205 0 -323.5 141
t-118.5 392z" />
    <glyph glyph-name="Ccircumflex" unicode="&#x108;" horiz-adv-x="1411" 
d="M463 1571l201 282h112l203 -282h-107l-151 192l-152 -192h-106zM1348 903h-136q-29 212 -153.5 323t-327.5 111q-231 0 -367.5 -170.5t-136.5 -451.5q0 -279 136 -449t366 -170q200 0 327 114.5t156 319.5h136q-32 -264 -195 -409.5t-424 -145.5q-299 0 -473 199.5
t-174 540.5q0 338 177 540.5t472 202.5q262 0 423.5 -143t193.5 -412z" />
    <glyph glyph-name="ccircumflex" unicode="&#x109;" horiz-adv-x="970" 
d="M238 1151l200 283h113l203 -283h-107l-151 192l-152 -192h-106zM68 508q0 252 118 391q120 141 324 141q169 0 277 -91.5t131 -252.5h-125q-23 113 -95 172.5t-184 59.5q-145 0 -228 -109.5t-83 -310.5t83 -310.5t228 -109.5q112 0 184 59t95 170h125
q-23 -160 -130.5 -251t-277.5 -91q-205 0 -323.5 141t-118.5 392z" />
    <glyph glyph-name="Cdotaccent" unicode="&#x10a;" horiz-adv-x="1411" 
d="M788 1853v-204h-135v204h135zM1348 903h-136q-29 212 -153.5 323t-327.5 111q-231 0 -367.5 -170.5t-136.5 -451.5q0 -279 136 -449t366 -170q200 0 327 114.5t156 319.5h136q-32 -264 -195 -409.5t-424 -145.5q-299 0 -473 199.5t-174 540.5q0 338 177 540.5t472 202.5
q262 0 423.5 -143t193.5 -412z" />
    <glyph glyph-name="cdotaccent" unicode="&#x10b;" horiz-adv-x="970" 
d="M561 1434v-205h-135v205h135zM68 508q0 252 118 391q120 141 324 141q169 0 277 -91.5t131 -252.5h-125q-23 113 -95 172.5t-184 59.5q-145 0 -228 -109.5t-83 -310.5t83 -310.5t228 -109.5q112 0 184 59t95 170h125q-23 -160 -130.5 -251t-277.5 -91q-205 0 -323.5 141
t-118.5 392z" />
    <glyph glyph-name="Ccaron" unicode="&#x10c;" horiz-adv-x="1411" 
d="M463 1853h106l152 -190l151 190h107l-203 -282h-112zM1348 903h-136q-29 212 -153.5 323t-327.5 111q-231 0 -367.5 -170.5t-136.5 -451.5q0 -279 136 -449t366 -170q200 0 327 114.5t156 319.5h136q-32 -264 -195 -409.5t-424 -145.5q-299 0 -473 199.5t-174 540.5
q0 338 177 540.5t472 202.5q262 0 423.5 -143t193.5 -412z" />
    <glyph glyph-name="ccaron" unicode="&#x10d;" horiz-adv-x="970" 
d="M238 1434h106l152 -191l151 191h107l-203 -283h-113zM68 508q0 252 118 391q120 141 324 141q169 0 277 -91.5t131 -252.5h-125q-23 113 -95 172.5t-184 59.5q-145 0 -228 -109.5t-83 -310.5t83 -310.5t228 -109.5q112 0 184 59t95 170h125q-23 -160 -130.5 -251
t-277.5 -91q-205 0 -323.5 141t-118.5 392z" />
    <glyph glyph-name="Dcaron" unicode="&#x10e;" horiz-adv-x="1415" 
d="M459 1853h106l152 -190l151 190h107l-203 -282h-113zM164 0v1434h457q326 0 520 -192.5t194 -522.5t-194.5 -524.5t-519.5 -194.5h-457zM307 121h320q259 0 410 162t151 434q0 277 -155.5 436.5t-430.5 159.5h-295v-1192z" />
    <glyph glyph-name="dcaron" unicode="&#x10f;" horiz-adv-x="1187" 
d="M809 0v203q-41 -110 -126 -169t-202 -59q-191 0 -300 140.5t-109 392.5t109 392t302 140q117 0 201 -58.5t125 -168.5v621h133v-1434h-133zM1151 995h-78l105 250h-91v189h168v-189zM813 508q0 205 -81 314.5t-220 109.5q-142 0 -223.5 -110t-81.5 -314q0 -200 83 -311
t222 -111q138 0 219.5 111t81.5 311z" />
    <glyph glyph-name="Dcroat" unicode="&#x110;" horiz-adv-x="1427" 
d="M176 0v672h-143v114h143v648h457q326 0 520.5 -192.5t194.5 -522.5t-195 -524.5t-520 -194.5h-457zM319 121h320q259 0 410 162t151 434q0 277 -155.5 436.5t-430.5 159.5h-295v-527h476v-114h-476v-551z" />
    <glyph glyph-name="dcroat" unicode="&#x111;" horiz-adv-x="1075" 
d="M809 0v203q-41 -110 -126 -169t-202 -59q-191 0 -300 140.5t-109 392.5t109 392t302 140q117 0 201 -58.5t125 -168.5v371h-283v76h283v174h133v-174h143v-76h-143v-1184h-133zM813 508q0 205 -81 314.5t-220 109.5q-142 0 -223.5 -110t-81.5 -314q0 -200 83 -311
t222 -111q138 0 219.5 111t81.5 311z" />
    <glyph glyph-name="Emacron" unicode="&#x112;" horiz-adv-x="1112" 
d="M354 1630v107h514v-107h-514zM1038 121v-121h-874v1434h874v-121h-731v-512h629v-123h-629v-557h731z" />
    <glyph glyph-name="emacron" unicode="&#x113;" horiz-adv-x="995" 
d="M246 1210v107h514v-107h-514zM520 88q106 0 178 50.5t97 137.5h125q-32 -137 -135.5 -219t-270.5 -82q-210 0 -327 140t-117 391q0 244 119.5 389t322.5 145q101 0 181 -38t130 -103.5t76.5 -151.5t26.5 -186v-80h-721v-4q0 -179 84 -284t231 -105zM514 932
q-132 0 -214.5 -90.5t-92.5 -257.5h592q-5 157 -81.5 252.5t-203.5 95.5z" />
    <glyph glyph-name="Ebreve" unicode="&#x114;" horiz-adv-x="1112" 
d="M328 1845h102q37 -141 180 -141q144 0 181 141h102q-14 -119 -87 -183.5t-196 -64.5t-195.5 64.5t-86.5 183.5zM1038 121v-121h-874v1434h874v-121h-731v-512h629v-123h-629v-557h731z" />
    <glyph glyph-name="ebreve" unicode="&#x115;" horiz-adv-x="995" 
d="M221 1425h103q37 -141 180 -141t180 141h102q-14 -119 -86.5 -183t-195.5 -64t-196 64t-87 183zM520 88q106 0 178 50.5t97 137.5h125q-32 -137 -135.5 -219t-270.5 -82q-210 0 -327 140t-117 391q0 244 119.5 389t322.5 145q101 0 181 -38t130 -103.5t76.5 -151.5
t26.5 -186v-80h-721v-4q0 -179 84 -284t231 -105zM514 932q-132 0 -214.5 -90.5t-92.5 -257.5h592q-5 157 -81.5 252.5t-203.5 95.5z" />
    <glyph glyph-name="Edotaccent" unicode="&#x116;" horiz-adv-x="1112" 
d="M678 1853v-204h-135v204h135zM1038 121v-121h-874v1434h874v-121h-731v-512h629v-123h-629v-557h731z" />
    <glyph glyph-name="edotaccent" unicode="&#x117;" horiz-adv-x="995" 
d="M571 1434v-205h-135v205h135zM520 88q106 0 178 50.5t97 137.5h125q-32 -137 -135.5 -219t-270.5 -82q-210 0 -327 140t-117 391q0 244 119.5 389t322.5 145q101 0 181 -38t130 -103.5t76.5 -151.5t26.5 -186v-80h-721v-4q0 -179 84 -284t231 -105zM514 932
q-132 0 -214.5 -90.5t-92.5 -257.5h592q-5 157 -81.5 252.5t-203.5 95.5z" />
    <glyph glyph-name="Eogonek" unicode="&#x118;" horiz-adv-x="1112" 
d="M1038 121v-121h-172q-159 -170 -159 -236q0 -27 19 -46t58 -19q61 0 131 37v-88q-73 -37 -159 -37q-77 0 -124.5 33t-47.5 96q0 111 184 260h-604v1434h874v-121h-731v-512h629v-123h-629v-557h731z" />
    <glyph glyph-name="eogonek" unicode="&#x119;" horiz-adv-x="995" 
d="M520 88q106 0 178 50.5t97 137.5h125q-42 -176 -189 -251q-164 -168 -164 -240q0 -27 19.5 -46.5t58.5 -19.5q61 0 131 37v-88q-73 -37 -160 -37q-77 0 -124.5 33t-47.5 96q0 96 138 220q-58 -5 -68 -5q-210 0 -327 140t-117 391q0 244 119.5 389t322.5 145
q101 0 181 -38t130 -103.5t76.5 -151.5t26.5 -186v-80h-721v-4q0 -179 84 -284t231 -105zM514 932q-132 0 -214.5 -90.5t-92.5 -257.5h592q-5 157 -81.5 252.5t-203.5 95.5z" />
    <glyph glyph-name="Ecaron" unicode="&#x11a;" horiz-adv-x="1112" 
d="M354 1853h107l151 -190l152 190h106l-202 -282h-113zM1038 121v-121h-874v1434h874v-121h-731v-512h629v-123h-629v-557h731z" />
    <glyph glyph-name="ecaron" unicode="&#x11b;" horiz-adv-x="995" 
d="M248 1434h106l152 -191l151 191h107l-203 -283h-112zM520 88q106 0 178 50.5t97 137.5h125q-32 -137 -135.5 -219t-270.5 -82q-210 0 -327 140t-117 391q0 244 119.5 389t322.5 145q101 0 181 -38t130 -103.5t76.5 -151.5t26.5 -186v-80h-721v-4q0 -179 84 -284t231 -105
zM514 932q-132 0 -214.5 -90.5t-92.5 -257.5h592q-5 157 -81.5 252.5t-203.5 95.5z" />
    <glyph glyph-name="Gcircumflex" unicode="&#x11c;" horiz-adv-x="1464" 
d="M477 1571l201 282h113l202 -282h-106l-152 192l-151 -192h-107zM1219 0v291q-66 -153 -195 -234.5t-303 -81.5q-285 0 -463 204t-178 536q0 162 50.5 301t139 236t212.5 151.5t268 54.5q264 0 430 -149.5t186 -405.5h-137q-25 205 -151.5 319.5t-329.5 114.5
q-232 0 -377.5 -173t-145.5 -449t142 -447.5t374 -171.5q217 0 346.5 127t137.5 334h-457v119h588v-676h-137z" />
    <glyph glyph-name="gcircumflex" unicode="&#x11d;" horiz-adv-x="1073" 
d="M254 1143l201 282h112l203 -282h-106l-152 192l-152 -192h-106zM502 -276q151 0 228 65t77 203v227q-42 -100 -127 -155.5t-201 -55.5q-85 0 -158 32t-129.5 93.5t-89 162t-32.5 228.5q0 251 115.5 383.5t295.5 132.5q116 0 200 -56t126 -157v187h135v-1018
q0 -183 -112 -284t-330 -101q-111 0 -193.5 27.5t-127.5 75t-65 104t-18 121.5h131q-5 -90 64.5 -152.5t210.5 -62.5zM813 524q0 194 -83.5 301t-221.5 107q-139 0 -221 -106.5t-82 -301.5q0 -193 82 -299t221 -106q138 0 221.5 106.5t83.5 298.5z" />
    <glyph glyph-name="Gbreve" unicode="&#x11e;" horiz-adv-x="1464" 
d="M453 1845h102q37 -141 180 -141t180 141h103q-14 -119 -87 -183.5t-196 -64.5t-195.5 64.5t-86.5 183.5zM1219 0v291q-66 -153 -195 -234.5t-303 -81.5q-285 0 -463 204t-178 536q0 162 50.5 301t139 236t212.5 151.5t268 54.5q264 0 430 -149.5t186 -405.5h-137
q-25 205 -151.5 319.5t-329.5 114.5q-232 0 -377.5 -173t-145.5 -449t142 -447.5t374 -171.5q217 0 346.5 127t137.5 334h-457v119h588v-676h-137z" />
    <glyph glyph-name="gbreve" unicode="&#x11f;" horiz-adv-x="1073" 
d="M227 1417h103q37 -141 180 -141t180 141h103q-14 -119 -87 -183.5t-196 -64.5t-196 64.5t-87 183.5zM502 -276q151 0 228 65t77 203v227q-42 -100 -127 -155.5t-201 -55.5q-85 0 -158 32t-129.5 93.5t-89 162t-32.5 228.5q0 251 115.5 383.5t295.5 132.5q116 0 200 -56
t126 -157v187h135v-1018q0 -183 -112 -284t-330 -101q-111 0 -193.5 27.5t-127.5 75t-65 104t-18 121.5h131q-5 -90 64.5 -152.5t210.5 -62.5zM813 524q0 194 -83.5 301t-221.5 107q-139 0 -221 -106.5t-82 -301.5q0 -193 82 -299t221 -106q138 0 221.5 106.5t83.5 298.5z
" />
    <glyph glyph-name="Gdotaccent" unicode="&#x120;" horiz-adv-x="1464" 
d="M803 1853v-204h-135v204h135zM1219 0v291q-66 -153 -195 -234.5t-303 -81.5q-285 0 -463 204t-178 536q0 162 50.5 301t139 236t212.5 151.5t268 54.5q264 0 430 -149.5t186 -405.5h-137q-25 205 -151.5 319.5t-329.5 114.5q-232 0 -377.5 -173t-145.5 -449t142 -447.5
t374 -171.5q217 0 346.5 127t137.5 334h-457v119h588v-676h-137z" />
    <glyph glyph-name="gdotaccent" unicode="&#x121;" horiz-adv-x="1073" 
d="M578 1425v-204h-136v204h136zM502 -276q151 0 228 65t77 203v227q-42 -100 -127 -155.5t-201 -55.5q-85 0 -158 32t-129.5 93.5t-89 162t-32.5 228.5q0 251 115.5 383.5t295.5 132.5q116 0 200 -56t126 -157v187h135v-1018q0 -183 -112 -284t-330 -101
q-111 0 -193.5 27.5t-127.5 75t-65 104t-18 121.5h131q-5 -90 64.5 -152.5t210.5 -62.5zM813 524q0 194 -83.5 301t-221.5 107q-139 0 -221 -106.5t-82 -301.5q0 -193 82 -299t221 -106q138 0 221.5 106.5t83.5 298.5z" />
    <glyph glyph-name="Gcommaaccent" unicode="&#x122;" horiz-adv-x="1464" 
d="M1219 0v291q-66 -153 -195 -234.5t-303 -81.5q-285 0 -463 204t-178 536q0 162 50.5 301t139 236t212.5 151.5t268 54.5q264 0 430 -149.5t186 -405.5h-137q-25 205 -151.5 319.5t-329.5 114.5q-232 0 -377.5 -173t-145.5 -449t142 -447.5t374 -171.5q217 0 346.5 127
t137.5 334h-457v119h588v-676h-137zM715 -502h-72l96 201h-82v186h156v-186z" />
    <glyph glyph-name="gcommaaccent" unicode="&#x123;" horiz-adv-x="1073" 
d="M537 1567h79l-104 -224h88v-210h-168v210zM502 -276q151 0 228 65t77 203v227q-42 -100 -127 -155.5t-201 -55.5q-85 0 -158 32t-129.5 93.5t-89 162t-32.5 228.5q0 251 115.5 383.5t295.5 132.5q116 0 200 -56t126 -157v187h135v-1018q0 -183 -112 -284t-330 -101
q-111 0 -193.5 27.5t-127.5 75t-65 104t-18 121.5h131q-5 -90 64.5 -152.5t210.5 -62.5zM813 524q0 194 -83.5 301t-221.5 107q-139 0 -221 -106.5t-82 -301.5q0 -193 82 -299t221 -106q138 0 221.5 106.5t83.5 298.5z" />
    <glyph glyph-name="Hcircumflex" unicode="&#x124;" horiz-adv-x="1366" 
d="M426 1571l201 282h112l203 -282h-106l-152 192l-152 -192h-106zM164 1434h143v-633h752v633h143v-1434h-143v678h-752v-678h-143v1434z" />
    <glyph glyph-name="hcircumflex" unicode="&#x125;" horiz-adv-x="1013" 
d="M254 1571l201 282h112l203 -282h-106l-152 192l-152 -192h-106zM133 1434h135v-568q50 90 132 132t169 42q155 0 238.5 -85.5t83.5 -245.5v-709h-133v682q0 129 -63 189.5t-173 60.5q-109 0 -181.5 -68t-72.5 -192v-672h-135v1434z" />
    <glyph glyph-name="Hbar" unicode="&#x126;" horiz-adv-x="1380" 
d="M39 1167h133v267h143v-267h752v267h143v-267h131v-98h-131v-1069h-143v678h-752v-678h-143v1069h-133v98zM315 801h752v268h-752v-268z" />
    <glyph glyph-name="hbar" unicode="&#x127;" horiz-adv-x="1013" 
d="M0 1184v76h133v174h135v-174h291v-76h-291v-318q50 90 132 132t169 42q155 0 238.5 -85.5t83.5 -245.5v-709h-133v682q0 129 -63 189.5t-173 60.5q-109 0 -181.5 -68t-72.5 -192v-672h-135v1184h-133z" />
    <glyph glyph-name="Itilde" unicode="&#x128;" horiz-adv-x="471" 
d="M115 1769q39 0 123 -32.5t116 -32.5q30 0 45 15t21 48h90q-11 -74 -51 -116.5t-105 -42.5q-41 0 -124.5 31.5t-108.5 31.5q-58 0 -70 -63h-88q8 75 47.5 118t104.5 43zM164 1434h143v-1434h-143v1434z" />
    <glyph glyph-name="itilde" unicode="&#x129;" 
d="M80 1350q39 0 123 -33t116 -33q30 0 45 15.5t21 48.5h90q-11 -74 -51 -117t-105 -43q-41 0 -124.5 31.5t-108.5 31.5q-58 0 -70 -63h-88q8 75 47.5 118.5t104.5 43.5zM268 1014v-1014h-135v1014h135z" />
    <glyph glyph-name="Imacron" unicode="&#x12a;" horiz-adv-x="471" 
d="M-23 1630v107h515v-107h-515zM164 1434h143v-1434h-143v1434z" />
    <glyph glyph-name="imacron" unicode="&#x12b;" 
d="M-57 1210v107h514v-107h-514zM268 1014v-1014h-135v1014h135z" />
    <glyph glyph-name="Ibreve" unicode="&#x12c;" horiz-adv-x="471" 
d="M-47 1845h102q37 -141 181 -141q143 0 180 141h102q-14 -119 -86.5 -183.5t-195.5 -64.5t-196 64.5t-87 183.5zM164 1434h143v-1434h-143v1434z" />
    <glyph glyph-name="ibreve" unicode="&#x12d;" 
d="M-82 1425h102q37 -141 181 -141q143 0 180 141h102q-14 -119 -86.5 -183t-195.5 -64t-196 64t-87 183zM268 1014v-1014h-135v1014h135z" />
    <glyph glyph-name="Iogonek" unicode="&#x12e;" horiz-adv-x="471" 
d="M164 1434h143v-1434h-49q-160 -171 -160 -236q0 -27 19.5 -46t58.5 -19q61 0 131 37v-88q-73 -37 -160 -37q-77 0 -124.5 33t-47.5 96q0 62 50 126t139 136v1432z" />
    <glyph glyph-name="iogonek" unicode="&#x12f;" 
d="M268 1434v-211h-135v211h135zM268 1014v-1014h-37q-159 -170 -159 -236q0 -27 19.5 -46t58.5 -19q61 0 131 37v-88q-73 -37 -160 -37q-77 0 -124.5 33t-47.5 96q0 111 184 260v1014h135z" />
    <glyph glyph-name="Idotaccent" unicode="&#x130;" horiz-adv-x="471" 
d="M303 1853v-204h-135v204h135zM164 1434h143v-1434h-143v1434z" />
    <glyph glyph-name="dotlessi" unicode="&#x131;" 
d="M268 1014v-1014h-135v1014h135z" />
    <glyph glyph-name="IJ" unicode="&#x132;" horiz-adv-x="1488" 
d="M164 1434h143v-1434h-143v1434zM965 -25q-168 0 -262.5 88t-94.5 236v176h137v-145q0 -119 61 -176.5t161 -57.5q103 0 164 57.5t61 176.5v1104h143v-1106q0 -167 -100.5 -260t-269.5 -93z" />
    <glyph glyph-name="ij" unicode="&#x133;" horiz-adv-x="833" 
d="M268 1434v-211h-135v211h135zM700 1434v-211h-135v211h135zM268 1014v-1014h-135v1014h135zM565 1014h135v-1178q0 -215 -213 -215h-102v103h68q50 0 81 21t31 81v1188z" />
    <glyph glyph-name="Jcircumflex" unicode="&#x134;" horiz-adv-x="937" 
d="M457 1571l200 282h113l203 -282h-107l-151 192l-152 -192h-106zM414 -25q-168 0 -262.5 88t-94.5 236v176h138v-145q0 -119 60.5 -176.5t160.5 -57.5q103 0 164 57.5t61 176.5v1104h143v-1106q0 -167 -100.5 -260t-269.5 -93z" />
    <glyph glyph-name="jcircumflex" unicode="&#x135;" 
d="M-63 1151l200 283h113l203 -283h-107l-151 192l-152 -192h-106zM133 1014h135v-1178q0 -215 -213 -215h-102v103h67q51 0 82 21t31 81v1188z" />
    <glyph glyph-name="Kcommaaccent" unicode="&#x136;" horiz-adv-x="1234" 
d="M164 1434h143v-750l707 750h168l-564 -586l654 -848h-178l-574 745l-213 -219v-526h-143v1434zM676 -502h-72l96 201h-82v186h156v-186z" />
    <glyph glyph-name="kcommaaccent" unicode="&#x137;" horiz-adv-x="923" 
d="M133 1434h135v-936l463 516h156l-387 -412l448 -602h-160l-378 506l-142 -152v-354h-135v1434zM467 -502h-72l97 201h-82v186h155v-186z" />
    <glyph glyph-name="kgreenlandic" unicode="&#x138;" horiz-adv-x="923" 
d="M133 1014h135v-516l463 516h156l-387 -412l448 -602h-160l-380 504l-140 -150v-354h-135v1014z" />
    <glyph glyph-name="Lacute" unicode="&#x139;" horiz-adv-x="997" 
d="M293 1571h-96l139 282h147zM958 121v-121h-794v1434h143v-1313h651z" />
    <glyph glyph-name="lacute" unicode="&#x13a;" 
d="M258 1571h-96l139 282h148zM133 1434h135v-1434h-135v1434z" />
    <glyph glyph-name="Lcommaaccent" unicode="&#x13b;" horiz-adv-x="997" 
d="M958 121v-121h-794v1434h143v-1313h651zM543 -502h-72l96 201h-82v186h156v-186z" />
    <glyph glyph-name="lcommaaccent" unicode="&#x13c;" 
d="M133 1434h135v-1434h-135v1434zM180 -502h-71l96 201h-82v186h156v-186z" />
    <glyph glyph-name="Lcaron" unicode="&#x13d;" horiz-adv-x="1007" 
d="M958 121v-121h-794v1434h143v-1313h651zM768 995h-78l105 250h-90v189h167v-189z" />
    <glyph glyph-name="lcaron" unicode="&#x13e;" horiz-adv-x="514" 
d="M133 1434h135v-1434h-135v1434zM475 995h-78l105 250h-90v189h168v-189z" />
    <glyph glyph-name="Ldot" unicode="&#x13f;" horiz-adv-x="1009" 
d="M958 121v-121h-794v1434h143v-1313h651zM913 502h-157v198h157v-198z" />
    <glyph glyph-name="ldot" unicode="&#x140;" horiz-adv-x="542" 
d="M133 1434h135v-1434h-135v1434zM547 418h-154v192h154v-192z" />
    <glyph glyph-name="Lslash" unicode="&#x141;" horiz-adv-x="1032" 
d="M55 449v102l144 53v830h143v-777l403 152v-100l-403 -152v-436h651v-121h-794v502z" />
    <glyph glyph-name="lslash" unicode="&#x142;" horiz-adv-x="483" 
d="M51 383v106l123 74v871h135v-791l123 74v-109l-123 -71v-537h-135v455z" />
    <glyph glyph-name="Nacute" unicode="&#x143;" horiz-adv-x="1378" 
d="M745 1571h-96l139 282h148zM1075 0l-772 1247v-1247h-139v1434h186l725 -1182v1182h139v-1434h-139z" />
    <glyph glyph-name="nacute" unicode="&#x144;" horiz-adv-x="1013" 
d="M569 1151h-96l139 283h148zM133 1014h135v-148q45 87 126.5 130.5t174.5 43.5q155 0 238.5 -84t83.5 -247v-709h-133v682q0 127 -62 188.5t-174 61.5t-183 -70t-71 -190v-672h-135v1014z" />
    <glyph glyph-name="Ncommaaccent" unicode="&#x145;" horiz-adv-x="1378" 
d="M1075 0l-772 1247v-1247h-139v1434h186l725 -1182v1182h139v-1434h-139zM670 -502h-72l96 201h-82v186h156v-186z" />
    <glyph glyph-name="ncommaaccent" unicode="&#x146;" horiz-adv-x="1013" 
d="M133 1014h135v-148q45 87 126.5 130.5t174.5 43.5q155 0 238.5 -84t83.5 -247v-709h-133v682q0 127 -62 188.5t-174 61.5t-183 -70t-71 -190v-672h-135v1014zM492 -502h-72l96 201h-82v186h156v-186z" />
    <glyph glyph-name="Ncaron" unicode="&#x147;" horiz-adv-x="1378" 
d="M432 1853h107l151 -190l152 190h106l-203 -282h-112zM1075 0l-772 1247v-1247h-139v1434h186l725 -1182v1182h139v-1434h-139z" />
    <glyph glyph-name="ncaron" unicode="&#x148;" horiz-adv-x="1013" 
d="M256 1434h106l152 -191l152 191h106l-203 -283h-112zM133 1014h135v-148q45 87 126.5 130.5t174.5 43.5q155 0 238.5 -84t83.5 -247v-709h-133v682q0 127 -62 188.5t-174 61.5t-183 -70t-71 -190v-672h-135v1014z" />
    <glyph glyph-name="napostrophe" unicode="&#x149;" horiz-adv-x="1013" 
d="M211 1128h-78l105 250h-91v189h168v-189zM133 1014h135v-148q45 87 126.5 130.5t174.5 43.5q155 0 238.5 -84t83.5 -247v-709h-133v682q0 127 -62 188.5t-174 61.5t-183 -70t-71 -190v-672h-135v1014z" />
    <glyph glyph-name="Eng" unicode="&#x14a;" horiz-adv-x="1378" 
d="M1214 1434v-1522q0 -165 -98.5 -251.5t-257.5 -86.5q-131 0 -217 59v144q94 -80 209 -80q98 0 159.5 53.5t61.5 165.5v90l-768 1241v-1247h-139v1434h186l725 -1182v1182h139z" />
    <glyph glyph-name="eng" unicode="&#x14b;" horiz-adv-x="1013" 
d="M133 1014h135v-148q45 87 126.5 130.5t174.5 43.5q155 0 238.5 -84t83.5 -247v-873q0 -215 -213 -215h-100v103h65q115 0 115 102v856q0 127 -62 188.5t-174 61.5t-183 -70t-71 -190v-672h-135v1014z" />
    <glyph glyph-name="Omacron" unicode="&#x14c;" horiz-adv-x="1449" 
d="M496 1630v107h514v-107h-514zM1368 715q0 -334 -176 -537t-465 -203q-192 0 -338.5 91.5t-226.5 259.5t-80 389q0 336 177 539.5t468 203.5q289 0 465 -203.5t176 -539.5zM1225 715q0 280 -135.5 451t-362.5 171q-229 0 -364.5 -171t-135.5 -451t135 -449.5t365 -169.5
q228 0 363 169.5t135 449.5z" />
    <glyph glyph-name="omacron" unicode="&#x14d;" horiz-adv-x="1019" 
d="M254 1210v107h514v-107h-514zM950 508q0 -252 -117.5 -392.5t-322.5 -140.5t-322.5 140.5t-117.5 392.5t117.5 392t322.5 140q206 0 323 -139t117 -393zM813 508q0 203 -81.5 310.5t-221.5 107.5q-143 0 -224 -106.5t-81 -311.5t81 -312.5t224 -107.5q139 0 221 110
t82 310z" />
    <glyph glyph-name="Obreve" unicode="&#x14e;" horiz-adv-x="1449" 
d="M471 1845h102q37 -141 181 -141q143 0 180 141h102q-14 -119 -86.5 -183.5t-195.5 -64.5t-196 64.5t-87 183.5zM1368 715q0 -334 -176 -537t-465 -203q-192 0 -338.5 91.5t-226.5 259.5t-80 389q0 336 177 539.5t468 203.5q289 0 465 -203.5t176 -539.5zM1225 715
q0 280 -135.5 451t-362.5 171q-229 0 -364.5 -171t-135.5 -451t135 -449.5t365 -169.5q228 0 363 169.5t135 449.5z" />
    <glyph glyph-name="obreve" unicode="&#x14f;" horiz-adv-x="1019" 
d="M227 1425h103q37 -141 180 -141t180 141h103q-14 -119 -87 -183t-196 -64t-196 64t-87 183zM950 508q0 -252 -117.5 -392.5t-322.5 -140.5t-322.5 140.5t-117.5 392.5t117.5 392t322.5 140q206 0 323 -139t117 -393zM813 508q0 203 -81.5 310.5t-221.5 107.5
q-143 0 -224 -106.5t-81 -311.5t81 -312.5t224 -107.5q139 0 221 110t82 310z" />
    <glyph glyph-name="Ohungarumlaut" unicode="&#x150;" horiz-adv-x="1449" 
d="M635 1571h-86l137 295h150zM977 1571h-86l137 295h150zM1368 715q0 -334 -176 -537t-465 -203q-192 0 -338.5 91.5t-226.5 259.5t-80 389q0 336 177 539.5t468 203.5q289 0 465 -203.5t176 -539.5zM1225 715q0 280 -135.5 451t-362.5 171q-229 0 -364.5 -171t-135.5 -451
t135 -449.5t365 -169.5q228 0 363 169.5t135 449.5z" />
    <glyph glyph-name="ohungarumlaut" unicode="&#x151;" horiz-adv-x="1019" 
d="M391 1151h-86l137 295h150zM733 1151h-86l137 295h150zM950 508q0 -252 -117.5 -392.5t-322.5 -140.5t-322.5 140.5t-117.5 392.5t117.5 392t322.5 140q206 0 323 -139t117 -393zM813 508q0 203 -81.5 310.5t-221.5 107.5q-143 0 -224 -106.5t-81 -311.5t81 -312.5
t224 -107.5q139 0 221 110t82 310z" />
    <glyph glyph-name="OE" unicode="&#x152;" horiz-adv-x="2054" 
d="M80 715q0 331 193.5 525t519.5 194h1187v-121h-731v-512h629v-123h-629v-557h731v-121h-1187q-327 0 -520 192.5t-193 522.5zM1106 121v1192h-320q-258 0 -409.5 -162.5t-151.5 -433.5q0 -277 155.5 -436.5t430.5 -159.5h295z" />
    <glyph glyph-name="oe" unicode="&#x153;" horiz-adv-x="1740" 
d="M1266 88q106 0 177.5 50.5t96.5 137.5h125q-32 -137 -135 -219t-270 -82q-277 0 -379 242q-54 -118 -148.5 -180t-222.5 -62q-205 0 -322.5 140.5t-117.5 392.5t117.5 392t322.5 140q129 0 224 -63t149 -184q50 119 145.5 183t228.5 64q101 0 181 -38t130 -103.5
t76.5 -151.5t26.5 -186v-80h-721v-4q0 -179 84.5 -284t231.5 -105zM1260 932q-132 0 -215 -90.5t-93 -257.5h592q-5 157 -81 252.5t-203 95.5zM813 508q0 200 -82 310t-221 110q-142 0 -223.5 -108.5t-81.5 -311.5q0 -201 81.5 -310.5t223.5 -109.5q139 0 221 110.5
t82 309.5z" />
    <glyph glyph-name="Racute" unicode="&#x154;" horiz-adv-x="1286" 
d="M696 1571h-96l139 282h148zM307 616v-616h-143v1434h522q138 0 244 -41t171.5 -131t65.5 -220q0 -77 -26 -142t-70 -109t-95.5 -73t-109.5 -44q116 -29 179 -106.5t88 -215.5l28 -155q21 -113 80 -197h-154q-43 54 -67 186l-29 148q-12 69 -38 120t-57.5 81.5t-74.5 49
t-83.5 25t-90.5 6.5h-340zM307 731h371q88 0 163 30.5t126 98.5t51 162q0 142 -97.5 219.5t-246.5 77.5h-367v-588z" />
    <glyph glyph-name="racute" unicode="&#x155;" horiz-adv-x="591" 
d="M403 1151h-96l139 283h148zM133 1014h133v-176q18 55 47.5 94t66 59t71.5 28.5t73 8.5q13 0 41 -4v-133q-6 1 -27 3.5t-34 2.5q-104 0 -170 -65t-66 -193v-639h-135v1014z" />
    <glyph glyph-name="Rcommaaccent" unicode="&#x156;" horiz-adv-x="1286" 
d="M307 616v-616h-143v1434h522q138 0 244 -41t171.5 -131t65.5 -220q0 -77 -26 -142t-70 -109t-95.5 -73t-109.5 -44q116 -29 179 -106.5t88 -215.5l28 -155q21 -113 80 -197h-154q-43 54 -67 186l-29 148q-12 69 -38 120t-57.5 81.5t-74.5 49t-83.5 25t-90.5 6.5h-340z
M307 731h371q88 0 163 30.5t126 98.5t51 162q0 142 -97.5 219.5t-246.5 77.5h-367v-588zM629 -502h-72l96 201h-82v186h156v-186z" />
    <glyph glyph-name="rcommaaccent" unicode="&#x157;" horiz-adv-x="591" 
d="M133 1014h133v-176q18 55 47.5 94t66 59t71.5 28.5t73 8.5q13 0 41 -4v-133q-6 1 -27 3.5t-34 2.5q-104 0 -170 -65t-66 -193v-639h-135v1014zM180 -502h-71l96 201h-82v186h156v-186z" />
    <glyph glyph-name="Rcaron" unicode="&#x158;" horiz-adv-x="1286" 
d="M381 1853h106l152 -190l152 190h106l-203 -282h-112zM307 616v-616h-143v1434h522q138 0 244 -41t171.5 -131t65.5 -220q0 -77 -26 -142t-70 -109t-95.5 -73t-109.5 -44q116 -29 179 -106.5t88 -215.5l28 -155q21 -113 80 -197h-154q-43 54 -67 186l-29 148
q-12 69 -38 120t-57.5 81.5t-74.5 49t-83.5 25t-90.5 6.5h-340zM307 731h371q88 0 163 30.5t126 98.5t51 162q0 142 -97.5 219.5t-246.5 77.5h-367v-588z" />
    <glyph glyph-name="rcaron" unicode="&#x159;" horiz-adv-x="591" 
d="M88 1434h107l151 -191l152 191h106l-203 -283h-112zM133 1014h133v-176q18 55 47.5 94t66 59t71.5 28.5t73 8.5q13 0 41 -4v-133q-6 1 -27 3.5t-34 2.5q-104 0 -170 -65t-66 -193v-639h-135v1014z" />
    <glyph glyph-name="Sacute" unicode="&#x15a;" horiz-adv-x="1179" 
d="M664 1571h-97l140 282h147zM600 -25q-267 0 -401.5 112t-132.5 329h139q0 -149 96.5 -236.5t302.5 -87.5q168 0 261 76.5t93 198.5q0 52 -17 92.5t-41 66.5t-66.5 48.5t-76 34.5t-87.5 28l-217 61q-57 17 -101 34.5t-92.5 48t-80.5 68t-52.5 93.5t-20.5 125
q0 178 127.5 284.5t360.5 106.5q243 0 365 -106.5t122 -292.5h-135q-5 139 -89 210.5t-267 71.5q-169 0 -256.5 -74.5t-87.5 -185.5q0 -98 59 -156.5t191 -95.5l217 -63q70 -19 120 -37t104.5 -49.5t88.5 -70.5t56 -97.5t22 -132.5q0 -179 -135 -291.5t-369 -112.5z" />
    <glyph glyph-name="sacute" unicode="&#x15b;" horiz-adv-x="886" 
d="M500 1151h-97l140 283h147zM55 281h127q8 -92 73.5 -146.5t188.5 -54.5t185.5 50.5t62.5 133.5q0 38 -15 67t-44.5 48t-60 31t-74.5 24l-154 41q-42 11 -75.5 24t-69 35.5t-59 50t-39 70t-15.5 93.5q0 128 98 210t267 82q171 0 262.5 -75t93.5 -207h-125q-5 87 -63 132.5
t-168 45.5q-116 0 -176 -51t-60 -123q0 -66 37 -104.5t123 -61.5l160 -43q51 -14 87 -26.5t77 -35t66 -50t41.5 -70.5t16.5 -97q0 -137 -100 -218t-277 -81q-183 0 -283 81t-108 225z" />
    <glyph glyph-name="Scircumflex" unicode="&#x15c;" horiz-adv-x="1179" 
d="M348 1571l201 282h113l202 -282h-106l-152 192l-151 -192h-107zM600 -25q-267 0 -401.5 112t-132.5 329h139q0 -149 96.5 -236.5t302.5 -87.5q168 0 261 76.5t93 198.5q0 52 -17 92.5t-41 66.5t-66.5 48.5t-76 34.5t-87.5 28l-217 61q-57 17 -101 34.5t-92.5 48t-80.5 68
t-52.5 93.5t-20.5 125q0 178 127.5 284.5t360.5 106.5q243 0 365 -106.5t122 -292.5h-135q-5 139 -89 210.5t-267 71.5q-169 0 -256.5 -74.5t-87.5 -185.5q0 -98 59 -156.5t191 -95.5l217 -63q70 -19 120 -37t104.5 -49.5t88.5 -70.5t56 -97.5t22 -132.5q0 -179 -135 -291.5
t-369 -112.5z" />
    <glyph glyph-name="scircumflex" unicode="&#x15d;" horiz-adv-x="886" 
d="M184 1151l201 283h113l202 -283h-106l-152 192l-151 -192h-107zM55 281h127q8 -92 73.5 -146.5t188.5 -54.5t185.5 50.5t62.5 133.5q0 38 -15 67t-44.5 48t-60 31t-74.5 24l-154 41q-42 11 -75.5 24t-69 35.5t-59 50t-39 70t-15.5 93.5q0 128 98 210t267 82
q171 0 262.5 -75t93.5 -207h-125q-5 87 -63 132.5t-168 45.5q-116 0 -176 -51t-60 -123q0 -66 37 -104.5t123 -61.5l160 -43q51 -14 87 -26.5t77 -35t66 -50t41.5 -70.5t16.5 -97q0 -137 -100 -218t-277 -81q-183 0 -283 81t-108 225z" />
    <glyph glyph-name="Scedilla" unicode="&#x15e;" horiz-adv-x="1179" 
d="M512 -301h-129l149 278q-232 13 -350 125t-116 314h139q0 -149 96.5 -236.5t302.5 -87.5q168 0 261 76.5t93 198.5q0 52 -17 92.5t-41 66.5t-66.5 48.5t-76 34.5t-87.5 28l-217 61q-57 17 -101 34.5t-92.5 48t-80.5 68t-52.5 93.5t-20.5 125q0 178 127.5 284.5
t360.5 106.5q243 0 365 -106.5t122 -292.5h-135q-5 139 -89 210.5t-267 71.5q-169 0 -256.5 -74.5t-87.5 -185.5q0 -98 59 -156.5t191 -95.5l217 -63q70 -19 120 -37t104.5 -49.5t88.5 -70.5t56 -97.5t22 -132.5q0 -168 -118 -276.5t-327 -125.5z" />
    <glyph glyph-name="scedilla" unicode="&#x15f;" horiz-adv-x="886" 
d="M55 281h127q8 -92 73.5 -146.5t188.5 -54.5t185.5 50.5t62.5 133.5q0 38 -15 67t-44.5 48t-60 31t-74.5 24l-154 41q-42 11 -75.5 24t-69 35.5t-59 50t-39 70t-15.5 93.5q0 128 98 210t267 82q171 0 262.5 -75t93.5 -207h-125q-5 87 -63 132.5t-168 45.5q-116 0 -176 -51
t-60 -123q0 -66 37 -104.5t123 -61.5l160 -43q51 -14 87 -26.5t77 -35t66 -50t41.5 -70.5t16.5 -97q0 -128 -86.5 -207.5t-240.5 -89.5l-148 -278h-129l152 281q-148 17 -229 95t-87 206z" />
    <glyph glyph-name="Scaron" unicode="&#x160;" horiz-adv-x="1179" 
d="M348 1853h107l151 -190l152 190h106l-202 -282h-113zM600 -25q-267 0 -401.5 112t-132.5 329h139q0 -149 96.5 -236.5t302.5 -87.5q168 0 261 76.5t93 198.5q0 52 -17 92.5t-41 66.5t-66.5 48.5t-76 34.5t-87.5 28l-217 61q-57 17 -101 34.5t-92.5 48t-80.5 68
t-52.5 93.5t-20.5 125q0 178 127.5 284.5t360.5 106.5q243 0 365 -106.5t122 -292.5h-135q-5 139 -89 210.5t-267 71.5q-169 0 -256.5 -74.5t-87.5 -185.5q0 -98 59 -156.5t191 -95.5l217 -63q70 -19 120 -37t104.5 -49.5t88.5 -70.5t56 -97.5t22 -132.5q0 -179 -135 -291.5
t-369 -112.5z" />
    <glyph glyph-name="scaron" unicode="&#x161;" horiz-adv-x="886" 
d="M184 1434h107l151 -191l152 191h106l-202 -283h-113zM55 281h127q8 -92 73.5 -146.5t188.5 -54.5t185.5 50.5t62.5 133.5q0 38 -15 67t-44.5 48t-60 31t-74.5 24l-154 41q-42 11 -75.5 24t-69 35.5t-59 50t-39 70t-15.5 93.5q0 128 98 210t267 82q171 0 262.5 -75
t93.5 -207h-125q-5 87 -63 132.5t-168 45.5q-116 0 -176 -51t-60 -123q0 -66 37 -104.5t123 -61.5l160 -43q51 -14 87 -26.5t77 -35t66 -50t41.5 -70.5t16.5 -97q0 -137 -100 -218t-277 -81q-183 0 -283 81t-108 225z" />
    <glyph glyph-name="Tcommaaccent" unicode="&#x162;" horiz-adv-x="1081" 
d="M1044 1313h-432v-1313h-143v1313h-432v121h1007v-121zM524 -502h-71l96 201h-82v186h156v-186z" />
    <glyph glyph-name="tcommaaccent" unicode="&#x163;" horiz-adv-x="589" 
d="M39 911v103h129v252h133v-252h246v-103h-246v-702q0 -121 121 -121q60 0 125 35v-105q-68 -36 -160 -36q-106 0 -162.5 51.5t-56.5 154.5v723h-129zM295 -502h-72l96 201h-81v186h155v-186z" />
    <glyph glyph-name="Tcaron" unicode="&#x164;" horiz-adv-x="1081" 
d="M285 1853h106l152 -190l151 190h107l-203 -282h-113zM1044 1313h-432v-1313h-143v1313h-432v121h1007v-121z" />
    <glyph glyph-name="tcaron" unicode="&#x165;" horiz-adv-x="589" 
d="M604 1147h-78l105 250h-90v188h168v-188zM39 911v103h129v252h133v-252h246v-103h-246v-702q0 -121 121 -121q60 0 125 35v-105q-68 -36 -160 -36q-106 0 -162.5 51.5t-56.5 154.5v723h-129z" />
    <glyph glyph-name="Tbar" unicode="&#x166;" horiz-adv-x="1103" 
d="M238 631v100h241v582h-432v121h1008v-121h-432v-582h243v-100h-243v-631h-144v631h-241z" />
    <glyph glyph-name="tbar" unicode="&#x167;" horiz-adv-x="602" 
d="M45 551v90h127v270h-129v103h129v252h133v-252h246v-103h-246v-270h248v-90h-248v-342q0 -121 121 -121q60 0 125 35v-105q-68 -36 -160 -36q-106 0 -162.5 51.5t-56.5 154.5v363h-127z" />
    <glyph glyph-name="Utilde" unicode="&#x168;" horiz-adv-x="1368" 
d="M563 1769q39 0 123.5 -32.5t116.5 -32.5q30 0 44.5 15t20.5 48h90q-11 -74 -51 -116.5t-104 -42.5q-41 0 -125 31.5t-109 31.5q-57 0 -69 -63h-88q8 75 47 118t104 43zM686 102q201 0 296 97t95 264v971h140v-985q0 -210 -135.5 -342t-395.5 -132q-137 0 -241 35t-167 99
t-94.5 148.5t-31.5 188.5v988h143v-971q0 -167 94.5 -264t296.5 -97z" />
    <glyph glyph-name="utilde" unicode="&#x169;" horiz-adv-x="1009" 
d="M379 1350q39 0 123 -33t116 -33q30 0 45 15.5t21 48.5h90q-11 -74 -51.5 -117t-104.5 -43q-41 0 -124.5 31.5t-108.5 31.5q-58 0 -70 -63h-88q8 75 47.5 118.5t104.5 43.5zM877 0h-136v147q-47 -88 -126 -131t-171 -43q-151 0 -236 82.5t-85 239.5v719h135v-692
q0 -121 60.5 -180.5t168.5 -59.5q114 0 184 68t70 192v672h136v-1014z" />
    <glyph glyph-name="Umacron" unicode="&#x16a;" horiz-adv-x="1368" 
d="M426 1630v107h514v-107h-514zM686 102q201 0 296 97t95 264v971h140v-985q0 -210 -135.5 -342t-395.5 -132q-137 0 -241 35t-167 99t-94.5 148.5t-31.5 188.5v988h143v-971q0 -167 94.5 -264t296.5 -97z" />
    <glyph glyph-name="umacron" unicode="&#x16b;" horiz-adv-x="1009" 
d="M244 1210v107h514v-107h-514zM877 0h-136v147q-47 -88 -126 -131t-171 -43q-151 0 -236 82.5t-85 239.5v719h135v-692q0 -121 60.5 -180.5t168.5 -59.5q114 0 184 68t70 192v672h136v-1014z" />
    <glyph glyph-name="Ubreve" unicode="&#x16c;" horiz-adv-x="1368" 
d="M401 1845h103q37 -141 180 -141t180 141h103q-14 -119 -87 -183.5t-196 -64.5t-196 64.5t-87 183.5zM686 102q201 0 296 97t95 264v971h140v-985q0 -210 -135.5 -342t-395.5 -132q-137 0 -241 35t-167 99t-94.5 148.5t-31.5 188.5v988h143v-971q0 -167 94.5 -264
t296.5 -97z" />
    <glyph glyph-name="ubreve" unicode="&#x16d;" horiz-adv-x="1009" 
d="M217 1425h102q37 -141 181 -141q143 0 180 141h102q-14 -119 -86.5 -183t-195.5 -64t-196 64t-87 183zM877 0h-136v147q-47 -88 -126 -131t-171 -43q-151 0 -236 82.5t-85 239.5v719h135v-692q0 -121 60.5 -180.5t168.5 -59.5q114 0 184 68t70 192v672h136v-1014z" />
    <glyph glyph-name="Uring" unicode="&#x16e;" horiz-adv-x="1368" 
d="M684 1565q-90 0 -147.5 57t-57.5 143t57.5 143.5t147.5 57.5q87 0 145 -58t58 -143t-58 -142.5t-145 -57.5zM684 1892q-50 0 -86.5 -35t-36.5 -92t36.5 -92t86.5 -35t85.5 34.5t35.5 92.5t-35.5 92.5t-85.5 34.5zM686 102q201 0 296 97t95 264v971h140v-985
q0 -210 -135.5 -342t-395.5 -132q-137 0 -241 35t-167 99t-94.5 148.5t-31.5 188.5v988h143v-971q0 -167 94.5 -264t296.5 -97z" />
    <glyph glyph-name="uring" unicode="&#x16f;" horiz-adv-x="1009" 
d="M500 1145q-90 0 -147.5 57.5t-57.5 143.5t57.5 143t147.5 57q87 0 144.5 -57.5t57.5 -142.5t-57.5 -143t-144.5 -58zM500 1473q-50 0 -86.5 -35t-36.5 -92t36.5 -92t86.5 -35t85.5 34.5t35.5 92.5t-35.5 92.5t-85.5 34.5zM877 0h-136v147q-47 -88 -126 -131t-171 -43
q-151 0 -236 82.5t-85 239.5v719h135v-692q0 -121 60.5 -180.5t168.5 -59.5q114 0 184 68t70 192v672h136v-1014z" />
    <glyph glyph-name="Uhungarumlaut" unicode="&#x170;" horiz-adv-x="1368" 
d="M563 1571h-86l137 295h150zM905 1571h-86l137 295h150zM686 102q201 0 296 97t95 264v971h140v-985q0 -210 -135.5 -342t-395.5 -132q-137 0 -241 35t-167 99t-94.5 148.5t-31.5 188.5v988h143v-971q0 -167 94.5 -264t296.5 -97z" />
    <glyph glyph-name="uhungarumlaut" unicode="&#x171;" horiz-adv-x="1009" 
d="M381 1151h-86l137 295h150zM723 1151h-86l137 295h150zM877 0h-136v147q-47 -88 -126 -131t-171 -43q-151 0 -236 82.5t-85 239.5v719h135v-692q0 -121 60.5 -180.5t168.5 -59.5q114 0 184 68t70 192v672h136v-1014z" />
    <glyph glyph-name="Uogonek" unicode="&#x172;" horiz-adv-x="1368" 
d="M686 102q201 0 296 97t95 264v971h140v-985q0 -166 -84 -284.5t-250 -164.5q-142 -146 -142 -215q0 -27 19.5 -46.5t58.5 -19.5q61 0 131 37v-88q-73 -37 -159 -37q-77 0 -125 33t-48 96q0 95 136 217q-23 -2 -68 -2q-137 0 -241 35t-167 99t-94.5 148.5t-31.5 188.5v988
h143v-971q0 -167 94.5 -264t296.5 -97z" />
    <glyph glyph-name="uogonek" unicode="&#x173;" horiz-adv-x="1009" 
d="M877 0h-43q-160 -171 -160 -236q0 -27 19.5 -46t58.5 -19q61 0 131 37v-88q-73 -37 -160 -37q-77 0 -124.5 33t-47.5 96q0 113 190 264v143q-47 -88 -126 -131t-171 -43q-151 0 -236 82.5t-85 239.5v719h135v-692q0 -121 60.5 -180.5t168.5 -59.5q114 0 184 68t70 192
v672h136v-1014z" />
    <glyph glyph-name="Wcircumflex" unicode="&#x174;" horiz-adv-x="1918" 
d="M643 1552l201 283h112l203 -283h-106l-152 193l-151 -193h-107zM885 1434h155l351 -1278l344 1278h149l-411 -1434h-173l-339 1237l-343 -1237h-172l-409 1434h153l342 -1278z" />
    <glyph glyph-name="wcircumflex" unicode="&#x175;" horiz-adv-x="1478" 
d="M483 1151l201 283h113l202 -283h-106l-152 192l-151 -192h-107zM172 1014l246 -854l260 854h127l262 -854l250 854h131l-313 -1014h-138l-258 842l-256 -842h-139l-311 1014h139z" />
    <glyph glyph-name="Ycircumflex" unicode="&#x176;" horiz-adv-x="1222" 
d="M352 1571l201 282h113l202 -282h-106l-152 192l-151 -192h-107zM1174 1434l-490 -779v-655h-143v655l-496 779h168l408 -637l391 637h162z" />
    <glyph glyph-name="ycircumflex" unicode="&#x177;" horiz-adv-x="894" 
d="M190 1151l201 283h113l203 -283h-107l-151 192l-152 -192h-107zM172 1014l285 -813l274 813h135l-415 -1168q-73 -211 -273 -211q-58 0 -109 21t-83 55l59 88q59 -59 131 -59q58 0 95 33t63 102l57 160l-360 979h141z" />
    <glyph glyph-name="Ydieresis" unicode="&#x178;" horiz-adv-x="1222" 
d="M502 1853v-196h-137v196h137zM854 1853v-196h-137v196h137zM1174 1434l-490 -779v-655h-143v655l-496 779h168l408 -637l391 637h162z" />
    <glyph glyph-name="Zacute" unicode="&#x179;" horiz-adv-x="1107" 
d="M588 1571h-96l139 282h147zM1087 121v-121h-1056v80l825 1233h-788v121h981v-80l-830 -1233h868z" />
    <glyph glyph-name="zacute" unicode="&#x17a;" horiz-adv-x="825" 
d="M477 1151h-96l139 283h148zM29 63l573 848h-524v103h696v-64l-571 -848h588v-102h-762v63z" />
    <glyph glyph-name="Zdotaccent" unicode="&#x17b;" horiz-adv-x="1107" 
d="M598 1853v-204h-135v204h135zM1087 121v-121h-1056v80l825 1233h-788v121h981v-80l-830 -1233h868z" />
    <glyph glyph-name="zdotaccent" unicode="&#x17c;" horiz-adv-x="825" 
d="M487 1434v-205h-135v205h135zM29 63l573 848h-524v103h696v-64l-571 -848h588v-102h-762v63z" />
    <glyph glyph-name="Zcaron" unicode="&#x17d;" horiz-adv-x="1107" 
d="M272 1853h107l151 -190l152 190h106l-202 -282h-113zM1087 121v-121h-1056v80l825 1233h-788v121h981v-80l-830 -1233h868z" />
    <glyph glyph-name="zcaron" unicode="&#x17e;" horiz-adv-x="825" 
d="M162 1434h106l152 -191l151 191h107l-203 -283h-113zM29 63l573 848h-524v103h696v-64l-571 -848h588v-102h-762v63z" />
    <glyph glyph-name="longs" unicode="&#x17f;" horiz-adv-x="485" 
d="M311 0h-135v911h-158v103h158v227q0 193 197 193h151v-103h-112q-48 0 -74.5 -19.5t-26.5 -72.5v-1239z" />
    <glyph glyph-name="florin" unicode="&#x192;" horiz-adv-x="702" 
d="M76 682h209v559q0 193 196 193h152v-103h-113q-48 0 -74 -19.5t-26 -72.5v-557h213v-94h-213v-774q0 -193 -197 -193h-153v103h112q50 0 76.5 19.5t26.5 72.5v772h-209v94z" />
    <glyph glyph-name="Scommaaccent" unicode="&#x218;" horiz-adv-x="1179" 
d="M600 -25q-267 0 -401.5 112t-132.5 329h139q0 -149 96.5 -236.5t302.5 -87.5q168 0 261 76.5t93 198.5q0 52 -17 92.5t-41 66.5t-66.5 48.5t-76 34.5t-87.5 28l-217 61q-57 17 -101 34.5t-92.5 48t-80.5 68t-52.5 93.5t-20.5 125q0 178 127.5 284.5t360.5 106.5
q243 0 365 -106.5t122 -292.5h-135q-5 139 -89 210.5t-267 71.5q-169 0 -256.5 -74.5t-87.5 -185.5q0 -98 59 -156.5t191 -95.5l217 -63q70 -19 120 -37t104.5 -49.5t88.5 -70.5t56 -97.5t22 -132.5q0 -179 -135 -291.5t-369 -112.5zM586 -502h-72l96 201h-82v186h156v-186z
" />
    <glyph glyph-name="scommaaccent" unicode="&#x219;" horiz-adv-x="886" 
d="M55 281h127q8 -92 73.5 -146.5t188.5 -54.5t185.5 50.5t62.5 133.5q0 38 -15 67t-44.5 48t-60 31t-74.5 24l-154 41q-42 11 -75.5 24t-69 35.5t-59 50t-39 70t-15.5 93.5q0 128 98 210t267 82q171 0 262.5 -75t93.5 -207h-125q-5 87 -63 132.5t-168 45.5q-116 0 -176 -51
t-60 -123q0 -66 37 -104.5t123 -61.5l160 -43q51 -14 87 -26.5t77 -35t66 -50t41.5 -70.5t16.5 -97q0 -137 -100 -218t-277 -81q-183 0 -283 81t-108 225zM422 -502h-72l96 201h-81v186h155v-186z" />
    <glyph glyph-name="uni021A" unicode="&#x21a;" horiz-adv-x="1081" 
d="M1044 1313h-432v-1313h-143v1313h-432v121h1007v-121zM522 -502h-71l96 201h-82v186h156v-186z" />
    <glyph glyph-name="uni021B" unicode="&#x21b;" horiz-adv-x="589" 
d="M39 911v103h129v252h133v-252h246v-103h-246v-702q0 -121 121 -121q60 0 125 35v-105q-68 -36 -160 -36q-106 0 -162.5 51.5t-56.5 154.5v723h-129zM295 -502h-72l96 201h-81v186h155v-186z" />
    <glyph glyph-name="dotlessj" unicode="&#x237;" 
d="M133 1014h135v-1178q0 -215 -213 -215h-102v103h67q51 0 82 21t31 81v1188z" />
    <glyph glyph-name="apostrophe" unicode="&#x2bc;" horiz-adv-x="393" 
d="M166 956h-80l123 267h-88v211h168v-211z" />
    <glyph glyph-name="circumflex" unicode="&#x2c6;" horiz-adv-x="739" 
d="M113 1151l200 283h113l203 -283h-107l-151 192l-152 -192h-106z" />
    <glyph glyph-name="caron" unicode="&#x2c7;" horiz-adv-x="739" 
d="M113 1434h106l152 -191l151 191h107l-203 -283h-113z" />
    <glyph glyph-name="breve" unicode="&#x2d8;" horiz-adv-x="770" 
d="M102 1425h103q37 -141 180 -141t180 141h103q-14 -119 -87 -183t-196 -64t-196 64t-87 183z" />
    <glyph glyph-name="dotaccent" unicode="&#x2d9;" horiz-adv-x="360" 
d="M248 1434v-205h-135v205h135z" />
    <glyph glyph-name="ring" unicode="&#x2da;" horiz-adv-x="587" 
d="M295 1145q-90 0 -147.5 57.5t-57.5 143.5t57.5 143t147.5 57q87 0 145 -57.5t58 -142.5t-58 -143t-145 -58zM295 1473q-50 0 -86.5 -35t-36.5 -92t36.5 -92t86.5 -35t85.5 34.5t35.5 92.5t-35.5 92.5t-85.5 34.5z" />
    <glyph glyph-name="ogonek" unicode="&#x2db;" horiz-adv-x="536" 
d="M344 51l62 -20q-191 -191 -191 -267q0 -27 19.5 -46t58.5 -19q61 0 131 37v-88q-73 -37 -160 -37q-77 0 -124.5 33t-47.5 96q0 73 67.5 149t184.5 162z" />
    <glyph glyph-name="tilde" unicode="&#x2dc;" horiz-adv-x="770" 
d="M264 1350q39 0 123.5 -33t116.5 -33q30 0 44.5 15t20.5 49h90q-11 -74 -51 -117t-104 -43q-41 0 -125 31.5t-109 31.5q-57 0 -69 -63h-88q8 75 47 118.5t104 43.5z" />
    <glyph glyph-name="hungarumlaut" unicode="&#x2dd;" horiz-adv-x="854" 
d="M199 1151h-86l137 295h149zM541 1151h-86l137 295h149z" />
    <glyph glyph-name="pi" unicode="&#x3c0;" horiz-adv-x="1144" 
d="M133 0v1014h954v-94h-243v-711q0 -121 119 -121q62 0 124 35v-105q-68 -36 -159 -36q-106 0 -162.5 51.5t-56.5 154.5v732h-441v-920h-135z" />
    <glyph glyph-name="Wgrave" unicode="&#x1e80;" horiz-adv-x="1918" 
d="M846 1552l-189 283h146l141 -283h-98zM885 1434h155l351 -1278l344 1278h149l-411 -1434h-173l-339 1237l-343 -1237h-172l-409 1434h153l342 -1278z" />
    <glyph glyph-name="wgrave" unicode="&#x1e81;" horiz-adv-x="1478" 
d="M680 1151l-188 283h145l141 -283h-98zM172 1014l246 -854l260 854h127l262 -854l250 854h131l-313 -1014h-138l-258 842l-256 -842h-139l-311 1014h139z" />
    <glyph glyph-name="Wacute" unicode="&#x1e82;" horiz-adv-x="1918" 
d="M965 1552h-97l140 283h147zM885 1434h155l351 -1278l344 1278h149l-411 -1434h-173l-339 1237l-343 -1237h-172l-409 1434h153l342 -1278z" />
    <glyph glyph-name="wacute" unicode="&#x1e83;" horiz-adv-x="1478" 
d="M799 1151h-97l140 283h147zM172 1014l246 -854l260 854h127l262 -854l250 854h131l-313 -1014h-138l-258 842l-256 -842h-139l-311 1014h139z" />
    <glyph glyph-name="Wdieresis" unicode="&#x1e84;" horiz-adv-x="1918" 
d="M795 1835v-197h-138v197h138zM1147 1835v-197h-137v197h137zM885 1434h155l351 -1278l344 1278h149l-411 -1434h-173l-339 1237l-343 -1237h-172l-409 1434h153l342 -1278z" />
    <glyph glyph-name="wdieresis" unicode="&#x1e85;" horiz-adv-x="1478" 
d="M633 1434v-197h-137v197h137zM985 1434v-197h-137v197h137zM172 1014l246 -854l260 854h127l262 -854l250 854h131l-313 -1014h-138l-258 842l-256 -842h-139l-311 1014h139z" />
    <glyph glyph-name="Ygrave" unicode="&#x1ef2;" horiz-adv-x="1222" 
d="M549 1571l-189 282h146l141 -282h-98zM1174 1434l-490 -779v-655h-143v655l-496 779h168l408 -637l391 637h162z" />
    <glyph glyph-name="ygrave" unicode="&#x1ef3;" horiz-adv-x="894" 
d="M385 1151l-188 283h145l141 -283h-98zM172 1014l285 -813l274 813h135l-415 -1168q-73 -211 -273 -211q-58 0 -109 21t-83 55l59 88q59 -59 131 -59q58 0 95 33t63 102l57 160l-360 979h141z" />
    <glyph glyph-name="endash" unicode="&#x2013;" horiz-adv-x="1306" 
d="M98 578v98h1110v-98h-1110z" />
    <glyph glyph-name="emdash" unicode="&#x2014;" horiz-adv-x="1957" 
d="M98 578v98h1762v-98h-1762z" />
    <glyph glyph-name="quoteleft" unicode="&#x2018;" horiz-adv-x="370" 
d="M215 1434h80l-123 -267h88v-211h-168v211z" />
    <glyph glyph-name="quoteright" unicode="&#x2019;" horiz-adv-x="360" 
d="M166 956h-80l123 267h-88v211h168v-211z" />
    <glyph glyph-name="quotesinglbase" unicode="&#x201a;" horiz-adv-x="387" 
d="M156 -266h-80l123 266h-88v211h168v-211z" />
    <glyph glyph-name="quotedblleft" unicode="&#x201c;" horiz-adv-x="677" 
d="M522 1434h80l-123 -267h88v-211h-168v211zM215 1434h80l-123 -267h88v-211h-168v211z" />
    <glyph glyph-name="quotedblright" unicode="&#x201d;" horiz-adv-x="665" 
d="M166 956h-80l123 267h-88v211h168v-211zM471 956h-80l123 267h-88v211h168v-211z" />
    <glyph glyph-name="quotedblbase" unicode="&#x201e;" horiz-adv-x="700" 
d="M156 -266h-80l123 266h-88v211h168v-211zM469 -266h-80l123 266h-88v211h168v-211z" />
    <glyph glyph-name="dagger" unicode="&#x2020;" horiz-adv-x="696" 
d="M295 420v571h-225v84h225v359h104v-359h228v-84h-228v-571h-104z" />
    <glyph glyph-name="daggerdbl" unicode="&#x2021;" horiz-adv-x="702" 
d="M401 692v-348h-102v348h-225v84h225v225h-225v86h225v347h102v-347h228v-86h-228v-225h228v-84h-228z" />
    <glyph glyph-name="bullet" unicode="&#x2022;" horiz-adv-x="567" 
d="M281 590q-51 0 -87 36t-36 89q0 54 36 90.5t87 36.5q54 0 91.5 -36.5t37.5 -90.5t-37.5 -89.5t-91.5 -35.5z" />
    <glyph glyph-name="ellipsis" unicode="&#x2026;" horiz-adv-x="1458" 
d="M276 0h-167v211h167v-211zM813 0h-168v211h168v-211zM1350 0h-168v211h168v-211z" />
    <glyph glyph-name="perthousand" unicode="&#x2030;" horiz-adv-x="2162" 
d="M657 1092q0 -162 -80 -264.5t-215 -102.5t-214.5 102.5t-79.5 264.5t79.5 264t214.5 102q136 0 215.5 -102.5t79.5 -263.5zM199 0h-123l1204 1434h125zM543 1092q0 120 -48 191t-133 71t-131.5 -70.5t-46.5 -191.5t46.5 -192t131.5 -71t133 71.5t48 191.5zM831 344
q0 162 80 264.5t215 102.5t215 -102.5t80 -264.5t-80 -264.5t-215 -102.5t-215 102.5t-80 264.5zM1518 344q0 162 79.5 264.5t214.5 102.5t215 -102.5t80 -264.5t-80 -264.5t-215 -102.5t-214.5 102.5t-79.5 264.5zM946 344q0 -120 47.5 -191t132.5 -71t132 71t47 191
t-47 191t-132 71t-132.5 -71t-47.5 -191zM1632 344q0 -120 47.5 -191t132.5 -71t132 71t47 191t-47 191t-132 71t-132.5 -71t-47.5 -191z" />
    <glyph glyph-name="guilsinglleft" unicode="&#x2039;" horiz-adv-x="595" 
d="M236 508l294 -508h-124l-336 508l336 506h124z" />
    <glyph glyph-name="guilsinglright" unicode="&#x203a;" horiz-adv-x="595" 
d="M360 508l-294 506h124l336 -506l-336 -508h-124z" />
    <glyph glyph-name="fraction" unicode="&#x2044;" horiz-adv-x="327" 
d="M762 1556l-1086 -1679h-106l1085 1679h107z" />
    <glyph glyph-name="zerosuperior" unicode="&#x2070;" horiz-adv-x="700" 
d="M350 823q-144 0 -213 115.5t-69 329.5q0 444 282 444q140 0 211.5 -116.5t71.5 -327.5t-71.5 -328t-211.5 -117zM350 920q168 0 168 348t-168 348q-170 0 -170 -348t170 -348z" />
    <glyph glyph-name="foursuperior" unicode="&#x2074;" horiz-adv-x="673" 
d="M33 1153l352 547h139v-553h111v-86h-111v-221h-108v221h-383v92zM127 1147h289v450z" />
    <glyph glyph-name="fivesuperior" unicode="&#x2075;" horiz-adv-x="675" 
d="M182 1221l-96 2l14 477h473v-98h-376l-11 -285q71 78 183 78q116 0 185 -77t69 -202q0 -131 -79 -211t-212 -80q-128 0 -200.5 65.5t-72.5 176.5h111q5 -68 48 -108.5t116 -40.5q76 0 124 52.5t48 141.5q0 88 -45.5 140.5t-126.5 52.5q-99 0 -152 -84z" />
    <glyph glyph-name="sixsuperior" unicode="&#x2076;" horiz-adv-x="706" 
d="M647 1114q0 -133 -77.5 -212t-202.5 -79q-138 0 -218.5 100.5t-80.5 284.5v37q0 244 79 355.5t232 111.5q111 0 179.5 -60.5t72.5 -168.5h-105q-7 68 -49.5 103.5t-101.5 35.5q-197 0 -197 -342v-43q23 67 82 105t135 38q111 0 181.5 -72.5t70.5 -193.5zM535 1106
q0 89 -48 139.5t-120 50.5q-77 0 -124.5 -50t-47.5 -144q0 -81 47 -135t123 -54q74 0 122 51.5t48 141.5z" />
    <glyph glyph-name="sevensuperior" unicode="&#x2077;" horiz-adv-x="583" 
d="M29 1602v98h528v-76l-326 -784h-120l325 762h-407z" />
    <glyph glyph-name="eightsuperior" unicode="&#x2078;" horiz-adv-x="696" 
d="M463 1270q78 -20 124 -78t46 -133q0 -104 -77 -170t-206 -66q-133 0 -210 65.5t-77 170.5q0 74 46.5 132.5t123.5 78.5q-74 23 -116.5 79.5t-42.5 129.5q0 101 75 167t201 66q122 0 197.5 -66.5t75.5 -166.5q0 -74 -42.5 -130t-117.5 -79zM350 1622q-76 0 -122 -42.5
t-46 -106.5q0 -67 45.5 -109.5t122.5 -42.5q76 0 120 42t44 110q0 64 -45 106.5t-119 42.5zM350 913q77 0 123.5 44t46.5 114q0 69 -48 112.5t-122 43.5q-75 0 -123.5 -43.5t-48.5 -112.5q0 -70 47 -114t125 -44z" />
    <glyph glyph-name="ninesuperior" unicode="&#x2079;" horiz-adv-x="706" 
d="M59 1421q0 133 79 212t204 79q138 0 217.5 -100.5t79.5 -284.5v-37q0 -244 -78.5 -355.5t-230.5 -111.5q-111 0 -180.5 61t-73.5 169h106q7 -70 49.5 -105t102.5 -35q194 0 194 342v43q-23 -67 -81 -105t-134 -38q-111 0 -182.5 72.5t-71.5 193.5zM174 1430
q0 -90 47 -140.5t121 -50.5q75 0 122.5 51t47.5 144q0 80 -46 133t-122 53q-75 0 -122.5 -50t-47.5 -140z" />
    <glyph glyph-name="zeroinferior" unicode="&#x2080;" horiz-adv-x="700" 
d="M350 -281q-144 0 -213 115.5t-69 329.5q0 444 282 444q140 0 211.5 -116.5t71.5 -327.5t-71.5 -328t-211.5 -117zM350 -184q168 0 168 348t-168 348q-170 0 -170 -348t170 -348z" />
    <glyph glyph-name="oneinferior" unicode="&#x2081;" horiz-adv-x="389" 
d="M291 -266h-109v717q-39 -31 -151 -45v88q128 7 190 102h70v-862z" />
    <glyph glyph-name="twoinferior" unicode="&#x2082;" horiz-adv-x="671" 
d="M612 -168v-98h-542v90q415 313 415 528q0 70 -40 115t-115 45q-74 0 -116 -45.5t-42 -124.5q0 -43 12 -80h-110q-11 57 -11 88q0 118 74 188t201 70q119 0 190.5 -67t71.5 -183q0 -117 -91.5 -244t-289.5 -282h393z" />
    <glyph glyph-name="threeinferior" unicode="&#x2083;" horiz-adv-x="690" 
d="M178 356h-108q0 105 75.5 178.5t202.5 73.5q121 0 193.5 -63t72.5 -166q0 -75 -42 -130t-119 -75q81 -17 126.5 -73.5t45.5 -135.5q0 -107 -78 -176.5t-207 -69.5q-132 0 -206.5 64t-74.5 180h111q1 -71 48 -111t122 -40q77 0 124.5 44.5t47.5 112.5q0 72 -50 116
t-134 44h-45v82h45q84 0 131 44t47 114q0 66 -44.5 106.5t-117.5 40.5q-81 0 -124.5 -47.5t-41.5 -112.5z" />
    <glyph glyph-name="fourinferior" unicode="&#x2084;" horiz-adv-x="673" 
d="M33 49l352 547h139v-553h111v-86h-111v-221h-108v221h-383v92zM127 43h289v451z" />
    <glyph glyph-name="fiveinferior" unicode="&#x2085;" horiz-adv-x="675" 
d="M182 117l-96 2l14 477h473v-98h-376l-11 -285q71 78 183 78q116 0 185 -77t69 -202q0 -131 -79 -211t-212 -80q-128 0 -200.5 65.5t-72.5 176.5h111q5 -68 48 -108.5t116 -40.5q76 0 124 52.5t48 141.5q0 88 -45.5 140.5t-126.5 52.5q-99 0 -152 -84z" />
    <glyph glyph-name="sixinferior" unicode="&#x2086;" horiz-adv-x="706" 
d="M647 10q0 -133 -77.5 -212t-202.5 -79q-138 0 -218.5 100.5t-80.5 284.5v37q0 244 79 355.5t232 111.5q111 0 179.5 -60.5t72.5 -168.5h-105q-7 68 -49.5 103.5t-101.5 35.5q-197 0 -197 -342v-43q23 67 82 105t135 38q111 0 181.5 -72.5t70.5 -193.5zM535 2
q0 89 -48 140t-120 51q-76 0 -124 -50.5t-48 -144.5q0 -81 46.5 -134.5t123.5 -53.5q74 0 122 51t48 141z" />
    <glyph glyph-name="seveninferior" unicode="&#x2087;" horiz-adv-x="583" 
d="M29 498v98h528v-76l-326 -784h-120l325 762h-407z" />
    <glyph glyph-name="eightinferior" unicode="&#x2088;" horiz-adv-x="696" 
d="M463 166q78 -20 124 -78t46 -133q0 -104 -77 -170t-206 -66q-133 0 -210 65.5t-77 170.5q0 74 46.5 132.5t123.5 78.5q-74 23 -116.5 79.5t-42.5 129.5q0 101 75 167t201 66q122 0 197.5 -66.5t75.5 -166.5q0 -74 -42.5 -130t-117.5 -79zM350 518q-76 0 -122 -42.5
t-46 -106.5q0 -67 45.5 -109.5t122.5 -42.5q76 0 120 42t44 110q0 64 -45 106.5t-119 42.5zM350 -190q77 0 123.5 43.5t46.5 113.5q0 69 -48 112.5t-122 43.5q-75 0 -123.5 -43.5t-48.5 -112.5q0 -70 46.5 -113.5t125.5 -43.5z" />
    <glyph glyph-name="nineinferior" unicode="&#x2089;" horiz-adv-x="706" 
d="M59 317q0 133 79 212t204 79q138 0 217.5 -100.5t79.5 -284.5v-37q0 -244 -78.5 -355.5t-230.5 -111.5q-111 0 -180.5 61t-73.5 169h106q7 -70 49.5 -104.5t102.5 -34.5q194 0 194 342v43q-23 -67 -81 -105.5t-134 -38.5q-111 0 -182.5 72.5t-71.5 193.5zM174 326
q0 -90 47 -140.5t121 -50.5q75 0 122.5 51t47.5 144q0 80 -46 133t-122 53q-75 0 -122.5 -50t-47.5 -140z" />
    <glyph glyph-name="Euro" unicode="&#x20ac;" horiz-adv-x="1566" 
d="M61 606h170q-4 70 -4 109q0 63 6 121h-172v100h189q53 245 219 383q165 139 408 139q262 0 423 -143t193 -412h-135q-29 212 -153.5 323t-327.5 111q-182 0 -306 -106t-172 -295h549v-100h-567q-8 -52 -8 -121q0 -57 6 -109h569v-98h-553q45 -193 170 -302.5t309 -109.5
q200 0 327.5 114.5t156.5 319.5h135q-32 -264 -195 -409.5t-424 -145.5q-250 0 -414 140.5t-214 392.5h-185v98z" />
    <glyph glyph-name="uni20BD" unicode="&#x20bd;" horiz-adv-x="1189" 
d="M764 356v-104h-389v-252h-144v252h-141v104h141v234h-141v104h141v740h426q214 0 345 -109.5t131 -312.5t-131 -312.5t-345 -109.5h-282v-234h389zM375 709h276q149 0 242.5 78.5t93.5 224.5t-93.5 224.5t-242.5 78.5h-276v-606z" />
    <glyph glyph-name="uni20BF" unicode="&#x20bf;" horiz-adv-x="1181" 
d="M653 -236h-110v236h-379v1434h379v188h110v-188q190 -8 301 -101t111 -262q0 -124 -75.5 -212.5t-205.5 -117.5q157 -26 243.5 -120t86.5 -234q0 -181 -125.5 -281.5t-335.5 -105.5v-236zM307 788h236v529h-236v-529zM922 1059q0 115 -72 180t-197 76v-524q119 11 194 80
t75 188zM307 672v-555h236v555h-236zM971 393q0 127 -84 198t-234 79v-553q147 5 232.5 75t85.5 201z" />
    <glyph glyph-name="uni2113" unicode="&#x2113;" horiz-adv-x="733" 
d="M444 -23q-117 0 -183 63t-66 175v238q-6 -5 -18.5 -14.5t-18.5 -14.5q-8 -6 -31.5 -23.5t-32.5 -25.5l-45 76q120 93 146 110v610q0 134 62 207.5t173 73.5q99 0 158 -69.5t59 -192.5q0 -188 -86 -353.5t-219 -289.5v-326q0 -62 32.5 -93.5t80.5 -31.5q50 0 82 30.5
t38 94.5l109 -37q-7 -49 -26 -86.5t-43.5 -60t-55.5 -36.5t-59 -19t-56 -5zM342 1169v-497q207 228 207 506q0 81 -27.5 124.5t-77.5 43.5q-102 0 -102 -177z" />
    <glyph glyph-name="trademark" unicode="&#x2122;" horiz-adv-x="1763" 
d="M920 1319v-709h-111v824h184l219 -637l220 637h182v-824h-117v709l-244 -709h-88zM684 1329h-256v-719h-115v719h-258v105h629v-105z" />
    <glyph glyph-name="Omega" unicode="&#x2126;" horiz-adv-x="1415" 
d="M709 1333q-101 0 -185 -29.5t-139 -77t-93 -109.5t-54.5 -125t-16.5 -126q0 -173 101.5 -311.5t279.5 -200.5v-354h-428v127h289v178q-183 73 -285 217.5t-102 345.5q0 88 24.5 172.5t76 160t125 133t178.5 91t229 33.5q123 0 227.5 -33.5t177.5 -91t124.5 -133t76 -160
t24.5 -172.5q0 -201 -102 -345.5t-285 -217.5v-178h291v-127h-428v354q178 62 279.5 200.5t101.5 311.5q0 63 -16.5 126t-54 125t-92.5 109.5t-139 77t-185 29.5z" />
    <glyph glyph-name="estimated" unicode="&#x212e;" horiz-adv-x="1726" 
d="M1386 246h97q-112 -129 -266 -199t-338 -70q-167 0 -314.5 58.5t-252.5 158.5t-165.5 238t-60.5 291q0 151 59 286t162.5 234t252 157t319.5 58q181 0 329.5 -56t246.5 -154.5t153 -229.5t61 -283v-30h-1286v-377q0 -82 82.5 -150t195 -102.5t218.5 -34.5q311 0 507 205z
M383 1069v-301h991v301q0 86 -42 151.5t-114 103t-157 55.5t-182 18q-74 0 -143 -11t-134 -36t-113 -62t-77 -93t-29 -126z" />
    <glyph glyph-name="oneseventh" unicode="&#x2150;" horiz-adv-x="1673" 
d="M1348 1556l-1086 -1679h-106l1085 1679h107zM1092 764v98h528v-76l-326 -784h-120l325 762h-407zM319 571h-108v717q-42 -31 -152 -45v88q130 7 191 103h69v-863z" />
    <glyph glyph-name="oneninth" unicode="&#x2151;" horiz-adv-x="1687" 
d="M1343 1556l-1085 -1679h-106l1085 1679h106zM315 571h-108v717q-39 -31 -152 -45v88q128 7 191 103h69v-863zM1038 584q0 133 79 211.5t204 78.5q138 0 217.5 -100.5t79.5 -284.5v-36q0 -244 -78.5 -355.5t-230.5 -111.5q-111 0 -180.5 60.5t-73.5 168.5h106
q7 -70 49.5 -104.5t102.5 -34.5q194 0 194 342v43q-23 -67 -81 -105.5t-134 -38.5q-111 0 -182.5 73t-71.5 194zM1153 592q0 -90 47 -140.5t121 -50.5q75 0 122.5 51t47.5 144q0 80 -46 133t-122 53q-75 0 -122.5 -50t-47.5 -140z" />
    <glyph glyph-name="onethird" unicode="&#x2153;" horiz-adv-x="1679" 
d="M1343 1556l-1085 -1679h-106l1085 1679h106zM1161 623h-108q0 115 81 183t197 68q113 0 189.5 -59.5t76.5 -169.5q0 -77 -43 -130.5t-118 -74.5q80 -15 126 -71t46 -138q0 -117 -82 -181t-203 -64q-126 0 -203.5 60.5t-77.5 182.5h111q1 -71 49 -111t121 -40t122.5 43.5
t49.5 114.5q0 76 -53 117.5t-131 41.5h-45v82h45q77 0 127.5 41.5t50.5 116.5q0 68 -46 107.5t-116 39.5q-87 0 -127 -49q-42 -54 -39 -110zM315 571h-108v717q-42 -31 -152 -45v88q130 7 191 103h69v-863z" />
    <glyph glyph-name="twothirds" unicode="&#x2154;" horiz-adv-x="1830" 
d="M1505 1556l-1085 -1679h-107l1086 1679h106zM1323 623h-109q0 115 81.5 183t197.5 68q113 0 189.5 -59.5t76.5 -169.5q0 -77 -43.5 -130.5t-118.5 -74.5q80 -15 126 -71t46 -138q0 -117 -81.5 -181t-202.5 -64q-126 0 -203.5 60.5t-77.5 182.5h111q1 -71 49 -111t121 -40
t122.5 43.5t49.5 114.5q0 76 -53 117.5t-131 41.5h-46v82h46q77 0 127.5 41.5t50.5 116.5q0 68 -46 107.5t-116 39.5q-87 0 -127 -49q-42 -54 -39 -110zM616 670v-99h-542v91q415 312 415 528q0 73 -42 116.5t-113 43.5q-76 0 -117 -46.5t-41 -123.5q0 -48 12 -80h-110
q-10 48 -10 88q0 122 75.5 190t198.5 68q119 0 190.5 -66t71.5 -184q0 -60 -26 -124.5t-63 -117t-93 -109.5t-99.5 -94t-99.5 -81h393z" />
    <glyph glyph-name="onefifth" unicode="&#x2155;" horiz-adv-x="1677" 
d="M1343 1556l-1085 -1679h-106l1085 1679h106zM1167 383l-96 2l14 477h474v-98h-377l-11 -285q69 78 183 78q121 0 187.5 -77.5t66.5 -200.5q0 -132 -79.5 -211.5t-211.5 -79.5q-122 0 -197.5 61.5t-75.5 179.5h111q4 -70 48.5 -109.5t115.5 -39.5q81 0 126.5 55.5
t45.5 138.5q0 86 -44.5 139.5t-127.5 53.5q-47 0 -87 -22t-65 -62zM315 571h-108v717q-42 -31 -152 -45v88q130 7 191 103h69v-863z" />
    <glyph glyph-name="twofifths" unicode="&#x2156;" horiz-adv-x="1830" 
d="M1507 1556l-1085 -1679h-107l1086 1679h106zM1331 383l-96 2l14 477h473v-98h-376l-11 -285q69 78 183 78q121 0 187.5 -77.5t66.5 -200.5q0 -132 -79.5 -211.5t-211.5 -79.5q-122 0 -197.5 61.5t-75.5 179.5h111q4 -70 48.5 -109.5t115.5 -39.5q81 0 126.5 55.5
t45.5 138.5q0 86 -44.5 139.5t-127.5 53.5q-47 0 -87 -22t-65 -62zM618 670v-99h-542v91q416 313 416 528q0 72 -42 116t-114 44q-76 0 -117 -46.5t-41 -123.5q0 -48 12 -80h-110q-10 48 -10 88q0 122 75.5 190t198.5 68q119 0 190.5 -66t71.5 -184q0 -60 -26 -124.5
t-63 -117t-93 -109.5t-99.5 -94t-99.5 -81h393z" />
    <glyph glyph-name="threefifths" unicode="&#x2157;" horiz-adv-x="1841" 
d="M1516 1556l-1086 -1679h-106l1085 1679h107zM1339 383l-96 2l14 477h474v-98h-377l-11 -285q69 78 183 78q121 0 187.5 -77.5t66.5 -200.5q0 -132 -79.5 -211.5t-211.5 -79.5q-121 0 -196.5 61.5t-75.5 179.5h110q4 -70 48.5 -109.5t115.5 -39.5q81 0 126.5 55.5
t45.5 138.5q0 86 -44.5 139.5t-127.5 53.5q-47 0 -87 -22t-65 -62zM180 1194h-108q0 115 81 183.5t197 68.5q113 0 189.5 -59.5t76.5 -169.5q0 -77 -43 -130.5t-118 -74.5q80 -15 126 -71t46 -138q0 -117 -82 -181.5t-203 -64.5q-126 0 -203.5 61t-77.5 183h111
q1 -71 49 -111.5t121 -40.5t122.5 43.5t49.5 114.5q0 76 -53 118t-131 42h-45v82h45q77 0 127.5 41t50.5 116q0 68 -46 108t-116 40q-87 0 -127 -49q-42 -54 -39 -111z" />
    <glyph glyph-name="fourfifths" unicode="&#x2158;" horiz-adv-x="1820" 
d="M1483 1556l-1086 -1679h-106l1085 1679h107zM49 887l352 547h140v-553h110v-86h-110v-222h-109v222h-383v92zM143 881h289v450zM1305 383l-97 2l15 477h473v-98h-377l-10 -285q71 78 182 78q116 0 185 -76.5t69 -201.5q0 -131 -79 -211t-212 -80q-128 0 -200 65t-72 176
h110q5 -68 48 -108.5t116 -40.5q76 0 124 52.5t48 141.5q0 88 -45.5 140.5t-126.5 52.5q-98 0 -151 -84z" />
    <glyph glyph-name="onesixth" unicode="&#x2159;" horiz-adv-x="1658" 
d="M1343 1556l-1085 -1679h-106l1085 1679h106zM315 571h-108v717q-39 -31 -152 -45v88q128 7 191 103h69v-863zM1589 276q0 -133 -77.5 -211.5t-202.5 -78.5q-138 0 -218.5 100.5t-80.5 284.5v37q0 243 79 354.5t232 111.5q111 0 179.5 -60.5t72.5 -168.5h-105
q-7 68 -49.5 103.5t-101.5 35.5q-197 0 -197 -342v-43q23 67 82 105.5t135 38.5q111 0 181.5 -73t70.5 -194zM1477 268q0 89 -48 140t-120 51q-76 0 -124 -50.5t-48 -144.5q0 -81 46.5 -134.5t123.5 -53.5q74 0 122 51t48 141z" />
    <glyph glyph-name="fivesixths" unicode="&#x215a;" horiz-adv-x="1820" 
d="M1516 1556l-1086 -1679h-106l1085 1679h107zM184 954l-96 2l14 478h473v-99h-376l-11 -284q70 77 183 77q116 0 185 -76.5t69 -201.5q0 -131 -79 -211t-212 -80q-128 0 -200.5 65.5t-72.5 176.5h111q5 -68 48 -109t116 -41q76 0 124 53t48 142q0 87 -45.5 139.5
t-126.5 52.5q-99 0 -152 -84zM1759 276q0 -133 -77.5 -211.5t-202.5 -78.5q-138 0 -218.5 100.5t-80.5 284.5v37q0 243 79 354.5t232 111.5q111 0 179.5 -60.5t72.5 -168.5h-105q-7 68 -49.5 103.5t-101.5 35.5q-197 0 -197 -342v-43q23 67 82 105.5t135 38.5
q111 0 181.5 -73t70.5 -194zM1647 268q0 89 -48 140t-120 51q-76 0 -124 -50.5t-48 -144.5q0 -81 46.5 -134.5t123.5 -53.5q74 0 122 51t48 141z" />
    <glyph glyph-name="oneeighth" unicode="&#x215b;" horiz-adv-x="1681" 
d="M1343 1556l-1085 -1679h-106l1085 1679h106zM315 571h-108v717q-39 -31 -152 -45v88q128 7 191 103h69v-863zM1440 432q78 -20 124 -78t46 -133q0 -104 -77 -169.5t-206 -65.5q-133 0 -210 65t-77 170q0 74 46.5 132.5t123.5 78.5q-74 23 -116.5 79.5t-42.5 129.5
q0 101 75 167t201 66q122 0 197 -66.5t75 -166.5q0 -74 -42 -130t-117 -79zM1327 784q-76 0 -122 -42.5t-46 -106.5q0 -67 45.5 -109.5t122.5 -42.5q76 0 120 42t44 110q0 64 -45 106.5t-119 42.5zM1327 76q77 0 123.5 43.5t46.5 113.5q0 69 -48 112.5t-122 43.5
q-75 0 -123.5 -43.5t-48.5 -112.5q0 -70 46.5 -113.5t125.5 -43.5z" />
    <glyph glyph-name="threeeighths" unicode="&#x215c;" horiz-adv-x="1845" 
d="M1516 1556l-1086 -1679h-106l1085 1679h107zM180 1194h-108q0 105 75.5 178.5t202.5 73.5q121 0 193.5 -63t72.5 -166q0 -75 -42 -130t-119 -75q81 -17 126.5 -73.5t45.5 -135.5q0 -107 -78 -176.5t-207 -69.5q-132 0 -206.5 64t-74.5 180h111q1 -71 48 -111.5t122 -40.5
q77 0 124.5 45t47.5 113q0 72 -50 116t-134 44h-45v82h45q84 0 131 43.5t47 113.5q0 66 -44.5 107t-117.5 41q-81 0 -124.5 -47.5t-41.5 -112.5zM1612 432q78 -20 124 -78t46 -133q0 -104 -77 -169.5t-206 -65.5q-133 0 -210 65t-77 170q0 74 46.5 132.5t123.5 78.5
q-74 23 -116.5 79.5t-42.5 129.5q0 101 75 167t201 66q122 0 197.5 -66.5t75.5 -166.5q0 -74 -42.5 -130t-117.5 -79zM1499 784q-76 0 -122 -42.5t-46 -106.5q0 -67 45.5 -109.5t122.5 -42.5q76 0 120 42t44 110q0 64 -45 106.5t-119 42.5zM1499 76q77 0 123.5 43.5
t46.5 113.5q0 69 -48 112.5t-122 43.5q-75 0 -123.5 -43.5t-48.5 -112.5q0 -70 46.5 -113.5t125.5 -43.5z" />
    <glyph glyph-name="fiveeighths" unicode="&#x215d;" horiz-adv-x="1841" 
d="M1516 1556l-1086 -1679h-106l1085 1679h107zM184 954l-96 2l14 478h473v-99h-376l-11 -284q70 77 183 77q116 0 185 -76.5t69 -201.5q0 -131 -79 -211t-212 -80q-128 0 -200.5 65.5t-72.5 176.5h111q5 -68 48 -109t116 -41q76 0 124 53t48 142q0 87 -45.5 139.5
t-126.5 52.5q-99 0 -152 -84zM1610 432q78 -20 124 -78t46 -133q0 -104 -77 -169.5t-206 -65.5q-133 0 -210 65t-77 170q0 74 46.5 132.5t123.5 78.5q-74 23 -116.5 79.5t-42.5 129.5q0 101 75 167t201 66q122 0 197 -66.5t75 -166.5q0 -74 -42 -130t-117 -79zM1497 784
q-76 0 -122 -42.5t-46 -106.5q0 -67 45.5 -109.5t122.5 -42.5q76 0 120 42t44 110q0 64 -45 106.5t-119 42.5zM1497 76q77 0 123.5 43.5t46.5 113.5q0 69 -48 112.5t-122 43.5q-75 0 -123.5 -43.5t-48.5 -112.5q0 -70 46.5 -113.5t125.5 -43.5z" />
    <glyph glyph-name="seveneighths" unicode="&#x215e;" horiz-adv-x="1671" 
d="M1335 1556l-1085 -1679h-107l1086 1679h106zM55 1335v99h529v-76l-326 -785h-121l326 762h-408zM1432 432q78 -20 124 -78t46 -133q0 -104 -77 -169.5t-206 -65.5q-133 0 -210 65t-77 170q0 74 46.5 132.5t123.5 78.5q-74 23 -117 79.5t-43 129.5q0 101 75.5 167
t201.5 66q122 0 197 -66.5t75 -166.5q0 -74 -42 -130t-117 -79zM1319 784q-76 0 -122 -42.5t-46 -106.5q0 -67 45.5 -109.5t122.5 -42.5q76 0 120 42t44 110q0 64 -45 106.5t-119 42.5zM1319 76q77 0 123.5 43.5t46.5 113.5q0 69 -48 112.5t-122 43.5q-75 0 -123.5 -43.5
t-48.5 -112.5q0 -70 46.5 -113.5t125.5 -43.5z" />
    <glyph glyph-name="arrowleft" unicode="&#x2190;" horiz-adv-x="1746" 
d="M307 647l443 -444h-185l-510 510v8l510 510h185l-443 -443h1370v-141h-1370z" />
    <glyph glyph-name="arrowup" unicode="&#x2191;" horiz-adv-x="1130" 
d="M637 1370v-1370h-141v1370l-445 -436v186l512 502h6l510 -502v-186z" />
    <glyph glyph-name="arrowright" unicode="&#x2192;" horiz-adv-x="1751" 
d="M1442 647h-1370v141h1370l-443 443h185l512 -510v-8l-512 -510h-185z" />
    <glyph glyph-name="arrowdown" unicode="&#x2193;" horiz-adv-x="1130" 
d="M637 63l442 437v-187l-510 -501h-6l-512 501v187l445 -437v1371h141v-1371z" />
    <glyph glyph-name="arrowupleft" unicode="&#x2196;" horiz-adv-x="1361" 
d="M254 1114v-627l-131 131v723l6 5h723l131 -132h-629l961 -960l-101 -98z" />
    <glyph glyph-name="arrowupright" unicode="&#x2197;" horiz-adv-x="1361" 
d="M1108 1114l-961 -958l-100 98l961 960h-629l133 132h721l6 -5v-723l-131 -131v627z" />
    <glyph glyph-name="arrowdownright" unicode="&#x2198;" horiz-adv-x="1359" 
d="M1106 315v627l131 -131v-723l-6 -6h-721l-133 131h629l-961 961l100 100z" />
    <glyph glyph-name="arrowdownleft" unicode="&#x2199;" horiz-adv-x="1357" 
d="M254 315l960 959l99 -100l-961 -961h631l-133 -131h-723l-4 6v723l131 131v-627z" />
    <glyph glyph-name="partialdiff" unicode="&#x2202;" horiz-adv-x="993" 
d="M918 487q0 -235 -116 -373.5t-317 -138.5q-203 0 -318.5 134.5t-115.5 373.5q0 120 33 215.5t90.5 155.5t131 91.5t157.5 31.5q167 0 262 -113q-33 71 -210.5 292.5t-231.5 268.5h151q52 -52 102 -108t124 -157t127.5 -199t92.5 -226t38 -248zM784 479q0 192 -78.5 290.5
t-220.5 98.5q-141 0 -220 -100.5t-79 -288.5q0 -184 80.5 -287.5t218.5 -103.5t218.5 103.5t80.5 287.5z" />
    <glyph glyph-name="Delta" unicode="&#x2206;" horiz-adv-x="1359" 
d="M616 1434h132l563 -1309v-125h-1262v125zM1153 127l-473 1133l-481 -1133h954z" />
    <glyph glyph-name="product" unicode="&#x220f;" horiz-adv-x="1617" 
d="M809 1473q116 0 223 -31t199.5 -94.5t161.5 -152.5t108 -212.5t39 -267.5t-39 -267.5t-108 -212.5t-161.5 -152.5t-199.5 -94.5t-223 -31t-223 31t-199.5 94.5t-161.5 152.5t-108 212.5t-39 267.5t39 267.5t108 212.5t161.5 152.5t199.5 94.5t223 31zM809 1386
q-127 0 -241.5 -45t-203 -128t-140.5 -212t-52 -286q0 -126 34 -235t93.5 -188.5t140 -136t174.5 -84.5t195 -28t195 28t174.5 84.5t140 136t93.5 188.5t34 235q0 157 -52 286t-140.5 212t-203 128t-241.5 45zM840 604h-170v-342h-115v909h285q149 0 235 -75.5t86 -204.5
q0 -132 -86.5 -210t-234.5 -77zM1047 885q0 89 -55 139.5t-156 50.5h-166v-373h166q102 -1 156.5 47.5t54.5 135.5z" />
    <glyph glyph-name="summation" unicode="&#x2211;" horiz-adv-x="1054" 
d="M989 -78v-127h-930v115l576 698l-576 711v115h930v-127h-758l553 -672v-43l-557 -670h762z" />
    <glyph glyph-name="minus" unicode="&#x2212;" horiz-adv-x="958" 
d="M119 655v113h721v-113h-721z" />
    <glyph glyph-name="radical" unicode="&#x221a;" horiz-adv-x="1296" 
d="M1343 1575l-696 -2093h-119l-362 880l-189 -92l-30 72l325 162l334 -846l635 1917h102z" />
    <glyph glyph-name="infinity" unicode="&#x221e;" horiz-adv-x="1638" 
d="M1548 723q0 -186 -99 -295t-257 -109q-212 0 -373 273q-159 -273 -373 -273q-156 0 -256 109.5t-100 294.5t100 294t256 109q212 0 375 -272q158 272 371 272q158 0 257 -108.5t99 -294.5zM1188 995q-153 0 -305 -272q63 -122 142.5 -198t162.5 -76q91 0 155 70.5
t64 203.5t-64 202.5t-155 69.5zM231 725q0 -132 66 -204t154 -72q82 0 162 77.5t143 196.5q-63 121 -142.5 196.5t-162.5 75.5q-89 0 -154.5 -69.5t-65.5 -200.5z" />
    <glyph glyph-name="integral" unicode="&#x222b;" horiz-adv-x="585" 
d="M573 1331h-112q-49 0 -76 -19.5t-27 -72.5v-1425q0 -193 -196 -193h-152v103h113q49 0 75.5 19.5t26.5 72.5v1425q0 193 197 193h151v-103z" />
    <glyph glyph-name="approxequal" unicode="&#x2248;" horiz-adv-x="958" 
d="M676 768q-59 0 -203.5 48t-175.5 48q-38 0 -57.5 -23t-20.5 -75h-96q0 102 42.5 159.5t127.5 57.5q46 0 192.5 -49t186.5 -49q39 0 58 23.5t20 76.5h96q0 -103 -42.5 -160t-127.5 -57zM676 440q-59 0 -203.5 48.5t-175.5 48.5q-38 0 -57.5 -23t-20.5 -76h-96
q0 102 42.5 159.5t127.5 57.5q46 0 192.5 -49t186.5 -49q39 0 58 23.5t20 76.5h96q0 -103 -42.5 -160t-127.5 -57z" />
    <glyph glyph-name="notequal" unicode="&#x2260;" horiz-adv-x="958" 
d="M119 492v112h303v215h-303v113h303v160h117v-160h301v-113h-301v-215h301v-112h-301v-158h-117v158h-303z" />
    <glyph glyph-name="lessequal" unicode="&#x2264;" horiz-adv-x="942" 
d="M819 457v-133l-721 309v117l721 307v-133l-577 -234zM827 0h-721v113h721v-113z" />
    <glyph glyph-name="greaterequal" unicode="&#x2265;" horiz-adv-x="942" 
d="M123 457l575 233l-575 234v133l721 -307v-117l-721 -309v133zM115 0v113h721v-113h-721z" />
    <glyph glyph-name="filledbox" unicode="&#x25a0;" horiz-adv-x="1619" 
d="M102 0v1434h1416v-1434h-1416z" />
    <glyph glyph-name="triagup" unicode="&#x25b2;" horiz-adv-x="1861" 
d="M102 0l830 1434l827 -1434h-1657z" />
    <glyph glyph-name="uni25B6" unicode="&#x25b6;" horiz-adv-x="1619" 
d="M102 1556l1416 -839l-1416 -840v1679z" />
    <glyph glyph-name="triagdn" unicode="&#x25bc;" horiz-adv-x="1861" 
d="M102 1434h1657l-827 -1434z" />
    <glyph glyph-name="uni25C0" unicode="&#x25c0;" horiz-adv-x="1619" 
d="M1518 1556v-1679l-1416 840z" />
    <glyph glyph-name="lozenge" unicode="&#x25ca;" horiz-adv-x="1148" 
d="M70 549l454 960h101l454 -960l-454 -985h-101zM575 -231l357 778l-357 760l-358 -760z" />
    <glyph glyph-name="uni2B24" unicode="&#x2b24;" horiz-adv-x="1619" 
d="M811 0q-145 0 -276.5 57t-226 153t-150.5 228.5t-56 278.5t56 278.5t150.5 228.5t226 153t276.5 57q143 0 274 -57t226 -153t151 -229t56 -278t-56 -278t-151 -229t-226 -153t-274 -57z" />
    <glyph glyph-name="commaaccent" unicode="&#xf6c3;" horiz-adv-x="393" 
d="M184 -502h-71l96 201h-82v186h156v-186z" />
    <glyph glyph-name="Q.alt" horiz-adv-x="1456" 
d="M1460 61l-76 -96l-223 180q-176 -170 -434 -170q-192 0 -338.5 91.5t-226.5 259.5t-80 389q0 336 177 539.5t468 203.5q289 0 465 -203.5t176 -539.5q0 -280 -129 -477zM1225 715q0 280 -135.5 451t-362.5 171q-229 0 -364.5 -171t-135.5 -451t135 -449.5t365 -169.5
q199 0 330 131l-414 332l76 94l411 -329q95 160 95 391z" />
    <glyph glyph-name="R.alt" horiz-adv-x="1251" 
d="M307 600v-600h-143v1434h502q215 0 343 -107.5t128 -304.5q0 -156 -98.5 -261t-247.5 -134l454 -627h-168l-434 600h-336zM307 715h334q153 0 249.5 79t96.5 222q0 144 -89 221.5t-236 77.5h-355v-600z" />
    <glyph glyph-name="apostrophemod" horiz-adv-x="405" 
d="M190 995h-77l104 250h-90v189h168v-189z" />
    <glyph glyph-name="bar.case" horiz-adv-x="432" 
d="M166 1706h100v-2009h-100v2009z" />
    <glyph glyph-name="braceleft.case" horiz-adv-x="765" 
d="M-12 676v96h57q74 0 123.5 21.5t74 61t33.5 82t9 99.5v326q0 151 76 215.5t221 64.5h159v-104h-127q-94 0 -139 -41.5t-45 -138.5v-311q0 -130 -53.5 -208.5t-186.5 -113.5q134 -37 187 -114.5t53 -207.5v-311q0 -99 44.5 -139.5t139.5 -40.5h127v-107h-159
q-144 0 -220.5 66t-76.5 217v326q0 45 -5 80t-20.5 70.5t-41.5 59t-69.5 38t-103.5 14.5h-57z" />
    <glyph glyph-name="braceright.case" horiz-adv-x="765" 
d="M778 676h-59q-60 0 -103.5 -14.5t-69 -37.5t-40.5 -59t-20 -71t-5 -80v-326q0 -152 -76 -217.5t-223 -65.5h-157v107h127q94 0 138 40t44 140v311q0 129 54 207t185 115q-131 35 -185 113.5t-54 208.5v311q0 97 -44.5 138.5t-137.5 41.5h-127v104h157q147 0 223 -64
t76 -216v-326q0 -45 5 -80t20 -71t40.5 -59.5t69.5 -38.5t103 -15h59v-96z" />
    <glyph glyph-name="bracketleft.case" horiz-adv-x="643" 
d="M295 1538v-1628h323v-105h-452v1837h452v-104h-323z" />
    <glyph glyph-name="bracketright.case" horiz-adv-x="643" 
d="M346 1538h-321v104h452v-1837h-452v105h321v1628z" />
    <glyph glyph-name="eight.denominator" horiz-adv-x="696" 
d="M463 432q78 -20 124 -78t46 -133q0 -104 -77 -169.5t-206 -65.5q-133 0 -210 65t-77 170q0 74 46.5 132.5t123.5 78.5q-74 23 -116.5 79.5t-42.5 129.5q0 101 75 167t201 66q122 0 197.5 -66.5t75.5 -166.5q0 -74 -42.5 -130t-117.5 -79zM350 784q-76 0 -122 -42.5
t-46 -106.5q0 -67 45.5 -109.5t122.5 -42.5q76 0 120 42t44 110q0 64 -45 106.5t-119 42.5zM350 76q77 0 123.5 43.5t46.5 113.5q0 69 -48 112.5t-122 43.5q-75 0 -123.5 -43.5t-48.5 -112.5q0 -70 46.5 -113.5t125.5 -43.5z" />
    <glyph glyph-name="eight.numerator" horiz-adv-x="696" 
d="M463 1004q78 -20 124 -78t46 -133q0 -104 -77 -170t-206 -66q-133 0 -210 65.5t-77 170.5q0 74 46.5 132.5t123.5 78.5q-74 23 -116.5 79t-42.5 129q0 101 75 167.5t201 66.5q122 0 197.5 -67t75.5 -167q0 -74 -42.5 -129.5t-117.5 -78.5zM350 1356q-76 0 -122 -42.5
t-46 -107.5q0 -67 45.5 -109t122.5 -42t120.5 42t43.5 109q0 64 -45 107t-119 43zM350 647q77 0 123.5 44t46.5 114q0 69 -48 112.5t-122 43.5q-75 0 -123.5 -43.5t-48.5 -112.5q0 -70 47 -114t125 -44z" />
    <glyph glyph-name="eight.posf" horiz-adv-x="1044" 
d="M678 692q128 -29 204 -125t76 -217q0 -162 -120.5 -268.5t-315.5 -106.5t-315.5 106.5t-120.5 268.5q0 121 76.5 217t204.5 125q-123 35 -194 125.5t-71 212.5q0 158 116.5 263.5t303.5 105.5t303.5 -105.5t116.5 -263.5q0 -122 -70 -212.5t-194 -125.5zM522 1282
q-132 0 -209 -74.5t-77 -189.5q0 -110 77.5 -185t208.5 -75t210 75t79 185q0 115 -78.5 189.5t-210.5 74.5zM522 92q133 0 217 78q82 76 82 192q0 121 -84.5 198t-214.5 77t-214.5 -77t-84.5 -198q0 -116 82 -192q84 -78 217 -78z" />
    <glyph glyph-name="eight.tnum" horiz-adv-x="1093" 
d="M709 721q132 -29 212 -128.5t80 -225.5q0 -169 -126 -280.5t-328 -111.5q-206 0 -330.5 111t-124.5 281q0 126 80.5 225.5t212.5 128.5q-128 35 -201 130.5t-73 221.5q0 167 120.5 276t315.5 109q194 0 315 -109.5t121 -275.5q0 -126 -73 -221.5t-201 -130.5zM547 1337
q-136 0 -217.5 -78t-81.5 -196q0 -117 81.5 -194.5t217.5 -77.5t217.5 77.5t81.5 194.5q0 118 -81.5 196t-217.5 78zM547 96q141 0 227 80q84 81 84 203q0 127 -87.5 206t-223.5 79t-223.5 -79t-87.5 -206q0 -123 86 -203t225 -80z" />
    <glyph glyph-name="eightninths" horiz-adv-x="1855" 
d="M1522 1556l-1086 -1679h-106l1085 1679h107zM463 1004q78 -20 124 -78t46 -133q0 -104 -77 -170t-206 -66q-133 0 -210 65.5t-77 170.5q0 74 46.5 132.5t123.5 78.5q-74 23 -116.5 79t-42.5 129q0 101 75 167.5t201 66.5q122 0 197.5 -67t75.5 -167q0 -74 -42.5 -129.5
t-117.5 -78.5zM350 1356q-76 0 -122 -42.5t-46 -107.5q0 -67 45.5 -109t122.5 -42t120.5 42t43.5 109q0 64 -45 107t-119 43zM350 647q77 0 123.5 44t46.5 114q0 69 -48 112.5t-122 43.5q-75 0 -123.5 -43.5t-48.5 -112.5q0 -70 47 -114t125 -44zM1217 584q0 133 78.5 211.5
t203.5 78.5q138 0 217.5 -100.5t79.5 -284.5v-36q0 -244 -78.5 -355.5t-230.5 -111.5q-111 0 -180.5 60.5t-73.5 168.5h106q7 -70 49.5 -104.5t102.5 -34.5q195 0 195 342v43q-23 -67 -81.5 -105.5t-134.5 -38.5q-111 0 -182 73t-71 194zM1331 592q0 -90 47 -140.5
t121 -50.5q75 0 122.5 51t47.5 144q0 80 -46 133t-122 53q-75 0 -122.5 -50t-47.5 -140z" />
    <glyph glyph-name="emdash.case" horiz-adv-x="1966" 
d="M102 709v98h1762v-98h-1762z" />
    <glyph glyph-name="endash.case" horiz-adv-x="1314" 
d="M102 709v98h1110v-98h-1110z" />
    <glyph glyph-name="exclamdown.case" horiz-adv-x="475" 
d="M322 1434v-211h-168v211h168zM166 0v1028h143v-1028h-143z" />
    <glyph glyph-name="five.denominator" horiz-adv-x="675" 
d="M182 383l-96 2l14 477h473v-98h-376l-11 -285q71 78 183 78q116 0 185 -76.5t69 -201.5q0 -131 -79 -211t-212 -80q-128 0 -200.5 65t-72.5 176h111q5 -68 48 -108.5t116 -40.5q76 0 124 52.5t48 141.5q0 88 -45.5 140.5t-126.5 52.5q-99 0 -152 -84z" />
    <glyph glyph-name="five.numerator" horiz-adv-x="675" 
d="M182 954l-96 2l14 478h473v-99h-376l-11 -284q70 77 183 77q116 0 185 -76.5t69 -201.5q0 -131 -79 -211t-212 -80q-128 0 -200.5 65.5t-72.5 176.5h111q5 -68 48 -109t116 -41q76 0 124 53t48 142q0 87 -45.5 139.5t-126.5 52.5q-99 0 -152 -84z" />
    <glyph glyph-name="five.posf" horiz-adv-x="980" 
d="M223 336h-114l24 756h717v-123h-600l-17 -502q115 129 295 129q183 0 291.5 -123t108.5 -321q0 -209 -122 -335t-323 -126q-194 0 -303 99t-114 271h139q5 -113 78.5 -184.5t199.5 -71.5q131 0 216 93t85 247q0 152 -80 245t-219 93q-89 0 -155 -42t-107 -105z" />
    <glyph glyph-name="five.tnum" horiz-adv-x="1093" 
d="M266 649h-119l27 785h748v-127h-625l-18 -521q120 134 307 134q190 0 304 -127.5t114 -335.5q0 -217 -128 -349.5t-337 -132.5q-202 0 -316.5 103.5t-120.5 283.5h146q6 -120 83 -193t208 -73q137 0 225 96.5t88 256.5q0 158 -83 255t-228 97q-92 0 -162.5 -44
t-112.5 -108z" />
    <glyph glyph-name="fiveninths" horiz-adv-x="1851" 
d="M1516 1556l-1086 -1679h-106l1085 1679h107zM184 954l-96 2l14 478h473v-99h-376l-11 -284q70 77 183 77q116 0 185 -76.5t69 -201.5q0 -131 -79 -211t-212 -80q-128 0 -200.5 65.5t-72.5 176.5h111q5 -68 48 -109t116 -41q76 0 124 53t48 142q0 87 -45.5 139.5
t-126.5 52.5q-99 0 -152 -84zM1212 584q0 133 79 211.5t204 78.5q138 0 217.5 -100.5t79.5 -284.5v-36q0 -244 -78.5 -355.5t-230.5 -111.5q-111 0 -180.5 60.5t-73.5 168.5h106q7 -70 49.5 -104.5t102.5 -34.5q194 0 194 342v43q-23 -67 -81 -105.5t-134 -38.5
q-111 0 -182.5 73t-71.5 194zM1327 592q0 -90 47 -140.5t121 -50.5q75 0 122.5 51t47.5 144q0 80 -46 133t-122 53q-75 0 -122.5 -50t-47.5 -140z" />
    <glyph glyph-name="fivesevenths" horiz-adv-x="1857" 
d="M1528 1556l-1086 -1679h-106l1085 1679h107zM1276 764v98h528v-76l-325 -784h-121l325 762h-407zM197 954l-97 2l15 478h473v-99h-377l-10 -284q68 77 182 77q121 0 187.5 -77.5t66.5 -200.5q0 -132 -79.5 -211.5t-211.5 -79.5q-121 0 -196.5 62t-75.5 180h110
q4 -70 48.5 -110t115.5 -40q81 0 126.5 55.5t45.5 139.5q0 85 -44.5 138.5t-127.5 53.5q-99 0 -151 -84z" />
    <glyph glyph-name="four.denominator" horiz-adv-x="673" 
d="M33 315l352 547h139v-553h111v-86h-111v-221h-108v221h-383v92zM127 309h289v451z" />
    <glyph glyph-name="four.numerator" horiz-adv-x="673" 
d="M33 887l352 547h139v-553h111v-86h-111v-222h-108v222h-383v92zM127 881h289v450z" />
    <glyph glyph-name="four.posf" horiz-adv-x="1034" 
d="M55 197l574 895h176v-895h182v-111h-182v-371h-131v371h-619v111zM178 197h496v770z" />
    <glyph glyph-name="four.tnum" horiz-adv-x="1093" 
d="M53 504l598 930h185v-930h188v-117h-188v-387h-138v387h-645v117zM182 504h516v801z" />
    <glyph glyph-name="fourninths" horiz-adv-x="1830" 
d="M1483 1556l-1086 -1679h-106l1085 1679h107zM49 887l352 547h140v-553h110v-86h-110v-222h-109v222h-383v92zM143 881h289v450zM1178 584q0 133 78.5 211.5t203.5 78.5q138 0 217.5 -100.5t79.5 -284.5v-36q0 -244 -78.5 -355.5t-230.5 -111.5q-111 0 -180.5 60.5
t-73.5 168.5h106q7 -70 49.5 -104.5t102.5 -34.5q195 0 195 342v43q-23 -67 -81 -105.5t-134 -38.5q-111 0 -182.5 73t-71.5 194zM1292 592q0 -90 47 -140.5t121 -50.5q75 0 122.5 51t47.5 144q0 80 -46 133t-122 53q-75 0 -122.5 -50t-47.5 -140z" />
    <glyph glyph-name="foursevenths" horiz-adv-x="1810" 
d="M1483 1556l-1086 -1679h-106l1085 1679h107zM49 887l352 547h140v-553h110v-86h-110v-222h-109v222h-383v92zM143 881h289v450zM1227 764v98h528v-76l-325 -784h-121l325 762h-407z" />
    <glyph glyph-name="g.alt" horiz-adv-x="1028" 
d="M883 700q0 -148 -110.5 -244t-283.5 -96q-127 0 -221 52q-32 -40 -32 -93q0 -52 39 -83t116 -35l244 -11q150 -5 239 -65.5t89 -181.5q0 -149 -146 -247.5t-373 -98.5q-199 0 -307 71t-108 195q0 86 69.5 153t182.5 90q-71 19 -114.5 66t-43.5 121q0 47 22.5 90.5
t59.5 73.5q-111 91 -111 243q0 149 109.5 244.5t285.5 95.5q86 0 162 -26h371v-94h-223q84 -87 84 -220zM223 700q0 -105 73 -171t193 -66q121 0 194 66t73 171t-73 170.5t-194 65.5t-193.5 -65.5t-72.5 -170.5zM610 72l-266 8q-90 -24 -144.5 -79.5t-54.5 -117.5
q0 -86 84.5 -136t227.5 -50q164 0 270.5 64.5t106.5 156.5q0 82 -56 115.5t-168 38.5z" />
    <glyph glyph-name="guillemotleft.case" horiz-adv-x="1046" 
d="M246 694l295 -508h-125l-336 508l336 506h125zM649 694l297 -508h-123l-338 508l338 506h123z" />
    <glyph glyph-name="guillemotright.case" horiz-adv-x="1044" 
d="M801 694l-297 506h125l336 -506l-336 -508h-125zM395 694l-295 506h123l338 -506l-338 -508h-123z" />
    <glyph glyph-name="guilsinglleft.case" horiz-adv-x="641" 
d="M246 694l295 -508h-125l-336 508l336 506h125z" />
    <glyph glyph-name="guilsinglright.case" horiz-adv-x="641" 
d="M395 694l-295 506h125l336 -506l-336 -508h-125z" />
    <glyph glyph-name="hyphen.case" horiz-adv-x="647" 
d="M119 639v121h409v-121h-409z" />
    <glyph glyph-name="i.TRK" 
d="M268 1434v-211h-135v211h135zM268 1014v-1014h-135v1014h135z" />
    <glyph glyph-name="logo" horiz-adv-x="2437" 
d="M2130 1503q98 -103 151.5 -242.5t53.5 -291.5q0 -173 -64 -344t-169 -310.5t-244.5 -266t-284.5 -219.5t-295 -161q-37 -17 -63.5 -17t-63.5 17q-155 71 -302 167t-284 223t-239 268t-163 309t-61 338q0 153 53 293t150 243q90 95 213 143t262 48q242 0 447 -176
q187 172 438 172q284 0 465 -193zM2245 971q0 137 -49.5 262t-141.5 217q-162 162 -397 162q-241 0 -438 -178q-205 180 -447 180q-226 0 -391 -160q-92 -92 -142.5 -218t-50.5 -267q0 -279 181 -549q136 -202 346 -369q204 -168 479 -305q21 -9 39 0q1 1 17 8.5t41.5 20.5
t59.5 31.5t77 43.5t88.5 54.5t98.5 67t103 77.5q213 174 342 367q185 277 185 555zM1657 1538q207 0 348 -141q79 -79 121.5 -191.5t42.5 -236.5q0 -258 -168 -512q-121 -179 -330 -348q-134 -109 -269 -190.5t-190 -102.5q-53 21 -185.5 104t-266.5 191q-214 171 -330 352
q-168 252 -168 508q0 125 45 238t127 192q139 139 346 139q200 0 387 -158q-114 -117 -200 -276q-164 -295 -248 -653l-101 20q-19 6 -32 -10t-8.5 -35t26.5 -22l275 -60q10 -4 20.5 4.5t15.5 22.5q8 32 -26 43l-96 20q67 285 198 561q112 -39 221 -39q125 0 228 41
q125 -243 196 -565l-96 -20q-13 -5 -21.5 -16.5t-7.5 -24.5q4 -17 16.5 -25.5t26.5 -3.5l273 57q14 5 22 16.5t4 24.5q-1 17 -14.5 25.5t-26.5 3.5l-98 -20q0 1 -1 3t-1 3q-107 402 -248 655q-85 157 -190 268q182 158 383 158zM719 1223l-199 -45q-33 -11 -24 -45
q3 -35 43 -29l206 47l21 -45q-16 -20 -16 -37q0 -23 16 -38t37 -15t37 16q21 21 4 70l-125 325q-18 34 -49 21q-30 -15 -21 -49zM1604 1219l51 -103q20 -45 69 -61q63 -15 111 14q54 29 72.5 82t-6.5 100l-68 138q-4 16 -21.5 19.5t-27.5 -3.5l-273 -152q-19 -14 -19 -33.5
t18 -31.5t38 0q21 12 41 22q3 1 8.5 4.5t6.5 4.5zM858 1341q0 -29 18.5 -48t45.5 -19q28 0 46.5 19.5t18.5 45.5q0 30 -18 49t-47 19q-28 0 -46 -19.5t-18 -46.5zM1212 1036q-89 0 -184 29q106 179 191 266q102 -116 186 -264q-88 -31 -193 -31zM1720 1149l-53 106l119 66
l49 -102q12 -25 2 -49t-35 -37q-23 -12 -47.5 -9t-34.5 25zM430 741l35 103l229 -82q38 -13 47 22q5 15 -0.5 29t-21.5 18l-232 84l29 97q9 36 -20 47q-18 5 -32 -1.5t-18 -23.5l-86 -270q-5 -14 2 -28.5t23 -18.5q14 -5 27.5 1.5t17.5 22.5zM2085 825l-78 183q-9 15 -22 20
q-18 4 -29 -2l-260 -127q-28 -15 -19 -49l97 -215q14 -33 47 -19q14 6 19.5 21t-1.5 27l-80 184l68 31l31 -68q14 -32 47 -18t18 49l-31 69l64 31l63 -147q6 -14 20.5 -19.5t28.5 0.5q12 6 17.5 20.5t-0.5 28.5zM1513 199q0 37 -36 37h-359l63 36t64 40t67.5 48t58 53
t51.5 63t31 68.5t13 78.5q0 100 -66 177t-181 77q-112 0 -189.5 -67t-77.5 -171q0 -73 51 -131.5t127 -58.5q60 0 107 38t47 111q0 49 -21.5 69.5t-50.5 20.5t-47 -19t-18 -46q0 -30 33 -56q1 -4 1 -14t-15 -20.5t-40 -10.5q-44 0 -70 38t-26 81q0 74 50 119t132 45
q83 0 127.5 -53t44.5 -127q0 -44 -18 -85t-52.5 -77.5t-67.5 -63.5t-79 -59q-45 -29 -94.5 -56t-77 -41.5t-30.5 -17.5q-19 -19 -9 -41q4 -10 14.5 -16t18.5 -6h486q38 0 38 37zM1149 6q0 -29 19 -48t44 -19q29 0 49.5 20t20.5 45q0 29 -20.5 48.5t-49.5 19.5
q-28 0 -45.5 -19.5t-17.5 -46.5z" />
    <glyph glyph-name="nine.denominator" horiz-adv-x="706" 
d="M59 584q0 133 79 211.5t204 78.5q138 0 217.5 -100.5t79.5 -284.5v-36q0 -244 -78.5 -355.5t-230.5 -111.5q-111 0 -180.5 60.5t-73.5 168.5h106q7 -70 49.5 -104.5t102.5 -34.5q194 0 194 342v43q-23 -67 -81 -105.5t-134 -38.5q-111 0 -182.5 73t-71.5 194zM174 592
q0 -90 47 -140.5t121 -50.5q75 0 122.5 51t47.5 144q0 80 -46 133t-122 53q-75 0 -122.5 -50t-47.5 -140z" />
    <glyph glyph-name="nine.numerator" horiz-adv-x="706" 
d="M59 1155q0 133 79 212t204 79q138 0 217.5 -100.5t79.5 -284.5v-37q0 -244 -78.5 -355.5t-230.5 -111.5q-111 0 -180.5 60.5t-73.5 168.5h106q7 -70 49.5 -104.5t102.5 -34.5q194 0 194 342v43q-23 -67 -81 -105t-134 -38q-111 0 -182.5 72.5t-71.5 193.5zM174 1163
q0 -90 47 -140t121 -50q75 0 122.5 50.5t47.5 143.5q0 80 -46 133.5t-122 53.5q-74 0 -122 -50.5t-48 -140.5z" />
    <glyph glyph-name="nine.posf" horiz-adv-x="1032" 
d="M63 655q0 210 121.5 334.5t309.5 124.5q217 0 336.5 -160.5t119.5 -455.5v-62q0 -201 -32 -345.5t-95 -231.5t-149.5 -127.5t-202.5 -40.5q-164 0 -269.5 93t-109.5 261h123q8 -81 48 -137.5t94 -80.5t118 -24q176 0 259 150.5t83 460.5v59q-38 -116 -131.5 -182
t-218.5 -66q-175 0 -289.5 118t-114.5 312zM201 666q0 -152 83.5 -242t209.5 -90q131 0 215 89t84 249q0 140 -83.5 233.5t-213.5 93.5q-128 0 -211.5 -89.5t-83.5 -243.5z" />
    <glyph glyph-name="nine.tnum" horiz-adv-x="1093" 
d="M78 981q0 216 126.5 346.5t321.5 130.5q224 0 348.5 -166.5t124.5 -476.5v-65q0 -208 -33 -358t-98 -241t-155.5 -133.5t-212.5 -42.5q-169 0 -279.5 97.5t-114.5 271.5h130q11 -124 88.5 -188t181.5 -64q183 0 269.5 157t86.5 480v59q-41 -119 -138 -187.5t-226 -68.5
q-183 0 -301.5 122t-118.5 327zM219 991q0 -160 87.5 -253t219.5 -93q135 0 222.5 93.5t87.5 256.5q0 147 -86.5 245.5t-223.5 98.5q-133 0 -220 -94t-87 -254z" />
    <glyph glyph-name="one.denominator" horiz-adv-x="389" 
d="M291 0h-109v717q-39 -31 -151 -45v88q128 7 190 102h70v-862z" />
    <glyph glyph-name="one.numerator" horiz-adv-x="389" 
d="M291 571h-109v717q-39 -31 -151 -45v88q127 7 190 103h70v-863z" />
    <glyph glyph-name="one.posf" horiz-adv-x="559" 
d="M416 0h-133v909q-91 -63 -244 -73v104q197 10 287 152h90v-1092z" />
    <glyph glyph-name="one.tnum" horiz-adv-x="1093" 
d="M719 0h-139v1245q-120 -86 -334 -86v115q267 -3 381 160h92v-1434z" />
    <glyph glyph-name="orn1" horiz-adv-x="1439" 
d="M766 1077q130 0 239.5 -45t181 -119.5t111 -169.5t39.5 -196q0 -85 -23 -166.5t-72 -155.5t-118.5 -129t-171 -88t-221.5 -33q-126 0 -240 47.5t-200.5 133t-137.5 215t-51 282.5q0 124 24.5 231.5t66.5 188.5t100 147.5t123.5 110.5t138.5 74t144 43.5t141 13.5
q239 0 405 -86v-194q-186 102 -385 102q-204 0 -353 -121.5t-208 -345.5q84 128 204.5 194t262.5 66z" />
    <glyph glyph-name="orn2" horiz-adv-x="1439" 
d="M674 360q-130 0 -239.5 45t-181 120t-111.5 170t-40 196q0 85 23 166.5t72 155t119 129t171.5 88t221.5 32.5q126 0 240 -47.5t200 -132.5t137 -214.5t51 -283.5q0 -171 -46.5 -311.5t-121.5 -231t-173 -152t-197 -88t-199 -26.5q-239 0 -405 86v195q186 -102 385 -102
q204 0 353 121.5t208 345.5q-84 -128 -204.5 -194.5t-262.5 -66.5z" />
    <glyph glyph-name="orn3" horiz-adv-x="1269" 
d="M1167 1434v-7l-755 -399h755v-1028h-1065v1028l779 406h286z" />
    <glyph glyph-name="orn4" horiz-adv-x="1269" 
d="M102 0v6l756 400h-756v1028h1065v-1028l-778 -406h-287z" />
    <glyph glyph-name="orn5" horiz-adv-x="1718" 
d="M856 -18l-754 735l756 737l758 -735z" />
    <glyph glyph-name="parenleft.case" horiz-adv-x="550" 
d="M74 692v27q0 284 120.5 541t323.5 419v-127q-35 -37 -68.5 -81t-78 -123t-77.5 -165.5t-56 -208.5t-23 -251v-35q0 -129 23 -251t56 -208.5t77.5 -165.5t78 -123t68.5 -81v-127q-203 161 -323.5 419t-120.5 541z" />
    <glyph glyph-name="parenright.case" horiz-adv-x="552" 
d="M33 -268v127q35 37 68.5 81t78 123t77.5 165.5t56 208.5t23 251v35q0 129 -23 251t-56 208.5t-77.5 165.5t-78 123t-68.5 81v127q205 -163 325.5 -419.5t120.5 -540.5v-27q0 -282 -121 -539.5t-325 -420.5z" />
    <glyph glyph-name="questiondown.case" horiz-adv-x="868" 
d="M358 1434h168v-211h-168v211zM676 338v76h135v-90q0 -150 -96 -249.5t-277 -99.5q-175 0 -269.5 90.5t-94.5 231.5q0 80 31 160t75 145t88.5 127t75.5 128t31 126v45h133v-61q0 -60 -29.5 -128t-71 -131t-83.5 -125.5t-71.5 -131.5t-29.5 -129q0 -101 57.5 -160.5
t165.5 -59.5q105 0 167.5 59t62.5 177z" />
    <glyph glyph-name="revcommaaccent" horiz-adv-x="405" 
d="M217 1593h80l-104 -223h88v-211h-168v211z" />
    <glyph glyph-name="seven.denominator" horiz-adv-x="583" 
d="M29 764v98h528v-76l-326 -784h-120l325 762h-407z" />
    <glyph glyph-name="seven.numerator" horiz-adv-x="583" 
d="M29 1335v99h528v-76l-326 -785h-120l325 762h-407z" />
    <glyph glyph-name="seven.posf" horiz-adv-x="864" 
d="M23 969v123h806v-88l-520 -1289h-145l518 1254h-659z" />
    <glyph glyph-name="seven.tnum" horiz-adv-x="1093" 
d="M121 1307v127h842v-93l-543 -1341h-152l543 1307h-690z" />
    <glyph glyph-name="sevenninths" horiz-adv-x="1679" 
d="M1335 1556l-1085 -1679h-107l1086 1679h106zM55 1335v99h529v-76l-326 -785h-121l326 762h-408zM1032 584q0 133 79 211.5t204 78.5q138 0 217.5 -100.5t79.5 -284.5v-36q0 -244 -78.5 -355.5t-230.5 -111.5q-111 0 -180.5 60.5t-73.5 168.5h106q7 -70 49.5 -104.5
t102.5 -34.5q194 0 194 342v43q-23 -67 -81 -105.5t-134 -38.5q-111 0 -182.5 73t-71.5 194zM1147 592q0 -90 47 -140.5t121 -50.5q75 0 122.5 51t47.5 144q0 80 -46 133t-122 53q-75 0 -122.5 -50t-47.5 -140z" />
    <glyph glyph-name="six.denominator" horiz-adv-x="706" 
d="M647 276q0 -133 -77.5 -211.5t-202.5 -78.5q-138 0 -218.5 100.5t-80.5 284.5v37q0 243 79 354.5t232 111.5q111 0 179.5 -60.5t72.5 -168.5h-105q-7 68 -49.5 103.5t-101.5 35.5q-197 0 -197 -342v-43q23 67 82 105.5t135 38.5q111 0 181.5 -73t70.5 -194zM535 268
q0 89 -48 140t-120 51q-76 0 -124 -50.5t-48 -144.5q0 -81 46.5 -134.5t123.5 -53.5q74 0 122 51t48 141z" />
    <glyph glyph-name="six.numerator" horiz-adv-x="706" 
d="M647 848q0 -133 -77.5 -212t-202.5 -79q-138 0 -218.5 100.5t-80.5 284.5v37q0 244 79 355.5t232 111.5q111 0 179.5 -60.5t72.5 -168.5h-105q-7 68 -49.5 103.5t-101.5 35.5q-197 0 -197 -342v-43q23 67 82 105t135 38q111 0 181.5 -72.5t70.5 -193.5zM535 840
q0 89 -48 139.5t-120 50.5q-77 0 -124.5 -50t-47.5 -144q0 -81 47 -135t123 -54q74 0 122 51.5t48 141.5z" />
    <glyph glyph-name="six.posf" horiz-adv-x="1050" 
d="M977 434q0 -210 -121 -334.5t-311 -124.5q-216 0 -335.5 160.5t-119.5 458.5v61q0 201 32 345t95 231t149.5 127.5t202.5 40.5q106 0 189.5 -39.5t135 -120.5t54.5 -192h-125q-6 61 -30 108.5t-60 75t-78.5 41.5t-89.5 14q-177 0 -260.5 -150t-83.5 -460v-60
q41 117 134 182.5t218 65.5q175 0 289.5 -118t114.5 -312zM840 424q0 152 -83.5 242t-209.5 90q-131 0 -215 -88.5t-84 -247.5q0 -142 82.5 -236t214.5 -94q128 0 211.5 90.5t83.5 243.5z" />
    <glyph glyph-name="six.tnum" horiz-adv-x="1093" 
d="M1018 455q0 -218 -127 -349t-324 -131q-224 0 -348.5 166.5t-124.5 476.5v66q0 210 33.5 360t99 240.5t156 132t211.5 41.5q169 0 280 -97t115 -271h-131q-11 124 -88.5 187.5t-181.5 63.5q-183 0 -270 -156t-87 -478v-62q41 119 138.5 187.5t226.5 68.5q182 0 302 -122
t120 -324zM874 442q0 160 -86.5 253t-218.5 93q-136 0 -223.5 -93t-87.5 -257q0 -147 86.5 -245.5t222.5 -98.5q133 0 220 94t87 254z" />
    <glyph glyph-name="sixsevenths" horiz-adv-x="1865" 
d="M1538 1556l-1085 -1679h-107l1086 1679h106zM651 848q0 -133 -77.5 -212t-202.5 -79q-138 0 -218.5 100.5t-80.5 284.5v37q0 244 79 355.5t232 111.5q111 0 179.5 -60.5t72.5 -168.5h-105q-7 68 -49.5 103.5t-101.5 35.5q-197 0 -197 -342v-43q23 67 82 105t135 38
q111 0 181.5 -72.5t70.5 -193.5zM539 840q0 89 -48 139.5t-120 50.5q-77 0 -124.5 -50t-47.5 -144q0 -81 47 -135t123 -54q74 0 122 51.5t48 141.5zM1284 764v98h528v-76l-325 -784h-121l326 762h-408z" />
    <glyph glyph-name="sterling.alt" horiz-adv-x="1361" 
d="M184 672h248q-4 208 -4 354q0 185 118 308.5t316 123.5q164 0 264.5 -91t100.5 -234q0 -113 -79.5 -194t-199.5 -81q-47 0 -121 23v106q52 -24 105 -24q81 0 125.5 50.5t44.5 119.5q0 103 -70 156.5t-166 53.5q-127 0 -211 -81q-86 -83 -86 -248q0 -134 4 -342h437v-101
h-437v-28q0 -203 -16 -275q23 -11 85.5 -43t94 -46.5t80.5 -35t88 -29t74 -8.5q33 0 62 8t57.5 27.5t45.5 59t17 94.5v72h115v-93q0 -138 -78 -215t-229 -77q-55 0 -112.5 13.5t-123.5 44t-104.5 51t-110.5 61.5q-1 -3 -4 -6.5t-4 -6.5q-95 -157 -260 -157q-86 0 -142.5 50
t-56.5 128q0 86 62.5 138t158.5 52q87 0 166 -33v9q0 85 -4 245h-250v101zM158 166q0 -45 31.5 -70.5t78.5 -25.5q50 0 89.5 34.5t62.5 100.5q-97 51 -154 51q-51 0 -79.5 -24t-28.5 -66z" />
    <glyph glyph-name="three.denominator" horiz-adv-x="690" 
d="M178 623h-108q0 104 75.5 177.5t202.5 73.5q121 0 193.5 -63t72.5 -166q0 -75 -42 -130t-119 -75q81 -17 126.5 -73.5t45.5 -135.5q0 -107 -78 -176t-207 -69q-132 0 -206.5 63.5t-74.5 179.5h111q1 -71 48 -111t122 -40q77 0 124.5 45t47.5 113q0 72 -50 115.5
t-134 43.5h-45v82h45q84 0 131 44t47 114q0 66 -44.5 106.5t-117.5 40.5q-81 0 -124.5 -47t-41.5 -112z" />
    <glyph glyph-name="three.numerator" horiz-adv-x="690" 
d="M178 1194h-108q0 105 75.5 178.5t202.5 73.5q121 0 193.5 -63t72.5 -166q0 -75 -42 -130t-119 -75q81 -17 126.5 -73.5t45.5 -135.5q0 -107 -78 -176.5t-207 -69.5q-132 0 -206.5 64t-74.5 180h111q1 -71 48 -111.5t122 -40.5q77 0 124.5 45t47.5 113q0 72 -50 116
t-134 44h-45v82h45q84 0 131 43.5t47 113.5q0 66 -44.5 107t-117.5 41q-81 0 -124.5 -47.5t-41.5 -112.5z" />
    <glyph glyph-name="three.posf" horiz-adv-x="1005" 
d="M211 723h-133q-2 76 27 146.5t83 125t136 87t180 32.5q183 0 295 -100t112 -262q0 -122 -69 -211t-193 -121q133 -29 206 -120.5t73 -221.5q0 -167 -121 -277t-313 -110q-197 0 -314 98.5t-121 273.5h138q4 -118 85 -187t212 -69q133 0 217 78q82 76 82 197
q0 126 -89 202t-233 76h-65v109h65q145 0 227 75t82 195q0 114 -76.5 187t-203.5 73q-141 0 -217.5 -82t-71.5 -194z" />
    <glyph glyph-name="three.tnum" horiz-adv-x="1093" 
d="M244 1051h-138q-2 80 27.5 153.5t84.5 130t141 90t190 33.5q191 0 306.5 -105.5t115.5 -273.5q0 -125 -72 -217t-201 -127q139 -29 216 -124.5t77 -231.5q0 -174 -126 -289t-326 -115q-205 0 -327 102.5t-126 284.5h143q4 -122 88 -194t220 -72q140 0 225.5 81t85.5 206
q0 130 -92 209.5t-240 79.5h-72v114h72q149 0 234.5 78.5t85.5 204.5q0 118 -79.5 193t-211.5 75q-75 0 -135 -24.5t-96 -65t-54 -91t-16 -105.5z" />
    <glyph glyph-name="threesevenths" horiz-adv-x="1855" 
d="M1528 1556l-1086 -1679h-106l1085 1679h107zM1274 764v98h528v-76l-325 -784h-121l325 762h-407zM193 1194h-109q0 115 81 183.5t197 68.5q113 0 190 -59.5t77 -169.5q0 -77 -43.5 -130.5t-118.5 -74.5q80 -15 126 -71t46 -138q0 -117 -82 -181.5t-203 -64.5
q-126 0 -203 61t-77 183h110q1 -71 49 -111.5t121 -40.5t122.5 43.5t49.5 114.5q0 76 -53 118t-131 42h-45v82h45q77 0 127.5 41t50.5 116q0 68 -46 108t-116 40q-87 0 -127 -49q-41 -53 -38 -111z" />
    <glyph glyph-name="two.denominator" horiz-adv-x="671" 
d="M612 98v-98h-542v90q415 313 415 528q0 70 -40 115t-115 45q-74 0 -116 -45.5t-42 -124.5q0 -43 12 -80h-110q-11 57 -11 88q0 118 74 188t201 70q120 0 191 -66.5t71 -182.5q0 -117 -92 -244.5t-289 -282.5h393z" />
    <glyph glyph-name="two.numerator" horiz-adv-x="671" 
d="M612 670v-99h-542v91q415 313 415 528q0 70 -40 115t-115 45q-74 0 -116 -45.5t-42 -124.5q0 -43 12 -80h-110q-11 57 -11 88q0 118 74 188t201 70q119 0 190.5 -67t71.5 -183q0 -117 -91.5 -244t-289.5 -282h393z" />
    <glyph glyph-name="two.posf" horiz-adv-x="958" 
d="M893 123v-123h-813v113q633 382 633 649q0 107 -65 171t-179 64q-111 0 -182.5 -71t-71.5 -187q0 -57 27 -116h-133q-27 79 -27 135q0 156 108.5 256t284.5 100q168 0 273.5 -93t105.5 -245q0 -89 -40.5 -174.5t-120.5 -167t-180 -155.5t-237 -156h617z" />
    <glyph glyph-name="two.tnum" horiz-adv-x="1093" 
d="M989 127v-127h-866v119q161 132 282 248.5t216.5 234t145.5 227.5t50 209q0 126 -72.5 209.5t-205.5 83.5q-135 0 -212 -83t-77 -224q0 -72 20 -139h-137q-22 86 -22 153q0 190 118.5 305t315.5 115q190 0 304 -111.5t114 -297.5q0 -195 -159.5 -420t-502.5 -502h688z
" />
    <glyph glyph-name="twoninths" horiz-adv-x="1843" 
d="M1509 1556l-1085 -1679h-107l1086 1679h106zM618 670v-99h-542v91q416 314 416 528q0 70 -40.5 115t-115.5 45q-74 0 -116 -45.5t-42 -124.5q0 -43 12 -80h-110q-10 52 -10 88q0 118 73.5 188t200.5 70q119 0 190.5 -67t71.5 -183q0 -117 -91.5 -244t-289.5 -282h393z
M1204 584q0 133 79 211.5t204 78.5q138 0 217.5 -100.5t79.5 -284.5v-36q0 -244 -78.5 -355.5t-230.5 -111.5q-111 0 -180.5 60.5t-73.5 168.5h106q7 -70 49.5 -104.5t102.5 -34.5q194 0 194 342v43q-23 -67 -81 -105.5t-134 -38.5q-111 0 -182.5 73t-71.5 194zM1319 592
q0 -90 47 -140.5t121 -50.5q75 0 122.5 51t47.5 144q0 80 -46 133t-122 53q-75 0 -122.5 -50t-47.5 -140z" />
    <glyph glyph-name="twosevenths" horiz-adv-x="1847" 
d="M1520 1556l-1086 -1679h-106l1085 1679h107zM1266 764v98h528v-76l-326 -784h-120l325 762h-407zM631 670v-99h-543v91q416 313 416 528q0 72 -42 116t-114 44q-76 0 -117 -46.5t-41 -123.5q0 -45 13 -80h-111q-10 48 -10 88q0 122 75.5 190t198.5 68q119 0 190.5 -66
t71.5 -184q0 -60 -26 -124.5t-63 -117t-92.5 -109.5t-99.5 -94.5t-99 -80.5h393z" />
    <glyph glyph-name="zero.denominator" horiz-adv-x="700" 
d="M350 -14q-282 0 -282 444t282 444q140 0 211.5 -116.5t71.5 -327.5t-71.5 -327.5t-211.5 -116.5zM350 82q168 0 168 348t-168 348q-170 0 -170 -348t170 -348z" />
    <glyph glyph-name="zero.numerator" horiz-adv-x="700" 
d="M350 557q-282 0 -282 444q0 214 69 329.5t213 115.5q140 0 211.5 -117t71.5 -328t-71.5 -327.5t-211.5 -116.5zM350 653q168 0 168 348q0 349 -168 349q-170 0 -170 -349q0 -348 170 -348z" />
    <glyph glyph-name="zero.posf" horiz-adv-x="1030" 
d="M516 1114q91 0 164.5 -31.5t123.5 -85t84 -126.5t49 -154t15 -170q0 -90 -15 -172t-49 -155.5t-84 -127.5t-123.5 -85.5t-164.5 -31.5q-112 0 -198.5 47.5t-137.5 129t-76.5 181.5t-25.5 214q0 112 25.5 211t76.5 180t137.5 128.5t198.5 47.5zM516 995q-79 0 -139 -37.5
t-94.5 -102t-51 -142t-16.5 -166.5q0 -90 17 -168t51 -143.5t94 -103.5t139 -38q80 0 139.5 38t93.5 103.5t50 143.5t16 168q0 89 -16 166.5t-50 142t-93.5 102t-139.5 37.5z" />
    <glyph glyph-name="zero.tnum" horiz-adv-x="1093" 
d="M545 -25q-223 0 -334 194t-111 548t111 547.5t334 193.5q225 0 336.5 -193.5t111.5 -547.5t-111.5 -548t-336.5 -194zM545 98q151 0 227 163t76 456q0 295 -75.5 456.5t-227.5 161.5q-151 0 -225 -161t-74 -457q0 -294 74 -456.5t225 -162.5z" />
    </font>
</defs>
</svg>
